<?xml version="1.0" encoding="UTF-8" standalone="no"?>
<!-- Created with Inkscape (http://www.inkscape.org/) -->

<svg
   xmlns:dc="http://purl.org/dc/elements/1.1/"
   xmlns:cc="http://creativecommons.org/ns#"
   xmlns:rdf="http://www.w3.org/1999/02/22-rdf-syntax-ns#"
   xmlns:svg="http://www.w3.org/2000/svg"
   xmlns="http://www.w3.org/2000/svg"
   xmlns:sodipodi="http://sodipodi.sourceforge.net/DTD/sodipodi-0.dtd"
   xmlns:inkscape="http://www.inkscape.org/namespaces/inkscape"
   width="210mm"
   height="153mm"
   viewBox="0 0 210 153"
   version="1.1"
   id="svg8"
   inkscape:version="0.92.2 (5c3e80d, 2017-08-06)"
   sodipodi:docname="activeStep2.svg">
  <defs
     id="defs2" />
  <sodipodi:namedview
     id="base"
     pagecolor="#ffffff"
     bordercolor="#666666"
     borderopacity="1.0"
     inkscape:pageopacity="0.0"
     inkscape:pageshadow="2"
     inkscape:zoom="0.49497475"
     inkscape:cx="84.294598"
     inkscape:cy="453.66518"
     inkscape:document-units="mm"
     inkscape:current-layer="layer1"
     showgrid="false"
     inkscape:window-width="1366"
     inkscape:window-height="745"
     inkscape:window-x="-8"
     inkscape:window-y="-8"
     inkscape:window-maximized="1" />
  <metadata
     id="metadata5">
    <rdf:RDF>
      <cc:Work
         rdf:about="">
        <dc:format>image/svg+xml</dc:format>
        <dc:type
           rdf:resource="http://purl.org/dc/dcmitype/StillImage" />
        <dc:title></dc:title>
      </cc:Work>
    </rdf:RDF>
  </metadata>
  <g
     inkscape:label="Layer 1"
     inkscape:groupmode="layer"
     id="layer1"
     transform="translate(0,-144)">
    <g
       id="g847"
       transform="matrix(5.5913695,0,0,5.5913695,-779.2317,-1224.8243)">
      <path
         style="fill:#d1d1d1;stroke-width:0.26458335"
         d="m 173.93519,270.67456 c -0.61846,-0.3729 -1.12448,-0.77215 -1.12448,-0.88721 0,-0.11507 -0.80367,-0.40452 -1.78593,-0.64323 -1.76882,-0.42984 -1.82331,-0.4264 -5.68525,0.35935 l -3.8993,0.79335 -4.14421,-1.91326 c -2.27932,-1.0523 -4.26287,-2.10137 -4.40789,-2.33127 -0.41041,-0.65063 0.009,-1.80953 0.75872,-2.09442 0.51462,-0.19566 1.03331,-0.10326 2.29238,0.40834 0.97644,0.39676 1.72347,0.56501 1.86781,0.42067 0.14364,-0.14364 0.57546,-0.14449 1.07193,-0.002 1.42767,0.40945 1.44604,0.38656 1.40357,-1.74879 -0.0326,-1.63762 -0.12088,-2.0131 -0.50194,-2.1343 -0.97438,-0.30991 -0.89535,-2.07024 0.13609,-3.03117 0.55705,-0.51897 0.54909,-0.52022 -3.31875,-0.52022 h -3.87715 l -0.90403,-0.79375 c -0.49721,-0.43656 -1.03524,-0.79375 -1.19561,-0.79375 -0.37091,0 -3.20458,1.36808 -4.02737,1.94438 -0.87687,0.61418 -1.29973,0.54382 -1.29973,-0.21628 0,-0.47188 -0.11015,-0.61089 -0.39688,-0.50086 -0.3366,0.12917 -0.39687,-0.25278 -0.39687,-2.51505 v -2.66735 l 0.78061,-0.40367 c 0.94675,-0.48958 1.59922,-0.51924 1.60469,-0.0729 0.003,0.23101 0.0627,0.24224 0.19844,0.0372 0.10691,-0.16142 1.32548,-0.75673 2.70792,-1.32291 l 2.51355,-1.02942 5.15937,0.027 c 10.02981,0.0524 10.34676,0.0638 10.73281,0.38417 0.52565,0.43625 0.47459,1.21375 -0.11867,1.80702 -0.32405,0.32404 -0.45364,0.73232 -0.3705,1.16724 0.18804,0.98371 -0.88721,1.61885 -2.44361,1.44343 -0.99703,-0.11238 -1.18545,-0.0612 -1.18545,0.32204 0,0.47445 -0.78362,1.33142 -1.21747,1.33142 -0.45821,0 -0.27934,2.20735 0.21927,2.70597 0.66646,0.66645 0.58376,1.71089 -0.19242,2.43023 -0.58648,0.54353 -0.66146,0.82702 -0.66146,2.50091 0,1.03834 0.10792,1.88789 0.23981,1.88789 0.1319,0 0.17652,-0.24204 0.0992,-0.53787 -0.0822,-0.3144 0.0562,-0.75543 0.33327,-1.06154 0.42534,-0.46999 0.78809,-0.51911 3.53886,-0.47916 2.4194,0.0351 3.44503,0.17315 4.86954,0.65526 1.36036,0.46039 1.91609,0.54111 2.25746,0.32792 0.33461,-0.20897 0.70967,-0.1755 1.43654,0.12821 l 0.98369,0.41101 v 3.45309 c 0,3.93599 -0.0282,3.97381 -2.05052,2.75443 z m -8.10025,-2.09106 c 2.71822,-0.51887 3.75434,-0.61586 4.52322,-0.42341 0.54854,0.1373 1.32477,0.32338 1.72495,0.4135 l 0.7276,0.16387 v -2.03351 c 0,-1.11844 -0.069,-1.96447 -0.15343,-1.88008 -0.0844,0.0844 -0.97554,-0.12618 -1.98034,-0.46794 l -1.8269,-0.62136 -3.50977,1.18929 c -2.80009,0.94882 -3.75051,1.1617 -4.70039,1.05284 l -1.19062,-0.13646 0.99218,0.41353 c 0.54571,0.22745 0.99219,0.59213 0.99219,0.81042 0,0.21829 -0.14883,0.33639 -0.33073,0.26245 -6.44232,-2.61866 -8.35225,-3.03535 -7.40428,-1.61539 0.30024,0.44973 7.25652,3.54044 7.97429,3.54301 0.34988,0.001 2.2228,-0.30059 4.16203,-0.67076 z m -0.93877,-4.83422 c -0.74978,-0.0538 -1.23929,0.0399 -1.38174,0.26458 -0.41483,0.65416 -0.22769,0.69579 1.15708,0.25742 l 1.3858,-0.43869 z m -4.87481,-4.61305 c -0.0734,-0.1819 -0.13345,-0.0331 -0.13345,0.33073 0,0.3638 0.06,0.51263 0.13345,0.33073 0.0734,-0.1819 0.0734,-0.47956 0,-0.66146 z m 1.67685,-2.18281 c 0,-0.21828 -0.0468,-0.39688 -0.10398,-0.39688 -0.0572,0 -0.17252,0.1786 -0.25628,0.39688 -0.0838,0.21828 -0.037,0.39687 0.10398,0.39687 0.14096,0 0.25628,-0.17859 0.25628,-0.39687 z m -14.55208,-2.78744 c 0,-1.4049 -0.10787,-2.37194 -0.26458,-2.37194 -0.15679,0 -0.26459,0.97014 -0.26459,2.38125 0,1.41111 -0.10779,2.38125 -0.26458,2.38125 -0.14552,0 -0.26458,0.12326 -0.26458,0.2739 0,0.18569 0.17039,0.1827 0.52916,-0.009 0.46876,-0.25087 0.52917,-0.55399 0.52917,-2.65514 z m 11.35455,1.06237 c -1.56648,-0.17151 -2.35872,-0.84356 -2.35872,-2.0009 0,-1.29812 0.98751,-1.96257 2.91679,-1.96257 1.95429,0 2.66552,0.52848 2.88064,2.14047 0.12524,0.93853 0.25923,1.16682 0.68487,1.16682 0.47013,0 0.53797,-0.20271 0.60811,-1.81711 0.12378,-2.84919 0.19218,-2.81584 -5.74235,-2.79979 -4.88605,0.0132 -4.93542,0.0192 -7.16889,0.8661 l -2.24896,0.8528 -0.13229,2.17713 c -0.0728,1.19742 -0.10571,2.17689 -0.0732,2.1766 0.0325,-2.9e-4 0.58335,-0.25524 1.22414,-0.56656 1.34393,-0.65293 2.12758,-0.55172 3.28793,0.42464 0.71023,0.59762 1.0291,0.65883 3.7907,0.72768 2.99465,0.0747 3.0172,0.0707 3.30149,-0.58628 0.27904,-0.64481 0.25461,-0.66492 -0.97024,-0.79903 z m 2.40378,0.76663 c 0,-0.46917 -0.0653,-0.50737 -0.39687,-0.23219 -0.21828,0.18116 -0.39688,0.43386 -0.39688,0.56157 0,0.1277 0.1786,0.23218 0.39688,0.23218 0.22812,0 0.39687,-0.23878 0.39687,-0.56156 z m 0.14631,-3.04865 c -0.15559,-0.61993 -0.23918,-0.64285 -2.07244,-0.56841 l -1.91032,0.0776 v 0.79375 c 0,0.78938 0.01,0.79448 1.76452,0.92604 0.9705,0.0728 1.86346,0.2329 1.98438,0.35585 0.28685,0.29169 0.44161,-0.75709 0.23386,-1.58481 z m 5.3777,-0.0684 c 0.6583,-0.41697 0.1013,-0.6963 -1.18454,-0.59403 -1.21881,0.0969 -1.2403,0.11284 -0.61827,0.45738 0.75316,0.41717 1.29506,0.45825 1.80281,0.13665 z m 0.77155,-2.02801 c 0.91737,-0.64255 0.45642,-0.90794 -1.57698,-0.90794 -1.59173,0 -1.84126,0.0613 -1.70417,0.41851 0.0883,0.23019 0.16059,0.52784 0.16059,0.66146 0,0.4102 2.48488,0.27321 3.12056,-0.17203 z m 7.46278,8.37188 c 0,-0.37865 0.16992,-0.54857 0.54856,-0.54857 0.67804,0 0.60112,0.87573 -0.0886,1.00855 -0.3175,0.0611 -0.45998,-0.0813 -0.45998,-0.45998 z m -33.80052,-9.99571 c -0.91607,-0.17644 -0.83828,-1.68293 0.10963,-2.12304 0.6208,-0.28823 0.77184,-0.25436 1.32286,0.29667 0.54516,0.54515 0.57274,0.66296 0.22316,0.95309 -0.21938,0.18208 -0.39888,0.49506 -0.39888,0.69553 0,0.36637 -0.15999,0.389 -1.25677,0.17775 z m 29.83177,-2.84037 c 0,-0.22687 -0.1786,-0.41249 -0.39688,-0.41249 -0.21828,0 -0.39687,-0.13295 -0.39687,-0.29544 0,-0.1625 0.2185,-0.2383 0.48556,-0.16847 0.39076,0.10219 0.46222,0.005 0.36603,-0.4983 -0.0679,-0.35536 0.008,-0.62529 0.1759,-0.62529 0.16248,0 0.29542,0.17859 0.29542,0.39688 0,0.21828 0.1786,0.39687 0.39688,0.39687 0.21828,0 0.39687,0.11906 0.39687,0.26458 0,0.14552 -0.17859,0.26459 -0.39687,0.26459 -0.21828,0 -0.39688,0.17156 -0.39688,0.38126 0,0.20969 -0.11906,0.45484 -0.26458,0.54478 -0.14552,0.0899 -0.26458,-0.0221 -0.26458,-0.24897 z m -11.64167,-8.2177 c 0,-0.21828 -0.13394,-0.36711 -0.29766,-0.33073 -0.16371,0.0364 -0.35222,-0.0827 -0.41892,-0.26458 -0.15467,-0.42183 0.51018,-0.4313 0.92825,-0.0132 0.38528,0.38528 0.41792,1.00542 0.0529,1.00542 -0.14552,0 -0.26458,-0.1786 -0.26458,-0.39688 z m 0.3175,-0.71437 c -0.38528,-0.38529 -0.41792,-1.00542 -0.0529,-1.00542 0.14553,0 0.26459,0.17859 0.26459,0.39688 0,0.21828 0.17859,0.39687 0.39687,0.39687 0.21828,0 0.39688,0.11906 0.39688,0.26458 0,0.36501 -0.62014,0.33237 -1.00542,-0.0529 z"
         id="path861"
         inkscape:connector-curvature="0" />
      <path
         style="fill:#a1a1a1;stroke-width:0.26458335"
         d="m 174.31871,270.81918 c -0.55305,-0.29186 -1.06879,-0.69545 -1.14608,-0.89688 -0.0773,-0.20143 -0.99402,-0.56609 -2.03716,-0.81037 -1.86943,-0.43777 -1.94733,-0.43422 -5.43207,0.24711 -1.94449,0.38019 -3.77332,0.69125 -4.06406,0.69125 -0.29075,0 -2.31641,-0.80367 -4.50147,-1.78593 -4.35279,-1.95674 -4.8653,-2.41348 -4.07005,-3.62719 0.51834,-0.79108 1.26072,-0.85489 2.7111,-0.23303 0.56348,0.24159 1.61981,0.45724 2.34742,0.47921 0.7276,0.022 1.59546,0.13147 1.92857,0.24332 0.56095,0.18834 0.59114,0.14809 0.40899,-0.54537 -0.10816,-0.41179 -0.19014,-1.34403 -0.18219,-2.07163 0.0109,-0.99747 -0.10598,-1.40797 -0.47514,-1.66865 -0.69904,-0.49362 -0.65141,-2.09376 0.0857,-2.87836 l 0.57529,-0.61237 h -3.78151 -3.7815 l -0.90403,-0.79375 c -0.49722,-0.43656 -1.1557,-0.79375 -1.4633,-0.79375 -0.3076,0 -1.53673,0.53282 -2.73141,1.18404 -1.19468,0.65122 -2.24855,1.10763 -2.34194,1.01424 -0.0934,-0.0934 -0.1698,-0.38809 -0.1698,-0.65487 0,-0.26679 -0.11907,-0.48507 -0.26459,-0.48507 -0.15748,0 -0.26458,-0.99934 -0.26458,-2.46884 0,-2.29446 0.042,-2.49014 0.59531,-2.7706 1.32389,-0.67111 1.35035,-0.6284 1.27931,2.06444 -0.0365,1.38245 -0.17552,2.55323 -0.30901,2.60173 -0.29788,0.10825 -0.3249,0.83785 -0.031,0.83785 0.64271,0 0.84686,-0.79124 0.8499,-3.29406 l 0.003,-2.65906 2.7505,-0.99219 2.75051,-0.99219 h 4.8835 c 4.50384,0 4.9365,0.0417 5.56501,0.53607 0.37483,0.29484 0.75609,0.77109 0.84726,1.05833 0.31447,0.9908 3.83427,0.54286 3.83427,-0.48796 0,-0.17889 -0.77934,-0.32011 -2.02929,-0.36771 -1.33013,-0.0507 -2.06698,-0.19122 -2.13871,-0.408 -0.0814,-0.24598 0.42814,-0.33073 1.98828,-0.33073 1.75261,0 2.17548,0.0859 2.57046,0.52239 0.45431,0.50201 0.45333,0.55103 -0.0251,1.25677 -0.27385,0.40391 -0.55743,1.09029 -0.63019,1.5253 -0.17777,1.06284 -1.31574,1.63023 -2.52515,1.25905 -0.82245,-0.25241 -0.86854,-0.22894 -1.01805,0.51863 -0.10712,0.53559 -0.38721,0.87004 -0.88639,1.05841 -0.66547,0.25113 -0.72168,0.37645 -0.63787,1.42204 0.0505,0.63065 0.25891,1.28523 0.46302,1.45463 0.55447,0.46017 0.46114,1.93179 -0.15806,2.49216 -0.43767,0.39608 -0.52917,0.8149 -0.52917,2.42225 0,1.06885 0.0986,1.94337 0.21902,1.94337 0.12046,0 1.0432,-0.2932 2.05052,-0.65156 l 1.8315,-0.65157 -1.37975,-0.01 c -1.12132,-0.008 -1.43354,0.0906 -1.66692,0.52669 -0.15794,0.29512 -0.40026,0.46668 -0.53848,0.38126 -0.38706,-0.23922 -0.30158,-0.60298 0.27786,-1.18242 0.41963,-0.41962 0.88195,-0.52917 2.23334,-0.52917 0.9373,0 1.77337,0.11195 1.85794,0.24878 0.0949,0.15364 0.45265,0.14459 0.93533,-0.0237 0.62137,-0.21661 1.14892,-0.15243 2.57384,0.31313 1.88906,0.61722 2.40674,0.91986 2.09931,1.22729 -0.10276,0.10275 -1.02214,-0.0822 -2.04308,-0.41101 l -1.85624,-0.59785 -3.71142,1.23693 c -3.37099,1.12347 -3.81217,1.21134 -4.80991,0.95809 -1.49987,-0.38071 -1.53721,-0.19554 -0.0733,0.36353 1.15255,0.44017 1.59923,0.91812 0.85803,0.91812 -0.19176,0 -1.82352,-0.59641 -3.62612,-1.32536 -2.84381,-1.14999 -3.32758,-1.27524 -3.65627,-0.94656 -0.20834,0.20834 -0.31654,0.54105 -0.24045,0.73934 0.0761,0.1983 1.88395,1.15978 4.01745,2.13664 l 3.8791,1.77611 3.93722,-0.77428 c 3.69476,-0.7266 4.02392,-0.75119 5.34529,-0.39947 2.38982,0.63612 2.33412,0.67799 2.33412,-1.75448 0,-2.55401 0.29307,-3.03853 1.56886,-2.59379 0.45296,0.1579 0.94011,0.50487 1.08256,0.77104 0.14245,0.26617 0.25899,1.86099 0.25899,3.54404 0,3.38799 0.001,3.38636 -1.667,2.50607 z m 0.49196,-0.90959 c -0.28248,-0.21365 -0.6992,-0.38424 -0.92605,-0.37909 -0.26436,0.006 -0.17496,0.14514 0.24901,0.3875 0.86573,0.4949 1.33476,0.48907 0.67704,-0.008 z m -14.64352,-10.44263 c -0.0641,-0.43656 -0.16251,-0.79375 -0.21876,-0.79375 -0.0562,0 -0.10226,0.35719 -0.10226,0.79375 0,0.43656 0.0984,0.79375 0.21876,0.79375 0.12032,0 0.16634,-0.35719 0.10226,-0.79375 z m 1.69662,-2.50481 c 0.28091,-0.73204 -0.0333,-0.88575 -0.50864,-0.24883 -0.41477,0.55577 -0.42214,0.63697 -0.0578,0.63697 0.22964,0 0.48456,-0.17466 0.56648,-0.38814 z m -2.3869,-0.60404 c 0.0788,-0.25467 0.25469,-0.67138 0.39082,-0.92605 0.22267,-0.41656 0.0913,-0.46302 -1.30984,-0.46302 -1.71098,0 -2.16936,-0.30353 -2.30584,-1.52689 -0.0443,-0.39713 0.0941,-0.98996 0.30767,-1.31738 0.34763,-0.53305 0.60344,-0.59531 2.44588,-0.59531 2.34844,0 2.69265,0.20556 2.69265,1.60802 0,1.04912 0.54128,1.72048 1.18726,1.47259 0.30329,-0.11638 0.40024,-0.59198 0.40024,-1.9634 0,-2.8716 0.0936,-2.82105 -5.41584,-2.92521 l -4.66554,-0.0882 -2.44693,0.94811 c -1.3458,0.52145 -2.58984,0.9481 -2.76451,0.9481 -0.22359,0 -0.31759,0.70617 -0.31759,2.38571 v 2.3857 l 1.31412,-0.66591 c 0.72276,-0.36625 1.48541,-0.66592 1.69476,-0.66592 0.20935,0 0.87941,0.41672 1.48903,0.92605 l 1.1084,0.92604 h 3.02598 c 2.65091,0 3.04374,-0.0574 3.16928,-0.46302 z m 1.42759,-0.35904 c 0,-0.60785 -0.41098,-0.6613 -0.63315,-0.0823 -0.25908,0.67516 -0.18746,0.8981 0.23628,0.73549 0.21828,-0.0838 0.39687,-0.37768 0.39687,-0.65315 z m 0.31792,-2.2868 c -0.13697,-1.2943 -0.645,-1.65364 -2.33786,-1.65364 -1.1325,0 -1.4652,0.10788 -1.79801,0.58304 -0.34752,0.49616 -0.35506,0.66372 -0.0506,1.12448 0.28252,0.42756 0.74088,0.57334 2.17931,0.69315 1.00184,0.0834 1.88693,0.17274 1.96684,0.19844 0.0799,0.0257 0.0981,-0.39976 0.0403,-0.94547 z m 5.47067,-0.83436 c 0.20054,-0.12703 0.28281,-0.36333 0.18282,-0.52512 -0.22097,-0.35754 -2.79641,-0.3969 -2.79641,-0.0427 0,0.65003 1.84945,1.05185 2.61359,0.56785 z m 8.03038,6.27486 c 0.16353,-0.4906 0.73312,-0.57197 0.73312,-0.10473 0,0.23041 -0.18852,0.41892 -0.41892,0.41892 -0.23041,0 -0.3718,-0.14139 -0.3142,-0.31419 z m -33.65677,-9.97531 c -0.48849,-0.13607 -0.67193,-0.38497 -0.71992,-0.97685 -0.0529,-0.65209 0.0662,-0.84357 0.66532,-1.06971 0.62583,-0.23623 0.79276,-0.19189 1.17238,0.31139 0.36872,0.48882 0.38918,0.70205 0.12249,1.27661 -0.1761,0.37937 -0.37971,0.67883 -0.45247,0.66546 -0.0728,-0.0134 -0.42727,-0.10648 -0.7878,-0.2069 z m 0.52322,-1.08758 c 0,-0.14552 -0.0525,-0.26459 -0.11668,-0.26459 -0.0642,0 -0.19026,0.11907 -0.28019,0.26459 -0.0899,0.14552 -0.0374,0.26458 0.11667,0.26458 0.15411,0 0.2802,-0.11906 0.2802,-0.26458 z m 28.52539,-2.56199 c 0.191,-0.0764 0.4192,-0.067 0.50712,0.0209 0.0879,0.0879 -0.0684,0.15045 -0.34726,0.13896 -0.30823,-0.0127 -0.37092,-0.0754 -0.15986,-0.15985 z m 0.57878,-0.61301 c 0,-0.14552 0.12609,-0.26459 0.2802,-0.26459 0.15411,0 0.20661,0.11907 0.11667,0.26459 -0.0899,0.14552 -0.21602,0.26458 -0.2802,0.26458 -0.0642,0 -0.11667,-0.11906 -0.11667,-0.26458 z m -11.64167,-6.67191 c 0,-0.23526 -0.14883,-0.4878 -0.33073,-0.5612 -0.1819,-0.0734 -0.21166,-0.14103 -0.0661,-0.15029 0.14552,-0.009 0.44218,0.0954 0.65924,0.23268 0.31432,0.19872 0.32778,0.3164 0.0661,0.57803 -0.26164,0.26164 -0.32852,0.24144 -0.32852,-0.0992 z m 0.41068,-0.89134 c -0.39929,-0.29197 -0.44364,-0.44712 -0.19802,-0.69274 0.24562,-0.24563 0.31651,-0.22072 0.31651,0.11123 0,0.23526 0.14883,0.4809 0.33073,0.54586 0.1819,0.065 0.27101,0.18421 0.19802,0.265 -0.073,0.0808 -0.36425,-0.0224 -0.64724,-0.22935 z"
         id="path859"
         inkscape:connector-curvature="0" />
      <path
         style="fill:#67a0d7;stroke-width:0.26458335"
         d="m 174.53051,270.79168 c -0.58209,-0.29136 -1.21065,-0.72395 -1.39681,-0.96131 -0.18616,-0.23736 -1.13866,-0.6153 -2.11667,-0.83986 -1.72749,-0.39666 -1.88914,-0.38675 -5.66994,0.34779 l -3.89176,0.75609 -3.64887,-1.63049 c -2.00688,-0.89677 -3.91676,-1.80241 -4.24418,-2.01252 -0.84726,-0.54372 -0.81837,-1.86705 0.0494,-2.26243 0.53036,-0.24165 0.95999,-0.16753 2.42231,0.41787 1.09817,0.43963 1.8403,0.61016 1.94166,0.44617 0.10655,-0.17242 0.53265,-0.18 1.21571,-0.0217 0.5784,0.1341 1.12196,0.24666 1.2079,0.25013 0.0859,0.003 0.14548,-1.00126 0.13229,-2.23273 -0.0217,-2.02784 -0.0739,-2.24622 -0.55313,-2.3151 -0.40295,-0.0579 -0.5487,-0.31182 -0.61106,-1.06452 -0.0979,-1.18214 0.8442,-2.31883 1.92195,-2.31883 0.55191,0 0.67349,-0.12638 0.67349,-0.70009 v -0.70009 l -0.64883,0.70009 c -0.6442,0.69511 -0.67618,0.70009 -4.48871,0.70009 h -3.83988 l -0.90403,-0.79375 c -0.50008,-0.43907 -1.20619,-0.79375 -1.58024,-0.79375 -0.37191,0 -1.54681,0.47458 -2.6109,1.05462 -1.06409,0.58003 -2.024,1.05628 -2.13314,1.05833 -0.10914,0.002 -0.19844,-0.2344 -0.19844,-0.52545 0,-0.29398 -0.17639,-0.52916 -0.39687,-0.52916 -0.32445,0 -0.39688,-0.45096 -0.39688,-2.47107 0,-2.39123 0.0218,-2.481 0.67391,-2.77813 0.37065,-0.16888 0.78737,-0.30705 0.92604,-0.30705 0.1414,0 0.25213,1.06206 0.25213,2.41822 0,1.99688 -0.0806,2.47717 -0.4626,2.7565 -0.57652,0.42156 -0.29372,0.75387 0.44266,0.52015 0.50953,-0.16172 0.54911,-0.37324 0.54911,-2.93458 0,-1.66381 0.1051,-2.76029 0.26458,-2.76029 0.15783,0 0.26459,1.01423 0.26459,2.51354 0,1.38245 0.0567,2.51354 0.12589,2.51354 0.0693,0 0.51573,-0.23768 0.99219,-0.52818 1.26187,-0.76936 2.39305,-0.68347 3.4717,0.2636 0.8981,0.78854 0.92507,0.79375 4.11025,0.79375 2.99733,0 3.20622,-0.0335 3.20622,-0.51355 0,-0.28246 0.11906,-0.58714 0.26458,-0.67708 0.63514,-0.39253 0.15876,-0.66146 -1.17173,-0.66146 -1.5094,0 -2.2802,-0.43624 -2.25397,-1.27567 0.0111,-0.35622 0.0961,-0.3263 0.42914,0.15119 0.35158,0.50402 0.65646,0.59532 1.98789,0.59532 0.86495,0 1.79132,0.11704 2.05862,0.26009 0.44371,0.23747 0.47483,0.16265 0.3577,-0.85989 -0.20745,-1.81093 -0.17169,-1.78145 -2.16082,-1.78145 -1.5964,0 -1.88076,0.0755 -2.24339,0.59531 -0.33308,0.4775 -0.41801,0.50742 -0.42914,0.15119 -0.0282,-0.90313 0.73395,-1.27567 2.60984,-1.27567 2.10039,0 2.66794,0.41052 2.66794,1.92975 0,0.67972 0.1499,1.04227 0.5108,1.23542 0.86058,0.46057 1.34129,-0.30558 1.34129,-2.13776 0,-1.32542 -0.10486,-1.68549 -0.64943,-2.23006 -0.64108,-0.64107 -0.7103,-0.64943 -5.37841,-0.64943 h -4.72897 l -2.34431,0.92034 c -1.28937,0.50618 -2.40327,0.86139 -2.47531,0.78934 -0.24311,-0.24311 0.35369,-0.56184 2.62516,-1.40205 2.2157,-0.81957 2.35625,-0.8368 6.82616,-0.8368 5.07637,0 5.80676,0.18018 6.38452,1.57502 0.30617,0.73916 0.4389,0.80623 1.59546,0.80623 1.44818,0 2.57516,-0.69327 2.29859,-1.414 -0.13602,-0.35448 -0.55136,-0.43808 -2.1764,-0.43808 -1.27149,0 -1.9483,-0.0971 -1.84477,-0.26459 0.21557,-0.34879 3.46303,-0.34145 4.11843,0.009 0.65671,0.35146 0.65589,1.19539 -0.002,1.75844 -0.36589,0.31329 -0.47186,0.64775 -0.36868,1.16364 0.18759,0.93799 -0.62454,1.4097 -2.13412,1.23954 -1.00421,-0.11319 -1.11678,-0.0602 -1.48262,0.69756 -0.22258,0.46105 -0.63842,0.8547 -0.94987,0.89919 -0.48502,0.0693 -0.54821,0.24323 -0.5076,1.3974 0.0255,0.72505 0.18551,1.4574 0.35554,1.62743 0.53046,0.53058 0.38309,2.26174 -0.22013,2.58458 -0.46207,0.24729 -0.52916,0.55399 -0.52916,2.41886 0,1.59715 0.0834,2.10494 0.33073,2.01378 0.1819,-0.067 1.16416,-0.39216 2.18281,-0.72251 2.46804,-0.80037 2.68055,-1.0643 0.85697,-1.0643 -1.20011,0 -1.60504,0.11509 -2.03729,0.57906 -0.43873,0.47092 -0.53947,0.49843 -0.53947,0.14729 0,-0.75692 1.0741,-1.25552 2.7047,-1.25552 0.8546,0 1.52863,0.11805 1.52863,0.26771 0,0.16163 0.39698,0.20423 1.00182,0.10752 1.09593,-0.17525 4.92634,0.82456 4.68085,1.22178 -0.0757,0.12249 -0.8086,-0.008 -1.62866,-0.29027 -0.82006,-0.28214 -1.80371,-0.51299 -2.18588,-0.51299 -0.38218,0 -2.20989,0.52484 -4.06158,1.16631 -3.34469,1.15868 -3.37662,1.164 -4.88392,0.81362 -0.83447,-0.19398 -1.54822,-0.3217 -1.5861,-0.28382 -0.0379,0.0379 0.66584,0.38588 1.56382,0.77334 0.89798,0.38746 1.55802,0.77913 1.46676,0.87039 -0.0913,0.0913 -1.71848,-0.4571 -3.61605,-1.21857 -1.89757,-0.76147 -3.62894,-1.31587 -3.84747,-1.23201 -0.21854,0.0839 -0.39734,0.43139 -0.39734,0.77229 0,0.54238 0.49569,0.84491 3.96772,2.42154 l 3.96773,1.80172 3.90247,-0.73296 c 3.49701,-0.6568 4.06189,-0.70003 5.43667,-0.41607 0.8438,0.17428 1.70752,0.38339 1.91938,0.46469 0.31882,0.12235 0.3852,-0.24459 0.3852,-2.12945 0,-1.34179 0.10869,-2.27727 0.26458,-2.27727 0.15871,0 0.26458,1.05607 0.26458,2.63904 v 2.63904 l 0.78062,0.40367 c 0.91383,0.47257 1.07147,0.49403 1.07147,0.14588 0,-0.14178 -0.35719,-0.4425 -0.79375,-0.66825 l -0.79375,-0.41046 v -2.65687 c 0,-2.63018 0.006,-2.65513 0.59531,-2.48376 1.2787,0.37184 1.52135,1.0273 1.52135,4.10958 0,1.57602 -0.0893,2.9204 -0.19843,2.9875 -0.10914,0.0671 -0.67469,-0.11637 -1.25677,-0.40773 z m -13.10341,-6.62837 c -0.0259,-0.47294 -0.035,-1.53061 -0.0203,-2.35039 0.0226,-1.2556 0.1102,-1.5123 0.55598,-1.62887 0.57519,-0.15042 0.75294,-1.34131 0.24688,-1.65407 -0.16944,-0.10472 -0.24876,0.0212 -0.19843,0.31512 0.0683,0.39909 -0.0873,0.48957 -0.8422,0.48957 -1.17986,0 -1.27832,-0.71322 -0.13229,-0.95829 0.73675,-0.15754 0.7453,-0.17198 0.11906,-0.20103 -0.37108,-0.0172 -0.81756,0.11157 -0.99219,0.28619 -0.38371,0.38371 -0.4242,1.78583 -0.0529,1.83224 0.14553,0.0182 0.41342,0.0488 0.59532,0.068 0.22548,0.0238 0.33502,0.58163 0.34421,1.75286 0.0173,2.21037 0.0825,2.90858 0.27137,2.90858 0.0839,0 0.13138,-0.38695 0.10549,-0.8599 z m -0.4186,-7.94055 c 0.32914,-0.52181 0.0754,-0.85003 -0.4895,-0.63325 -0.47234,0.18126 -0.56678,1.32855 -0.0965,1.17177 0.17151,-0.0572 0.43518,-0.2995 0.58596,-0.53852 z m 5.93235,-3.70111 c 0.0751,-0.39609 -0.12532,-0.46302 -1.38678,-0.46302 -1.09582,0 -1.47461,0.0963 -1.47461,0.37482 0,0.50443 0.45562,0.66432 1.71751,0.60275 0.77038,-0.0376 1.07981,-0.17678 1.14388,-0.51455 z m 7.98653,6.68073 c 0,-0.14552 0.12609,-0.26459 0.2802,-0.26459 0.15411,0 0.20661,0.11907 0.11668,0.26459 -0.0899,0.14552 -0.21603,0.26458 -0.2802,0.26458 -0.0642,0 -0.11668,-0.11906 -0.11668,-0.26458 z m -33.90464,-10.23113 c -0.23917,-0.0636 -0.49219,-0.41554 -0.56227,-0.78217 -0.0998,-0.5218 0.0101,-0.71887 0.50573,-0.90732 0.50126,-0.19057 0.75276,-0.12113 1.2072,0.3333 0.37018,0.37018 0.46245,0.61123 0.25984,0.67877 -0.17281,0.0576 -0.31419,0.2734 -0.31419,0.47955 0,0.37225 -0.26217,0.41957 -1.09631,0.19787 z m 0.5946,-0.95974 c -0.33959,-0.33959 -0.68396,-0.0771 -0.43255,0.32966 0.0974,0.15758 0.29828,0.21159 0.44643,0.12003 0.18071,-0.11168 0.17614,-0.25967 -0.0139,-0.44969 z"
         id="path857"
         inkscape:connector-curvature="0" />
      <path
         style="fill:#466582;stroke-width:0.26458335"
         d="m 174.53051,270.79168 c -0.58209,-0.29136 -1.21065,-0.72395 -1.39681,-0.96131 -0.18616,-0.23736 -1.13866,-0.6153 -2.11667,-0.83986 -1.72749,-0.39666 -1.88914,-0.38675 -5.66994,0.34779 l -3.89176,0.75609 -3.64887,-1.63049 c -2.00688,-0.89677 -3.91676,-1.80241 -4.24418,-2.01252 -0.84726,-0.54372 -0.81837,-1.86705 0.0494,-2.26243 0.53036,-0.24165 0.95999,-0.16753 2.42231,0.41787 1.09817,0.43963 1.8403,0.61016 1.94166,0.44617 0.10655,-0.17242 0.53265,-0.18 1.21571,-0.0217 0.5784,0.1341 1.12196,0.24666 1.2079,0.25013 0.0859,0.003 0.14548,-1.00126 0.13229,-2.23273 -0.0217,-2.02784 -0.0739,-2.24622 -0.55313,-2.3151 -0.40295,-0.0579 -0.5487,-0.31182 -0.61106,-1.06452 -0.0979,-1.18214 0.8442,-2.31883 1.92195,-2.31883 0.55191,0 0.67349,-0.12638 0.67349,-0.70009 v -0.70009 l -0.64883,0.70009 c -0.6442,0.69511 -0.67618,0.70009 -4.48871,0.70009 h -3.83988 l -0.90403,-0.79375 c -0.49722,-0.43656 -1.2066,-0.79375 -1.5764,-0.79375 -0.36979,0 -1.58064,0.48993 -2.69076,1.08872 -1.11012,0.59879 -2.10098,1.00614 -2.2019,0.90522 -0.10093,-0.10092 -0.22629,-1.53137 -0.27858,-3.17876 -0.0916,-2.88561 -0.074,-3.00196 0.48173,-3.17833 0.69585,-0.22086 0.9786,-0.007 0.60109,0.45416 -0.30377,0.37126 -0.56784,5.23226 -0.28423,5.23204 0.90205,-6.8e-4 1.01383,-0.33929 1.01383,-3.07115 0,-1.65682 0.10517,-2.74981 0.26458,-2.74981 0.15783,0 0.26459,1.01423 0.26459,2.51354 0,1.38245 0.0567,2.51354 0.12589,2.51354 0.0693,0 0.51573,-0.23768 0.99219,-0.52818 1.26187,-0.76936 2.39305,-0.68347 3.4717,0.2636 0.8981,0.78854 0.92507,0.79375 4.11025,0.79375 2.99733,0 3.20622,-0.0335 3.20622,-0.51355 0,-0.28246 0.11906,-0.58714 0.26458,-0.67708 0.63514,-0.39253 0.15876,-0.66146 -1.17173,-0.66146 -1.5094,0 -2.2802,-0.43624 -2.25397,-1.27567 0.0111,-0.35622 0.0961,-0.3263 0.42914,0.15119 0.35158,0.50402 0.65646,0.59532 1.98789,0.59532 0.86495,0 1.79132,0.11704 2.05862,0.26009 0.44371,0.23747 0.47483,0.16265 0.3577,-0.85989 -0.20745,-1.81093 -0.17169,-1.78145 -2.16082,-1.78145 -1.5964,0 -1.88076,0.0755 -2.24339,0.59531 -0.33308,0.4775 -0.41801,0.50742 -0.42914,0.15119 -0.0282,-0.90313 0.73395,-1.27567 2.60984,-1.27567 2.10039,0 2.66794,0.41052 2.66794,1.92975 0,0.67972 0.1499,1.04227 0.5108,1.23542 0.86058,0.46057 1.34129,-0.30558 1.34129,-2.13776 0,-1.32542 -0.10486,-1.68549 -0.64943,-2.23006 -0.64108,-0.64107 -0.7103,-0.64943 -5.37841,-0.64943 h -4.72897 l -2.34431,0.92034 c -1.28937,0.50618 -2.40327,0.86139 -2.47531,0.78934 -0.24311,-0.24311 0.35369,-0.56184 2.62516,-1.40205 2.2157,-0.81957 2.35625,-0.8368 6.82616,-0.8368 5.07637,0 5.80676,0.18018 6.38452,1.57502 0.30617,0.73916 0.4389,0.80623 1.59546,0.80623 1.44818,0 2.57516,-0.69327 2.29859,-1.414 -0.13602,-0.35448 -0.55136,-0.43808 -2.1764,-0.43808 -1.27149,0 -1.9483,-0.0971 -1.84477,-0.26459 0.21557,-0.34879 3.46303,-0.34145 4.11843,0.009 0.65671,0.35146 0.65589,1.19539 -0.002,1.75844 -0.36589,0.31329 -0.47186,0.64775 -0.36868,1.16364 0.18759,0.93799 -0.62454,1.4097 -2.13412,1.23954 -1.00421,-0.11319 -1.11678,-0.0602 -1.48262,0.69756 -0.22258,0.46105 -0.63842,0.8547 -0.94987,0.89919 -0.48502,0.0693 -0.54821,0.24323 -0.5076,1.3974 0.0255,0.72505 0.18551,1.4574 0.35554,1.62743 0.53046,0.53058 0.38309,2.26174 -0.22013,2.58458 -0.46207,0.24729 -0.52916,0.55399 -0.52916,2.41886 0,1.59715 0.0834,2.10494 0.33073,2.01378 0.1819,-0.067 1.16416,-0.39216 2.18281,-0.72251 2.46804,-0.80037 2.68055,-1.0643 0.85697,-1.0643 -1.20011,0 -1.60504,0.11509 -2.03729,0.57906 -0.43873,0.47092 -0.53947,0.49843 -0.53947,0.14729 0,-0.75692 1.0741,-1.25552 2.7047,-1.25552 0.8546,0 1.52863,0.11805 1.52863,0.26771 0,0.16163 0.39698,0.20423 1.00182,0.10752 1.09593,-0.17525 4.92634,0.82456 4.68085,1.22178 -0.0757,0.12249 -0.8086,-0.008 -1.62866,-0.29027 -0.82006,-0.28214 -1.80371,-0.51299 -2.18588,-0.51299 -0.38218,0 -2.20989,0.52484 -4.06158,1.16631 -3.34469,1.15868 -3.37662,1.164 -4.88392,0.81362 -0.83447,-0.19398 -1.54822,-0.3217 -1.5861,-0.28382 -0.0379,0.0379 0.66584,0.38588 1.56382,0.77334 0.89798,0.38746 1.55802,0.77913 1.46676,0.87039 -0.0913,0.0913 -1.71848,-0.4571 -3.61605,-1.21857 -1.89757,-0.76147 -3.62894,-1.31587 -3.84747,-1.23201 -0.21854,0.0839 -0.39734,0.43139 -0.39734,0.77229 0,0.54238 0.49569,0.84491 3.96772,2.42154 l 3.96773,1.80172 3.90247,-0.73296 c 3.49701,-0.6568 4.06189,-0.70003 5.43667,-0.41607 0.8438,0.17428 1.70752,0.38339 1.91938,0.46469 0.31882,0.12235 0.3852,-0.24459 0.3852,-2.12945 0,-1.34179 0.10869,-2.27727 0.26458,-2.27727 0.15871,0 0.26458,1.05607 0.26458,2.63904 v 2.63904 l 0.78062,0.40367 c 0.91383,0.47257 1.07147,0.49403 1.07147,0.14588 0,-0.14178 -0.35719,-0.4425 -0.79375,-0.66825 l -0.79375,-0.41046 v -2.65687 c 0,-2.63018 0.006,-2.65513 0.59531,-2.48376 1.2787,0.37184 1.52135,1.0273 1.52135,4.10958 0,1.57602 -0.0893,2.9204 -0.19843,2.9875 -0.10914,0.0671 -0.67469,-0.11637 -1.25677,-0.40773 z m -13.10341,-6.62837 c -0.0259,-0.47294 -0.035,-1.53061 -0.0203,-2.35039 0.0226,-1.2556 0.1102,-1.5123 0.55598,-1.62887 0.57519,-0.15042 0.75294,-1.34131 0.24688,-1.65407 -0.16944,-0.10472 -0.24876,0.0212 -0.19843,0.31512 0.0683,0.39909 -0.0873,0.48957 -0.8422,0.48957 -1.17986,0 -1.27832,-0.71322 -0.13229,-0.95829 0.73675,-0.15754 0.7453,-0.17198 0.11906,-0.20103 -0.37108,-0.0172 -0.81756,0.11157 -0.99219,0.28619 -0.38371,0.38371 -0.4242,1.78583 -0.0529,1.83224 0.14553,0.0182 0.41342,0.0488 0.59532,0.068 0.22548,0.0238 0.33502,0.58163 0.34421,1.75286 0.0173,2.21037 0.0825,2.90858 0.27137,2.90858 0.0839,0 0.13138,-0.38695 0.10549,-0.8599 z m -0.4186,-7.94055 c 0.32914,-0.52181 0.0754,-0.85003 -0.4895,-0.63325 -0.47234,0.18126 -0.56678,1.32855 -0.0965,1.17177 0.17151,-0.0572 0.43518,-0.2995 0.58596,-0.53852 z m 5.93235,-3.70111 c 0.0751,-0.39609 -0.12532,-0.46302 -1.38678,-0.46302 -1.09582,0 -1.47461,0.0963 -1.47461,0.37482 0,0.50443 0.45562,0.66432 1.71751,0.60275 0.77038,-0.0376 1.07981,-0.17678 1.14388,-0.51455 z m 7.98653,6.68073 c 0,-0.14552 0.12609,-0.26459 0.2802,-0.26459 0.15411,0 0.20661,0.11907 0.11668,0.26459 -0.0899,0.14552 -0.21603,0.26458 -0.2802,0.26458 -0.0642,0 -0.11668,-0.11906 -0.11668,-0.26458 z m -33.90464,-10.23113 c -0.23917,-0.0636 -0.49219,-0.41554 -0.56227,-0.78217 -0.0998,-0.5218 0.0101,-0.71887 0.50573,-0.90732 0.50126,-0.19057 0.75276,-0.12113 1.2072,0.3333 0.37018,0.37018 0.46245,0.61123 0.25984,0.67877 -0.17281,0.0576 -0.31419,0.2734 -0.31419,0.47955 0,0.37225 -0.26217,0.41957 -1.09631,0.19787 z m 0.5946,-0.95974 c -0.33959,-0.33959 -0.68396,-0.0771 -0.43255,0.32966 0.0974,0.15758 0.29828,0.21159 0.44643,0.12003 0.18071,-0.11168 0.17614,-0.25967 -0.0139,-0.44969 z"
         id="path855"
         inkscape:connector-curvature="0" />
      <path
         style="fill:#5b5b5b;stroke-width:0.26458335"
         d="m 174.53051,270.79168 c -0.58209,-0.29136 -1.21065,-0.72395 -1.39681,-0.96131 -0.18616,-0.23736 -1.13866,-0.6153 -2.11667,-0.83986 -1.72749,-0.39666 -1.88914,-0.38675 -5.66994,0.34779 l -3.89176,0.75609 -3.64887,-1.63049 c -2.00688,-0.89677 -3.91676,-1.80241 -4.24418,-2.01252 -0.84726,-0.54372 -0.81837,-1.86705 0.0494,-2.26243 0.53036,-0.24165 0.95999,-0.16753 2.42231,0.41787 1.09817,0.43963 1.8403,0.61016 1.94166,0.44617 0.10655,-0.17242 0.53265,-0.18 1.21571,-0.0217 0.5784,0.1341 1.12196,0.24666 1.2079,0.25013 0.0859,0.003 0.14548,-1.00126 0.13229,-2.23273 -0.0217,-2.02784 -0.0739,-2.24622 -0.55313,-2.3151 -0.40295,-0.0579 -0.5487,-0.31182 -0.61106,-1.06452 -0.0979,-1.18214 0.8442,-2.31883 1.92195,-2.31883 0.55191,0 0.67349,-0.12638 0.67349,-0.70009 v -0.70009 l -0.64883,0.70009 c -0.6442,0.69511 -0.67618,0.70009 -4.48871,0.70009 h -3.83988 l -0.90403,-0.79375 c -0.50008,-0.43907 -1.20619,-0.79375 -1.58024,-0.79375 -0.37191,0 -1.54681,0.47458 -2.6109,1.05462 -1.06409,0.58003 -2.024,1.05628 -2.13314,1.05833 -0.10914,0.002 -0.19844,-1.41229 -0.19844,-3.14297 0,-2.67481 0.0652,-3.17171 0.43474,-3.31352 0.61191,-0.23481 0.84772,0.096 0.29066,0.40779 -0.38733,0.21676 -0.46082,0.65661 -0.46082,2.75828 0,1.37521 0.10933,2.50039 0.24295,2.50039 0.97539,0 1.07997,-0.29738 1.07997,-3.07102 0,-1.65682 0.10517,-2.74981 0.26458,-2.74981 0.15783,0 0.26459,1.01423 0.26459,2.51354 0,1.38245 0.0567,2.51354 0.12589,2.51354 0.0693,0 0.51573,-0.23768 0.99219,-0.52818 1.26187,-0.76936 2.39305,-0.68347 3.4717,0.2636 0.8981,0.78854 0.92507,0.79375 4.11025,0.79375 2.99733,0 3.20622,-0.0335 3.20622,-0.51355 0,-0.28246 0.11906,-0.58714 0.26458,-0.67708 0.63514,-0.39253 0.15876,-0.66146 -1.17173,-0.66146 -1.5094,0 -2.2802,-0.43624 -2.25397,-1.27567 0.0111,-0.35622 0.0961,-0.3263 0.42914,0.15119 0.35158,0.50402 0.65646,0.59532 1.98789,0.59532 0.86495,0 1.79132,0.11704 2.05862,0.26009 0.44371,0.23747 0.47483,0.16265 0.3577,-0.85989 -0.20745,-1.81093 -0.17169,-1.78145 -2.16082,-1.78145 -1.5964,0 -1.88076,0.0755 -2.24339,0.59531 -0.33308,0.4775 -0.41801,0.50742 -0.42914,0.15119 -0.0282,-0.90313 0.73395,-1.27567 2.60984,-1.27567 2.10039,0 2.66794,0.41052 2.66794,1.92975 0,0.67972 0.1499,1.04227 0.5108,1.23542 0.86058,0.46057 1.34129,-0.30558 1.34129,-2.13776 0,-1.32542 -0.10486,-1.68549 -0.64943,-2.23006 -0.64108,-0.64107 -0.7103,-0.64943 -5.37841,-0.64943 h -4.72897 l -2.34431,0.92034 c -1.28937,0.50618 -2.40327,0.86139 -2.47531,0.78934 -0.24311,-0.24311 0.35369,-0.56184 2.62516,-1.40205 2.2157,-0.81957 2.35625,-0.8368 6.82616,-0.8368 5.07637,0 5.80676,0.18018 6.38452,1.57502 0.30617,0.73916 0.4389,0.80623 1.59546,0.80623 1.44818,0 2.57516,-0.69327 2.29859,-1.414 -0.13602,-0.35448 -0.55136,-0.43808 -2.1764,-0.43808 -1.27149,0 -1.9483,-0.0971 -1.84477,-0.26459 0.21557,-0.34879 3.46303,-0.34145 4.11843,0.009 0.65671,0.35146 0.65589,1.19539 -0.002,1.75844 -0.36589,0.31329 -0.47186,0.64775 -0.36868,1.16364 0.18759,0.93799 -0.62454,1.4097 -2.13412,1.23954 -1.00421,-0.11319 -1.11678,-0.0602 -1.48262,0.69756 -0.22258,0.46105 -0.63842,0.8547 -0.94987,0.89919 -0.48502,0.0693 -0.54821,0.24323 -0.5076,1.3974 0.0255,0.72505 0.18551,1.4574 0.35554,1.62743 0.53046,0.53058 0.38309,2.26174 -0.22013,2.58458 -0.46207,0.24729 -0.52916,0.55399 -0.52916,2.41886 0,1.59715 0.0834,2.10494 0.33073,2.01378 0.1819,-0.067 1.16416,-0.39216 2.18281,-0.72251 2.46804,-0.80037 2.68055,-1.0643 0.85697,-1.0643 -1.20011,0 -1.60504,0.11509 -2.03729,0.57906 -0.43873,0.47092 -0.53947,0.49843 -0.53947,0.14729 0,-0.75692 1.0741,-1.25552 2.7047,-1.25552 0.8546,0 1.52863,0.11805 1.52863,0.26771 0,0.16163 0.39698,0.20423 1.00182,0.10752 1.09593,-0.17525 4.92634,0.82456 4.68085,1.22178 -0.0757,0.12249 -0.8086,-0.008 -1.62866,-0.29027 -0.82006,-0.28214 -1.80371,-0.51299 -2.18588,-0.51299 -0.38218,0 -2.20989,0.52484 -4.06158,1.16631 -3.34469,1.15868 -3.37662,1.164 -4.88392,0.81362 -0.83447,-0.19398 -1.54822,-0.3217 -1.5861,-0.28382 -0.0379,0.0379 0.66584,0.38588 1.56382,0.77334 0.89798,0.38746 1.55802,0.77913 1.46676,0.87039 -0.0913,0.0913 -1.71848,-0.4571 -3.61605,-1.21857 -1.89757,-0.76147 -3.62894,-1.31587 -3.84747,-1.23201 -0.21854,0.0839 -0.39734,0.43139 -0.39734,0.77229 0,0.54238 0.49569,0.84491 3.96772,2.42154 l 3.96773,1.80172 3.90247,-0.73296 c 3.49701,-0.6568 4.06189,-0.70003 5.43667,-0.41607 0.8438,0.17428 1.70752,0.38339 1.91938,0.46469 0.31882,0.12235 0.3852,-0.24459 0.3852,-2.12945 0,-1.34179 0.10869,-2.27727 0.26458,-2.27727 0.15871,0 0.26458,1.05607 0.26458,2.63904 v 2.63904 l 0.78062,0.40367 c 0.91383,0.47257 1.07147,0.49403 1.07147,0.14588 0,-0.14178 -0.35719,-0.4425 -0.79375,-0.66825 l -0.79375,-0.41046 v -2.65687 c 0,-2.63018 0.006,-2.65513 0.59531,-2.48376 1.2787,0.37184 1.52135,1.0273 1.52135,4.10958 0,1.57602 -0.0893,2.9204 -0.19843,2.9875 -0.10914,0.0671 -0.67469,-0.11637 -1.25677,-0.40773 z m -13.10341,-6.62837 c -0.0259,-0.47294 -0.035,-1.53061 -0.0203,-2.35039 0.0226,-1.2556 0.1102,-1.5123 0.55598,-1.62887 0.57519,-0.15042 0.75294,-1.34131 0.24688,-1.65407 -0.16944,-0.10472 -0.24876,0.0212 -0.19843,0.31512 0.0683,0.39909 -0.0873,0.48957 -0.8422,0.48957 -1.17986,0 -1.27832,-0.71322 -0.13229,-0.95829 0.73675,-0.15754 0.7453,-0.17198 0.11906,-0.20103 -0.37108,-0.0172 -0.81756,0.11157 -0.99219,0.28619 -0.38371,0.38371 -0.4242,1.78583 -0.0529,1.83224 0.14553,0.0182 0.41342,0.0488 0.59532,0.068 0.22548,0.0238 0.33502,0.58163 0.34421,1.75286 0.0173,2.21037 0.0825,2.90858 0.27137,2.90858 0.0839,0 0.13138,-0.38695 0.10549,-0.8599 z m -0.4186,-7.94055 c 0.32914,-0.52181 0.0754,-0.85003 -0.4895,-0.63325 -0.47234,0.18126 -0.56678,1.32855 -0.0965,1.17177 0.17151,-0.0572 0.43518,-0.2995 0.58596,-0.53852 z m 5.93235,-3.70111 c 0.0751,-0.39609 -0.12532,-0.46302 -1.38678,-0.46302 -1.09582,0 -1.47461,0.0963 -1.47461,0.37482 0,0.50443 0.45562,0.66432 1.71751,0.60275 0.77038,-0.0376 1.07981,-0.17678 1.14388,-0.51455 z m 7.98653,6.68073 c 0,-0.14552 0.12609,-0.26459 0.2802,-0.26459 0.15411,0 0.20661,0.11907 0.11668,0.26459 -0.0899,0.14552 -0.21603,0.26458 -0.2802,0.26458 -0.0642,0 -0.11668,-0.11906 -0.11668,-0.26458 z m -33.90464,-10.23113 c -0.23917,-0.0636 -0.49219,-0.41554 -0.56227,-0.78217 -0.0998,-0.5218 0.0101,-0.71887 0.50573,-0.90732 0.50126,-0.19057 0.75276,-0.12113 1.2072,0.3333 0.37018,0.37018 0.46245,0.61123 0.25984,0.67877 -0.17281,0.0576 -0.31419,0.2734 -0.31419,0.47955 0,0.37225 -0.26217,0.41957 -1.09631,0.19787 z m 0.5946,-0.95974 c -0.33959,-0.33959 -0.68396,-0.0771 -0.43255,0.32966 0.0974,0.15758 0.29828,0.21159 0.44643,0.12003 0.18071,-0.11168 0.17614,-0.25967 -0.0139,-0.44969 z"
         id="path853"
         inkscape:connector-curvature="0" />
      <path
         style="fill:#2e2e2e;stroke-width:0.26458335"
         d="m 174.34555,270.56836 c -0.53829,-0.28428 -1.07407,-0.67651 -1.19063,-0.87163 -0.11655,-0.19511 -1.00309,-0.55076 -1.97009,-0.79033 -1.73288,-0.42931 -1.81473,-0.42461 -5.68854,0.32604 -4.47769,0.86767 -3.54639,1.02046 -9.0281,-1.48117 -2.66889,-1.21798 -3.27544,-1.59991 -3.41332,-2.14926 -0.12563,-0.50053 -0.0204,-0.78731 0.41947,-1.14352 0.56821,-0.46012 0.63987,-0.45529 2.2227,0.14988 4.18875,1.6015 5.47201,2.14684 5.47201,2.32543 0,0.20935 0.0331,0.22115 -3.81407,-1.36092 -1.44289,-0.59336 -2.89339,-1.07884 -3.22332,-1.07884 -0.68251,0 -1.12576,0.93852 -0.66218,1.4021 0.15977,0.15977 2.02995,1.07847 4.15595,2.04155 l 3.86546,1.75106 3.87398,-0.76211 c 3.77303,-0.74226 3.91878,-0.75132 5.59376,-0.34771 0.94589,0.22793 1.80445,0.4141 1.90793,0.41372 0.10347,-2.6e-4 0.22782,-1.04249 0.27632,-2.31579 l 0.0882,-2.31511 0.0544,2.56049 c 0.0514,2.42062 0.0925,2.59043 0.75155,3.10885 1.29336,1.01736 1.44734,0.80368 1.36331,-1.89193 -0.0701,-2.24876 -0.12411,-2.4642 -0.68805,-2.74469 -0.66746,-0.33198 -0.7091,-0.82387 -0.0573,-0.67685 0.94686,0.21359 1.06615,0.60665 1.06615,3.51299 0,1.58291 -0.0893,2.87276 -0.19844,2.86632 -0.10914,-0.006 -0.63885,-0.24428 -1.17714,-0.52857 z m -15.16088,-5.14224 c -1.48193,-0.38092 -0.82733,-0.52093 0.73729,-0.15769 0.90681,0.21052 0.98711,0.18611 0.84638,-0.2573 -0.25665,-0.80864 -0.31715,-2.95312 -0.10757,-3.81298 0.13362,-0.54822 0.18898,-0.14877 0.17347,1.25179 -0.0139,1.2529 0.0988,2.17853 0.28831,2.36802 0.23839,0.23839 0.31108,-0.2196 0.31108,-1.95993 0,-2.0485 0.0519,-2.28458 0.52917,-2.4094 0.39921,-0.1044 0.52916,-0.36089 0.52916,-1.04448 0,-1.62715 -2.09337,-2.05172 -2.66772,-0.54106 -0.28651,0.75357 -0.096,1.6622 0.3484,1.6622 0.15997,0 0.21435,0.0765 0.12086,0.17 -0.0935,0.0935 -0.35147,0.0194 -0.57327,-0.16469 -0.97128,-0.80609 0.0686,-2.91572 1.43716,-2.91572 0.76766,0 1.06228,-0.47266 0.86585,-1.38907 -0.1354,-0.63171 -0.41228,-0.58121 -0.72531,0.1323 -0.25236,0.57522 -0.39811,0.59778 -4.3193,0.66847 l -4.05812,0.0732 -0.91202,-0.80076 c -0.50161,-0.44042 -1.10645,-0.80077 -1.34409,-0.80077 -0.23764,0 -1.42299,0.53578 -2.63411,1.19063 -1.21113,0.65484 -2.26271,1.19062 -2.33685,1.19062 -0.0742,0 -0.13481,-1.41486 -0.13481,-3.14414 0,-2.92163 0.0375,-3.15394 0.52917,-3.28252 0.61204,-0.16005 0.72404,0.20985 0.13229,0.43692 -0.31628,0.12137 -0.39688,0.69128 -0.39688,2.80644 0,1.45977 0.0963,2.65413 0.21402,2.65413 0.1177,0 0.43159,-0.15909 0.69752,-0.35355 0.41746,-0.30525 0.47647,-0.70286 0.43194,-2.91041 -0.0334,-1.65504 0.0472,-2.55687 0.22852,-2.55687 0.17631,0 0.28009,0.88226 0.28009,2.38125 0,1.30969 0.0643,2.38125 0.14283,2.38125 0.0786,0 0.60959,-0.23812 1.18008,-0.52917 1.39345,-0.71088 1.86707,-0.6697 3.04271,0.26459 0.9874,0.78468 1.03541,0.79365 4.20357,0.78513 l 3.20477,-0.009 0.42956,-0.91742 0.42956,-0.91743 h -1.36288 c -1.37487,0 -2.54684,-0.52773 -2.53054,-1.13948 0.005,-0.17507 0.165,-0.10945 0.3599,0.1473 0.25408,0.3347 0.74667,0.4686 1.77752,0.48315 2.64564,0.0373 4.15739,1.0592 3.80212,2.57003 -0.079,0.33587 0.0378,0.86311 0.26209,1.18335 0.62401,0.8909 0.51227,1.96453 -0.25692,2.46853 -0.61777,0.40478 -0.66146,0.57869 -0.66146,2.63344 v 2.20004 l 3.50573,-1.18697 3.50573,-1.18698 1.91634,0.59 c 1.05399,0.32449 1.86526,0.64106 1.80284,0.70349 -0.0624,0.0624 -0.90389,-0.14953 -1.86992,-0.471 l -1.75642,-0.5845 -3.52066,1.21876 c -3.77571,1.30705 -4.07502,1.34769 -6.09718,0.82792 z m 1.93581,-9.46489 c 0.10106,-0.87833 -0.29961,-0.94317 -0.86247,-0.13956 -0.56441,0.8058 -0.51711,1.05121 0.18343,0.95171 0.42625,-0.0605 0.61909,-0.29118 0.67904,-0.81215 z m 1.63607,8.41244 c 0,-0.0985 0.12325,-0.4093 0.27389,-0.69077 0.2363,-0.44153 0.5359,-0.50477 2.18281,-0.46079 l 1.90892,0.051 -1.71979,0.0878 c -1.35073,0.069 -1.81915,0.20625 -2.18281,0.63979 -0.25466,0.30359 -0.46302,0.47144 -0.46302,0.37299 z m -2.38125,-5.43588 c 0,-0.45952 0.13511,-0.54876 0.7276,-0.48059 0.43316,0.0498 0.72761,0.24432 0.72761,0.48059 0,0.23627 -0.29445,0.43076 -0.72761,0.4806 -0.59249,0.0682 -0.7276,-0.0211 -0.7276,-0.4806 z m 1.37583,-4.02166 c -0.17462,-0.17463 -0.3175,-0.65871 -0.3175,-1.07573 0,-1.49629 -0.36909,-1.78177 -2.30358,-1.78177 -1.26249,0 -1.89174,0.12302 -2.23965,0.43788 -0.52923,0.47895 -0.68041,0.12909 -0.16635,-0.38497 0.43919,-0.43919 4.34535,-0.428 4.61855,0.0132 0.11262,0.1819 0.26848,0.79437 0.34634,1.36103 0.16649,1.21168 0.80894,1.76271 1.4423,1.23707 0.30802,-0.25563 0.41906,-0.82995 0.41906,-2.16747 0,-2.88587 0.0166,-2.87802 -6.07853,-2.87802 -4.95758,0 -5.04512,0.01 -7.01835,0.79375 -1.09898,0.43656 -2.14388,0.78617 -2.32199,0.7769 -0.17811,-0.009 0.68819,-0.4184 1.92512,-0.90919 l 2.24896,-0.89236 5.1794,-0.0168 c 5.08229,-0.0165 5.19018,-0.005 5.75468,0.59552 0.31641,0.3368 0.57529,0.81305 0.57529,1.05833 0,0.71462 2.8767,0.63093 3.66848,-0.10673 0.93745,-0.87337 0.57683,-1.15324 -1.70498,-1.32316 l -2.09579,-0.15608 2.08886,0.0238 c 1.66384,0.0189 2.14655,0.11558 2.37239,0.47491 0.22272,0.35436 0.15238,0.59075 -0.32789,1.10197 -0.4153,0.44207 -0.55677,0.82308 -0.44101,1.1878 0.12532,0.39485 -0.008,0.65385 -0.5037,0.97865 -0.61097,0.40033 -1.28519,0.42447 -2.52091,0.0903 -0.25405,-0.0687 -0.42246,0.12559 -0.48174,0.55582 -0.15493,1.1244 -1.40495,1.71793 -2.11746,1.00542 z m 5.27661,-2.12501 c 0.38711,-0.62636 -0.34446,-1.0243 -1.73415,-0.94328 -0.97282,0.0567 -1.34642,0.18645 -1.34642,0.46756 0,0.92935 2.55624,1.3241 3.08057,0.47572 z m -25.88323,-3.85466 c -0.68118,-0.10024 -0.73867,-1.05576 -0.0942,-1.56577 0.55138,-0.43635 0.62526,-0.42179 1.01336,0.19965 0.44032,0.70507 -0.0868,1.4886 -0.91915,1.36612 z m 0.57766,-0.80249 c 0,-0.47854 -0.51787,-0.39117 -0.62058,0.10469 -0.0571,0.27589 0.042,0.39684 0.26458,0.32266 0.1958,-0.0653 0.356,-0.25757 0.356,-0.42735 z"
         id="path851"
         inkscape:connector-curvature="0" />
      <path
         style="fill:#151515;stroke-width:0.26458335"
         d="m 175.32426,270.84404 c 0.0899,-0.14552 0.21602,-0.26458 0.2802,-0.26458 0.0642,0 0.11667,0.11906 0.11667,0.26458 0,0.14553 -0.12609,0.26459 -0.2802,0.26459 -0.15411,0 -0.20661,-0.11906 -0.11667,-0.26459 z m 0.1867,-2.96811 c -0.0522,-2.21458 -0.0835,-2.32322 -0.78202,-2.72164 -0.70462,-0.40189 -0.70671,-0.40957 -0.0661,-0.2433 0.3638,0.0944 0.75566,0.25847 0.87081,0.36454 0.11514,0.10606 0.16939,1.25354 0.12055,2.54995 l -0.0888,2.35711 z m -16.194,1.11603 c -0.50932,-0.27884 -0.80697,-0.50699 -0.66145,-0.50699 0.14552,0 0.6813,0.22815 1.19062,0.50699 0.50932,0.27884 0.80698,0.50699 0.66146,0.50699 -0.14552,0 -0.6813,-0.22815 -1.19063,-0.50699 z m 4.16719,0.35394 c 0.1819,-0.0734 0.47956,-0.0734 0.66146,0 0.1819,0.0734 0.0331,0.13345 -0.33073,0.13345 -0.3638,0 -0.51263,-0.06 -0.33073,-0.13345 z m 1.60404,-0.2701 c 0.19099,-0.0764 0.4192,-0.067 0.50712,0.0209 0.0879,0.0879 -0.0684,0.15045 -0.34727,0.13896 -0.30822,-0.0127 -0.37092,-0.0754 -0.15985,-0.15985 z m 1.32292,-0.26458 c 0.19099,-0.0764 0.41919,-0.067 0.50711,0.0209 0.0879,0.0879 -0.0683,0.15045 -0.34726,0.13896 -0.30823,-0.0127 -0.37092,-0.0754 -0.15985,-0.15985 z m 5.02708,0 c 0.19099,-0.0764 0.4192,-0.067 0.50712,0.0209 0.0879,0.0879 -0.0684,0.15045 -0.34727,0.13896 -0.30822,-0.0127 -0.37092,-0.0754 -0.15985,-0.15985 z m -3.7207,-0.25907 c 0.1819,-0.0734 0.47955,-0.0734 0.66145,0 0.1819,0.0734 0.0331,0.13345 -0.33073,0.13345 -0.3638,0 -0.51263,-0.0601 -0.33072,-0.13345 z m 1.65364,-0.0894 c -0.52376,-0.16773 -0.5513,-0.21183 -0.13229,-0.21183 0.29104,0 0.82682,0.0953 1.19062,0.21183 0.52377,0.16774 0.55131,0.21184 0.1323,0.21184 -0.29105,0 -0.82683,-0.0953 -1.19063,-0.21184 z m -12.7,-0.66145 c -0.65484,-0.35065 -1.07156,-0.63755 -0.92604,-0.63755 0.14552,0 0.80036,0.2869 1.45521,0.63755 0.65484,0.35065 1.07156,0.63754 0.92604,0.63754 -0.14552,0 -0.80037,-0.28689 -1.45521,-0.63754 z m -2.57969,-1.18773 c -1.19471,-0.72843 -1.08293,-0.9065 0.13229,-0.21076 1.22225,0.69976 1.27169,0.73727 0.97014,0.73604 -0.13339,-5.4e-4 -0.62948,-0.23692 -1.10243,-0.52528 z m 6.01927,-0.003 c -0.21828,-0.14106 -0.27781,-0.25648 -0.13229,-0.25648 0.14552,0 0.44318,0.11542 0.66146,0.25648 0.21828,0.14107 0.27781,0.25648 0.13229,0.25648 -0.14552,0 -0.44317,-0.11541 -0.66146,-0.25648 z m -1.32291,-0.52917 c -0.21828,-0.14106 -0.27781,-0.25647 -0.13229,-0.25647 0.14552,0 0.44317,0.11541 0.66145,0.25647 0.21829,0.14107 0.27782,0.25648 0.1323,0.25648 -0.14552,0 -0.44318,-0.11541 -0.66146,-0.25648 z m 2.19091,-0.59531 c 0.3375,-0.2537 0.45769,-0.85454 0.51602,-2.57969 l 0.076,-2.24895 0.12987,2.58028 0.12987,2.58028 -0.64589,-5.3e-4 c -0.575,-5.3e-4 -0.5976,-0.0369 -0.20591,-0.33132 z m -0.2398,-0.58658 c -0.0819,-0.21348 -0.0979,-0.54091 -0.0355,-0.72761 0.0624,-0.1867 0.17619,-0.012 0.25285,0.38815 0.14969,0.78137 0.0262,0.97421 -0.21737,0.33946 z m -0.20952,-2.54408 c 0.054,-0.7574 0.15965,-1.43846 0.23466,-1.51347 0.075,-0.075 0.099,0.47648 0.0533,1.22553 -0.0457,0.74905 -0.15129,1.43011 -0.23465,1.51347 -0.0834,0.0834 -0.10735,-0.46813 -0.0533,-1.22553 z m -1.18968,-2.78678 c -0.0356,-0.87684 0.96075,-1.95391 1.80753,-1.95391 0.69241,0 1.60931,0.68608 1.60931,1.20418 0,0.13006 -0.18535,-0.0281 -0.41188,-0.35156 -0.47536,-0.67867 -1.73163,-0.79643 -2.21992,-0.20808 -0.17343,0.20898 -0.4159,0.71499 -0.53882,1.12448 -0.1783,0.59399 -0.22808,0.63137 -0.24622,0.18489 z m 1.03559,-0.631 c 0,-0.14552 0.12609,-0.26458 0.2802,-0.26458 0.1541,0 0.20661,0.11906 0.11667,0.26458 -0.0899,0.14552 -0.21602,0.26459 -0.2802,0.26459 -0.0642,0 -0.11667,-0.11907 -0.11667,-0.26459 z m 1.19062,0 c -0.0899,-0.14552 -0.0374,-0.26458 0.11668,-0.26458 0.15411,0 0.2802,0.11906 0.2802,0.26458 0,0.14552 -0.0525,0.26459 -0.11668,0.26459 -0.0642,0 -0.19026,-0.11907 -0.2802,-0.26459 z m -16.00729,-4.21771 c 0,-1.59215 0.0893,-2.95034 0.19844,-3.0182 0.10914,-0.0679 0.16124,1.17526 0.11578,2.76251 -0.0454,1.58725 -0.0213,2.8859 0.0537,2.8859 0.35042,0 1.48416,-0.63878 1.48416,-0.83622 0,-0.12216 0.20836,-0.21839 0.46302,-0.21385 0.52344,0.009 -1.44348,1.31108 -1.98437,1.3133 -0.24451,10e-4 -0.33073,-0.75327 -0.33073,-2.89344 z m 6.60914,1.69837 c -0.34477,-0.36699 -0.9906,-0.77297 -1.43519,-0.90217 -0.64088,-0.18626 -0.68691,-0.23987 -0.22222,-0.25879 0.32236,-0.0131 0.99292,0.33332 1.49014,0.76989 0.90163,0.79164 0.91282,0.79375 4.22049,0.79375 2.4056,0 3.35311,-0.0908 3.44991,-0.33073 0.10676,-0.26459 0.13763,-0.26459 0.15434,0 0.0313,0.49624 1.01376,0.39798 1.32261,-0.13229 0.14833,-0.25467 0.27331,-0.33801 0.27774,-0.18521 0.0223,0.7702 -0.70088,0.91281 -4.62896,0.91281 -3.93598,0 -4.01235,-0.011 -4.62886,-0.66726 z m -3.5047,-0.4239 c 0.17948,-0.18083 0.39297,-0.26212 0.47444,-0.18066 0.0815,0.0815 -0.0654,0.22941 -0.32632,0.32877 -0.37709,0.14358 -0.40748,0.11319 -0.14812,-0.14811 z m 11.19952,-0.0995 c 2e-4,-0.14553 0.16542,-0.48236 0.36715,-0.74852 0.29989,-0.39569 0.46857,-0.42946 0.92503,-0.18517 0.32057,0.17156 0.47816,0.4284 0.37012,0.6032 -0.14001,0.22655 -0.21523,0.22315 -0.29404,-0.0133 -0.15647,-0.4694 -0.78967,-0.38567 -1.09894,0.14532 -0.14833,0.25466 -0.26952,0.34396 -0.26932,0.19844 z m 2.57976,-0.8422 c 0.191,-0.0764 0.4192,-0.067 0.50712,0.0209 0.0879,0.0879 -0.0683,0.15045 -0.34726,0.13896 -0.30823,-0.0127 -0.37092,-0.0754 -0.15986,-0.15985 z m -5.63705,-0.60998 c -0.0927,-0.14998 0.0135,-0.19434 0.24896,-0.10399 0.45837,0.1759 0.54224,0.36554 0.16165,0.36554 -0.13693,0 -0.32171,-0.1177 -0.41061,-0.26155 z m 9.78771,-2.64887 c -0.0899,-0.14552 -0.0374,-0.26458 0.11667,-0.26458 0.15411,0 0.2802,0.11906 0.2802,0.26458 0,0.14552 -0.0525,0.26459 -0.11667,0.26459 -0.0642,0 -0.19027,-0.11907 -0.2802,-0.26459 z m 1.21718,-1.93026 c -0.33467,-0.55729 -0.32904,-0.56293 0.12656,-0.12656 0.26226,0.2512 0.41989,0.51368 0.35028,0.58328 -0.0696,0.0696 -0.28418,-0.13591 -0.47684,-0.45672 z m -27.1617,-1.2199 c 0.0815,-0.13186 0.38617,-0.1775 0.67707,-0.10143 0.72801,0.19038 0.66252,0.34118 -0.14817,0.34118 -0.37239,0 -0.6104,-0.10789 -0.5289,-0.23975 z m 1.20597,-0.554 c 0,-0.14552 0.12609,-0.26459 0.2802,-0.26459 0.15411,0 0.20662,0.11907 0.11668,0.26459 -0.0899,0.14552 -0.21603,0.26458 -0.2802,0.26458 -0.0642,0 -0.11668,-0.11906 -0.11668,-0.26458 z"
         id="path849"
         inkscape:connector-curvature="0" />
    </g>
  </g>
</svg>
