<?xml version="1.0" encoding="UTF-8" standalone="no"?>
<!-- Created with Inkscape (http://www.inkscape.org/) -->

<svg
   xmlns:dc="http://purl.org/dc/elements/1.1/"
   xmlns:cc="http://creativecommons.org/ns#"
   xmlns:rdf="http://www.w3.org/1999/02/22-rdf-syntax-ns#"
   xmlns:svg="http://www.w3.org/2000/svg"
   xmlns="http://www.w3.org/2000/svg"
   xmlns:sodipodi="http://sodipodi.sourceforge.net/DTD/sodipodi-0.dtd"
   xmlns:inkscape="http://www.inkscape.org/namespaces/inkscape"
   width="210mm"
   height="157mm"
   viewBox="0 0 210 157"
   version="1.1"
   id="svg8"
   sodipodi:docname="activeStep3.svg"
   inkscape:version="0.92.2 (5c3e80d, 2017-08-06)">
  <defs
     id="defs2">
    <pattern
       y="0"
       x="0"
       height="6"
       width="6"
       patternUnits="userSpaceOnUse"
       id="EMFhbasepattern" />
  </defs>
  <sodipodi:namedview
     id="base"
     pagecolor="#ffffff"
     bordercolor="#666666"
     borderopacity="1.0"
     inkscape:pageopacity="0.0"
     inkscape:pageshadow="2"
     inkscape:zoom="0.35"
     inkscape:cx="-538.31271"
     inkscape:cy="470.13547"
     inkscape:document-units="mm"
     inkscape:current-layer="layer1"
     showgrid="false"
     inkscape:window-width="1366"
     inkscape:window-height="745"
     inkscape:window-x="-8"
     inkscape:window-y="-8"
     inkscape:window-maximized="1" />
  <metadata
     id="metadata5">
    <rdf:RDF>
      <cc:Work
         rdf:about="">
        <dc:format>image/svg+xml</dc:format>
        <dc:type
           rdf:resource="http://purl.org/dc/dcmitype/StillImage" />
        <dc:title></dc:title>
      </cc:Work>
    </rdf:RDF>
  </metadata>
  <g
     inkscape:label="Layer 1"
     inkscape:groupmode="layer"
     id="layer1"
     transform="translate(0,-140)">
    <path
       id="path859"
       d="m 171.87249,290.84795 c -1.67216,-0.8255 -1.67216,-1.03716 0,-1.86266 2.32832,-1.16415 11.28175,-1.22765 13.61006,-0.10583 0.9525,0.4445 1.33349,1.29116 0.86783,1.86265 -1.05833,1.31233 -11.91674,1.37583 -14.47789,0.10584 z M 29.210202,289.42979 c 0,-0.76199 0.698495,-1.41815 1.545155,-1.41815 0.846662,0 -0.486829,-1.03716 -2.942144,-2.30716 -5.333961,-2.73047 -9.778928,-8.8476 -7.302446,-10.01175 2.942145,-1.37583 17.928035,-0.8255 20.277516,0.74082 1.968487,1.33349 2.412982,1.33349 4.402635,-0.0423 1.523987,-1.05833 4.360299,-1.48166 9.143931,-1.39699 3.809971,0.0635 7.535278,-0.16933 8.276106,-0.50799 0.740828,-0.35983 2.095484,0.0423 3.005646,0.86782 1.375822,1.24883 1.248822,2.05315 -0.804329,4.9318 -1.333489,1.88382 -4.254468,4.33913 -6.498119,5.48212 -3.132642,1.58749 -3.619473,2.18016 -2.11665,2.62465 4.952963,1.41816 -0.634995,2.45532 -13.292569,2.45532 -11.345249,0 -13.694732,-0.23283 -13.694732,-1.41816 z m 97.619948,0 c 0,-0.93133 1.24883,-1.41815 3.78881,-1.41815 h 3.78881 l -4.48731,-2.96332 c -5.24929,-3.49247 -8.10677,-7.30244 -8.10677,-10.79492 0,-1.62982 -0.55033,-2.37065 -1.56632,-2.07431 -0.84666,0.23283 -2.68815,0.127 -4.06397,-0.254 -1.37582,-0.381 -3.13264,-0.3175 -3.89464,0.127 -0.78316,0.48683 -24.616657,0.74082 -53.805276,0.59266 l -52.4294434,-0.23283 0.084666,-6.20179 c 0.084666,-4.78363 0.9313264,-7.57761 3.7888055,-12.21308 l 3.7041389,-6.01128 -3.471308,-2.60349 c -3.0056439,-2.28598 -3.4713071,-3.38664 -3.4713071,-8.19144 0,-5.71495 1.4816555,-8.06443 4.5296331,-7.17544 1.968485,0.57149 2.370649,3.13264 0.465663,3.13264 -0.677328,0 -1.248824,2.09549 -1.248824,4.6778 0,3.72531 0.550329,4.95296 2.751646,6.11712 3.407808,1.79915 4.529633,1.18533 1.714488,-0.93132 -1.291158,-0.97366 -1.947319,-2.73049 -1.714488,-4.52964 0.634995,-4.9318 3.21731,-5.31279 36.194732,-5.33396 28.024461,0 29.717781,0.10583 32.850423,1.94732 4.190969,2.49765 4.804799,8.88993 0.888995,9.65193 -4.317968,0.86782 -3.809973,9.1016 0.888992,13.86406 2.243651,2.28599 3.15381,2.45532 14.477889,2.70932 6.921465,0.16933 12.064925,-0.10584 12.064925,-0.61383 0,-0.48683 1.98965,-3.11148 4.4238,-5.84196 2.41298,-2.73048 4.25447,-5.01646 4.06397,-5.10113 -6.73095,-3.00564 -6.90028,-3.21731 -8.61477,-11.11242 -2.22248,-10.26575 -2.32832,-9.75776 2.01082,-9.80009 2.05315,-0.0212 4.4238,-0.33867 5.22813,-0.71966 0.86782,-0.40216 2.07431,0 2.85748,0.97366 1.03715,1.26999 1.16415,0.55033 0.50799,-3.04798 -1.67215,-9.33443 -1.75682,-9.44026 -9.05926,-9.75776 -6.96379,-0.3175 -9.22861,-1.88382 -6.41346,-4.46613 1.12183,-1.016 4.19097,-1.39699 11.15475,-1.39699 8.53011,0 10.28693,0.31749 15.53622,2.83631 3.25964,1.56632 7.61995,2.83631 9.6731,2.83631 h 3.76763 l -0.35983,8.27611 c -0.33866,7.76811 -0.52916,8.29727 -3.17497,8.5936 -1.54516,0.14816 -2.81515,0.381 -2.79398,0.46566 0,0.0847 0.76199,2.09549 1.69332,4.4238 1.65099,4.16981 1.79915,4.27564 7.91627,4.84713 8.55127,0.80433 14.6684,2.45532 17.27188,4.6143 2.58231,2.15899 1.88382,4.06397 -2.26482,6.11713 -2.70931,1.35465 -3.74647,1.35465 -10.15992,0.10583 -10.66793,-2.11665 -18.01271,-0.59267 -25.12465,5.18579 l -3.74648,3.04798 5.5033,-2.96331 c 10.24459,-5.52446 18.24553,-5.92663 28.61712,-1.41816 7.55644,3.30198 11.68391,8.36077 11.74741,14.41439 0.0635,5.92663 -2.81514,9.94826 -9.88476,13.8429 -2.83631,1.54516 -5.20696,3.36548 -5.24929,4.02164 -0.0635,0.86783 -3.83114,1.16416 -14.45673,1.16416 -11.95908,0 -14.39323,-0.23283 -14.39323,-1.41816 z M 10.66834,265.06714 c 0.529162,-4.8048 6.603951,-16.65804 8.022107,-15.59972 0.380997,0.27517 -0.48683,2.26482 -1.926153,4.40263 -3.132643,4.63547 -4.84713,12.38241 -2.730479,12.38241 0.78316,0 1.418156,-0.82549 1.418156,-1.86265 0,-3.15381 3.894638,-10.71025 7.662276,-14.85889 1.968486,-2.18015 3.598307,-4.19097 3.598307,-4.4873 0,-0.29633 -1.947319,-0.55033 -4.339134,-0.55033 -3.386642,0 -4.190969,0.3175 -3.619474,1.43932 0.613829,1.18533 1.079492,1.22766 2.666981,0.23284 1.714487,-1.05833 1.75682,-0.9525 0.42333,0.95249 -0.825494,1.18532 -2.031985,1.92615 -2.688147,1.60865 -1.714487,-0.78316 -5.88429,4.8048 -8.741768,11.72625 -2.6669807,6.47695 -3.1114774,9.58843 -1.3758238,9.58843 0.592663,0 1.3334898,-2.24365 1.6298218,-4.97413 z m 59.816557,0.48683 c -0.02117,-6.64629 -1.82032,-7.57761 -2.074318,-1.07949 -0.105833,3.04797 0.317498,5.56679 0.952492,5.56679 0.634995,0 1.142992,-2.01082 1.121826,-4.4873 z m -55.032926,2.60348 c 0,-0.52916 -0.571496,-0.95249 -1.248824,-0.95249 -0.698495,0 -1.248824,0.42333 -1.248824,0.95249 0,0.508 0.550329,0.93133 1.248824,0.93133 0.677328,0 1.248824,-0.42333 1.248824,-0.93133 z M 116.1834,259.62734 c 1.07949,-1.54515 1.67215,-2.83631 1.31232,-2.83631 -0.33866,0 -1.50282,1.29116 -2.56114,2.83631 -1.05833,1.56633 -1.65099,2.83632 -1.31233,2.83632 0.33867,0 1.50283,-1.26999 2.56115,-2.83632 z m 8.9746,-15.36688 c -0.35983,-0.65616 -0.63499,-0.127 -0.63499,1.18532 0,1.29116 0.27516,1.82032 0.63499,1.18533 0.33867,-0.65616 0.33867,-1.71449 0,-2.37065 z m 2.87865,-11.70508 c -3.47131,-16.08655 -4.63547,-19.28269 -6.98495,-19.28269 -1.65099,0 -1.67216,0.1905 -0.14817,1.33349 1.01599,0.76199 2.94215,7.09078 4.5508,14.90122 3.00565,14.56256 3.57714,16.46755 4.57197,15.70555 0.35983,-0.254 -0.52916,-5.96895 -1.98965,-12.65757 z m -4.10631,6.51928 c -0.3175,-0.93132 -0.59266,-0.40216 -0.61383,1.16416 -0.0212,1.56632 0.23283,2.30715 0.5715,1.67216 0.33866,-0.635 0.35983,-1.92616 0.0423,-2.83632 z m -1.24882,-6.64628 c -0.3175,-0.91016 -0.5715,-0.16933 -0.5715,1.65099 0,1.82032 0.254,2.58231 0.5715,1.67215 0.3175,-0.91016 0.3175,-2.41298 0,-3.32314 z m 77.97742,-0.65616 c 0,-0.74083 0.48683,-1.58749 1.10066,-1.88382 1.37582,-0.635 4.19097,1.77799 3.04798,2.62465 -1.48166,1.12182 -4.14864,0.65616 -4.14864,-0.74083 z M 8.8691862,207.85406 c -3.0903102,-0.33866 -3.4289744,-0.76199 -3.4289744,-4.21213 0,-2.85748 0.4233302,-3.68298 1.7144873,-3.32315 0.9524928,0.27517 2.3494821,0.0423 3.0903099,-0.52916 0.994826,-0.74083 2.243651,-0.35983 4.5508,1.37583 2.772813,2.09548 2.942145,2.53998 1.291157,3.57714 -1.037159,0.65616 -1.883819,1.77798 -1.883819,2.49764 0,0.71966 -0.423331,1.22766 -0.952493,1.16416 -0.507997,-0.0847 -2.476482,-0.3175 -4.3814678,-0.55033 z m 2.8151458,-4.0428 c 0,-0.52916 -0.550329,-0.95249 -1.248824,-0.95249 -0.6773278,0 -1.2488238,0.42333 -1.2488238,0.95249 0,0.52916 0.571496,0.95249 1.2488238,0.95249 0.698495,0 1.248824,-0.42333 1.248824,-0.95249 z m 63.097366,-5.22813 c 0.592662,-1.77799 -0.804328,-4.6143 -5.630291,-11.40875 -6.667452,-9.33443 -8.149108,-14.92239 -4.804799,-17.99153 0.846662,-0.762 1.164159,-1.62982 0.719662,-1.96849 -0.867828,-0.65616 -4.571966,5.48213 -4.571966,7.61995 0,0.74083 2.455315,5.03763 5.439794,9.52493 2.984476,4.50846 4.889463,8.42427 4.254468,8.7206 -1.650989,0.76199 -2.666981,-0.27517 -7.704611,-7.72578 -5.20696,-7.68344 -5.884288,-13.50423 -2.116651,-17.84337 8.064442,-9.22859 26.352304,-8.10677 32.829257,2.03199 2.370651,3.70414 2.497648,4.59313 1.142992,8.08561 -3.979304,10.28692 -22.648164,30.28927 -19.557855,20.95484 z m 10.054093,-22.5635 c 0.804325,-1.71449 0.719661,-2.83631 -0.254,-3.57714 -1.058325,-0.80433 -1.248823,-0.59266 -0.761992,0.84666 1.015992,2.92098 -1.502823,3.38664 -3.809974,0.71966 -2.539981,-2.94214 -6.519285,-3.09031 -7.704608,-0.29633 -0.656161,1.58749 -0.04233,2.56115 2.624645,4.1698 4.233305,2.56115 8.170276,1.82032 9.905929,-1.86265 z m 36.977899,-24.19332 c 0,-0.48683 0.5715,-1.14299 1.26999,-1.48166 0.67733,-0.31749 1.03716,-1.50282 0.80433,-2.64581 -0.254,-1.14299 -0.21167,-1.54515 0.0847,-0.88899 0.29633,0.63499 1.33349,1.18532 2.30715,1.18532 0.99482,0 1.79915,0.42333 1.79915,0.93133 0,0.52916 -0.84666,0.95249 -1.88382,0.95249 -1.03716,0 -1.88382,0.635 -1.88382,1.41816 0,0.78316 -0.55033,1.41815 -1.24882,1.41815 -0.67733,0 -1.24883,-0.40216 -1.24883,-0.88899 z m -2.73048,-2.60348 c 0.91016,-0.254 1.98965,-0.23283 2.39182,0.0847 0.42333,0.31749 -0.3175,0.52916 -1.62982,0.48683 -1.46049,-0.0423 -1.75682,-0.254 -0.762,-0.5715 z"
       style="fill:#a1dbed;fill-opacity:1;fill-rule:nonzero;stroke:none;stroke-width:0.26458332"
       inkscape:connector-curvature="0" />
    <path
       id="path861"
       d="m 171.87249,290.84795 c -1.67216,-0.8255 -1.67216,-1.03716 0,-1.86266 1.03716,-0.50799 4.12747,-0.93132 6.87911,-0.93132 2.75165,0 5.86313,0.42333 6.87912,0.93132 1.67215,0.8255 1.67215,1.03716 0,1.86266 -1.01599,0.50799 -4.12747,0.93132 -6.87912,0.93132 -2.75164,0 -5.84195,-0.42333 -6.87911,-0.93132 z M 29.210202,289.42979 c 0,-0.76199 0.698495,-1.41815 1.566322,-1.41815 0.867828,-0.0212 -0.148166,-0.84667 -2.24365,-1.86266 -3.915804,-1.90498 -10.181091,-9.14393 -8.805268,-10.18109 1.672154,-1.26999 18.85936,-0.80433 21.060677,0.5715 1.926154,1.20649 2.476482,1.18532 4.444968,-0.16934 1.75682,-1.20649 3.704138,-1.41815 8.741768,-0.97366 4.12747,0.381 7.111947,0.1905 8.212605,-0.50799 1.33349,-0.82549 2.116651,-0.74083 3.40781,0.44449 1.418156,1.29116 1.291156,2.05316 -0.783162,4.95297 -1.333489,1.88382 -4.254468,4.33913 -6.498119,5.48212 -3.132642,1.58749 -3.619473,2.18016 -2.11665,2.62465 4.952963,1.41816 -0.634995,2.45532 -13.292569,2.45532 -11.345249,0 -13.694732,-0.23283 -13.694732,-1.41816 z m 97.619948,0 c 0,-0.95249 1.27,-1.41815 4.02164,-1.41815 h 4.04281 l -4.8048,-3.00565 c -2.66698,-1.65099 -5.60913,-4.40263 -6.54046,-6.11712 -8.5936,-15.51505 15.32456,-30.47977 34.84008,-21.82267 8.3396,3.68297 11.42992,7.40828 11.93791,14.35089 0.508,6.79445 -1.90498,10.41392 -9.65193,14.47789 -2.73048,1.41816 -4.99529,3.13265 -5.01646,3.78881 -0.0423,0.86783 -3.7888,1.16416 -14.43556,1.16416 -11.95908,0 -14.39323,-0.23283 -14.39323,-1.41816 z M 5.863542,271.41709 c -1.4604892,-2.89981 0.6984948,-11.91674 4.212135,-17.65287 l 3.555974,-5.75729 -3.471308,-2.62465 c -3.0056439,-2.28598 -3.4713071,-3.38664 -3.4713071,-8.19144 0,-5.71495 1.4816555,-8.06443 4.5296331,-7.17544 1.968485,0.57149 2.370649,3.13264 0.465663,3.13264 -0.677328,0 -1.248824,2.09549 -1.248824,4.6778 0,3.72531 0.550329,4.95296 2.751646,6.11712 3.407808,1.82032 4.529633,1.18533 1.714488,-0.93132 -1.291158,-0.97366 -1.947319,-2.73049 -1.714488,-4.52964 0.656162,-5.05879 3.090311,-5.39746 36.850894,-5.12229 27.706963,0.23283 30.437441,0.40216 32.850423,2.05315 1.799153,1.22766 2.645815,2.94214 2.645815,5.37629 0,2.98448 -0.465664,3.61948 -2.815146,3.87347 -2.539981,0.27517 -2.815145,0.8255 -2.815145,5.52446 0.02116,3.91581 0.740825,5.99012 2.899809,8.27611 l 2.899812,3.06914 h 12.424741 c 6.836783,0 12.424753,-0.381 12.424753,-0.84666 0,-0.48683 2.01082,-3.13264 4.4873,-5.90546 2.45531,-2.75164 3.87347,-5.18579 3.13264,-5.35512 -4.2333,-1.07949 -6.20178,-3.93697 -7.97977,-11.55692 -1.18533,-5.03763 -1.43932,-8.38193 -0.71966,-8.9746 0.78316,-0.61383 1.58748,-0.44449 2.37065,0.46567 0.91016,1.10065 1.18532,1.12182 1.18532,0.127 0.0212,-0.6985 0.80433,-1.05833 1.75682,-0.78317 0.95249,0.27517 2.28598,0.0847 2.98448,-0.44449 1.65099,-1.26999 2.64581,0 3.9793,5.10113 0.61383,2.34948 1.07949,3.04797 1.12183,1.67215 0.0423,-1.29116 -0.889,-5.99012 -2.05315,-10.41392 l -2.13782,-8.04328 -6.62512,-0.27516 c -7.04845,-0.3175 -9.33443,-1.88382 -6.49812,-4.46613 1.12183,-1.016 4.19097,-1.39699 11.15475,-1.39699 8.53011,0 10.28693,0.31749 15.53622,2.83631 3.25964,1.56632 7.61995,2.83631 9.6731,2.83631 h 3.76763 l -0.35983,8.27611 c -0.33866,7.76811 -0.52916,8.29727 -3.17497,8.5936 -1.54516,0.16933 -2.81515,0.381 -2.79398,0.46566 0,0.0847 0.76199,2.09549 1.69332,4.4238 1.65099,4.16981 1.79915,4.27564 7.91627,4.84713 9.6731,0.91016 14.88006,2.53998 16.42522,5.10113 1.18532,1.94732 0.95249,2.70932 -1.37583,4.76247 l -2.77281,2.43415 -7.32361,-1.43933 c -5.77846,-1.14299 -8.61477,-1.24882 -13.56774,-0.44449 -8.25494,1.35465 -16.38287,7.09078 -18.54186,13.12323 -2.58231,7.21778 -2.47648,7.02728 -3.9158,5.92663 -2.01082,-1.50283 -0.14817,-8.02211 3.49247,-12.23425 4.4873,-5.16463 10.90075,-8.55127 18.7112,-9.88476 6.45578,-1.07949 8.48777,-0.95249 19.26152,1.16416 1.18533,0.23283 1.88382,-0.29633 1.88382,-1.48165 0,-4.21214 -20.27752,-5.46096 -29.76011,-1.84149 -7.57761,2.89981 -12.25541,6.20179 -16.08655,11.32408 l -3.83114,5.14346 H 99.038515 c -11.133581,0 -13.229065,-0.27516 -18.499526,-2.45531 -6.434619,-2.64582 -10.56209,-7.11195 -12.25541,-13.2714 l -1.015992,-3.68298 -24.74365,-0.25399 c -15.917216,-0.14817 -24.489652,0.0847 -24.002822,0.67732 0.42333,0.508 -0.888994,3.17498 -2.920979,5.92663 -3.725305,5.03763 -7.6622761,13.80056 -7.6622761,17.01787 0,1.39699 1.0159923,1.71449 5.4609591,1.71449 h 5.46096 l 0.677328,-5.63029 c 0.761995,-6.41346 3.936971,-10.54093 10.096426,-13.05974 5.94779,-2.45532 23.769991,-2.30715 29.484948,0.23283 7.238945,3.23848 9.546096,6.45579 9.228598,12.82691 l -0.275164,5.58795 22.182503,0.254 c 13.991062,0.16934 22.055512,0.61383 21.865012,1.20649 -0.1905,0.61383 -19.1557,1.03716 -52.895118,1.18533 -46.968484,0.23283 -52.6834417,0.10583 -53.36077,-1.22766 z m 18.605362,-4.57196 c -0.296331,-1.92616 0.529163,-4.97413 2.053152,-7.57762 2.963311,-5.07996 2.476481,-5.69379 -1.079492,-1.29115 -2.455316,3.06914 -3.577141,12.06491 -1.481656,12.06491 0.550329,0 0.783161,-1.43932 0.507996,-3.19614 z M 125.158,244.26046 c -0.35983,-0.65616 -0.63499,-0.127 -0.63499,1.18532 0,1.29116 0.27516,1.82032 0.63499,1.18533 0.33867,-0.65616 0.33867,-1.71449 0,-2.37065 z m 11.93791,-1.05833 c 2.01082,-0.48683 1.98965,-0.86782 -0.3175,-5.94779 -1.67215,-3.64064 -2.05315,-5.73612 -1.20649,-6.37111 0.6985,-0.52917 1.24883,-3.53481 1.24883,-6.68862 0,-5.41863 -0.21167,-5.79963 -3.91581,-7.40828 -2.15898,-0.93133 -4.08513,-1.54515 -4.2968,-1.39699 -0.21166,0.16933 1.05833,5.69379 2.83631,12.27658 2.96332,10.98541 3.15381,16.57337 0.508,14.39322 -0.5715,-0.48683 -2.64581,-7.15428 -4.59313,-14.83772 -3.06915,-12.02258 -3.87347,-13.94873 -5.88429,-13.94873 -2.01082,0 -2.09549,0.1905 -0.5715,1.33349 1.01599,0.76199 2.94215,7.09078 4.5508,14.90122 3.51364,16.95438 3.13264,16.12888 6.64628,15.04939 1.56633,-0.46566 3.80998,-1.07949 4.9953,-1.35466 z m -13.16557,-4.12747 c -0.3175,-0.93132 -0.59266,-0.40216 -0.61383,1.16416 -0.0212,1.56632 0.23283,2.30715 0.5715,1.67216 0.33866,-0.635 0.35983,-1.92616 0.0423,-2.83632 z m 76.7286,-7.30244 c 0,-0.74083 0.48683,-1.58749 1.10066,-1.88382 1.37582,-0.635 4.19097,1.77799 3.04798,2.62465 -1.48166,1.12182 -4.14864,0.65616 -4.14864,-0.74083 z M 8.8691862,207.85406 c -3.0903102,-0.33866 -3.4289744,-0.76199 -3.4289744,-4.21213 0,-2.85748 0.4233302,-3.68298 1.7144873,-3.32315 0.9524928,0.27517 2.3494821,0.0423 3.0903099,-0.52916 0.994826,-0.74083 2.243651,-0.35983 4.5508,1.37583 2.772813,2.09548 2.942145,2.53998 1.291157,3.57714 -1.037159,0.65616 -1.883819,1.77798 -1.883819,2.49764 0,0.71966 -0.423331,1.22766 -0.952493,1.16416 -0.507997,-0.0847 -2.476482,-0.3175 -4.3814678,-0.55033 z m 2.8151458,-4.0428 c 0,-0.52916 -0.550329,-0.95249 -1.248824,-0.95249 -0.6773278,0 -1.2488238,0.42333 -1.2488238,0.95249 0,0.52916 0.571496,0.95249 1.2488238,0.95249 0.698495,0 1.248824,-0.42333 1.248824,-0.95249 z m 62.589369,-3.68297 c 0,-0.46567 3.111479,-4.82597 6.92145,-9.69427 10.79492,-13.82173 11.599246,-18.18203 4.360301,-23.64299 -7.133113,-5.39746 -20.637349,-2.87864 -23.854658,4.46614 -1.672154,3.83114 0.169333,8.5936 6.476952,16.67921 2.180151,2.79398 2.984479,4.6778 2.158984,5.07996 -1.799153,0.82549 -2.730479,-0.0847 -7.852775,-7.66228 -3.174976,-4.69896 -4.466132,-7.85277 -4.466132,-10.87958 0,-13.7794 24.12982,-18.35137 33.781748,-6.39229 4.762466,5.92662 2.412982,12.55174 -9.334431,26.28881 -5.058793,5.92662 -8.191439,8.12793 -8.191439,5.75729 z m -3.767638,-20.91252 c -5.164629,-3.9158 -1.799153,-10.41392 5.418627,-10.41392 3.598307,0 8.36077,2.92098 8.36077,5.14346 0,2.45532 -2.201317,2.45532 -4.339135,0 -2.751645,-3.19614 -7.408277,-2.83631 -7.937439,0.59266 -0.275166,1.84149 0.423328,2.70932 2.899812,3.55598 1.777987,0.61383 2.89981,1.54515 2.476482,2.07432 -1.227659,1.50282 -4.169804,1.07949 -6.879117,-0.9525 z m 51.307627,-27.38946 c 0,-0.48683 0.5715,-1.14299 1.26999,-1.48166 0.67733,-0.31749 1.03716,-1.50282 0.80433,-2.64581 -0.254,-1.14299 -0.21167,-1.54515 0.0847,-0.88899 0.29633,0.63499 1.33349,1.18532 2.30715,1.18532 0.99482,0 1.79915,0.42333 1.79915,0.93133 0,0.52916 -0.84666,0.95249 -1.88382,0.95249 -1.03716,0 -1.88382,0.635 -1.88382,1.41816 0,0.78316 -0.55033,1.41815 -1.24882,1.41815 -0.67733,0 -1.24883,-0.40216 -1.24883,-0.88899 z m -2.73048,-2.60348 c 0.91016,-0.254 1.98965,-0.23283 2.39182,0.0847 0.42333,0.31749 -0.3175,0.52916 -1.62982,0.48683 -1.46049,-0.0423 -1.75682,-0.254 -0.762,-0.5715 z"
       style="fill:#9fa2a2;fill-opacity:1;fill-rule:nonzero;stroke:none;stroke-width:0.26458332"
       inkscape:connector-curvature="0" />
    <path
       id="path863"
       d="m 29.697032,289.74729 c -0.338664,-0.42333 0.253998,-0.78316 1.312324,-0.78316 3.111477,0 2.264816,-1.24883 -2.391816,-3.53481 -4.381467,-2.13782 -8.699435,-7.06961 -7.852775,-8.9746 0.634995,-1.43932 18.795859,-1.37582 19.430857,0.0635 0.634994,1.39699 4.360299,1.41816 6.222952,0 0.783161,-0.59266 5.39746,-1.12183 10.265759,-1.16416 8.318437,-0.10583 8.826434,0.0212 8.826434,1.98965 0,2.41299 -6.519286,8.42427 -10.096426,9.27094 -2.963312,0.71966 -3.196143,2.34948 -0.338664,2.34948 1.142992,0 1.672154,0.3175 1.142992,0.71966 -1.291158,0.97366 -25.71731,1.03716 -26.521637,0.0635 z m 98.995778,0.16933 c -0.4445,-0.57149 1.03716,-0.95249 3.68297,-0.95249 5.63029,0 5.65146,-0.97366 0.0423,-3.25965 -15.04938,-6.13828 -12.84807,-23.32549 3.74648,-29.01928 16.7427,-5.75729 36.46989,4.63547 33.84524,17.8222 -0.88899,4.5508 -6.15945,9.84243 -12.08607,12.17075 -1.94732,0.76199 -3.40781,1.84148 -3.25965,2.41298 0.40217,1.35465 -24.89181,2.13782 -25.9713,0.82549 z m 43.17968,0 c 0,-0.52916 3.09031,-0.95249 6.87911,-0.95249 3.78881,0 6.87912,0.42333 6.87912,0.95249 0,0.508 -3.09031,0.93133 -6.87912,0.93133 -3.7888,0 -6.87911,-0.42333 -6.87911,-0.93133 z M 5.8847085,266.06196 c 0.4868297,-3.45014 2.3918157,-8.42427 4.5719655,-11.95907 l 3.767639,-6.07479 -3.15381,-2.18015 c -2.7728124,-1.94732 -3.1326431,-2.96331 -3.1326431,-8.86877 0,-4.9318 0.4444969,-6.66745 1.6721543,-6.66745 2.5399808,0 3.4713078,1.10066 2.0108188,2.43415 -0.719662,0.65616 -1.142992,3.40781 -0.931327,6.13828 0.380997,4.88947 1.121825,5.71496 6.328787,6.94262 1.947318,0.4445 1.777986,0.99483 -1.608655,5.01646 -4.12747,4.9318 -7.4717781,12.31891 -7.4717781,16.53105 0,2.56114 0.2328315,2.66698 6.2652871,2.66698 h 6.24412 v -5.67263 c 0,-5.16463 0.402164,-6.01128 4.381468,-9.33443 5.39746,-4.50846 12.699905,-6.26528 23.092662,-5.56679 13.419566,0.93133 20.087018,5.96896 20.087018,15.19755 v 5.3763 h 21.907336 c 13.758239,0 21.886179,0.35983 21.886179,0.95249 0,0.61383 -18.626536,0.93133 -53.360777,0.93133 H 5.0803811 Z m 18.5841955,0.78317 c -0.296331,-1.92616 0.550329,-5.07997 2.116651,-7.81045 l 2.603481,-4.6143 -3.111477,2.85748 c -2.434149,2.22249 -3.111477,3.89464 -3.111477,7.78928 0,2.73048 0.444497,4.97413 0.994826,4.97413 0.550329,0 0.783161,-1.43932 0.507996,-3.19614 z m 92.815156,1.33348 c 2.85748,-13.44073 21.88617,-22.119 38.65005,-17.58936 4.78363,1.26999 6.73095,0.65616 5.50329,-1.77799 -0.97366,-1.90499 -12.65757,-3.68297 -19.68486,-2.98448 -3.38664,0.33867 -8.55127,1.39699 -11.49341,2.34948 -6.01129,1.96849 -14.58373,8.53011 -17.08138,13.12324 l -1.67215,3.06914 H 98.996185 c -11.154751,0 -13.165569,-0.27516 -18.605362,-2.51881 -4.698966,-1.92615 -6.815617,-3.59831 -9.228598,-7.28128 -1.735654,-2.62465 -3.15381,-5.71496 -3.15381,-6.90028 0,-1.16416 -0.444497,-2.32832 -0.994825,-2.58232 -0.550331,-0.25399 -12.12841,-0.67732 -25.738476,-0.93132 -16.340547,-0.3175 -25.378647,-0.86783 -26.542804,-1.60866 -2.476482,-1.56632 -2.222484,-5.01646 0.507996,-6.90028 1.989652,-1.35466 6.201787,-1.56632 33.548919,-1.56632 35.199905,0 35.686735,0.0847 35.940733,6.22295 0.148166,3.17498 -0.232831,3.76764 -2.645815,4.02164 -2.434148,0.254 -2.815146,0.86783 -2.815146,4.4238 0,4.95296 1.714487,8.69943 5.312794,11.59925 2.349484,1.90498 3.83114,2.11665 13.737066,2.11665 h 11.091263 l 2.13781,-2.96331 c 1.18533,-1.65099 3.68298,-4.3603 5.5668,-6.05362 1.90498,-1.67216 3.45014,-3.25965 3.45014,-3.51365 0,-0.27516 -1.69332,-1.01599 -3.76764,-1.65098 -3.91581,-1.22766 -4.08514,-1.52399 -6.20179,-10.81609 -1.71449,-7.47178 -1.65099,-8.00094 0.88899,-7.87394 1.2065,0.0635 3.66181,-0.16933 5.41863,-0.508 3.19614,-0.61383 3.25964,-0.508 4.72013,6.68862 0.8255,4.02164 1.98965,8.57244 2.60348,10.13876 l 1.12183,2.83631 0.10583,-2.73048 c 0.10584,-2.37065 -3.80997,-21.88617 -5.54562,-27.72813 -0.508,-1.77799 -1.58749,-2.11665 -7.17545,-2.37065 -5.58796,-0.23283 -6.62512,-0.57149 -6.94262,-2.28598 -0.42333,-2.26482 3.40781,-3.19614 13.18674,-3.19614 5.35513,0 17.84337,4.12746 17.86453,5.90545 0,0.40217 1.96849,0.71966 4.38147,0.71966 h 4.3603 v 7.55645 7.57761 h -3.74647 c -2.05315,0 -3.74647,0.127 -3.74647,0.29633 0,0.52916 4.08513,9.60959 4.4873,9.96942 0.1905,0.1905 3.36547,0.55034 7.00611,0.80433 13.18674,0.93133 19.45203,4.6778 14.88006,8.93227 -2.22248,2.07432 -2.66698,2.13782 -8.12794,1.03716 -16.53104,-3.34431 -29.37912,1.54515 -34.58608,13.16557 -2.85748,6.37112 -5.67262,7.49294 -4.46613,1.77798 z m 15.49388,-23.62182 c 1.20649,-0.46566 3.13265,-1.10066 4.31797,-1.37582 2.01082,-0.46567 1.98965,-0.84666 -0.3175,-5.92663 -1.67215,-3.64064 -2.05315,-5.73612 -1.20649,-6.37111 0.6985,-0.52917 1.24883,-3.53481 1.24883,-6.68862 0,-5.41863 -0.21167,-5.79963 -3.91581,-7.40828 -2.15898,-0.93133 -4.08513,-1.54515 -4.2968,-1.39699 -0.21166,0.16933 1.05833,5.69379 2.83631,12.27658 2.98448,11.04891 3.15381,16.53104 0.46567,14.39322 -0.59266,-0.48683 -2.32832,-6.41345 -3.87347,-13.16557 -3.19615,-14.18156 -4.19097,-16.57337 -6.81562,-16.57337 -2.22248,0 -2.47648,1.10066 -0.5715,2.51881 1.03716,0.78316 7.42945,26.47931 7.42945,29.86595 0,0.99482 2.05315,0.93132 4.69896,-0.14817 z m -16.59454,-31.2841 c -0.42333,-0.52916 -2.43415,-0.95249 -4.44497,-0.95249 -2.03198,0 -3.68297,0.42333 -3.68297,0.95249 0,0.52916 2.01082,0.95249 4.44497,0.95249 2.64581,0 4.14863,-0.381 3.68297,-0.95249 z m 85.72437,18.49953 c 0,-0.80433 0.57149,-1.46049 1.24882,-1.46049 0.6985,0 1.24882,0.40216 1.24882,0.88899 0,0.48683 -0.55032,1.143 -1.24882,1.46049 -0.67733,0.33867 -1.24882,-0.0635 -1.24882,-0.88899 z M 8.5728552,206.79574 c -3.8311382,-0.9525 -3.6618061,-5.1223 0.253998,-6.51929 2.7728128,-0.97366 3.4713078,-0.86782 5.4821258,0.97366 2.603481,2.34948 2.984478,3.51364 1.142992,3.51364 -0.698495,0 -1.248824,0.635 -1.248824,1.41816 0,1.48165 -1.46049,1.62982 -5.6302918,0.61383 z m 4.1274698,-3.04798 c -0.232832,-0.5715 -0.97366,-1.01599 -1.629822,-1.01599 -0.656161,0 -1.3969898,0.44449 -1.6298208,1.01599 -0.253998,0.55033 0.48683,1.01599 1.6298208,1.01599 1.142992,0 1.88382,-0.46566 1.629822,-1.01599 z m 62.356537,-4.91063 c 0.507998,-0.635 2.857479,-3.45014 5.185797,-6.22295 12.805738,-15.23989 13.440732,-23.96049 2.05315,-28.04563 -6.561619,-2.34948 -12.636407,-1.39699 -17.737537,2.77281 -5.630291,4.6143 -5.418624,8.19144 1.100659,17.67404 5.587961,8.10677 5.884291,11.07008 0.465664,4.59313 -8.212606,-9.84243 -9.905926,-16.23471 -5.672624,-21.46284 7.704608,-9.56726 25.653809,-8.7841 31.6016,1.35466 2.434149,4.1698 2.455315,4.59313 0.529162,9.20743 -1.926154,4.65663 -10.37159,16.23471 -14.308561,19.66369 -2.158984,1.88381 -4.635466,2.24364 -3.21731,0.46566 z m -5.355127,-21.12418 c -2.751645,-3.17498 -1.079492,-7.11195 3.555974,-8.3396 4.254468,-1.14299 9.778929,1.35465 9.757762,4.4238 0,1.98965 -0.148167,1.96848 -2.878646,-0.61383 -2.201317,-2.07432 -3.534807,-2.58232 -5.566793,-2.09549 -4.550799,1.10066 -4.91063,4.38147 -0.783159,6.87912 3.428974,2.07432 3.471307,2.18015 0.825492,2.18015 -1.62982,0 -3.682971,-1.01599 -4.91063,-2.43415 z"
       style="fill:#64a3ce;fill-opacity:1;fill-rule:nonzero;stroke:none;stroke-width:0.26458332"
       inkscape:connector-curvature="0" />
    <path
       id="path865"
       d="m 29.697032,289.74729 c -0.338664,-0.42333 0.253998,-0.78316 1.312324,-0.78316 3.111477,0 2.264816,-1.24883 -2.391816,-3.53481 -4.381467,-2.13782 -8.699435,-7.06961 -7.852775,-8.9746 0.634995,-1.43932 18.795859,-1.37582 19.430857,0.0635 0.634994,1.39699 4.360299,1.41816 6.222952,0 0.783161,-0.59266 5.39746,-1.12183 10.265759,-1.16416 8.318437,-0.10583 8.826434,0.0212 8.826434,1.98965 0,2.41299 -6.519286,8.42427 -10.096426,9.27094 -2.963312,0.71966 -3.196143,2.34948 -0.338664,2.34948 1.142992,0 1.672154,0.3175 1.142992,0.71966 -1.291158,0.97366 -25.71731,1.03716 -26.521637,0.0635 z m 98.995778,0.16933 c -0.4445,-0.57149 1.03716,-0.95249 3.68297,-0.95249 5.63029,0 5.65146,-0.97366 0.0423,-3.25965 -15.04938,-6.13828 -12.84807,-23.32549 3.74648,-29.01928 16.7427,-5.75729 36.46989,4.63547 33.84524,17.8222 -0.88899,4.5508 -6.15945,9.84243 -12.08607,12.17075 -1.94732,0.76199 -3.40781,1.84148 -3.25965,2.41298 0.40217,1.35465 -24.89181,2.13782 -25.9713,0.82549 z m 21.31467,-15.55738 c 2.79398,-1.94732 3.06915,-2.60349 1.84149,-4.29681 -1.07949,-1.54515 -2.37065,-1.94732 -5.39746,-1.73565 -3.38664,0.254 -4.0428,0.71966 -4.40263,3.09031 -0.27517,1.86265 0.31749,3.19614 1.79915,4.02164 2.79398,1.54515 2.28598,1.62982 6.15945,-1.07949 z m 21.86501,15.55738 c 0,-0.52916 3.09031,-0.95249 6.87911,-0.95249 3.78881,0 6.87912,0.42333 6.87912,0.95249 0,0.508 -3.09031,0.93133 -6.87912,0.93133 -3.7888,0 -6.87911,-0.42333 -6.87911,-0.93133 z M 5.8847085,266.06196 c 0.4868297,-3.45014 2.3918157,-8.42427 4.5719655,-11.95907 l 3.767639,-6.07479 -3.15381,-2.18015 c -2.7728124,-1.94732 -3.1326431,-2.96331 -3.1326431,-8.86877 0,-4.9318 0.4444969,-6.66745 1.6721543,-6.66745 2.5399808,0 3.4713078,1.10066 2.0108188,2.43415 -0.719662,0.65616 -1.142992,3.40781 -0.931327,6.13828 0.380997,4.88947 1.121825,5.71496 6.328787,6.94262 1.947318,0.4445 1.777986,0.99483 -1.608655,5.01646 -4.12747,4.9318 -7.4717781,12.31891 -7.4717781,16.53105 0,2.56114 0.2328315,2.66698 6.2652871,2.66698 h 6.24412 v -5.71496 c 0,-5.33396 0.317498,-5.96895 4.91063,-9.69426 l 4.931797,-3.97931 11.853245,-0.33866 c 8.974601,-0.23283 12.869238,0.0423 16.044214,1.18533 5.333961,1.92615 9.821262,6.90028 9.821262,10.85842 0,3.7253 -1.88382,3.17497 -2.963312,-0.86783 -1.291156,-4.88946 -6.815616,-8.19144 -14.964722,-8.9746 -11.027751,-1.03716 -18.139698,0.127 -22.98683,3.7888 -3.704139,2.81515 -4.127469,3.70414 -4.127469,8.44544 v 5.29163 h 44.407339 c 28.786452,0 44.428509,0.33866 44.428509,0.95249 0,0.61383 -18.626536,0.93133 -53.360777,0.93133 H 5.0803811 Z M 116.8184,271.16309 c 0,-0.42333 0.82549,-2.87864 1.84148,-5.43979 2.39182,-6.09596 7.91628,-11.02775 15.19755,-13.61007 5.86313,-2.09548 7.83162,-2.15898 24.84949,-0.80432 2.73048,0.21166 3.83114,-0.14817 4.14863,-1.39699 1.22766,-4.57197 -20.65851,-6.11712 -31.64393,-2.24365 -6.43462,2.28598 -14.64722,8.38193 -18.41486,13.69473 l -2.11665,3.00564 H 99.419515 c -6.201788,0 -12.572907,-0.44449 -14.160393,-0.99482 -5.058797,-1.75682 -8.911104,-7.13312 -9.503765,-13.29257 l -0.550328,-5.58796 -17.674037,-0.1905 c -9.715429,-0.10583 -22.859831,-0.254 -29.16745,-0.3175 -7.408278,-0.0635 -12.19191,-0.52916 -13.4619,-1.33349 -2.624648,-1.65098 -2.476482,-5.07996 0.338664,-7.00611 1.989652,-1.35466 6.201787,-1.56632 33.548919,-1.56632 35.199905,0 35.686735,0.0847 35.940733,6.22295 0.148166,3.17498 -0.232831,3.76764 -2.645815,4.02164 -2.920976,0.3175 -3.492474,1.73565 -2.878646,7.26011 0.359831,3.34431 1.904987,5.82079 5.439794,8.76294 2.285984,1.90498 3.746474,2.11665 13.673566,2.11665 h 11.091263 l 2.13781,-2.96331 c 1.18533,-1.65099 3.68298,-4.3603 5.5668,-6.05362 1.90498,-1.67216 3.45014,-3.25965 3.45014,-3.51365 0,-0.27516 -1.69332,-1.01599 -3.76764,-1.65098 -3.91581,-1.22766 -4.08514,-1.52399 -6.20179,-10.81609 -1.71449,-7.47178 -1.65099,-8.00094 0.88899,-7.87394 1.2065,0.0635 3.66181,-0.16933 5.41863,-0.508 3.19614,-0.61383 3.25964,-0.508 4.72013,6.68862 0.8255,4.02164 1.98965,8.57244 2.60348,10.13876 l 1.12183,2.83631 0.10583,-2.73048 c 0.10584,-2.37065 -3.80997,-21.88617 -5.54562,-27.72813 -0.508,-1.77799 -1.58749,-2.11665 -7.17545,-2.37065 -5.58796,-0.23283 -6.62512,-0.57149 -6.94262,-2.28598 -0.42333,-2.26482 3.40781,-3.19614 13.18674,-3.19614 5.35513,0 17.84337,4.12746 17.86453,5.90545 0,0.40217 1.96849,0.71966 4.38147,0.71966 h 4.3603 v 7.55645 7.57761 h -3.74647 c -2.05315,0 -3.74647,0.127 -3.74647,0.29633 0,0.52916 4.08513,9.60959 4.4873,9.96942 0.1905,0.1905 3.36547,0.55034 7.00611,0.78317 9.18627,0.61382 15.30339,2.96331 15.79022,6.05362 0.59266,3.9158 -2.58232,5.24929 -9.24977,3.89464 -11.89558,-2.41299 -20.84901,-0.84666 -28.57478,5.01646 -2.49765,1.88382 -4.9953,5.03763 -5.8208,7.32361 -0.80432,2.22249 -1.65098,4.57197 -1.88381,5.22813 -0.48683,1.29116 -3.02681,1.62982 -3.02681,0.40216 z m 17.67403,-26.81796 c 5.52446,-1.24883 5.35513,-0.86783 3.13265,-6.47696 -1.05833,-2.70931 -1.48166,-7.17544 -1.143,-12.29774 l 0.52917,-8.04327 -4.46614,-1.62982 c -5.56679,-2.03199 -5.54562,-2.41299 -1.20649,13.18673 2.94215,10.62559 3.19615,13.99107 0.95249,12.29774 -0.42333,-0.33866 -2.39181,-6.60395 -4.3603,-13.94873 -3.87347,-14.49906 -4.14863,-15.11288 -6.81561,-15.11288 -2.11665,0 -2.32832,1.12182 -0.46567,2.51881 1.03716,0.78316 7.42945,26.47931 7.42945,29.86595 0,0.97365 0.69849,0.93132 6.41345,-0.35983 z M 116.1834,213.27269 c -0.42333,-0.52916 -2.43415,-0.95249 -4.44497,-0.95249 -2.03198,0 -3.68297,0.42333 -3.68297,0.95249 0,0.52916 2.01082,0.95249 4.44497,0.95249 2.64581,0 4.14863,-0.381 3.68297,-0.95249 z m -84.877713,52.34478 c -0.465663,-0.33867 -0.846661,-1.20649 -0.846661,-1.92615 0,-1.016 2.645815,-1.22766 12.826905,-1.016 11.027752,0.23283 12.869238,0.508 13.229069,1.92615 0.359831,1.48166 -0.846661,1.65099 -11.980243,1.65099 -6.815617,0 -12.784574,-0.27516 -13.22907,-0.63499 z m 0,-4.72013 c -2.116651,-1.58749 -0.296331,-2.20132 6.498117,-2.20132 9.609595,0 18.944027,0.99482 18.944027,2.01082 0,0.95249 -24.214487,1.12182 -25.442144,0.1905 z M 201.90777,231.77222 c 0,-0.80433 0.57149,-1.46049 1.24882,-1.46049 0.6985,0 1.24882,0.40216 1.24882,0.88899 0,0.48683 -0.55032,1.143 -1.24882,1.46049 -0.67733,0.33867 -1.24882,-0.0635 -1.24882,-0.88899 z M 8.5728552,206.79574 c -3.8311382,-0.9525 -3.6618061,-5.1223 0.253998,-6.51929 2.7728128,-0.97366 3.4713078,-0.86782 5.4821258,0.97366 2.603481,2.34948 2.984478,3.51364 1.142992,3.51364 -0.698495,0 -1.248824,0.635 -1.248824,1.41816 0,1.48165 -1.46049,1.62982 -5.6302918,0.61383 z m 4.1274698,-3.04798 c -0.232832,-0.5715 -0.97366,-1.01599 -1.629822,-1.01599 -0.656161,0 -1.3969898,0.44449 -1.6298208,1.01599 -0.253998,0.55033 0.48683,1.01599 1.6298208,1.01599 1.142992,0 1.88382,-0.46566 1.629822,-1.01599 z m 62.356537,-4.91063 c 0.507998,-0.635 2.857479,-3.45014 5.185797,-6.22295 12.805738,-15.23989 13.440732,-23.96049 2.05315,-28.04563 -6.561619,-2.34948 -12.636407,-1.39699 -17.737537,2.77281 -5.630291,4.6143 -5.418624,8.19144 1.100659,17.67404 5.587961,8.10677 5.884291,11.07008 0.465664,4.59313 -8.212606,-9.84243 -9.905926,-16.23471 -5.672624,-21.46284 7.704608,-9.56726 25.653809,-8.7841 31.6016,1.35466 2.434149,4.1698 2.455315,4.59313 0.529162,9.20743 -1.926154,4.65663 -10.37159,16.23471 -14.308561,19.66369 -2.158984,1.88381 -4.635466,2.24364 -3.21731,0.46566 z m -5.355127,-21.12418 c -2.751645,-3.17498 -1.079492,-7.11195 3.555974,-8.3396 4.254468,-1.14299 9.778929,1.35465 9.757762,4.4238 0,1.98965 -0.148167,1.96848 -2.878646,-0.61383 -2.201317,-2.07432 -3.534807,-2.58232 -5.566793,-2.09549 -4.550799,1.10066 -4.91063,4.38147 -0.783159,6.87912 3.428974,2.07432 3.471307,2.18015 0.825492,2.18015 -1.62982,0 -3.682971,-1.01599 -4.91063,-2.43415 z"
       style="fill:#3c7290;fill-opacity:1;fill-rule:nonzero;stroke:none;stroke-width:0.26458332"
       inkscape:connector-curvature="0" />
    <path
       id="path867"
       d="m 29.697032,289.74729 c -0.338664,-0.42333 0.253998,-0.78316 1.312324,-0.78316 3.111477,0 2.264816,-1.24883 -2.391816,-3.53481 -4.381467,-2.13782 -8.699435,-7.06961 -7.852775,-8.9746 0.634995,-1.43932 18.795859,-1.37582 19.430857,0.0635 0.634994,1.39699 4.360299,1.41816 6.222952,0 0.783161,-0.59266 5.39746,-1.12183 10.265759,-1.16416 8.318437,-0.10583 8.826434,0.0212 8.826434,1.98965 0,2.41299 -6.519286,8.42427 -10.096426,9.27094 -2.963312,0.71966 -3.196143,2.34948 -0.338664,2.34948 1.142992,0 1.672154,0.3175 1.142992,0.71966 -1.291158,0.97366 -25.71731,1.03716 -26.521637,0.0635 z m 98.995778,0.16933 c -0.4445,-0.57149 1.03716,-0.95249 3.68297,-0.95249 5.63029,0 5.65146,-0.97366 0.0423,-3.25965 -14.96472,-6.09595 -12.74224,-23.36782 3.74648,-29.01928 16.7427,-5.75729 36.46989,4.63547 33.84524,17.8222 -0.88899,4.5508 -6.15945,9.84243 -12.08607,12.17075 -1.94732,0.76199 -3.40781,1.84148 -3.25965,2.41298 0.40217,1.35465 -24.89181,2.13782 -25.9713,0.82549 z m 21.8015,-15.53622 c 4.8048,-3.87347 0.16933,-8.7841 -5.94779,-6.30762 -3.51364,1.41816 -4.2968,3.80997 -2.07432,6.37112 2.45532,2.81515 4.46614,2.81515 8.02211,-0.0635 z m 21.37818,15.53622 c 0,-0.52916 3.09031,-0.95249 6.87911,-0.95249 3.78881,0 6.87912,0.42333 6.87912,0.95249 0,0.508 -3.09031,0.93133 -6.87912,0.93133 -3.7888,0 -6.87911,-0.42333 -6.87911,-0.93133 z M 5.8847085,266.06196 c 0.4868297,-3.45014 2.3918157,-8.42427 4.5719655,-11.95907 l 3.767639,-6.07479 -3.15381,-2.18015 c -2.7728124,-1.94732 -3.1326431,-2.96331 -3.1326431,-8.86877 0,-4.9318 0.4444969,-6.66745 1.6721543,-6.66745 2.5399808,0 3.4713078,1.10066 2.0108188,2.43415 -0.719662,0.65616 -1.142992,3.40781 -0.931327,6.13828 0.380997,4.88947 1.121825,5.71496 6.328787,6.94262 1.947318,0.4445 1.777986,0.99483 -1.608655,5.01646 -5.9901218,7.15428 -9.588429,18.49953 -6.1382878,19.36736 0.719661,0.1905 3.5348068,0.1905 6.2441198,-0.0212 l 4.931797,-0.33866 v -4.97413 c 0,-5.96896 3.513641,-10.54092 10.032926,-13.10207 6.328786,-2.45532 24.616651,-1.94732 29.548447,0.82549 5.545627,3.13265 8.233773,6.45579 7.683445,9.4826 -0.529164,2.98448 -0.423331,3.06914 -3.725307,-3.61947 -2.180151,-4.4238 -8.064439,-6.39229 -19.007527,-6.39229 -16.340545,0 -22.013169,3.40781 -22.013169,13.18674 v 4.78363 l 15.938381,0.0423 c 26.098307,0.0847 72.198977,0.99483 72.770467,1.43932 0.29634,0.23283 -23.55833,0.40217 -53.022113,0.40217 H 5.0803811 Z m 112.1401815,2.32832 c 1.65098,-6.70978 7.61994,-12.86924 15.66321,-16.15005 3.55598,-1.46049 13.16557,-1.79915 25.03999,-0.93132 3.04797,0.23283 3.76763,-0.0847 3.76763,-1.58749 0,-1.16416 -1.46049,-2.43415 -3.76763,-3.28081 -5.14347,-1.90498 -19.93886,-1.71449 -26.05598,0.3175 -6.22295,2.09548 -15.45155,8.57243 -18.41486,12.9539 -2.75165,4.06397 -4.84713,4.6143 -17.504716,4.63547 -10.60442,0.0212 -13.207902,-0.91016 -17.568201,-6.22296 -1.968486,-2.41298 -2.772815,-4.88946 -2.772815,-8.50893 v -5.1223 l -18.287865,-0.1905 c -10.05409,-0.10583 -23.452492,-0.254 -29.760111,-0.3175 -7.408278,-0.0635 -12.19191,-0.52916 -13.4619,-1.33349 -2.624648,-1.65098 -2.476482,-5.07996 0.338664,-7.00611 1.989652,-1.35466 6.201787,-1.56632 33.548919,-1.56632 35.199905,0 35.686735,0.0847 35.940733,6.22295 0.148166,3.15381 -0.253998,3.76764 -2.582315,4.02164 -5.757291,0.61383 -5.058796,9.56726 1.142992,14.92239 3.746473,3.21731 3.767637,3.21731 14.943555,3.21731 h 11.17593 l 2.13781,-2.96331 c 1.18533,-1.65099 3.68298,-4.3603 5.5668,-6.05362 1.90498,-1.67216 3.45014,-3.25965 3.45014,-3.51365 0,-0.27516 -1.69332,-1.01599 -3.76764,-1.65098 -3.91581,-1.22766 -4.08514,-1.52399 -6.20179,-10.81609 -1.58749,-6.87912 -1.60865,-8.10677 -0.16933,-8.10677 0.61383,0 1.71449,2.01081 2.43415,4.4873 l 1.33349,4.50846 -0.65616,-4.59313 c -0.635,-4.2968 -0.508,-4.52963 1.92615,-3.95814 1.52399,0.35983 2.60348,0.21167 2.60348,-0.38099 0,-0.55033 0.46566,-1.016 1.03716,-1.016 1.03716,0 4.69896,14.88006 4.4873,18.22437 -0.0423,0.91016 0.381,1.65099 0.93133,1.65099 1.62982,0 1.26999,-4.02164 -1.46049,-16.44638 -3.76764,-17.12371 -2.77282,-15.57855 -10.32926,-15.91722 -5.58796,-0.23283 -6.62512,-0.57149 -6.94262,-2.28598 -0.42333,-2.26482 3.40781,-3.19614 13.18674,-3.19614 5.35513,0 17.84337,4.12746 17.86453,5.90545 0,1.03716 -0.93132,0.889 -5.18579,-0.78316 -2.09549,-0.80433 -4.00047,-1.33349 -4.21214,-1.16416 -0.23283,0.16933 1.18533,6.26529 3.13265,13.54657 3.23847,12.12841 3.61947,14.88006 1.88382,13.56773 -0.33867,-0.27516 -2.05316,-5.96895 -3.80998,-12.6999 -3.64064,-13.9699 -4.76246,-16.48871 -7.42944,-16.48871 -2.22248,0 -2.47648,1.10066 -0.5715,2.51881 0.74083,0.5715 2.75165,7.57761 4.4873,15.57855 1.73566,8.00094 3.36548,14.73189 3.66181,14.94356 1.05833,0.80433 10.54092,-1.92615 10.51976,-3.02681 0,-0.635 -0.84666,-3.21731 -1.84149,-5.73613 -1.29116,-3.17497 -1.48166,-5.12229 -0.61383,-6.32879 0.67733,-0.95249 1.22766,-4.31796 1.22766,-7.47177 v -5.73613 h 3.74647 3.74647 v 7.55645 7.57761 h -3.74647 c -2.05315,0 -3.74647,0.127 -3.74647,0.29633 0,0.52916 4.08513,9.60959 4.4873,9.96942 0.1905,0.1905 3.36547,0.55034 7.00611,0.80433 12.57291,0.889 18.05504,4.1698 14.73189,8.86877 -1.16416,1.62982 -2.15898,1.90499 -5.37629,1.41816 -9.58843,-1.43933 -17.08137,-1.62982 -21.37817,-0.5715 -8.69944,2.18015 -15.38806,8.21261 -17.56821,15.87488 -1.22765,4.2968 -3.04797,3.87348 -1.96848,-0.46566 z m 2.11665,-24.12982 c -0.33867,-0.65616 -0.635,-0.127 -0.635,1.18532 0,1.29116 0.29633,1.82032 0.635,1.18533 0.33866,-0.65616 0.33866,-1.71449 0,-2.37065 z m -4.5508,-2.60348 c -0.65616,-2.09549 -1.07949,-2.56115 -1.16416,-1.26999 -0.127,2.07431 1.12183,5.37629 1.82032,4.84713 0.21166,-0.14817 -0.0847,-1.75682 -0.65616,-3.57714 z m 3.32314,-4.91063 c -0.40216,-0.762 -0.6985,-0.52916 -0.762,0.57149 -0.0423,0.99483 0.254,1.56632 0.67734,1.24883 0.40216,-0.3175 0.44449,-1.14299 0.0847,-1.82032 z m -1.24882,-4.72013 c -0.40217,-0.762 -0.6985,-0.52917 -0.762,0.57149 -0.0423,0.99483 0.254,1.54516 0.65616,1.22766 0.42333,-0.3175 0.46567,-1.12182 0.10584,-1.79915 z m -1.48166,-18.75353 c -0.42333,-0.52916 -2.43415,-0.95249 -4.44497,-0.95249 -2.03198,0 -3.68297,0.42333 -3.68297,0.95249 0,0.52916 2.01082,0.95249 4.44497,0.95249 2.64581,0 4.14863,-0.381 3.68297,-0.95249 z m -85.089378,51.09595 c -0.507997,-0.61382 3.746473,-0.95249 11.810912,-0.95249 7.556444,0 12.594074,0.381 12.594074,0.95249 0,0.55033 -4.783632,0.9525 -11.810913,0.9525 -6.540452,0 -12.170743,-0.42333 -12.594073,-0.9525 z m -0.634996,-4.7413 c 0,-0.52916 3.767638,-0.93132 8.762934,-0.93132 5.016463,0 8.762937,0.40216 8.762937,0.93132 0,0.55034 -3.746474,0.9525 -8.762937,0.9525 -4.995296,0 -8.762934,-0.40216 -8.762934,-0.9525 z M 201.90777,231.77222 c 0,-0.80433 0.57149,-1.46049 1.24882,-1.46049 0.6985,0 1.24882,0.40216 1.24882,0.88899 0,0.48683 -0.55032,1.143 -1.24882,1.46049 -0.67733,0.33867 -1.24882,-0.0635 -1.24882,-0.88899 z M 8.5728552,206.79574 c -3.8311382,-0.9525 -3.6618061,-5.1223 0.253998,-6.51929 2.7728128,-0.97366 3.4713078,-0.86782 5.4821258,0.97366 2.603481,2.34948 2.984478,3.51364 1.142992,3.51364 -0.698495,0 -1.248824,0.635 -1.248824,1.41816 0,1.48165 -1.46049,1.62982 -5.6302918,0.61383 z m 4.1274698,-3.04798 c -0.232832,-0.5715 -0.97366,-1.01599 -1.629822,-1.01599 -0.656161,0 -1.3969898,0.44449 -1.6298208,1.01599 -0.253998,0.55033 0.48683,1.01599 1.6298208,1.01599 1.142992,0 1.88382,-0.46566 1.629822,-1.01599 z m 62.356537,-4.91063 c 0.507998,-0.635 2.730479,-3.30198 4.91063,-5.90546 7.238947,-8.63593 10.56209,-14.45672 10.56209,-18.52069 0,-10.56209 -16.806209,-15.04939 -26.182974,-6.96379 -5.376293,4.63547 -5.101129,8.23378 1.312323,17.56821 5.587961,8.10677 5.884291,11.07008 0.465664,4.59313 -8.212606,-9.84243 -9.905926,-16.23471 -5.672624,-21.46284 4.931796,-6.13829 14.160394,-8.36077 22.627,-5.46096 9.524928,3.23848 12.445907,11.02775 7.471778,19.81185 -3.301977,5.82079 -13.377236,17.52587 -15.091723,17.52587 -0.740828,0 -0.931325,-0.52916 -0.402164,-1.18532 z m -5.249293,-20.99718 c -2.624648,-3.02681 -1.989654,-5.07996 2.328315,-7.49294 3.217309,-1.82032 3.746473,-1.86266 6.879116,-0.55033 1.968484,0.84666 3.534807,2.41298 3.767638,3.76764 l 0.380997,2.32831 -2.96331,-2.70931 c -3.386642,-3.13264 -7.725777,-2.85748 -9.1651,0.5715 -0.634995,1.54515 0.02117,2.56114 2.751648,4.21213 3.428974,2.07432 3.471307,2.18015 0.825492,2.18015 -1.587487,0 -3.661804,-0.99482 -4.804796,-2.30715 z"
       style="fill:#5a5d5f;fill-opacity:1;fill-rule:nonzero;stroke:none;stroke-width:0.26458332"
       inkscape:connector-curvature="0" />
    <path
       id="path869"
       d="m 172.50748,289.91662 c 0.42333,-0.52916 3.23848,-0.95249 6.24412,-0.95249 3.02681,0 5.84196,0.42333 6.26529,0.95249 0.48683,0.59266 -1.88382,0.93133 -6.26529,0.93133 -4.3603,0 -6.73095,-0.33867 -6.24412,-0.93133 z m -139.529639,-0.86783 3.111476,-0.67732 -3.74647,-1.52399 c -8.022109,-3.21731 -13.842899,-10.18109 -9.122767,-10.92192 1.460489,-0.23283 2.709313,0.69849 3.915804,2.87864 3.450141,6.24412 11.683915,9.18627 20.573849,7.38712 6.519283,-1.33349 11.408748,-4.33914 13.652397,-8.38194 1.248825,-2.24365 2.222484,-2.98448 3.090312,-2.30715 2.518815,1.88382 -2.603482,7.70461 -9.334431,10.60442 l -6.265289,2.70931 4.254471,0.40216 c 2.349482,0.21167 -1.926153,0.42334 -9.503764,0.4445 -7.577612,0.0423 -12.361242,-0.25399 -10.625588,-0.61383 z m 100.731429,0 6.24412,-0.55033 -5.56679,-2.37064 c -3.06914,-1.29116 -6.92145,-3.85231 -8.57244,-5.67263 -2.49765,-2.79398 -2.89981,-4.21213 -2.49765,-9.0381 0.59267,-7.19661 3.76764,-10.77375 12.53058,-14.07573 8.25494,-3.11148 12.63641,-3.06914 21.10301,0.16933 5.31279,2.03199 7.40828,3.51364 9.60959,6.81562 1.54516,2.32832 2.81515,5.75729 2.81515,7.61994 0,5.16463 -4.8048,11.45109 -10.64675,13.92757 -2.75165,1.18532 -4.8683,2.56115 -4.6778,3.09031 0.19049,0.59266 -4.6778,0.88899 -13.14441,0.80433 -9.80009,-0.10584 -11.74741,-0.29633 -7.19661,-0.71967 z m 18.2667,-3.04797 c 11.87441,-3.00565 17.2507,-13.2714 11.32408,-21.63218 -2.70931,-3.80997 -11.19708,-7.57761 -17.10254,-7.57761 -8.38194,0 -16.89087,6.66745 -17.80103,13.9699 -0.84666,6.54045 3.00564,12.04374 10.07526,14.47789 6.15945,2.11665 7.81044,2.20132 13.50423,0.762 z m -10.66792,-8.93227 c -1.07949,-0.80433 -1.96849,-2.15899 -1.96849,-3.00564 0,-1.22766 0.52917,-1.12183 2.89981,0.55032 3.66181,2.60348 4.76247,2.58232 8.25494,-0.23283 2.11665,-1.69332 2.60348,-2.85748 1.92615,-4.4873 -0.82549,-1.96848 -0.69849,-2.05315 1.12183,-0.91016 2.94214,1.84149 2.56115,4.5508 -1.01599,7.26012 -3.49248,2.64581 -8.33961,3.00564 -11.21825,0.82549 z m -101.76859,1.94732 c -1.545156,-0.8255 -2.815148,-2.20132 -2.815148,-3.04798 0,-1.22766 0.613831,-1.07949 3.132646,0.6985 l 3.111476,2.22248 2.942145,-2.09549 c 2.476482,-1.75682 3.174977,-1.86265 4.402633,-0.76199 3.111478,2.83631 -6.222953,5.41863 -10.773752,2.98448 z M 5.863542,270.4646 c -1.2276576,-2.43415 1.8203198,-11.89558 5.672624,-17.58937 l 3.598307,-5.35513 -3.598307,-2.01082 c -3.3019749,-1.86265 -3.5983061,-2.49764 -3.5983061,-8.0856 0,-5.58796 1.4393233,-8.29727 3.5348071,-6.60395 0.465663,0.38099 0.148166,0.88899 -0.719661,1.12182 -2.2436498,0.59266 -1.9684858,8.8476 0.380997,11.40875 1.079492,1.14299 3.047977,2.09548 4.381467,2.09548 3.111477,0 3.090311,1.37583 -0.126999,4.78364 -3.534807,3.76763 -7.4506111,12.7634 -7.4506111,17.16604 v 3.70413 l 5.9477891,-0.29633 5.947789,-0.29633 0.656162,-5.67262 c 0.761994,-6.68862 2.285983,-9.0381 7.789276,-12.00142 3.57714,-1.92615 5.503293,-2.18015 16.171214,-2.18015 10.350423,0 12.615238,0.27517 15.64205,1.98966 4.656632,2.60348 8.233773,7.34478 7.598778,10.03292 -0.550331,2.39182 -0.296331,2.68815 -3.70414,-4.21213 -2.243651,-4.5508 -8.000942,-6.39229 -19.896519,-6.39229 -8.318439,0 -11.366415,0.40216 -14.647225,1.90499 -4.952963,2.30715 -8.000941,7.32361 -7.492945,12.3824 l 0.380998,3.68298 44.38617,0.52916 c 24.426153,0.29633 44.640173,0.71966 44.957673,0.95249 0.29634,0.23283 -23.219665,0.42333 -52.260118,0.42333 -46.587488,0 -52.8951082,-0.1905 -53.55127,-1.48165 z m 112.330678,-0.6985 c -0.33867,-6.92145 8.82643,-15.70555 19.02869,-18.26669 5.94779,-1.50283 11.34525,-1.43933 21.18768,0.21166 2.53998,0.42333 3.64064,0.14817 4.2333,-1.03716 1.29116,-2.53998 -2.28598,-4.31797 -10.92192,-5.43979 -6.64628,-0.84666 -9.20743,-0.76199 -15.11289,0.55033 -9.22859,2.03198 -16.97554,6.56162 -21.6745,12.63641 -3.74648,4.84712 -3.76764,4.84712 -11.53576,5.50329 -4.275635,0.35983 -10.456257,0.29633 -13.715899,-0.16933 -4.97413,-0.67733 -6.498119,-1.43933 -9.588429,-4.76247 -3.005645,-3.23848 -3.682974,-4.9318 -3.682974,-9.2286 v -5.27046 l -15.155219,-0.10583 c -37.42239,-0.27517 -45.0635,-0.67733 -46.735655,-2.39182 -2.201317,-2.30715 -1.968485,-3.83114 0.931327,-6.01129 2.370649,-1.79915 4.169802,-1.90498 33.591251,-1.90498 28.532455,0 31.262934,0.14816 33.167921,1.73565 1.121825,0.95249 2.074317,3.09031 2.074317,4.76247 0,2.34948 -0.698494,3.21731 -3.132643,3.9158 -2.539981,0.71966 -3.132642,1.54516 -3.132642,4.27564 0,4.06396 2.603481,9.05926 6.138288,11.72624 2.285981,1.73566 4.127468,1.96849 14.414392,1.96849 10.752595,0 11.895585,-0.16933 12.615245,-1.90499 0.4445,-1.03716 2.75165,-3.83114 5.1223,-6.18062 4.21214,-4.1698 4.59313,-6.09595 1.20649,-6.09595 -2.98448,0 -4.50847,-2.51882 -6.37112,-10.54092 -2.18015,-9.37677 -2.09548,-8.38194 -0.71966,-8.38194 0.61383,0 1.71449,2.01081 2.43415,4.4873 l 1.33349,4.50846 -0.65616,-4.59313 c -0.635,-4.2968 -0.508,-4.52963 1.92615,-3.95814 1.73565,0.42333 2.60348,0.21167 2.64581,-0.61383 0.10583,-3.7253 2.53998,2.83632 3.89464,10.45626 0.93133,5.31279 2.03199,8.5301 2.85748,8.31844 1.60865,-0.42333 1.41816,-2.22249 -2.03199,-18.60536 -1.48165,-7.02728 -3.30197,-13.08091 -4.0428,-13.4619 -0.74083,-0.381 -4.06397,-0.71966 -7.38711,-0.71966 -5.0588,0 -5.96896,-0.27517 -5.60913,-1.67216 0.33867,-1.35466 2.03199,-1.69332 9.77893,-1.94732 7.87394,-0.254 10.22343,0.0423 14.68956,1.86266 2.92098,1.20648 5.33396,2.53998 5.33396,2.9633 0,0.42334 -1.67216,0.0423 -3.72531,-0.88899 -2.05315,-0.91016 -3.95813,-1.46049 -4.27563,-1.22766 -0.29633,0.23284 1.01599,6.28646 2.92098,13.46191 1.92615,7.15428 3.06914,13.22906 2.56115,13.4619 -0.48683,0.23283 -2.41299,-5.41863 -4.27564,-12.57291 -4.25447,-16.40405 -4.21214,-16.29821 -6.85795,-16.29821 -3.32314,0 -4.1063,1.07949 -2.03198,2.81514 1.07949,0.91016 3.13264,7.57761 4.93179,16.04422 1.71449,7.9586 3.30198,14.62605 3.55598,14.81655 0.25399,0.1905 2.98447,-0.381 6.09595,-1.29115 l 5.63029,-1.62982 -2.22248,-5.65146 c -1.43932,-3.66181 -1.79915,-5.99013 -1.01599,-6.58279 0.65616,-0.508 1.20649,-3.80997 1.20649,-7.34478 0,-6.24412 0.0847,-6.43462 3.13264,-6.43462 3.02681,0 3.11148,0.1905 3.11148,6.62512 0,3.64064 0.14816,6.94262 0.3175,7.32361 0.16933,0.40217 -1.22766,0.84666 -3.13265,1.016 -4.0428,0.35983 -4.00047,0.0847 -1.37582,6.34995 l 2.05315,4.9318 7.64111,0.48683 c 11.91675,0.76199 16.89087,3.17497 15.13405,7.36594 -1.07949,2.56115 -3.7888,2.87865 -11.36641,1.39699 -15.11289,-2.98448 -28.25729,2.89981 -33.23142,14.85889 -1.60865,3.89464 -2.09549,4.4238 -2.18015,2.34948 z m 1.94732,-25.50564 c -0.33867,-0.65616 -0.635,-0.127 -0.635,1.18532 0,1.29116 0.29633,1.82032 0.635,1.18533 0.33866,-0.65616 0.33866,-1.71449 0,-2.37065 z m -4.5508,-2.60348 c -0.65616,-2.09549 -1.07949,-2.56115 -1.16416,-1.24883 -0.127,2.05315 1.12183,5.35513 1.82032,4.82597 0.21166,-0.14817 -0.0847,-1.75682 -0.65616,-3.57714 z m 3.32314,-4.91063 c -0.40216,-0.74083 -0.6985,-0.52916 -0.762,0.57149 -0.0423,0.99483 0.254,1.56632 0.67734,1.24883 0.40216,-0.3175 0.44449,-1.14299 0.0847,-1.82032 z m -1.24882,-4.72013 c -0.40217,-0.762 -0.6985,-0.52917 -0.762,0.57149 -0.0423,0.99483 0.254,1.54516 0.65616,1.22766 0.42333,-0.29633 0.46567,-1.12182 0.10584,-1.79915 z m -0.84666,-18.75353 c 0,-0.52916 -1.96849,-0.95249 -4.38147,-0.95249 -2.41298,0 -4.38147,0.42333 -4.38147,0.95249 0,0.52916 1.96849,0.95249 4.38147,0.95249 2.41298,0 4.38147,-0.42333 4.38147,-0.95249 z m -85.724378,51.09595 c -0.507997,-0.61382 3.746473,-0.95249 11.810912,-0.95249 7.556444,0 12.594074,0.381 12.594074,0.95249 0,0.5715 -4.783632,0.9525 -11.810913,0.9525 -6.540452,0 -12.170743,-0.42333 -12.594073,-0.9525 z m -0.634996,-4.7413 c 0,-0.52916 3.767638,-0.93132 8.762934,-0.93132 5.016463,0 8.762937,0.40216 8.762937,0.93132 0,0.55034 -3.746474,0.9525 -8.762937,0.9525 -4.995296,0 -8.762934,-0.40216 -8.762934,-0.9525 z M 9.5041812,206.85924 c -1.5451549,-0.1905 -2.8151453,-0.91016 -2.8151453,-1.60866 0,-0.71966 -0.3386642,-1.94732 -0.7619944,-2.77281 -0.5291627,-1.05833 -0.042333,-1.50282 1.6298213,-1.50282 1.3123234,0 3.0691442,-0.508 3.8946382,-1.14299 1.164157,-0.86783 1.502822,-0.78317 1.502822,0.42332 0,0.86783 0.804327,1.90499 1.799153,2.32832 2.772813,1.18533 -1.587488,4.7413 -5.2492948,4.27564 z m 2.4553158,-4.16981 c -1.904986,-1.43932 -3.3231428,-0.38099 -2.2648168,1.71449 0.6349948,1.22766 1.1853248,1.35466 2.2859828,0.508 1.121825,-0.84666 1.121825,-1.37583 -0.02117,-2.22249 z m 63.901693,-3.8523 c 0.338664,-0.635 3.196143,-4.33913 6.371119,-8.19144 10.456257,-12.78457 11.493416,-19.30386 3.958138,-24.65898 -6.582786,-4.6778 -19.748354,-3.13265 -23.791156,2.79397 -3.090312,4.50847 -2.328317,8.76294 2.984476,16.53105 2.688148,3.93697 4.466135,7.15428 3.915804,7.15428 -0.550328,0 -3.132642,-3.09031 -5.757291,-6.85795 -7.408277,-10.64675 -6.117121,-18.35136 3.704141,-22.20367 5.079963,-2.01082 13.483066,-1.94732 17.610537,0.0847 4.593132,2.28598 8.170272,7.06961 8.170272,10.98542 0,3.70413 -4.783632,11.91674 -11.726246,20.10818 -4.254468,5.01646 -6.92145,7.11195 -5.439794,4.25447 z m -4.635465,-19.93885 c -2.624648,-1.43933 -3.005646,-5.6303 -0.719662,-7.72578 3.069143,-2.79398 12.509408,-0.65616 12.509408,2.85748 0,0.4445 -1.142992,-0.127 -2.539982,-1.26999 -1.396989,-1.12183 -3.598306,-2.07432 -4.847132,-2.07432 -5.736122,0 -6.54045,6.30762 -1.079489,8.31844 1.883817,0.67733 2.180148,1.03716 0.888992,1.07949 -1.079492,0.0423 -2.963312,-0.48683 -4.212135,-1.18532 z"
       style="fill:#2f4c5b;fill-opacity:1;fill-rule:nonzero;stroke:none;stroke-width:0.26458332"
       inkscape:connector-curvature="0" />
    <path
       id="path871"
       d="m 33.591669,289.04879 3.746474,-0.63499 -4.698966,-1.73565 c -5.524459,-2.01082 -10.943086,-6.54046 -10.943086,-9.14394 0,-2.96331 2.053152,-2.09548 5.482126,2.32832 7.768108,10.01176 26.669802,9.37676 33.929915,-1.16416 2.688148,-3.9158 3.026812,-4.12747 3.09031,-1.86265 0.0635,3.21731 -5.397458,8.17027 -11.154749,10.07526 l -4.423801,1.48165 4.360301,0.635 c 2.624648,0.381 -1.121825,0.63499 -9.376764,0.65616 -7.598778,0 -12.086077,-0.27516 -10.01176,-0.635 z m 100.667931,0.16933 6.79445,-0.35983 -6.58278,-2.85747 c -12.74225,-5.48213 -15.21873,-16.93321 -5.3763,-24.78599 4.95296,-3.95813 10.03293,-5.63029 17.12371,-5.63029 19.49435,0 29.54845,16.19238 16.84854,27.13547 -2.03199,1.73565 -5.41863,3.7253 -7.53528,4.38146 -2.79398,0.86783 -3.40781,1.41816 -2.20131,1.98966 0.93132,0.44449 -4.36031,0.71966 -12.10725,0.63499 -7.57761,-0.0847 -10.71025,-0.31749 -6.96378,-0.508 z m 20.84901,-3.93697 c 13.31374,-4.59313 15.00706,-19.17685 2.96331,-25.67497 -6.11712,-3.28081 -15.59972,-3.61948 -21.12417,-0.762 -7.23895,3.76764 -9.50377,6.85795 -9.50377,13.08091 0,6.22295 2.26482,9.3556 9.37677,13.0174 5.05879,2.60348 11.34525,2.70931 18.28786,0.33866 z m -12.99624,-8.19144 c -1.52398,-0.80432 -2.75164,-2.20131 -2.70931,-3.06914 0.0423,-1.31232 0.4445,-1.20649 2.03199,0.508 2.24365,2.43415 7.61994,2.87864 8.7206,0.71966 0.381,-0.78316 1.62982,-1.41816 2.77281,-1.39699 1.52399,0.0212 1.14299,0.635 -1.46049,2.37065 -4.1063,2.73048 -5.56679,2.85748 -9.3556,0.86782 z m -103.885235,1.27 c -0.825492,-0.61383 -1.502823,-1.75682 -1.502823,-2.51882 0,-1.03716 0.740828,-0.86783 2.899812,0.65616 3.47131,2.47649 4.339135,2.53999 7.323614,0.48683 2.730479,-1.86265 4.593132,-0.99482 2.307148,1.0795 -1.883817,1.71448 -8.9111,1.90498 -11.027751,0.29633 z M 6.9642005,265.42697 c 0.4444967,-4.72013 1.6933207,-8.10677 4.5507995,-12.44591 4.571966,-6.90028 4.466134,-6.58278 2.116651,-6.58278 -3.323142,0 -5.6937911,-3.97931 -5.6937911,-9.63077 0,-5.03763 1.5239883,-7.59877 3.5348071,-5.94778 0.465663,0.38099 0.148166,0.88899 -0.719661,1.12182 -0.9736598,0.254 -1.5663218,2.28598 -1.5663218,5.46096 0,5.22813 1.5663218,7.38711 6.1382878,8.48777 2.201317,0.52916 2.053151,0.99483 -1.989652,6.96378 -3.005645,4.4238 -4.5507998,8.19144 -5.0376294,12.25541 l -0.6984948,5.88429 h 6.4134522 6.434619 v -4.82596 c 0,-8.44544 6.79445,-15.19756 15.028222,-14.94356 2.645813,0.0635 2.476482,0.21167 -0.994825,0.82549 -8.022108,1.43933 -12.784573,6.87912 -12.784573,14.64723 v 4.27563 l 45.380996,0.254 45.359843,0.254 -53.043285,0.23283 -53.0432733,0.21167 z m 111.7380195,2.73048 c 0.38099,-2.43415 2.15898,-5.88429 4.12746,-8.04327 3.36548,-3.66181 10.54093,-8.04328 13.18674,-8.04328 0.71966,0 -0.93133,1.10066 -3.68297,2.43415 -6.09596,3.00564 -10.39276,7.57761 -12.63641,13.4619 l -1.67215,4.44497 z m -87.608198,-3.78881 c -0.507997,-0.61382 3.746473,-0.95249 11.810912,-0.95249 7.556444,0 12.594074,0.381 12.594074,0.95249 0,0.55033 -4.783632,0.9525 -11.810913,0.9525 -6.540452,0 -12.170743,-0.42333 -12.594073,-0.9525 z m 34.734243,-3.36547 c -1.841487,-4.63547 -6.201789,-7.93744 -11.810913,-8.95344 -3.492474,-0.61382 -3.64064,-0.76199 -1.037159,-0.82549 7.006114,-0.21167 16.023048,7.13312 14.753058,12.04374 -0.211666,0.86783 -1.079492,-0.14816 -1.904986,-2.26481 z m 16.890875,-0.1905 c -4.233304,-3.34431 -5.947791,-6.87912 -5.947791,-12.14958 0,-2.51881 -0.634995,-4.40263 -1.56632,-4.63546 -0.867828,-0.23283 -14.456727,-0.59266 -30.225778,-0.78316 -26.055973,-0.33867 -28.828785,-0.52917 -30.352774,-2.09549 -2.222484,-2.30715 -2.137817,-2.94214 0.825494,-5.16463 2.370649,-1.79915 4.169802,-1.90498 32.87159,-1.90498 34.247413,0 35.961899,0.29633 35.961899,6.11712 0,2.56115 -0.592661,3.25964 -3.132643,3.74647 -2.751645,0.508 -3.132642,1.10066 -3.132642,4.76247 0,4.97413 1.714486,8.74176 5.312793,11.64158 2.391815,1.92615 3.788804,2.11665 14.964722,2.11665 10.6256,0 12.44592,-0.21167 13.12324,-1.65099 0.42334,-0.91016 2.64582,-3.68297 4.95297,-6.13829 2.30715,-2.47648 4.19097,-4.69896 4.19097,-4.95296 0,-0.254 -1.60866,-1.07949 -3.57714,-1.84149 -3.04798,-1.18532 -3.80998,-2.30715 -5.0588,-7.36594 -0.80433,-3.28081 -1.77798,-7.23895 -2.18015,-8.78411 -0.46566,-1.84148 -0.27516,-2.51881 0.508,-1.90498 0.65616,0.52916 1.92615,4.27564 2.81514,8.3396 1.43933,6.56162 2.01082,7.53528 5.1223,8.74177 4.2968,1.69332 7.28128,1.75682 8.00094,0.1905 0.29633,-0.65616 -0.99483,-8.00094 -2.85748,-16.31938 l -3.40781,-15.13405 -6.87911,-0.48683 c -4.9953,-0.33867 -6.87912,-0.84666 -6.87912,-1.88382 0,-1.14299 2.01082,-1.41816 10.64676,-1.41816 9.52493,0 10.58325,0.16934 10.24459,1.69332 -0.21167,0.93133 0.82549,6.18062 2.28598,11.68392 1.48166,5.48212 2.43415,10.15992 2.13782,10.39275 -0.3175,0.21167 -1.92616,-4.82596 -3.57714,-11.19708 -2.94215,-11.30292 -3.13265,-11.64158 -6.43462,-11.91675 -3.80997,-0.33866 -4.25447,0.35983 -1.65099,2.58232 0.97366,0.82549 3.15381,8.00094 4.84713,15.95955 1.71449,7.97977 3.34431,14.64722 3.61947,14.85889 0.59267,0.46566 10.54093,-1.65099 11.59925,-2.45532 0.381,-0.29633 -0.0847,-2.49765 -1.01599,-4.88946 -1.18532,-2.96331 -1.52399,-7.04845 -1.07949,-12.91157 0.61383,-8.27611 0.76199,-8.59361 3.5983,-8.59361 2.85748,0 2.94215,0.23284 2.94215,7.55645 0,7.45061 -0.0423,7.57761 -3.11148,7.57761 -3.70414,0 -3.6618,-0.23283 -1.16416,6.24412 1.88382,4.9318 2.11665,5.10113 6.32879,5.10113 6.58278,0 15.07055,1.88382 17.44121,3.87347 1.96848,1.65099 1.96848,1.92615 0.0423,4.14864 -2.20132,2.53998 -3.97931,2.92097 -7.00612,1.46048 -1.39699,-0.67732 -0.93132,-0.84666 1.86266,-0.69849 3.19614,0.1905 3.80997,-0.14817 4.14863,-2.24365 0.508,-3.42897 -5.18579,-5.1223 -17.29304,-5.10113 -7.45061,0.0212 -10.60442,0.48683 -15.40922,2.32832 -6.73095,2.58231 -13.63123,7.87394 -16.76387,12.84807 l -2.07432,3.25964 H 98.678685 c -12.213074,0 -12.805735,-0.0847 -15.959545,-2.60348 z m -9.990592,-20.02352 c -4.550802,-0.42333 -5.651461,-0.84666 -4.847133,-1.84149 0.719662,-0.86782 2.920979,-1.16415 6.85795,-0.93132 6.074788,0.35983 7.768109,-0.46566 2.963312,-1.43932 -1.545156,-0.3175 -15.493886,-0.48683 -30.966606,-0.381 l -28.151457,0.1905 23.769992,0.50799 c 20.002352,0.42333 23.769989,0.74083 23.769989,1.92616 0,1.18532 -3.831137,1.50282 -24.404987,1.92615 l -24.383818,0.508 30.649107,0.0423 c 16.869709,0.0423 28.003291,-0.1905 24.743651,-0.508 z m 9.038097,-0.0847 c 0,-0.50799 -0.550328,-0.93132 -1.248822,-0.93132 -0.677328,0 -1.248826,0.42333 -1.248826,0.93132 0,0.52917 0.571498,0.9525 1.248826,0.9525 0.698494,0 1.248822,-0.42333 1.248822,-0.9525 z m 59.731905,-19.15569 c -0.27517,-1.69332 -0.508,-0.29633 -0.508,3.06915 0,3.38664 0.23283,4.78363 0.508,3.09031 0.27516,-1.69332 0.27516,-4.46614 0,-6.15946 z m -24.68015,-8.2761 c 0,-0.52916 -2.26482,-0.95249 -5.01647,-0.95249 -2.75164,0 -4.99529,0.42333 -4.99529,0.95249 0,0.52916 2.24365,0.95249 4.99529,0.95249 2.75165,0 5.01647,-0.42333 5.01647,-0.95249 z m -85.110551,46.35465 c 0,-0.50799 3.323143,-0.93132 7.450614,-0.93132 4.085135,0 7.768108,0.42333 8.191439,0.93132 0.486828,0.59267 -2.264817,0.9525 -7.429447,0.9525 -4.635466,0 -8.212606,-0.40216 -8.212606,-0.9525 z m 107.398881,-8.2126 c 0.88899,-0.27517 1.96849,-0.23283 2.39182,0.0847 0.42333,0.31749 -0.3175,0.52916 -1.62982,0.48683 -1.46049,-0.0423 -1.75682,-0.27517 -0.762,-0.5715 z m 11.17592,0.0212 c 0.86782,-0.254 2.26481,-0.254 3.13264,0 0.86783,0.25399 0.14817,0.48683 -1.56632,0.48683 -1.71449,0 -2.41298,-0.23284 -1.56632,-0.48683 z M 120.0992,238.94766 c -2.30715,-9.58842 -2.51881,-11.76857 -0.91015,-9.58842 1.24882,1.67215 4.2968,17.01787 3.51364,17.6317 -0.29633,0.21166 -1.48166,-3.38664 -2.60349,-8.04328 z m -4.55079,-1.12182 c -0.84667,-4.1698 -1.24883,-7.83161 -0.889,-8.10677 0.59267,-0.4445 1.24883,1.58749 4.19097,13.12323 0.35983,1.41816 0.127,2.60348 -0.52916,2.60348 -0.65616,0 -1.90499,-3.42897 -2.77281,-7.61994 z m 16.46754,0.99483 c 0,-1.31233 0.29633,-1.84149 0.635,-1.18533 0.35983,0.65616 0.35983,1.71449 0,2.37065 -0.33867,0.63499 -0.635,0.10583 -0.635,-1.18532 z m -0.88899,-24.19333 c -2.28599,-1.37582 -2.24365,-1.39698 0.69849,-0.33866 3.83114,1.37582 4.5508,1.82032 2.96331,1.82032 -0.67733,0 -2.32831,-0.65616 -3.6618,-1.48166 z M 9.5041812,206.8169 c -2.1589835,-0.23283 -2.8151453,-0.93132 -2.8151453,-2.96331 0,-3.34431 4.1486361,-4.4873 7.4082781,-2.01082 2.010819,1.52399 2.031985,1.82032 0.211665,3.47131 -1.164158,1.03716 -3.174976,1.67216 -4.8047978,1.50282 z m 3.0056448,-2.58231 c 0.952493,-1.86265 -0.169332,-2.70931 -2.6246468,-1.98965 -1.100659,0.31749 -1.5874886,1.16416 -1.164158,2.01081 0.952492,1.86266 2.8363118,1.86266 3.7888048,-0.0212 z m 63.0127,-4.52963 c 0,-0.16934 2.772813,-3.83114 6.180619,-8.10678 11.683916,-14.68955 12.615241,-20.08702 4.360302,-25.56914 -7.111947,-4.72013 -18.457196,-3.59831 -23.579492,2.30715 -3.64064,4.19097 -2.836312,9.0381 2.815146,16.97554 2.815148,3.9158 4.698965,7.13311 4.19097,7.13311 -1.248825,0 -8.360772,-10.07525 -10.223426,-14.49906 -1.291156,-3.04797 -1.206489,-4.27563 0.550331,-7.76811 5.418627,-10.73142 26.436971,-10.77375 31.834431,-0.0847 1.50282,3.02681 1.56632,4.40263 0.296331,8.04327 -1.82032,5.22813 -16.425212,24.40499 -16.425212,21.56868 z m -4.190968,-21.27235 c -2.561148,-2.13781 -2.688148,-6.18062 -0.275166,-7.68344 2.836312,-1.79915 8.339605,-0.80433 10.371589,1.84149 1.799154,2.34948 1.799154,2.34948 -0.338664,0.23283 -2.307148,-2.32832 -6.688616,-2.79398 -9.080431,-0.99483 -2.391817,1.79916 -1.735656,5.1223 1.312323,6.75212 1.545156,0.80433 2.201317,1.50282 1.439323,1.52399 -0.740828,0.0212 -2.285984,-0.71966 -3.428974,-1.67216 z"
       style="fill:#202122;fill-opacity:1;fill-rule:nonzero;stroke:none;stroke-width:0.26458332"
       inkscape:connector-curvature="0" />
  </g>
</svg>
