<?xml version="1.0" encoding="UTF-8" standalone="no"?>
<!-- Created with Inkscape (http://www.inkscape.org/) -->

<svg
   xmlns:dc="http://purl.org/dc/elements/1.1/"
   xmlns:cc="http://creativecommons.org/ns#"
   xmlns:rdf="http://www.w3.org/1999/02/22-rdf-syntax-ns#"
   xmlns:svg="http://www.w3.org/2000/svg"
   xmlns="http://www.w3.org/2000/svg"
   xmlns:sodipodi="http://sodipodi.sourceforge.net/DTD/sodipodi-0.dtd"
   xmlns:inkscape="http://www.inkscape.org/namespaces/inkscape"
   width="210mm"
   height="153mm"
   viewBox="0 0 210 153"
   version="1.1"
   id="svg8"
   sodipodi:docname="activeStep1.svg"
   inkscape:version="0.92.2 (5c3e80d, 2017-08-06)">
  <defs
     id="defs2" />
  <sodipodi:namedview
     id="base"
     pagecolor="#ffffff"
     bordercolor="#666666"
     borderopacity="1.0"
     inkscape:pageopacity="0.0"
     inkscape:pageshadow="2"
     inkscape:zoom="0.35"
     inkscape:cx="-538.31271"
     inkscape:cy="470.13547"
     inkscape:document-units="mm"
     inkscape:current-layer="layer1"
     showgrid="false"
     inkscape:window-width="1366"
     inkscape:window-height="745"
     inkscape:window-x="-8"
     inkscape:window-y="-8"
     inkscape:window-maximized="1" />
  <metadata
     id="metadata5">
    <rdf:RDF>
      <cc:Work
         rdf:about="">
        <dc:format>image/svg+xml</dc:format>
        <dc:type
           rdf:resource="http://purl.org/dc/dcmitype/StillImage" />
        <dc:title></dc:title>
      </cc:Work>
    </rdf:RDF>
  </metadata>
  <g
     inkscape:label="Layer 1"
     inkscape:groupmode="layer"
     id="layer1"
     transform="translate(0,-144)">
    <g
       id="g876"
       transform="matrix(3.7795274,0,0,4.058797,-177.77975,-382.67951)">
      <path
         style="fill:#ffffff;stroke-width:0.26458335"
         d="m 48.380951,148.83333 v -17.59479 h 26.458334 26.458335 v 17.59479 17.59479 H 74.839285 48.380951 Z m 17.381271,12.90347 c -0.06708,-0.25743 -0.126382,-0.11086 -0.131774,0.3257 -0.0054,0.43656 0.04949,0.64718 0.12197,0.46805 0.07248,-0.17913 0.07689,-0.53631 0.0098,-0.79375 z m 26.010397,-10.65451 v -6.35 H 81.453868 71.135118 v 6.35 6.35 h 10.31875 10.318751 z m -17.811114,4.06111 c -0.0993,-0.0993 -0.180553,-0.27977 -0.180553,-0.40104 0,-0.12127 3.343672,-0.22049 7.430381,-0.22049 5.826652,0 7.406614,0.0714 7.320256,0.33073 -0.08369,0.25134 -1.824114,0.34761 -7.249829,0.40104 -3.926835,0.0387 -7.220951,-0.0109 -7.320255,-0.11024 z m -0.0042,-1.32708 c -0.09701,-0.097 -0.176389,-0.27561 -0.176389,-0.39688 0,-0.12126 3.33375,-0.22048 7.408333,-0.22048 6.408796,0 7.408334,0.0535 7.408334,0.39687 0,0.3431 -0.979938,0.39688 -7.231944,0.39688 -3.977571,0 -7.311321,-0.0794 -7.408334,-0.17639 z m 0,-1.32292 c -0.09701,-0.097 -0.176389,-0.27561 -0.176389,-0.39687 0,-0.12127 3.33375,-0.22049 7.408333,-0.22049 6.408796,0 7.408334,0.0536 7.408334,0.39687 0,0.3431 -0.979938,0.39688 -7.231944,0.39688 -3.977571,0 -7.311321,-0.0794 -7.408334,-0.17639 z m 6.755694,-3.31611 c -0.482994,-0.48299 -0.407376,-2.50181 0.101015,-2.6969 0.702067,-0.26941 2.102784,-0.1793 2.438985,0.1569 0.174625,0.17462 0.3175,0.74612 0.3175,1.27 0,0.52387 -0.142875,1.09537 -0.3175,1.27 -0.410757,0.41076 -2.129242,0.41076 -2.54,0 z m 1.964719,-1.6756 c -0.08692,-0.22651 -0.455401,-0.37315 -0.884854,-0.35212 -0.668565,0.0327 -0.67863,0.0469 -0.109961,0.15471 0.356339,0.0676 0.689703,0.36249 0.773976,0.68475 0.0826,0.31585 0.197043,0.41904 0.258908,0.23344 0.06098,-0.18295 0.04385,-0.5073 -0.03807,-0.72078 z m -16.641377,7.65408 c -0.08792,-0.0879 -0.316122,-0.0973 -0.507118,-0.0209 -0.211067,0.0845 -0.148372,0.14716 0.159852,0.15985 0.278915,0.0115 0.435185,-0.051 0.347266,-0.13896 z m 0.07166,-1.16306 c 0,-0.14552 -0.0525,-0.26459 -0.116677,-0.26459 -0.06417,0 -0.190261,0.11907 -0.280198,0.26459 -0.08994,0.14552 -0.03743,0.26458 0.116677,0.26458 0.154108,0 0.280198,-0.11906 0.280198,-0.26458 z m -8.544121,-2.7089 c -0.06329,-0.32912 -0.117469,-0.12215 -0.120406,0.45994 -0.0029,0.58208 0.04884,0.85136 0.115066,0.5984 0.06622,-0.25297 0.06863,-0.72922 0.0053,-1.05834 z m 8.808704,1.00472 c 0,-0.0642 -0.119062,-0.19026 -0.264583,-0.2802 -0.145521,-0.0899 -0.264584,-0.0374 -0.264584,0.11668 0,0.15411 0.119063,0.2802 0.264584,0.2802 0.145521,0 0.264583,-0.0525 0.264583,-0.11668 z m -1.322917,-3.32291 v -0.79375 h -2.910416 -2.910417 v 0.65251 c 0,0.64788 0.02017,0.65311 2.844271,0.73756 1.564349,0.0468 2.874036,0.11033 2.910417,0.14124 0.03638,0.0309 0.06615,-0.30099 0.06615,-0.73756 z m 1.322917,0.67708 c 0,-0.0642 -0.119062,-0.19026 -0.264583,-0.2802 -0.145521,-0.0899 -0.264584,-0.0374 -0.264584,0.11667 0,0.15411 0.119063,0.2802 0.264584,0.2802 0.145521,0 0.264583,-0.0525 0.264583,-0.11667 z m -1.322917,-2.52916 c 0,-0.16035 -1.146527,-0.26458 -2.910416,-0.26458 -1.763889,0 -2.910417,0.10423 -2.910417,0.26458 0,0.16035 1.146528,0.26458 2.910417,0.26458 1.763889,0 2.910416,-0.10423 2.910416,-0.26458 z m -7.408333,-0.26458 c 0,-0.14552 -0.126089,-0.26459 -0.280198,-0.26459 -0.154109,0 -0.206614,0.11907 -0.116677,0.26459 0.08994,0.14552 0.216026,0.26458 0.280198,0.26458 0.06417,0 0.116677,-0.11906 0.116677,-0.26458 z m 8.870543,-0.74266 c -0.08146,-0.0815 -0.294956,-1.6e-4 -0.474432,0.18066 -0.259362,0.2613 -0.228971,0.2917 0.148113,0.14811 0.260937,-0.0994 0.407781,-0.2473 0.326319,-0.32877 z m -1.46221,-0.31568 c 0,-0.16035 -1.146527,-0.26458 -2.910416,-0.26458 -1.763889,0 -2.910417,0.10423 -2.910417,0.26458 0,0.16036 1.146528,0.26459 2.910417,0.26459 1.763889,0 2.910416,-0.10423 2.910416,-0.26459 z m 0,-3.175 v -2.11666 h -2.910416 -2.910417 v 2.11666 2.11667 h 2.910417 2.910416 z m -3.770312,1.56631 c -0.543789,-0.31673 -0.643225,-2.07402 -0.145521,-2.57172 0.410757,-0.41076 2.129243,-0.41076 2.54,0 0.174625,0.17462 0.3175,0.77288 0.3175,1.32946 0,0.84283 -0.113434,1.05509 -0.678683,1.27 -0.853322,0.32443 -1.44245,0.3164 -2.033296,-0.0277 z m 0.992187,-0.77256 c -0.08994,-0.14552 -0.282584,-0.26458 -0.428104,-0.26458 -0.145521,0 -0.190999,0.11906 -0.101062,0.26458 0.08994,0.14552 0.282584,0.26459 0.428105,0.26459 0.14552,0 0.190998,-0.11907 0.101061,-0.26459 z m 0.926042,-0.79375 c 0,-0.38464 -0.176389,-0.52916 -0.645843,-0.52916 -0.355214,0 -0.718586,0.1177 -0.807492,0.26155 -0.09023,0.146 0.0078,0.19654 0.221824,0.1144 0.21091,-0.0809 0.544515,0.035 0.741346,0.25755 0.465721,0.52666 0.490165,0.52146 0.490165,-0.10434 z"
         id="path890"
         inkscape:connector-curvature="0" />
      <path
         style="fill:#d0d0d0;stroke-width:0.26458335"
         d="m 58.699701,164.20747 c 0,-0.20271 -0.151086,-0.42654 -0.335748,-0.4974 -0.249956,-0.0959 -0.29485,-0.62712 -0.175694,-2.07883 0.08803,-1.0725 0.06052,-2.0631 -0.06113,-2.20135 -0.121649,-0.13824 -0.221181,-1.16713 -0.221181,-2.28642 0,-1.94675 -0.02853,-2.04223 -0.657429,-2.20007 -0.886081,-0.22239 -0.962122,-0.68513 -0.873621,-5.31632 0.07526,-3.93829 0.08041,-3.96826 0.671154,-3.90572 0.590913,0.0626 0.595313,0.0368 0.595313,-3.48683 0,-2.87437 0.07912,-3.62898 0.415774,-3.96563 0.337595,-0.3376 1.098765,-0.41578 4.048125,-0.41578 2.472384,0 3.733743,0.10139 3.949851,0.3175 0.213247,0.21325 0.3175,1.40893 0.3175,3.64143 0,3.15319 0.02947,3.33734 0.573671,3.5851 0.893945,0.40699 1.180937,1.05186 0.853816,1.9185 -0.188823,0.50025 -0.195096,0.9375 -0.01911,1.33191 0.181725,0.40726 0.164355,0.80147 -0.05669,1.28661 -0.222167,0.48761 -0.234718,0.78343 -0.04144,0.9767 0.431483,0.43149 0.326983,1.36731 -0.206604,1.8502 -0.474376,0.42931 -1.65224,0.59485 -1.970189,0.2769 -0.08854,-0.0885 -1.72609,-0.14209 -3.63899,-0.119 -2.328652,0.0281 -3.601547,-0.0605 -3.851859,-0.26828 -0.28016,-0.23251 -0.373859,-1.03158 -0.373859,-3.1883 0,-1.74229 -0.104411,-2.87802 -0.264583,-2.87802 -0.164142,0 -0.264584,1.44658 -0.264584,3.81058 v 3.81057 l 0.79375,0.27671 c 0.436563,0.15218 0.79375,0.3985 0.79375,0.54737 0,0.16716 1.340543,0.29889 3.50573,0.34449 l 3.505729,0.0738 -0.05626,1.98438 c -0.03094,1.09141 -0.05031,3.14523 -0.04304,4.56406 l 0.01322,2.57969 h -3.462689 c -2.783357,0 -3.462688,-0.0723 -3.462688,-0.36857 z m 8.37886,-12.70779 c -0.08809,-0.22956 -0.40203,-0.41739 -0.697639,-0.41739 -0.391971,0 -0.537471,0.1731 -0.537471,0.63941 0,0.35167 0.148829,0.69459 0.33073,0.76203 0.476905,0.17681 1.092717,-0.49325 0.90438,-0.98405 z m -4.806985,0.11178 c 0.08994,-0.14552 0.03743,-0.26459 -0.116676,-0.26459 -0.154109,0 -0.280199,0.11907 -0.280199,0.26459 0,0.14552 0.0525,0.26458 0.116677,0.26458 0.06417,0 0.190261,-0.11906 0.280198,-0.26458 z m 4.627412,-1.98101 c 0.401359,-0.48361 0.166895,-1.19399 -0.394078,-1.19399 -0.485485,0 -0.782673,0.6254 -0.565778,1.19062 0.193489,0.50423 0.543164,0.50545 0.959856,0.003 z m -1.849287,-0.66483 v -0.79375 h -2.910416 c -2.872619,0 -2.910417,0.008 -2.910417,0.61736 0,0.33955 0.07937,0.69674 0.176389,0.79375 0.09701,0.097 1.406701,0.17639 2.910417,0.17639 h 2.734027 z m 0,-1.71979 c 0,-0.32872 -0.499768,-0.39687 -2.910416,-0.39687 -3.790132,0 -3.843747,0.48335 -0.06615,0.59631 1.564349,0.0468 2.874036,0.11034 2.910417,0.14124 0.03638,0.0309 0.06615,-0.1224 0.06615,-0.34068 z m 1.984375,-0.52917 c 0,-0.34732 -0.204571,-0.55822 -0.595312,-0.61371 -0.488336,-0.0693 -0.595313,0.0409 -0.595313,0.61371 0,0.57279 0.106977,0.68307 0.595313,0.61372 0.390741,-0.0555 0.595312,-0.26639 0.595312,-0.61372 z m -1.984375,-0.79375 c 0,-0.32872 -0.499768,-0.39687 -2.910416,-0.39687 -3.790132,0 -3.843747,0.48336 -0.06615,0.59631 1.564349,0.0468 2.874036,0.11034 2.910417,0.14125 0.03638,0.0309 0.06615,-0.1224 0.06615,-0.34069 z m 0,-3.175 v -2.24895 h -2.910416 -2.910417 v 2.10771 2.10772 l 2.844271,0.085 c 1.564349,0.0468 2.874036,0.11033 2.910417,0.14124 0.03638,0.0309 0.06615,-0.95584 0.06615,-2.19277 z m -3.915833,1.13771 c -0.366272,-0.36627 -0.413684,-1.50233 -0.08438,-2.0219 0.358091,-0.56498 2.003563,-0.67778 2.50933,-0.17202 0.506217,0.50622 0.57082,1.73815 0.115051,2.19392 -0.174625,0.17463 -0.746125,0.3175 -1.27,0.3175 -0.523875,0 -1.095375,-0.14287 -1.270001,-0.3175 z m 2.06375,-0.99017 c 0,-0.54465 -0.155936,-0.78805 -0.575083,-0.89766 -0.316295,-0.0827 -0.673483,-0.0896 -0.79375,-0.0153 -0.409732,0.25323 -0.220061,0.59608 0.376646,0.68083 0.419097,0.0595 0.589512,0.25687 0.575717,0.6667 -0.01078,0.32019 0.07852,0.52152 0.198438,0.44741 0.119917,-0.0741 0.218032,-0.47103 0.218032,-0.88203 z m -0.926042,0.51392 c -0.08994,-0.14552 -0.275557,-0.26458 -0.41249,-0.26458 -0.136932,0 -0.248968,0.11906 -0.248968,0.26458 0,0.14552 0.185621,0.26459 0.41249,0.26459 0.226869,0 0.338905,-0.11907 0.248968,-0.26459 z m 15.262115,18.85157 c 0.06976,-0.60628 0.227102,-0.74143 0.943615,-0.81052 0.836007,-0.0806 0.859898,-0.11735 0.860007,-1.32292 l 1.14e-4,-1.24 -4.664281,0.093 c -3.707398,0.0739 -4.710761,0.0196 -4.890852,-0.26459 -0.371278,-0.58589 -0.293772,-14.6124 0.08282,-14.989 0.23716,-0.23716 3.214089,-0.3175 11.764651,-0.3175 11.046672,0 11.456731,0.0179 11.721042,0.51178 0.353753,0.66099 0.367866,13.4941 0.01585,14.41996 l -0.258027,0.67868 h -4.636757 -4.636756 v 1.19062 c 0,1.08908 0.05562,1.19063 0.65215,1.19063 0.358682,0 0.759312,0.20836 0.890288,0.46302 0.525722,1.02217 0.165137,1.12448 -3.963313,1.12448 h -3.964273 z m 14.503511,-11.17865 v -6.35 H 81.58616 71.135118 v 6.35 6.35 H 81.58616 92.037202 Z m -18.122506,3.9711 c -0.09201,-0.14887 -0.009,-0.33139 0.184356,-0.40561 0.68299,-0.26209 14.368556,-0.003 14.300354,0.27097 -0.09171,0.36809 -14.259038,0.49979 -14.48471,0.13464 z m 0,-1.32292 c -0.09201,-0.14887 -0.009,-0.33139 0.184356,-0.4056 0.68299,-0.26209 14.368556,-0.003 14.300354,0.27096 -0.09171,0.3681 -14.259038,0.49979 -14.48471,0.13464 z m 0,-1.32291 c -0.09201,-0.14887 -0.009,-0.3314 0.184356,-0.40561 0.68299,-0.26209 14.368556,-0.003 14.300354,0.27096 -0.09171,0.3681 -14.259038,0.49979 -14.48471,0.13465 z m 6.94386,-3.18765 c -0.543322,-0.32924 -0.6423,-2.08584 -0.145521,-2.58262 0.858261,-0.85826 2.8575,-0.0368 2.8575,1.17412 0,1.18684 -1.657321,2.04759 -2.711979,1.4085 z m 0.992188,-0.78345 c -0.08994,-0.14552 -0.275559,-0.26459 -0.412491,-0.26459 -0.136933,0 -0.248968,0.11907 -0.248968,0.26459 0,0.14552 0.185621,0.26458 0.412491,0.26458 0.22687,0 0.338905,-0.11906 0.248968,-0.26458 z m 0.881274,-1.18748 c -0.275569,-0.26353 -1.37881,-0.21625 -1.474103,0.0632 -0.07035,0.2063 0.03887,0.27269 0.290068,0.17629 0.243528,-0.0934 0.5401,0.0676 0.749713,0.40706 l 0.346798,0.56167 0.08752,-0.56225 c 0.04814,-0.30923 0.04814,-0.59991 0,-0.64595 z M 49.88906,161.12654 c -0.552554,-0.64533 -0.561901,-0.78383 -0.0529,-0.78383 0.218282,0 0.396875,-0.1786 0.396875,-0.39688 0,-0.49734 0.196453,-0.5028 0.680358,-0.0189 0.485455,0.48545 0.476438,0.5968 -0.09829,1.2137 -0.470522,0.50504 -0.481691,0.50487 -0.926041,-0.0141 z m 15.425225,-6.47238 c 0,-0.21828 0.165855,-0.39687 0.368567,-0.39687 0.202712,0 0.437101,-0.17859 0.520863,-0.39688 0.08376,-0.21828 0.275095,-0.39687 0.425183,-0.39687 0.375073,0 0.344115,0.88127 -0.04461,1.27 -0.446838,0.44684 -1.27,0.39539 -1.27,-0.0794 z m 33.720128,-2.53659 c -0.09777,-0.1582 -0.05564,-0.40976 0.09362,-0.55903 0.333806,-0.33381 0.846666,-0.0519 0.846666,0.46541 0,0.44545 -0.680942,0.51325 -0.940289,0.0936 z M 88.333035,140.91788 c 0,-0.20615 -0.137983,-0.42082 -0.306628,-0.47704 -0.202957,-0.0677 -0.140343,-0.29642 0.18519,-0.67661 0.486667,-0.56839 0.496853,-0.56901 0.971674,-0.0593 0.4561,0.48957 0.457121,0.54162 0.02058,1.05145 -0.537133,0.62733 -0.870821,0.68923 -0.870821,0.16155 z m -32.975094,-5.364 c -0.441646,-0.0866 -0.554733,-0.28751 -0.522506,-0.92831 0.05546,-1.10275 1.067487,-1.53217 1.788074,-0.75871 0.5349,0.57415 0.639408,1.07585 0.224109,1.07585 -0.145521,0 -0.264583,0.17859 -0.264583,0.39687 0,0.39576 -0.158349,0.42346 -1.225094,0.2143 z m 21.485571,-0.6269 c -0.420032,-0.42343 -0.437036,-0.51344 -0.097,-0.51344 0.226771,0 0.498348,-0.26789 0.603506,-0.59531 0.16192,-0.50417 0.210127,-0.52442 0.314841,-0.13229 0.06801,0.25466 0.29351,0.46302 0.501121,0.46302 0.207613,0 0.377476,0.13295 0.377476,0.29544 0,0.16249 -0.223031,0.23712 -0.495626,0.16583 -0.381185,-0.0997 -0.465698,-0.0152 -0.366016,0.36602 0.164798,0.63018 -0.184685,0.60964 -0.838298,-0.0493 z"
         id="path888"
         inkscape:connector-curvature="0" />
      <path
         style="fill:#a5a5a5;stroke-width:0.26458335"
         d="m 59.167346,162.17984 c 0.130156,-2.28274 0.10979,-2.40322 -0.430093,-2.5444 -0.518967,-0.13571 -0.566718,-0.3245 -0.566718,-2.24056 0,-1.97448 -0.03636,-2.10618 -0.645372,-2.33772 -1.086535,-0.4131 -1.226012,-1.04841 -1.147663,-5.22751 l 0.07324,-3.90674 0.727604,0.0104 0.727604,0.0104 v -3.78729 -3.78729 l 0.678683,-0.25803 c 0.373275,-0.14192 2.091177,-0.25804 3.817559,-0.25804 2.500747,0 3.223404,0.0845 3.554651,0.41578 0.333129,0.33313 0.415774,1.06587 0.415774,3.68633 0,3.03877 0.03752,3.28248 0.529448,3.43861 0.823601,0.2614 1.159337,1.101 0.793469,1.98428 -0.234279,0.5656 -0.234907,0.88399 -0.0026,1.31806 0.240201,0.44882 0.225642,0.6938 -0.06747,1.13524 -0.324162,0.48822 -0.31985,0.65687 0.03249,1.27078 0.369577,0.64395 0.365174,0.77055 -0.04877,1.40231 -0.521167,0.7954 -1.364976,0.8997 -2.075634,0.25656 -0.302544,-0.27379 -0.483861,-0.32049 -0.483861,-0.12461 0,0.22926 -0.940169,0.29347 -3.505729,0.23945 l -3.505729,-0.0738 -0.07433,-3.08368 c -0.0583,-2.41876 -0.158139,-3.11585 -0.463021,-3.23285 -0.331241,-0.1271 -0.388696,0.4383 -0.388696,3.82506 v 3.97421 l 0.772537,0.2693 c 0.424896,0.14812 0.837878,0.43959 0.917738,0.6477 0.115144,0.30006 0.826328,0.37839 3.435591,0.37839 h 3.29039 l -0.03512,4.49791 -0.03512,4.49792 H 62.24445 59.030703 Z m 1.649022,-4.08609 c 0,-0.20111 -0.106418,-0.43142 -0.236485,-0.5118 -0.130067,-0.0804 -0.219364,0.13929 -0.198437,0.48816 0.03924,0.65414 0.434922,0.67565 0.434922,0.0236 z m 5.931486,-5.58456 c 0.555236,-0.21306 0.536953,-1.32484 -0.02533,-1.54061 -0.695987,-0.26707 -1.262756,0.45512 -0.895587,1.14118 0.333787,0.62368 0.335075,0.62424 0.920922,0.39943 z m -4.343986,-0.85364 c 0,-0.3445 -0.31453,-0.57362 -0.570387,-0.41549 -0.273637,0.16911 -0.03769,0.63598 0.321419,0.63598 0.136932,0 0.248968,-0.0992 0.248968,-0.22049 z m 4.630208,-2.42897 c 0,-0.46895 -0.161258,-0.68084 -0.561636,-0.73797 -0.672483,-0.0959 -1.041318,0.64164 -0.591739,1.18335 0.474389,0.57161 1.153375,0.30941 1.153375,-0.44538 z m -1.983855,-0.3271 5.2e-4,-0.8599 -3.043228,0.0822 c -3.146529,0.085 -3.293927,0.14729 -2.882629,1.21911 0.132844,0.34619 0.658677,0.41851 3.042708,0.41851 h 2.882109 l 5.3e-4,-0.85989 z m 0,-1.71979 c 4.77e-4,-0.41893 -0.289325,-0.4552 -3.042708,-0.38086 -1.673776,0.0452 -3.043228,0.19012 -3.043228,0.32206 0,0.13195 1.339453,0.27788 2.976562,0.3243 1.63711,0.0464 3.006328,0.10985 3.042709,0.14096 0.03638,0.0311 0.06638,-0.1518 0.06667,-0.40646 z m 1.697633,0.30242 c 0.489503,-0.18784 0.550827,-0.92417 0.113398,-1.3616 -0.209925,-0.20993 -0.457562,-0.22353 -0.79375,-0.0436 -0.561957,0.30075 -0.629079,0.79036 -0.171134,1.24831 0.371035,0.37103 0.318627,0.36137 0.851486,0.1569 z m -1.697633,-1.69149 c 4.5e-4,-0.33456 -0.47731,-0.38397 -3.042708,-0.31471 -2.690617,0.0727 -3.330493,0.20384 -2.932985,0.60135 0.06063,0.0606 1.429852,0.11024 3.042708,0.11024 2.430016,0 2.932555,-0.068 2.932985,-0.39688 z m -5.2e-4,-3.05137 v -2.25762 l -2.976562,0.0748 -2.976563,0.0748 -0.07914,1.82583 c -0.04353,1.00421 -0.0175,1.98647 0.05784,2.18281 0.103506,0.26974 0.850337,0.35698 3.055707,0.35698 h 2.91872 z m -3.915833,1.14637 c -0.630601,-0.6306 -0.231753,-2.32833 0.546996,-2.32833 0.126223,0 0.156762,0.22917 0.06786,0.50926 -0.122438,0.38576 -0.01951,0.53012 0.424467,0.59531 0.322354,0.0473 0.636843,0.24008 0.698864,0.42832 0.08175,0.24813 -0.07629,0.29482 -0.574588,0.16976 -0.430426,-0.10803 -0.687354,-0.0629 -0.687354,0.12075 0,0.1613 0.238125,0.29327 0.529167,0.29327 0.291041,0 0.529166,0.11906 0.529166,0.26458 0,0.37065 -1.150694,0.33097 -1.534583,-0.0529 z m 1.991584,-0.74166 c 0.127665,-0.95181 0.07516,-1.10626 -0.420134,-1.23578 -0.311318,-0.0814 -0.566033,-0.2532 -0.566033,-0.38175 0,-0.37554 0.964409,-0.26882 1.307592,0.14469 0.384923,0.4638 0.264255,2.32053 -0.159854,2.4597 -0.215157,0.0706 -0.263666,-0.22569 -0.161571,-0.98686 z m -4.954917,19.50283 c 0,-1.52398 0.265172,-2.83325 0.573831,-2.83325 0.381233,0 0.146147,3.77478 -0.243102,3.90349 -0.231482,0.0765 -0.330729,-0.24463 -0.330729,-1.07024 z m 19.417927,-0.0352 c -0.232309,-0.60538 0.117173,-0.94601 0.970605,-0.94601 0.774666,0 0.778135,-0.007 0.778135,-1.5875 0,-1.39502 -0.06227,-1.5875 -0.513551,-1.5875 -0.282453,0 -0.587137,0.11907 -0.677074,0.26459 -0.09718,0.15724 -1.763533,0.26458 -4.107348,0.26458 -3.628356,0 -3.965735,-0.0409 -4.217718,-0.51177 -0.418491,-0.78196 -0.366927,-14.07694 0.05684,-14.65458 0.304171,-0.41462 1.254948,-0.44523 11.840105,-0.3813 l 11.509375,0.0695 0.07039,7.37611 c 0.04982,5.22092 -0.01762,7.48216 -0.230833,7.73906 -0.233254,0.28106 -1.298924,0.36296 -4.722649,0.36296 -2.431783,0 -4.472556,0.0511 -4.535056,0.11363 -0.0625,0.0625 -0.07035,0.65782 -0.01746,1.32292 0.0909,1.14284 0.139335,1.20928 0.881687,1.20928 0.663266,0 0.772353,0.0927 0.700964,0.59532 -0.0826,0.58158 -0.171622,0.597 -3.860364,0.66875 -3.136434,0.061 -3.801256,0.007 -3.926049,-0.31806 z m 14.387217,-11.40363 -0.07077,-6.48886 -10.31875,-2e-5 -10.31875,-1e-5 -0.07117,6.15268 c -0.03915,3.38397 -0.01312,6.30397 0.05784,6.48888 0.101283,0.26394 2.349709,0.3362 10.460689,0.3362 h 10.331678 z m -17.930144,3.57846 c 0,-0.16986 2.55764,-0.26459 7.14375,-0.26459 4.586111,0 7.14375,0.0947 7.14375,0.26459 0,0.16985 -2.557639,0.26458 -7.14375,0.26458 -4.58611,0 -7.14375,-0.0947 -7.14375,-0.26458 z m 0,-1.32292 c 0,-0.16984 2.552433,-0.26458 7.128134,-0.26458 4.466688,0 7.18919,0.0988 7.291658,0.26458 0.107503,0.17394 -2.334406,0.26458 -7.128134,0.26458 -4.684716,0 -7.291658,-0.0946 -7.291658,-0.26458 z m 0.176389,-0.97014 c -0.530821,-0.53082 0.445842,-0.61736 6.967361,-0.61736 6.173611,0 7.14375,0.0539 7.14375,0.39687 0,0.34274 -0.950539,0.39688 -6.96736,0.39688 -3.832051,0 -7.046737,-0.0794 -7.143751,-0.17639 z m 6.76165,-3.41049 c -0.842325,-0.58999 -0.750998,-2.49854 0.119558,-2.49854 0.26599,0 0.33406,0.1649 0.218445,0.52917 -0.128963,0.40633 -0.04755,0.52917 0.350737,0.52917 0.285279,0 0.585758,0.17478 0.667734,0.3884 0.174331,0.4543 -0.242289,0.80502 -0.486637,0.40966 -0.204293,-0.33055 -0.664126,-0.3549 -0.664126,-0.0352 0,0.12855 0.250105,0.29913 0.555789,0.37906 0.306038,0.08 0.477361,0.27224 0.38126,0.42774 -0.235271,0.38067 -0.44898,0.35646 -1.14276,-0.12949 z m 1.713836,-0.85813 c 0.119468,-0.89068 0.06123,-1.05427 -0.420134,-1.18015 -0.608108,-0.15902 -0.774002,-0.72484 -0.212519,-0.72484 0.811797,0 1.280702,0.67132 1.194335,1.70989 -0.04699,0.56503 -0.223793,1.07273 -0.392901,1.12822 -0.213337,0.07 -0.26501,-0.21567 -0.168781,-0.93312 z m -17.383125,6.7076 c 0,-0.0653 0.286994,-0.42833 0.637765,-0.80682 0.414058,-0.44678 0.701572,-0.58492 0.819669,-0.39383 0.216228,0.34986 -0.593218,1.31931 -1.101566,1.31931 -0.195728,0 -0.355868,-0.0534 -0.355868,-0.11866 z m 34.035863,-2.71076 c -0.297968,-0.29796 -0.181475,-0.61016 0.227679,-0.61016 0.218282,0 0.396875,0.11203 0.396875,0.24896 0,0.33364 -0.41317,0.57259 -0.624554,0.3612 z M 88.719031,139.95219 c -0.271479,-0.43927 -0.02781,-0.50018 0.352041,-0.088 0.187637,0.20361 0.22443,0.37019 0.08176,0.37019 -0.142669,0 -0.337878,-0.12698 -0.4338,-0.28218 z m -33.128184,-4.40246 c -0.327422,-0.0631 -0.595312,-0.27524 -0.595312,-0.47149 0,-0.19626 -0.05958,-0.5154 -0.132396,-0.70921 -0.07603,-0.20235 0.162773,-0.48895 0.560924,-0.67319 0.609228,-0.28191 0.749883,-0.25097 1.159688,0.25512 0.420179,0.5189 0.427122,0.63584 0.0701,1.18072 -0.217945,0.33263 -0.412336,0.58856 -0.43198,0.56875 -0.01964,-0.0198 -0.303607,-0.0876 -0.631029,-0.1507 z m 22.291146,-1.13619 c 0.08994,-0.14552 0.216027,-0.26458 0.280199,-0.26458 0.06417,0 0.116676,0.11906 0.116676,0.26458 0,0.14552 -0.126089,0.26458 -0.280199,0.26458 -0.154109,0 -0.206613,-0.11906 -0.116676,-0.26458 z"
         id="path886"
         inkscape:connector-curvature="0" />
      <path
         style="fill:#689ed2;stroke-width:0.26458335"
         d="m 59.195561,164.3776 c -0.01832,-0.10914 -0.0071,-1.2234 0.02504,-2.47613 0.05416,-2.11424 0.01857,-2.2881 -0.495859,-2.42263 -0.50336,-0.13163 -0.554204,-0.33607 -0.554204,-2.22836 0,-2.07195 -0.0044,-2.08508 -0.79375,-2.38303 l -0.79375,-0.29961 v -4.38861 c 0,-3.64471 0.06463,-4.38861 0.38126,-4.38861 0.555157,0 0.743164,0.44719 0.265127,0.63063 -0.349642,0.13417 -0.393089,0.70381 -0.299774,3.93033 l 0.109132,3.77342 0.715133,0.3533 c 0.393323,0.19431 0.779769,0.52173 0.858768,0.7276 0.113475,0.29571 0.854756,0.37431 3.530284,0.37431 h 3.386649 l -0.04152,4.49758 -0.04152,4.49759 -3.108854,2.7e-4 c -1.70987,2.4e-4 -3.123842,-0.0889 -3.142162,-0.19805 z m 1.531951,-6.53065 c -0.259072,-0.67513 -0.642526,-0.47227 -0.501525,0.26533 0.0869,0.4546 0.217934,0.59204 0.395316,0.41466 0.145931,-0.14593 0.193725,-0.45193 0.106209,-0.67999 z m -0.851152,0.0919 c -0.08519,-0.13784 -0.267668,-0.18092 -0.405507,-0.0957 -0.137839,0.0852 -0.180916,0.26767 -0.09573,0.40551 0.08519,0.13784 0.267667,0.18091 0.405507,0.0957 0.137839,-0.0852 0.180916,-0.26766 0.09573,-0.4055 z m -1.510652,5.66259 c -0.218877,-0.38633 0.125558,-3.52333 0.386853,-3.52333 0.15536,0 0.181707,0.69289 0.06791,1.78594 -0.194535,1.86858 -0.253283,2.09302 -0.454763,1.73739 z m 19.567517,-0.78217 c -0.100939,-0.10093 -0.183523,-0.4018 -0.183523,-0.66859 0,-0.36258 0.200443,-0.48507 0.79375,-0.48507 h 0.79375 v -1.5875 c 0,-1.50671 -0.03287,-1.5875 -0.645843,-1.5875 -0.355214,0 -0.719428,0.11907 -0.809366,0.26459 -0.244139,0.39502 -7.352873,0.3465 -7.752291,-0.0529 -0.45259,-0.45259 -0.45259,-14.52283 0,-14.97542 0.504489,-0.50449 22.525178,-0.45158 22.945712,0.0551 0.223607,0.26943 0.287538,2.36056 0.230836,7.55058 -0.06592,6.03337 -0.141706,7.21789 -0.475298,7.42852 -0.218281,0.13782 -2.391172,0.25241 -4.828646,0.25464 l -4.431771,0.004 v 1.30615 c 0,1.28022 0.01707,1.3078 0.859896,1.38906 0.65587,0.0632 0.859896,0.20847 0.859896,0.61208 0,0.49954 -0.200816,0.53327 -3.58679,0.60245 -1.972736,0.0403 -3.669376,-0.009 -3.770312,-0.11025 z M 92.037202,151.08228 V 144.4677 H 81.453868 70.870535 v 6.43819 c 0,3.54101 0.07937,6.51757 0.176389,6.61458 0.09701,0.097 4.859513,0.17639 10.583334,0.17639 h 10.406944 z m -14.485938,3.77096 c 2.000912,-0.045 5.275131,-0.045 7.276042,0 2.000912,0.0449 0.363802,0.0817 -3.638021,0.0817 -4.001823,0 -5.638932,-0.0368 -3.638021,-0.0817 z m 0,-1.32292 c 2.000912,-0.045 5.275131,-0.045 7.276042,0 2.000912,0.045 0.363802,0.0817 -3.638021,0.0817 -4.001823,0 -5.638932,-0.0368 -3.638021,-0.0817 z m 0,-1.32292 c 2.000912,-0.0449 5.275131,-0.0449 7.276042,0 2.000912,0.045 0.363802,0.0817 -3.638021,0.0817 -4.001823,0 -5.638932,-0.0368 -3.638021,-0.0817 z m 3.285244,-3.15359 c -0.253828,-0.25383 -0.217728,-2.14809 0.04402,-2.30985 0.121224,-0.0749 0.210521,0.3571 0.198437,0.96006 -0.01908,0.95147 0.0654,1.12119 0.639485,1.28486 l 0.661458,0.18857 -0.683506,0.0264 c -0.37593,0.0145 -0.762884,-0.053 -0.859896,-0.15001 z m 1.940277,-1.00715 c 0,-0.73809 -0.132884,-1.00359 -0.595312,-1.18947 -0.561626,-0.22575 -0.564621,-0.24023 -0.05292,-0.25606 0.298318,-0.009 0.685271,0.12611 0.859896,0.30073 0.384625,0.38463 0.420775,1.70411 0.05292,1.93146 -0.157629,0.0974 -0.264584,-0.22058 -0.264584,-0.78666 z m -1.058333,0.1252 c -0.209852,-0.12969 -0.293717,-0.32364 -0.186365,-0.43099 0.107352,-0.10735 0.33409,-0.0563 0.503865,0.11349 0.399761,0.39977 0.176633,0.62289 -0.3175,0.3175 z m -16.271433,6.6153 c -0.09018,-0.14591 -0.04638,-0.2653 0.09734,-0.2653 0.143715,0 0.448398,-0.1871 0.677074,-0.41577 0.369896,-0.3699 0.415773,-0.37092 0.415773,-0.009 0,0.51211 -0.957204,1.06735 -1.190182,0.69038 z m 0.03906,-2.13358 c -0.500946,-0.39404 -0.969681,-0.5165 -1.689327,-0.44135 l -0.996007,0.10401 1.124479,0.0445 c 0.618464,0.0245 1.124479,0.16354 1.124479,0.30906 0,0.39712 -6.426025,0.34731 -6.82625,-0.0529 -0.494519,-0.49452 -0.448116,-13.7968 0.04957,-14.20984 0.248096,-0.2059 1.555878,-0.28072 4.034896,-0.23084 l 3.667826,0.0738 0.0736,3.43958 0.0736,3.43958 0.786292,0.45072 c 0.822794,0.47164 0.999212,1.1706 0.520993,2.06416 -0.177343,0.33137 -0.177343,0.55008 0,0.65968 0.368434,0.22771 0.332788,1.54691 -0.0522,1.9319 -0.246945,0.24695 -0.246945,0.38806 0,0.635 0.445227,0.44523 0.395186,1.4191 -0.09827,1.91256 -0.553725,0.55373 -0.962537,0.52419 -1.793684,-0.12959 z m 1.547999,-0.90984 c 0,-0.60749 -0.131792,-0.81256 -0.561636,-0.87389 -0.637179,-0.0909 -0.992819,0.54125 -0.744555,1.32346 0.106239,0.33473 0.355811,0.47957 0.733604,0.42575 0.441693,-0.0629 0.572587,-0.26302 0.572587,-0.87532 z m -6.741684,0.46475 c -0.651989,-0.0573 -1.336598,-0.22971 -1.521354,-0.38305 -0.248029,-0.20584 -0.33592,-0.16647 -0.33592,0.15048 0,0.35157 0.275405,0.42091 1.521354,0.38305 1.416851,-0.043 1.439926,-0.0534 0.33592,-0.15048 z m 2.111476,-0.72934 c 0,-0.21828 -0.178594,-0.39687 -0.396875,-0.39687 -0.218281,0 -0.396875,0.17859 -0.396875,0.39687 0,0.21829 0.178594,0.39688 0.396875,0.39688 0.218281,0 0.396875,-0.17859 0.396875,-0.39688 z m 4.7625,-2.24895 c 0,-0.82805 -0.655286,-1.23805 -1.22416,-0.76592 -0.500076,0.41502 -0.455884,1.217 0.0837,1.51897 0.674868,0.37767 1.14046,0.0702 1.14046,-0.75305 z m -2.116667,-4.242 v -4.77117 l -2.976562,0.0748 -2.976563,0.0748 -0.07645,2.31511 -0.07645,2.3151 h 2.936332 c 1.992851,0 2.880883,0.0897 2.76376,0.27923 -0.10623,0.17189 -1.205652,0.25988 -2.859886,0.22889 -2.301283,-0.0431 -2.699601,0.0118 -2.772859,0.38223 -0.07463,0.37735 0.296873,0.43979 2.910417,0.48913 l 2.995963,0.0565 -2.976563,0.0844 c -2.755053,0.0781 -2.976562,0.12314 -2.976562,0.60491 0,0.48341 0.212073,0.52453 2.976562,0.57705 l 2.976563,0.0566 -2.976563,0.0844 -2.976562,0.0844 v 0.74099 c 0,0.40754 0.07938,0.82036 0.176389,0.91737 0.09701,0.097 1.466232,0.17639 3.042708,0.17639 h 2.866319 z m -3.65633,-1.01451 c -0.479384,-0.30396 -0.30495,-2.20558 0.216747,-2.36288 0.320291,-0.0966 0.333055,-0.052 0.06615,0.2309 -0.181901,0.19281 -0.330729,0.67402 -0.330729,1.06935 0,0.54332 0.17762,0.78366 0.727604,0.98453 0.566311,0.20684 0.6103,0.26948 0.198437,0.28258 -0.291041,0.009 -0.686234,-0.0828 -0.878205,-0.20448 z m 1.980108,-0.91385 c 0.136334,-0.84013 0.07504,-0.99981 -0.472627,-1.2313 l -0.629276,-0.26599 0.661459,0.0635 c 0.542465,0.0521 0.676825,0.22425 0.746877,0.95705 0.04698,0.49145 -0.03799,1.01695 -0.188832,1.16779 -0.189278,0.18928 -0.225714,-0.0248 -0.117601,-0.69106 z m -1.168048,0.17429 c -0.447241,-0.18046 -0.420443,-0.61852 0.03784,-0.61852 0.202712,0 0.4371,0.1786 0.520863,0.39688 0.155695,0.40573 0.02551,0.45738 -0.558701,0.22164 z m 4.828645,3.48252 c 0,-0.60211 -0.120796,-0.79375 -0.50033,-0.79375 -0.625699,0 -1.095205,0.7079 -0.865877,1.30552 0.108667,0.28318 0.395504,0.41983 0.769712,0.36669 0.467561,-0.0664 0.596495,-0.25628 0.596495,-0.87846 z m 32.146876,5.15938 c 0,-0.14552 0.119063,-0.26458 0.264584,-0.26458 0.14552,0 0.264583,0.11906 0.264583,0.26458 0,0.14552 -0.119063,0.26458 -0.264583,0.26458 -0.145521,0 -0.264584,-0.11906 -0.264584,-0.26458 z M 54.995535,134.67591 c 0,-0.86049 0.901776,-1.25047 1.502476,-0.64977 0.535774,0.53577 0.0265,1.37959 -0.832627,1.37959 -0.554849,0 -0.669849,-0.1253 -0.669849,-0.72982 z m 1.058333,-0.14569 c 0,-0.22687 -0.119063,-0.33891 -0.264583,-0.24897 -0.145521,0.0899 -0.264584,0.27556 -0.264584,0.41249 0,0.13693 0.119063,0.24897 0.264584,0.24897 0.14552,0 0.264583,-0.18562 0.264583,-0.41249 z"
         id="path884"
         inkscape:connector-curvature="0" />
      <path
         style="fill:#406e92;stroke-width:0.26458335"
         d="m 58.365708,163.60145 c -0.218877,-0.38633 0.125558,-3.52333 0.386853,-3.52333 0.15536,0 0.181707,0.69289 0.06791,1.78594 -0.194535,1.86858 -0.253283,2.09302 -0.454763,1.73739 z m 6.364394,-1.84346 -0.07728,-2.0243 -2.910416,-0.10701 c -1.60073,-0.0589 -3.059245,-0.15622 -3.241146,-0.21636 -0.227029,-0.0751 -0.330729,-0.75744 -0.330729,-2.1763 0,-2.05366 -0.0051,-2.0689 -0.79375,-2.36657 l -0.79375,-0.29961 v -4.38861 c 0,-3.64471 0.06463,-4.38861 0.38126,-4.38861 0.555157,0 0.743164,0.44719 0.265127,0.63063 -0.349642,0.13417 -0.393089,0.70381 -0.299774,3.93033 l 0.109132,3.77342 0.715133,0.3533 c 0.393323,0.19431 0.779769,0.52173 0.858768,0.7276 0.113589,0.29601 0.859973,0.37431 3.568115,0.37431 h 3.42448 l -0.07935,1.45825 c -0.09553,1.75561 -0.576074,1.94077 -0.689159,0.26554 l -0.08064,-1.19463 h -1.655776 -1.655776 l 0.01663,1.23053 c 0.01027,0.75999 -0.10984,1.27429 -0.314102,1.34497 -0.227451,0.0787 -0.330729,-0.20642 -0.330729,-0.91303 0,-1.21764 -0.368136,-1.66247 -1.375833,-1.66247 -0.615328,0 -0.740834,0.11292 -0.740834,0.6665 0,0.57567 0.08858,0.64427 0.649944,0.50338 0.538837,-0.13524 0.678786,-0.0482 0.818659,0.50908 0.09279,0.36972 0.09095,0.79805 -0.0041,0.95184 -0.117031,0.18936 0.686289,0.27962 2.488633,0.27962 h 2.661449 v 1.96273 c 0,1.07951 0.07227,2.15107 0.160599,2.38125 0.104283,0.27176 0.01541,0.41852 -0.253454,0.41852 -0.332869,0 -0.429204,-0.3969 -0.491328,-2.0243 z m -4.853742,-3.81913 c -0.08519,-0.13784 -0.267668,-0.18092 -0.405507,-0.0957 -0.137839,0.0852 -0.180916,0.26767 -0.09573,0.40551 0.08519,0.13784 0.267667,0.18091 0.405507,0.0957 0.137839,-0.0852 0.180916,-0.26766 0.09573,-0.4055 z m 18.056865,4.88042 c -0.100939,-0.10093 -0.183523,-0.4018 -0.183523,-0.66859 0,-0.36258 0.200443,-0.48507 0.79375,-0.48507 h 0.79375 v -1.5875 c 0,-1.50671 -0.03287,-1.5875 -0.645843,-1.5875 -0.355214,0 -0.719428,0.11907 -0.809366,0.26459 -0.244139,0.39502 -7.352873,0.3465 -7.752291,-0.0529 -0.45259,-0.45259 -0.45259,-14.52283 0,-14.97542 0.504489,-0.50449 22.525178,-0.45158 22.945712,0.0551 0.223607,0.26943 0.287538,2.36056 0.230836,7.55058 -0.06592,6.03337 -0.141706,7.21789 -0.475298,7.42852 -0.218281,0.13782 -2.391172,0.25241 -4.828646,0.25464 l -4.431771,0.004 v 1.30615 c 0,1.28022 0.01707,1.3078 0.859896,1.38906 0.65587,0.0632 0.859896,0.20847 0.859896,0.61208 0,0.49954 -0.200816,0.53327 -3.58679,0.60245 -1.972736,0.0403 -3.669376,-0.009 -3.770312,-0.11025 z m 14.103977,-11.73699 v -6.61458 H 81.453868 70.870535 v 6.43819 c 0,3.54101 0.07937,6.51757 0.176389,6.61458 0.09701,0.097 4.859513,0.17639 10.583334,0.17639 h 10.406944 z m -14.485938,3.77096 c 2.000912,-0.045 5.275131,-0.045 7.276042,0 2.000912,0.0449 0.363802,0.0817 -3.638021,0.0817 -4.001823,0 -5.638932,-0.0368 -3.638021,-0.0817 z m 0,-1.32292 c 2.000912,-0.045 5.275131,-0.045 7.276042,0 2.000912,0.045 0.363802,0.0817 -3.638021,0.0817 -4.001823,0 -5.638932,-0.0368 -3.638021,-0.0817 z m 0,-1.32292 c 2.000912,-0.0449 5.275131,-0.0449 7.276042,0 2.000912,0.045 0.363802,0.0817 -3.638021,0.0817 -4.001823,0 -5.638932,-0.0368 -3.638021,-0.0817 z m 3.285244,-3.15359 c -0.253828,-0.25383 -0.217728,-2.14809 0.04402,-2.30985 0.121224,-0.0749 0.210521,0.3571 0.198437,0.96006 -0.01908,0.95147 0.0654,1.12119 0.639485,1.28486 l 0.661458,0.18857 -0.683506,0.0264 c -0.37593,0.0145 -0.762884,-0.053 -0.859896,-0.15001 z m 1.940277,-1.00715 c 0,-0.73809 -0.132884,-1.00359 -0.595312,-1.18947 -0.561626,-0.22575 -0.564621,-0.24023 -0.05292,-0.25606 0.298318,-0.009 0.685271,0.12611 0.859896,0.30073 0.384625,0.38463 0.420775,1.70411 0.05292,1.93146 -0.157629,0.0974 -0.264584,-0.22058 -0.264584,-0.78666 z m -1.058333,0.1252 c -0.209852,-0.12969 -0.293717,-0.32364 -0.186365,-0.43099 0.107352,-0.10735 0.33409,-0.0563 0.503865,0.11349 0.399761,0.39977 0.176633,0.62289 -0.3175,0.3175 z m -16.271433,6.6153 c -0.09018,-0.14591 -0.04638,-0.2653 0.09734,-0.2653 0.143715,0 0.448398,-0.1871 0.677074,-0.41577 0.369896,-0.3699 0.415773,-0.37092 0.415773,-0.009 0,0.51211 -0.957204,1.06735 -1.190182,0.69038 z m 0.03906,-2.13358 c -0.500946,-0.39404 -0.969681,-0.5165 -1.689327,-0.44135 l -0.996007,0.10401 1.124479,0.0445 c 0.618464,0.0245 1.124479,0.16354 1.124479,0.30906 0,0.39712 -6.426025,0.34731 -6.82625,-0.0529 -0.494519,-0.49452 -0.448116,-13.7968 0.04957,-14.20984 0.248096,-0.2059 1.555878,-0.28072 4.034896,-0.23084 l 3.667826,0.0738 0.0736,3.43958 0.0736,3.43958 0.786292,0.45072 c 0.822794,0.47164 0.999212,1.1706 0.520993,2.06416 -0.177343,0.33137 -0.177343,0.55008 0,0.65968 0.368434,0.22771 0.332788,1.54691 -0.0522,1.9319 -0.246945,0.24695 -0.246945,0.38806 0,0.635 0.445227,0.44523 0.395186,1.4191 -0.09827,1.91256 -0.553725,0.55373 -0.962537,0.52419 -1.793684,-0.12959 z m 1.547999,-0.90984 c 0,-0.60749 -0.131792,-0.81256 -0.561636,-0.87389 -0.637179,-0.0909 -0.992819,0.54125 -0.744555,1.32346 0.106239,0.33473 0.355811,0.47957 0.733604,0.42575 0.441693,-0.0629 0.572587,-0.26302 0.572587,-0.87532 z m -6.741684,0.46475 c -0.651989,-0.0573 -1.336598,-0.22971 -1.521354,-0.38305 -0.248029,-0.20584 -0.33592,-0.16647 -0.33592,0.15048 0,0.35157 0.275405,0.42091 1.521354,0.38305 1.416851,-0.043 1.439926,-0.0534 0.33592,-0.15048 z m 2.111476,-0.72934 c 0,-0.21828 -0.178594,-0.39687 -0.396875,-0.39687 -0.218281,0 -0.396875,0.17859 -0.396875,0.39687 0,0.21829 0.178594,0.39688 0.396875,0.39688 0.218281,0 0.396875,-0.17859 0.396875,-0.39688 z m 4.7625,-2.24895 c 0,-0.82805 -0.655286,-1.23805 -1.22416,-0.76592 -0.500076,0.41502 -0.455884,1.217 0.0837,1.51897 0.674868,0.37767 1.14046,0.0702 1.14046,-0.75305 z m -2.116667,-4.242 v -4.77117 l -2.976562,0.0748 -2.976563,0.0748 -0.07645,2.31511 -0.07645,2.3151 h 2.936332 c 1.992851,0 2.880883,0.0897 2.76376,0.27923 -0.10623,0.17189 -1.205652,0.25988 -2.859886,0.22889 -2.301283,-0.0431 -2.699601,0.0118 -2.772859,0.38223 -0.07463,0.37735 0.296873,0.43979 2.910417,0.48913 l 2.995963,0.0565 -2.976563,0.0844 c -2.755053,0.0781 -2.976562,0.12314 -2.976562,0.60491 0,0.48341 0.212073,0.52453 2.976562,0.57705 l 2.976563,0.0566 -2.976563,0.0844 -2.976562,0.0844 v 0.74099 c 0,0.40754 0.07938,0.82036 0.176389,0.91737 0.09701,0.097 1.466232,0.17639 3.042708,0.17639 h 2.866319 z m -3.65633,-1.01451 c -0.479384,-0.30396 -0.30495,-2.20558 0.216747,-2.36288 0.320291,-0.0966 0.333055,-0.052 0.06615,0.2309 -0.181901,0.19281 -0.330729,0.67402 -0.330729,1.06935 0,0.54332 0.17762,0.78366 0.727604,0.98453 0.566311,0.20684 0.6103,0.26948 0.198437,0.28258 -0.291041,0.009 -0.686234,-0.0828 -0.878205,-0.20448 z m 1.980108,-0.91385 c 0.136334,-0.84013 0.07504,-0.99981 -0.472627,-1.2313 l -0.629276,-0.26599 0.661459,0.0635 c 0.542465,0.0521 0.676825,0.22425 0.746877,0.95705 0.04698,0.49145 -0.03799,1.01695 -0.188832,1.16779 -0.189278,0.18928 -0.225714,-0.0248 -0.117601,-0.69106 z m -1.168048,0.17429 c -0.447241,-0.18046 -0.420443,-0.61852 0.03784,-0.61852 0.202712,0 0.4371,0.1786 0.520863,0.39688 0.155695,0.40573 0.02551,0.45738 -0.558701,0.22164 z m 4.828645,3.48252 c 0,-0.60211 -0.120796,-0.79375 -0.50033,-0.79375 -0.625699,0 -1.095205,0.7079 -0.865877,1.30552 0.108667,0.28318 0.395504,0.41983 0.769712,0.36669 0.467561,-0.0664 0.596495,-0.25628 0.596495,-0.87846 z m 32.146876,5.15938 c 0,-0.14552 0.119063,-0.26458 0.264584,-0.26458 0.14552,0 0.264583,0.11906 0.264583,0.26458 0,0.14552 -0.119063,0.26458 -0.264583,0.26458 -0.145521,0 -0.264584,-0.11906 -0.264584,-0.26458 z M 54.995535,134.67591 c 0,-0.86049 0.901776,-1.25047 1.502476,-0.64977 0.535774,0.53577 0.0265,1.37959 -0.832627,1.37959 -0.554849,0 -0.669849,-0.1253 -0.669849,-0.72982 z m 1.058333,-0.14569 c 0,-0.22687 -0.119063,-0.33891 -0.264583,-0.24897 -0.145521,0.0899 -0.264584,0.27556 -0.264584,0.41249 0,0.13693 0.119063,0.24897 0.264584,0.24897 0.14552,0 0.264583,-0.18562 0.264583,-0.41249 z"
         id="path882"
         inkscape:connector-curvature="0" />
      <path
         style="fill:#595a5a;stroke-width:0.26458335"
         d="m 58.365708,163.60145 c -0.218877,-0.38633 0.125558,-3.52333 0.386853,-3.52333 0.15536,0 0.181707,0.69289 0.06791,1.78594 -0.194535,1.86858 -0.253283,2.09302 -0.454763,1.73739 z m 6.587665,-1.04671 c -0.09254,-0.67516 -0.168255,-1.62399 -0.168255,-2.10853 v -0.88097 l -3.241146,-0.0743 -3.241146,-0.0743 -0.07597,-2.12851 c -0.07456,-2.08893 -0.09055,-2.13401 -0.859895,-2.42441 l -0.783927,-0.2959 v -4.38861 c 0,-3.64471 0.06463,-4.38861 0.38126,-4.38861 0.555157,0 0.743164,0.44719 0.265127,0.63063 -0.349642,0.13417 -0.393089,0.70381 -0.299774,3.93033 l 0.109132,3.77342 0.715133,0.3533 c 0.393323,0.19431 0.779769,0.52173 0.858768,0.7276 0.113135,0.29482 0.839908,0.37431 3.42262,0.37431 h 3.278984 l -0.04769,1.52135 c -0.04716,1.50454 -0.04879,1.50747 -0.146788,0.26458 l -0.0991,-1.25677 -1.903733,-1.6e-4 -1.903732,-1.7e-4 0.09054,1.38923 c 0.06165,0.94595 0.004,1.3048 -0.180756,1.12464 -0.149211,-0.14552 -0.309015,-0.74083 -0.35512,-1.32291 -0.08035,-1.01447 -0.124946,-1.06174 -1.076014,-1.14045 -0.93363,-0.0773 -0.992188,-0.0376 -0.992188,0.67189 0,0.64869 0.101627,0.75254 0.727604,0.74357 0.622347,-0.009 0.726096,0.0948 0.717174,0.71718 l -0.01043,0.7276 h 2.590117 2.590118 v 2.38125 c 0,1.30969 -0.04335,2.38125 -0.09633,2.38125 -0.05298,0 -0.172043,-0.5524 -0.264583,-1.22755 z m -5.724505,-3.65163 c 0,-0.0642 -0.119063,-0.19026 -0.264583,-0.2802 -0.145521,-0.0899 -0.264584,-0.0374 -0.264584,0.11668 0,0.15411 0.119063,0.2802 0.264584,0.2802 0.14552,0 0.264583,-0.0525 0.264583,-0.11668 z m 0.647492,-0.96425 c -0.08519,-0.13784 -0.267668,-0.18092 -0.405507,-0.0957 -0.137839,0.0852 -0.180916,0.26767 -0.09573,0.40551 0.08519,0.13784 0.267667,0.18091 0.405507,0.0957 0.137839,-0.0852 0.180916,-0.26766 0.09573,-0.4055 z m 18.056865,4.88042 c -0.100939,-0.10093 -0.183523,-0.4018 -0.183523,-0.66859 0,-0.36258 0.200443,-0.48507 0.79375,-0.48507 h 0.79375 v -1.5875 c 0,-1.50671 -0.03287,-1.5875 -0.645843,-1.5875 -0.355214,0 -0.719428,0.11907 -0.809366,0.26459 -0.244139,0.39502 -7.352873,0.3465 -7.752291,-0.0529 -0.45259,-0.45259 -0.45259,-14.52283 0,-14.97542 0.504489,-0.50449 22.525178,-0.45158 22.945712,0.0551 0.223607,0.26943 0.287538,2.36056 0.230836,7.55058 -0.06592,6.03337 -0.141706,7.21789 -0.475298,7.42852 -0.218281,0.13782 -2.391172,0.25241 -4.828646,0.25464 l -4.431771,0.004 v 1.30615 c 0,1.28022 0.01707,1.3078 0.859896,1.38906 0.65587,0.0632 0.859896,0.20847 0.859896,0.61208 0,0.49954 -0.200816,0.53327 -3.58679,0.60245 -1.972736,0.0403 -3.669376,-0.009 -3.770312,-0.11025 z m 14.103977,-11.73699 v -6.61458 H 81.453868 70.870535 v 6.43819 c 0,3.54101 0.07937,6.51757 0.176389,6.61458 0.09701,0.097 4.859513,0.17639 10.583334,0.17639 h 10.406944 z m -14.485938,3.77096 c 2.000912,-0.045 5.275131,-0.045 7.276042,0 2.000912,0.0449 0.363802,0.0817 -3.638021,0.0817 -4.001823,0 -5.638932,-0.0368 -3.638021,-0.0817 z m 0,-1.32292 c 2.000912,-0.045 5.275131,-0.045 7.276042,0 2.000912,0.045 0.363802,0.0817 -3.638021,0.0817 -4.001823,0 -5.638932,-0.0368 -3.638021,-0.0817 z m 0,-1.32292 c 2.000912,-0.0449 5.275131,-0.0449 7.276042,0 2.000912,0.045 0.363802,0.0817 -3.638021,0.0817 -4.001823,0 -5.638932,-0.0368 -3.638021,-0.0817 z m 3.285244,-3.15359 c -0.253828,-0.25383 -0.217728,-2.14809 0.04402,-2.30985 0.121224,-0.0749 0.210521,0.3571 0.198437,0.96006 -0.01908,0.95147 0.0654,1.12119 0.639485,1.28486 l 0.661458,0.18857 -0.683506,0.0264 c -0.37593,0.0145 -0.762884,-0.053 -0.859896,-0.15001 z m 1.940277,-1.00715 c 0,-0.73809 -0.132884,-1.00359 -0.595312,-1.18947 -0.561626,-0.22575 -0.564621,-0.24023 -0.05292,-0.25606 0.298318,-0.009 0.685271,0.12611 0.859896,0.30073 0.384625,0.38463 0.420775,1.70411 0.05292,1.93146 -0.157629,0.0974 -0.264584,-0.22058 -0.264584,-0.78666 z m -1.058333,0.1252 c -0.209852,-0.12969 -0.293717,-0.32364 -0.186365,-0.43099 0.107352,-0.10735 0.33409,-0.0563 0.503865,0.11349 0.399761,0.39977 0.176633,0.62289 -0.3175,0.3175 z m -16.271433,6.6153 c -0.09018,-0.14591 -0.04638,-0.2653 0.09734,-0.2653 0.143715,0 0.448398,-0.1871 0.677074,-0.41577 0.369896,-0.3699 0.415773,-0.37092 0.415773,-0.009 0,0.51211 -0.957204,1.06735 -1.190182,0.69038 z m 0.03906,-2.13358 c -0.500946,-0.39404 -0.969681,-0.5165 -1.689327,-0.44135 l -0.996007,0.10401 1.124479,0.0445 c 0.618464,0.0245 1.124479,0.16354 1.124479,0.30906 0,0.39712 -6.426025,0.34731 -6.82625,-0.0529 -0.494519,-0.49452 -0.448116,-13.7968 0.04957,-14.20984 0.248096,-0.2059 1.555878,-0.28072 4.034896,-0.23084 l 3.667826,0.0738 0.0736,3.43958 0.0736,3.43958 0.786292,0.45072 c 0.822794,0.47164 0.999212,1.1706 0.520993,2.06416 -0.177343,0.33137 -0.177343,0.55008 0,0.65968 0.368434,0.22771 0.332788,1.54691 -0.0522,1.9319 -0.246945,0.24695 -0.246945,0.38806 0,0.635 0.445227,0.44523 0.395186,1.4191 -0.09827,1.91256 -0.553725,0.55373 -0.962537,0.52419 -1.793684,-0.12959 z m 1.547999,-0.90984 c 0,-0.60749 -0.131792,-0.81256 -0.561636,-0.87389 -0.637179,-0.0909 -0.992819,0.54125 -0.744555,1.32346 0.106239,0.33473 0.355811,0.47957 0.733604,0.42575 0.441693,-0.0629 0.572587,-0.26302 0.572587,-0.87532 z m -6.741684,0.46475 c -0.651989,-0.0573 -1.336598,-0.22971 -1.521354,-0.38305 -0.248029,-0.20584 -0.33592,-0.16647 -0.33592,0.15048 0,0.35157 0.275405,0.42091 1.521354,0.38305 1.416851,-0.043 1.439926,-0.0534 0.33592,-0.15048 z m 2.111476,-0.72934 c 0,-0.21828 -0.178594,-0.39687 -0.396875,-0.39687 -0.218281,0 -0.396875,0.17859 -0.396875,0.39687 0,0.21829 0.178594,0.39688 0.396875,0.39688 0.218281,0 0.396875,-0.17859 0.396875,-0.39688 z m 4.7625,-2.24895 c 0,-0.82805 -0.655286,-1.23805 -1.22416,-0.76592 -0.500076,0.41502 -0.455884,1.217 0.0837,1.51897 0.674868,0.37767 1.14046,0.0702 1.14046,-0.75305 z m -2.116667,-4.242 v -4.77117 l -2.976562,0.0748 -2.976563,0.0748 -0.07645,2.31511 -0.07645,2.3151 h 2.936332 c 1.992851,0 2.880883,0.0897 2.76376,0.27923 -0.10623,0.17189 -1.205652,0.25988 -2.859886,0.22889 -2.301283,-0.0431 -2.699601,0.0118 -2.772859,0.38223 -0.07463,0.37735 0.296873,0.43979 2.910417,0.48913 l 2.995963,0.0565 -2.976563,0.0844 c -2.755053,0.0781 -2.976562,0.12314 -2.976562,0.60491 0,0.48341 0.212073,0.52453 2.976562,0.57705 l 2.976563,0.0566 -2.976563,0.0844 -2.976562,0.0844 v 0.74099 c 0,0.40754 0.07938,0.82036 0.176389,0.91737 0.09701,0.097 1.466232,0.17639 3.042708,0.17639 h 2.866319 z m -3.65633,-1.01451 c -0.479384,-0.30396 -0.30495,-2.20558 0.216747,-2.36288 0.320291,-0.0966 0.333055,-0.052 0.06615,0.2309 -0.181901,0.19281 -0.330729,0.67402 -0.330729,1.06935 0,0.54332 0.17762,0.78366 0.727604,0.98453 0.566311,0.20684 0.6103,0.26948 0.198437,0.28258 -0.291041,0.009 -0.686234,-0.0828 -0.878205,-0.20448 z m 1.980108,-0.91385 c 0.136334,-0.84013 0.07504,-0.99981 -0.472627,-1.2313 l -0.629276,-0.26599 0.661459,0.0635 c 0.542465,0.0521 0.676825,0.22425 0.746877,0.95705 0.04698,0.49145 -0.03799,1.01695 -0.188832,1.16779 -0.189278,0.18928 -0.225714,-0.0248 -0.117601,-0.69106 z m -1.168048,0.17429 c -0.447241,-0.18046 -0.420443,-0.61852 0.03784,-0.61852 0.202712,0 0.4371,0.1786 0.520863,0.39688 0.155695,0.40573 0.02551,0.45738 -0.558701,0.22164 z m 4.828645,3.48252 c 0,-0.60211 -0.120796,-0.79375 -0.50033,-0.79375 -0.625699,0 -1.095205,0.7079 -0.865877,1.30552 0.108667,0.28318 0.395504,0.41983 0.769712,0.36669 0.467561,-0.0664 0.596495,-0.25628 0.596495,-0.87846 z m 32.146876,5.15938 c 0,-0.14552 0.119063,-0.26458 0.264584,-0.26458 0.14552,0 0.264583,0.11906 0.264583,0.26458 0,0.14552 -0.119063,0.26458 -0.264583,0.26458 -0.145521,0 -0.264584,-0.11906 -0.264584,-0.26458 z M 54.995535,134.67591 c 0,-0.86049 0.901776,-1.25047 1.502476,-0.64977 0.535774,0.53577 0.0265,1.37959 -0.832627,1.37959 -0.554849,0 -0.669849,-0.1253 -0.669849,-0.72982 z m 1.058333,-0.14569 c 0,-0.22687 -0.119063,-0.33891 -0.264583,-0.24897 -0.145521,0.0899 -0.264584,0.27556 -0.264584,0.41249 0,0.13693 0.119063,0.24897 0.264584,0.24897 0.14552,0 0.264583,-0.18562 0.264583,-0.41249 z"
         id="path880"
         inkscape:connector-curvature="0" />
      <path
         style="fill:#262627;stroke-width:0.26458335"
         d="m 64.91741,161.66562 -0.187368,-2.11666 H 61.96384 c -1.854152,0 -2.709925,-0.0911 -2.595517,-0.27618 0.211132,-0.34162 -0.376375,-1.09507 -0.698601,-0.89592 -0.129032,0.0798 -0.234604,-0.56465 -0.234604,-1.43199 0,-1.5218 -0.0324,-1.5961 -0.926042,-2.12336 l -0.926041,-0.54637 v -4.10997 c 0,-3.74582 0.04102,-4.10811 0.46302,-4.08908 0.276606,0.0125 0.329867,0.0746 0.132292,0.15435 -0.24391,0.0984 -0.330729,1.1731 -0.330729,4.09391 v 3.96047 l 0.772537,0.2693 c 0.424895,0.14812 0.837877,0.43959 0.917738,0.6477 0.115225,0.30027 0.829676,0.37839 3.460796,0.37839 h 3.315596 l -0.04769,1.52135 c -0.04716,1.50454 -0.04879,1.50747 -0.146788,0.26458 l -0.0991,-1.25677 H 63.115069 61.20943 l 0.03133,1.12448 c 0.02019,0.72467 -0.01034,0.84264 -0.08586,0.33179 -0.164634,-1.11366 -0.532006,-1.45627 -1.561553,-1.45627 -0.850673,0 -0.893645,0.0461 -0.893645,0.95844 0,0.81218 0.05921,0.9093 0.387979,0.63644 0.213389,-0.17709 0.540811,-0.2606 0.727605,-0.18557 0.213491,0.0858 0.167663,0.14417 -0.123396,0.15731 -0.254662,0.0115 -0.463021,0.19948 -0.463021,0.41776 0,0.4793 0.695375,0.53139 0.883105,0.0661 0.09623,-0.23847 0.139279,-0.24282 0.15434,-0.0156 0.01149,0.17331 -0.09817,0.3887 -0.243695,0.47863 -0.748804,0.46279 -0.01423,0.66152 2.447396,0.66213 l 2.711979,7.9e-4 0.08751,2.24829 c 0.04813,1.23644 0.03076,2.24817 -0.03861,2.24817 -0.06937,0 -0.210434,-0.9525 -0.313486,-2.11667 z m -6.403006,0.52917 c 0,-0.80036 0.0496,-1.12779 0.110223,-0.7276 0.06062,0.40018 0.06062,1.05502 0,1.4552 -0.06062,0.40019 -0.110223,0.0728 -0.110223,-0.7276 z m 19.284211,0.0661 c 0.05777,-0.30495 0.380543,-0.49133 0.945441,-0.54594 l 0.857729,-0.0829 v -1.57074 -1.57074 h 6.514688 c 5.596157,0 6.470748,-0.0529 6.203037,-0.37551 -0.244295,-0.29436 -0.221681,-0.42587 0.104635,-0.60849 0.364347,-0.2039 0.407439,-1.05655 0.3454,-6.83437 l -0.07088,-6.60142 -10.847916,-0.006 -10.847917,-0.006 10.715625,0.14283 10.715625,0.14283 -10.781771,0.0616 -10.781771,0.0616 v 6.61458 6.61458 h 9.641676 c 6.142382,0 9.701025,0.096 9.805199,0.26459 0.107892,0.17457 -3.178553,0.26458 -9.660575,0.26458 -8.16144,0 -9.888068,-0.064 -10.202074,-0.37798 -0.308257,-0.30825 -0.377976,-1.65087 -0.377976,-7.27885 v -6.90087 l 11.443229,0.069 11.44323,0.069 v 7.40833 7.40833 l -5.291667,0.1626 c -2.910417,0.0894 -5.857214,0.17873 -6.548438,0.19844 l -1.256771,0.0358 v 1.32292 1.32291 h 1.5875 1.587501 v -0.79375 c 0,-0.43656 0.119062,-0.79375 0.264583,-0.79375 0.145521,0 0.264583,0.35719 0.264583,0.79375 0,0.70556 0.08819,0.79375 0.79375,0.79375 0.61736,0 0.79375,0.11759 0.79375,0.52917 0,0.5041 -0.17639,0.52917 -3.723566,0.52917 -3.40328,0 -3.716022,-0.0398 -3.635854,-0.46302 z m 6.801022,0.081 c -0.185012,-0.18501 -6.327621,-0.2285 -6.51003,-0.0461 -0.08993,0.0899 1.364453,0.16351 3.23197,0.16351 1.867516,0 3.342645,-0.0528 3.27806,-0.11742 z m -26.164519,-3.33778 c 0,-0.15411 0.119062,-0.20661 0.264583,-0.11667 0.145521,0.0899 0.264584,0.21603 0.264584,0.2802 0,0.0642 -0.119063,0.11667 -0.264584,0.11667 -0.145521,0 -0.264583,-0.12609 -0.264583,-0.2802 z m 11.641074,-0.4474 c -3.18e-4,-0.10914 1.160533,-0.16683 2.579687,-0.1282 4.780516,0.13013 5.249162,0.22846 1.32351,0.27769 -2.146432,0.0269 -3.902871,-0.0403 -3.903197,-0.14949 z m 7.475072,-3.70352 c 2.000912,-0.045 5.275131,-0.045 7.276042,0 2.000912,0.0449 0.363802,0.0817 -3.638021,0.0817 -4.001823,0 -5.638932,-0.0368 -3.638021,-0.0817 z m -11.509375,-0.55186 c 0.527549,-0.55267 0.733514,-0.5213 0.504011,0.0768 -0.08617,0.22456 -0.339005,0.40829 -0.561853,0.40829 -0.342816,0 -0.333914,-0.0747 0.05784,-0.48507 z m 11.509375,-0.77106 c 2.000912,-0.045 5.275131,-0.045 7.276042,0 2.000912,0.045 0.363802,0.0817 -3.638021,0.0817 -4.001823,0 -5.638932,-0.0368 -3.638021,-0.0817 z m -16.139584,-0.7936 c -1.78263,-0.0458 -3.241395,-0.16886 -3.241701,-0.27352 -3.17e-4,-0.10466 0.803367,-0.1639 1.785938,-0.13165 0.982571,0.0323 1.637665,-0.007 1.455763,-0.0882 -0.420091,-0.18652 -0.42753,-0.95845 -0.01323,-1.37275 0.246945,-0.24694 0.04597,-0.3175 -0.904402,-0.3175 -0.672046,0 -1.401422,-0.0689 -1.620836,-0.15308 -0.285318,-0.10949 -0.430896,0.0601 -0.511163,0.59531 -0.06173,0.41162 -0.130069,-2.24404 -0.151872,-5.90147 l -0.03964,-6.64987 0.595312,-0.15954 c 1.13214,-0.3034 6.689806,-0.18414 7.024688,0.15074 0.213871,0.21387 0.3175,1.42287 0.3175,3.70416 0,3.22225 0.02597,3.38667 0.534839,3.38667 0.763695,0 1.268048,1.18185 0.814368,1.90831 -0.278588,0.44609 -0.278213,0.66368 0.002,1.18735 0.275188,0.51419 0.277851,0.74571 0.01344,1.16909 -0.261065,0.41804 -0.262438,0.71394 -0.0066,1.42147 0.396921,1.09764 0.0049,1.72211 -1.081198,1.72211 -0.941641,0 -1.603247,-1.09757 -1.124094,-1.86482 0.174917,-0.28008 0.318248,-0.54063 0.318513,-0.57898 2.65e-4,-0.0384 -0.726712,-0.0288 -1.615504,0.0213 -1.180438,0.0665 -1.537127,0.16992 -1.323399,0.38365 0.360594,0.36059 0.386386,1.24508 0.03631,1.24508 -0.140954,0 -0.195066,-0.15952 -0.12025,-0.35448 0.07482,-0.19497 -0.03219,-0.49409 -0.237783,-0.66472 -0.289637,-0.24038 -0.444135,-0.2255 -0.686113,0.0661 -0.465201,0.56054 0.625375,1.21773 2.020755,1.21773 0.622465,0 1.131754,0.11906 1.131754,0.26458 0,0.14552 -0.02977,0.23884 -0.06615,0.20737 -0.03638,-0.0315 -1.524661,-0.0947 -3.307292,-0.14043 z m 5.858672,-0.48545 c 0.240486,-0.6267 0.200815,-0.82639 -0.25465,-1.28186 -0.313447,-0.31345 -0.540474,-0.34823 -0.926041,-0.14188 -0.491327,0.26295 -0.699631,1.30063 -0.334404,1.66586 0.336826,0.33683 1.355394,0.17405 1.515095,-0.24212 z m -0.0014,-2.55805 c 0.379403,-0.60247 -0.04206,-1.29943 -0.929273,-1.53671 -0.58072,-0.1553 -0.660633,-0.0867 -0.713934,0.61281 -0.105813,1.38866 0.969701,1.99337 1.643207,0.9239 z m -2.086955,-4.56407 v -4.7625 h -3.175 -3.175 l -0.01256,4.36563 c -0.0069,2.40109 0.08863,4.57783 0.212314,4.83718 0.199276,0.41787 0.562174,0.46306 3.187563,0.39688 l 2.962685,-0.0747 z m -4.554402,2.58232 c 0.842058,-0.0527 2.151746,-0.0522 2.910417,0.001 0.758671,0.0533 0.06971,0.0964 -1.531015,0.0958 -1.600729,-6.1e-4 -2.22146,-0.0442 -1.379402,-0.0968 z m 0,-1.32292 c 0.842058,-0.0527 2.151746,-0.0522 2.910417,0.001 0.758671,0.0533 0.06971,0.0964 -1.531015,0.0958 -1.600729,-6.1e-4 -2.22146,-0.0442 -1.379402,-0.0968 z m 0,-1.32292 c 0.842058,-0.0527 2.151746,-0.0522 2.910417,10e-4 0.758671,0.0533 0.06971,0.0964 -1.531015,0.0957 -1.600729,-5.9e-4 -2.22146,-0.0442 -1.379402,-0.0968 z m 0.77086,-1.18002 c -0.174625,-0.17462 -0.301826,-0.68064 -0.28267,-1.12448 l 0.03483,-0.80698 0.163608,0.9149 c 0.121653,0.68029 0.333225,0.96188 0.825066,1.09811 0.553702,0.15336 0.573098,0.1875 0.119062,0.20958 -0.298318,0.0145 -0.685271,-0.1165 -0.859896,-0.29113 z m 2.015457,-0.88959 c 0.08817,-0.75524 0.0022,-0.94683 -0.518316,-1.15529 -0.3637,-0.14566 -0.452936,-0.2569 -0.213911,-0.26668 0.225557,-0.009 0.552979,0.1261 0.727604,0.30073 0.355329,0.35533 0.431866,1.69725 0.108212,1.89728 -0.115109,0.0711 -0.161724,-0.27807 -0.103589,-0.77604 z m -1.218909,-0.0102 c -0.187638,-0.2036 -0.224431,-0.37019 -0.08176,-0.37019 0.274754,0 0.672499,0.5033 0.515562,0.65238 -0.05095,0.0484 -0.246163,-0.0786 -0.433802,-0.28219 z m 4.820179,4.50571 c 0.720905,-0.72091 0.320199,-1.7009 -0.695477,-1.7009 -0.425847,0 -0.476558,-0.27301 -0.479162,-2.57968 -0.0016,-1.41883 -0.07671,-3.02618 -0.16691,-3.57188 l -0.163998,-0.99219 h -3.537257 -3.537256 v 0.6351 0.6351 l 3.494409,0.0371 c 1.921925,0.0204 3.52594,0.0686 3.564478,0.10716 0.03854,0.0385 0.08406,1.67082 0.101152,3.62729 0.03541,4.05226 0.344065,4.87886 1.420021,3.80291 z m -5.735789,-8.23762 c 0.327422,-0.0631 0.863203,-0.0631 1.190625,0 0.327422,0.0631 0.05953,0.11466 -0.595313,0.11466 -0.654843,0 -0.922734,-0.0516 -0.595312,-0.11466 z m 16.271875,12.95351 c 2.000912,-0.0449 5.275131,-0.0449 7.276042,0 2.000912,0.045 0.363802,0.0817 -3.638021,0.0817 -4.001823,0 -5.638932,-0.0368 -3.638021,-0.0817 z M 55.524701,135.25484 c -0.639649,-0.28985 -0.602397,-1.2896 0.05445,-1.46137 0.767584,-0.20073 1.325154,0.53647 0.909339,1.2023 -0.321991,0.51559 -0.369514,0.52836 -0.963793,0.25907 z m 0.733116,-0.62633 c -0.163532,-0.49059 -0.733116,-0.57196 -0.733116,-0.10473 0,0.23041 0.188516,0.41893 0.418924,0.41893 0.230408,0 0.371795,-0.14139 0.314192,-0.3142 z"
         id="path878"
         inkscape:connector-curvature="0" />
    </g>
  </g>
</svg>
