<?xml version="1.0" encoding="UTF-8" standalone="no"?>
<!-- Created with Inkscape (http://www.inkscape.org/) -->

<svg
   xmlns:dc="http://purl.org/dc/elements/1.1/"
   xmlns:cc="http://creativecommons.org/ns#"
   xmlns:rdf="http://www.w3.org/1999/02/22-rdf-syntax-ns#"
   xmlns:svg="http://www.w3.org/2000/svg"
   xmlns="http://www.w3.org/2000/svg"
   xmlns:sodipodi="http://sodipodi.sourceforge.net/DTD/sodipodi-0.dtd"
   xmlns:inkscape="http://www.inkscape.org/namespaces/inkscape"
   width="210mm"
   height="297mm"
   viewBox="0 0 210 297"
   version="1.1"
   id="svg8"
   inkscape:version="0.92.2 (5c3e80d, 2017-08-06)"
   sodipodi:docname="bike.svg">
  <defs
     id="defs2" />
  <sodipodi:namedview
     id="base"
     pagecolor="#ffffff"
     bordercolor="#666666"
     borderopacity="1.0"
     inkscape:pageopacity="0.0"
     inkscape:pageshadow="2"
     inkscape:zoom="0.24748737"
     inkscape:cx="-238.2106"
     inkscape:cy="560"
     inkscape:document-units="mm"
     inkscape:current-layer="layer1"
     showgrid="false"
     inkscape:window-width="1366"
     inkscape:window-height="745"
     inkscape:window-x="-8"
     inkscape:window-y="-8"
     inkscape:window-maximized="1" />
  <metadata
     id="metadata5">
    <rdf:RDF>
      <cc:Work
         rdf:about="">
        <dc:format>image/svg+xml</dc:format>
        <dc:type
           rdf:resource="http://purl.org/dc/dcmitype/StillImage" />
        <dc:title />
      </cc:Work>
    </rdf:RDF>
  </metadata>
  <g
     inkscape:label="Layer 1"
     inkscape:groupmode="layer"
     id="layer1">
    <path
       style="fill:#34b3d3;fill-opacity:1;stroke-width:0.73382062"
       d="m 4.2794185,112.4277 c 0.505859,-0.50589 24.8970275,-0.56457 25.4004665,-0.0613 0.229229,0.22937 -5.472111,0.4168 -12.669666,0.4168 -7.1975665,0 -12.9264155,-0.16003 -12.7308005,-0.35565 z M 115.52562,112.23993 c 2.52253,-0.14339 6.65025,-0.14339 9.17274,0 2.52254,0.14339 0.45866,0.26043 -4.58636,0.26043 -5.045,0 -7.10888,-0.11732 -4.58638,-0.26043 z m -88.975735,-4.42042 13.208769,-0.22992 -4.402922,-2.13648 C 14.348402,95.25957 14.489655,66.203965 35.594113,56.418077 c 3.477731,-1.612565 5.223391,-1.93454 10.584995,-1.952263 6.848976,-0.02219 8.330216,-0.670437 3.427109,-1.498824 -5.676307,-0.958992 -14.480411,1.354352 -19.381625,5.092691 -3.003235,2.290685 -5.178271,2.410556 -6.283034,0.346299 -2.678823,-5.005438 15.152199,-12.434521 26.315763,-10.964181 3.377742,0.444896 3.992848,0.328771 4.637298,-0.875425 0.52247,-0.976215 0.482976,-1.701651 -0.133134,-2.443949 -0.828026,-0.99771 -0.731398,-2.491126 0.471272,-7.282892 0.469664,-1.871332 0.399966,-1.944664 -1.090233,-1.147146 -0.87562,0.46861 -3.149315,0.751839 -5.052684,0.629362 l -3.460667,-0.222712 -0.220825,-5.12137 c -0.121453,-2.816789 -0.02247,-5.911732 0.219993,-6.877712 0.407776,-1.624713 0.716496,-1.729801 4.120451,-1.402724 2.113345,0.20302 4.56788,1.010247 5.766307,1.896295 1.832309,1.354685 2.141277,1.400448 2.534642,0.375281 0.339752,-0.885327 1.124707,-1.076699 3.24819,-0.79186 3.3562,0.450137 4.883507,-0.293325 6.323667,-3.078331 0.731546,-1.414593 2.38424,-2.626832 5.136745,-3.767653 3.66775,-1.520208 4.05925,-1.898513 4.06901,-3.931928 0.0139,-2.864244 1.5051,-5.8375149 3.08006,-6.1408242 3.10412,-0.5977988 5.13038,8.6714442 2.83365,12.9629002 -1.24716,2.330317 -3.80157,1.786796 -5.18675,-1.103657 l -1.10468,-2.305191 -3.30217,1.280717 c -2.36136,0.915808 -3.717785,2.035135 -4.760852,3.9286 -1.857547,3.372043 -0.956907,4.598483 2.654852,3.615251 1.91861,-0.522304 5.43355,-0.07211 15.68167,2.008704 7.26481,1.475028 13.913287,3.12781 14.774377,3.672828 1.99267,1.261247 3.93803,4.533223 3.93803,6.623523 0,1.289759 0.2596,1.489311 1.28418,0.987503 0.7063,-0.345883 7.67787,-0.725214 15.49232,-0.84292 11.90795,-0.179446 14.49187,-0.02829 15.96061,0.934168 1.55613,1.01962 1.75246,1.023058 1.75246,0.03051 0,-0.614689 0.66043,-1.778088 1.46764,-2.585285 1.33328,-1.333275 2.44607,-1.467623 12.15627,-1.467623 5.96464,0 11.31596,0.335732 12.10805,0.759632 1.32228,0.707658 1.41939,0.48711 1.41939,-3.223688 0,-3.041359 0.28933,-4.094344 1.22344,-4.452791 2.02995,-0.778964 2.72915,0.779658 2.77187,6.178709 0.0221,2.827246 0.17972,5.140562 0.34981,5.140729 0.17001,1.93e-4 0.86015,-0.498341 1.53361,-1.107817 0.67346,-0.609476 2.84588,-1.187362 4.8276,-1.284184 l 3.60319,-0.176116 0.21133,6.369497 0.21135,6.369498 -2.04149,0.234914 c -1.96327,0.225763 -1.89399,0.329187 1.80857,2.697474 7.628,4.879077 13.40249,13.381197 15.0292,22.128329 0.84825,4.561262 2.22137,5.862614 6.18597,5.862614 1.79458,0 1.83454,0.08293 0.79506,1.651089 -0.60196,0.908097 -1.70706,1.772152 -2.45579,1.920091 -0.74873,0.147826 -2.51959,1.056064 -3.93523,2.018023 -1.5285,1.038645 -3.64201,1.748993 -5.2038,1.748993 -2.51006,0 -2.7094,0.192203 -4.37485,4.219484 -1.09553,2.649104 -3.12579,5.584959 -5.45519,7.888568 -3.5888,3.548913 -4.89028,4.419093 -9.58088,6.405773 -1.89221,0.80143 0.27264,0.98678 15.41024,1.31938 13.84431,0.30423 10.9403,0.39228 -13.57568,0.4117 -17.15304,0.0139 -28.21537,-0.16059 -24.58298,-0.38696 l 6.60438,-0.4117 -3.49812,-1.34963 c -5.14096,-1.9835 -11.09601,-7.772863 -13.77997,-13.396623 -1.76081,-3.689413 -2.59288,-4.699992 -3.86983,-4.699992 -0.8947,0 -2.8179,-0.809417 -4.27376,-1.798723 C 128.40015,84.258033 128.13615,84.2331 109.63899,84.016517 92.718073,83.818489 90.767743,83.667889 89.431143,82.45712 86.965293,80.223403 78.889063,65.657756 79.282393,64.153634 c 0.20054,-0.767288 -0.92424,-3.741638 -2.56661,-6.786465 -2.42088,-4.488152 -2.78543,-5.679063 -2.11945,-6.923475 0.64489,-1.205 0.5856,-1.502929 -0.29918,-1.502929 -0.74224,0 -0.9484,0.420407 -0.62972,1.284184 0.26626,0.721773 -0.46689,0.291772 -1.67413,-0.981873 -1.65923,-1.750519 -3.029905,-2.38307 -6.024479,-2.78029 -4.321027,-0.573171 -4.953493,-0.379359 -5.492907,1.683317 -0.29388,1.123765 0.638147,2.084171 4.355854,4.488458 7.376582,4.770549 13.396142,13.487423 14.626282,21.18021 0.40709,2.545736 0.17889,3.158124 -2.10395,5.649249 l -2.56055,2.794019 -0.54008,-4.00024 c -1.16465,-8.625906 -5.492262,-15.920475 -12.133929,-20.452726 -4.926731,-3.361976 -5.381167,-2.478977 -0.573587,1.114389 9.812956,7.334647 13.844456,18.893493 10.508136,30.128144 -1.46576,4.93574 -5.066869,9.891086 -6.785629,9.337414 -1.095866,-0.353038 -1.125346,-0.292576 -0.19304,0.395528 0.9322,0.68791 0.707467,1.145148 -1.467627,2.986222 -1.412613,1.19568 -4.366053,2.92518 -6.563254,3.84334 l -3.994887,1.66937 3.627981,0.43508 c 1.995363,0.23935 -6.939062,0.41253 -19.854301,0.38496 -12.915243,-0.0277 -17.538313,-0.15365 -10.27349,-0.28012 z m 16.934097,-2.55791 c -0.225262,-0.90813 -0.215417,-1.22456 0.02191,-0.70319 0.317432,0.69731 0.687295,0.73558 1.399156,0.14477 0.737787,-0.6123 1.081223,-0.44526 1.44573,0.70319 0.650669,2.05009 1.435322,1.89155 2.532669,-0.51173 l 0.921432,-2.018 0.954468,2.20146 0.954468,2.20146 0.839412,-2.26261 c 0.780828,-2.10467 2.879671,-3.24674 2.697201,-1.46763 -0.172788,1.68377 1.398259,1.11109 1.612316,-0.58775 0.237135,-1.88202 1.985047,-3.090954 2.72887,-1.88742 0.23852,0.38596 0.06467,0.70175 -0.386708,0.70175 -0.451248,0 -0.616354,0.33024 -0.366906,0.73383 0.96116,1.55519 1.989654,0.65563 1.678027,-1.46764 -0.177787,-1.210802 -0.242133,-2.201467 -0.143387,-2.201467 0.09907,0 0.784667,-0.196363 1.524,-0.436132 1.091814,-0.354259 1.141374,-0.292769 0.26404,0.327439 -0.929173,0.65682 -0.899106,0.833048 0.215227,1.260609 1.78496,0.684971 2.13204,0.114831 1.28548,-2.111877 -0.607147,-1.596896 -0.494173,-1.969459 0.713294,-2.3527 0.789053,-0.250447 1.43464,-0.964206 1.43464,-1.586163 0,-0.851157 0.471493,-1.012519 1.90636,-0.652381 1.386306,0.347934 1.815973,0.219384 1.574986,-0.4708 -0.182213,-0.522111 -0.9576,-0.852962 -1.72292,-0.735227 -1.067346,0.164192 -1.155933,0.0552 -0.380213,-0.468332 0.556187,-0.375309 0.825667,-0.982732 0.59876,-1.349804 -0.226867,-0.3671 -0.104,-1.147035 0.27292,-1.733157 0.598133,-0.92998 0.773773,-0.928206 1.379333,0.01387 0.381667,0.593722 0.929986,0.843419 1.218526,0.554866 0.28854,-0.288527 -0.056,-1.166255 -0.765806,-1.950516 -0.709733,-0.784234 -1.05168,-1.812175 -0.75988,-2.284307 0.392614,-0.635296 0.689467,-0.60121 1.142036,0.131186 0.44237,0.715757 0.83341,0.767621 1.4136,0.187488 0.58019,-0.580186 0.29068,-1.137105 -1.04659,-2.013306 -1.153979,-0.756139 -1.687406,-1.631371 -1.419606,-2.329292 0.302814,-0.789115 0.693494,-0.898502 1.328116,-0.371815 0.49449,0.410421 1.11636,0.528905 1.38192,0.263204 0.91024,-0.910205 0.48129,-1.547167 -1.35169,-2.007205 -1.845012,-0.463091 -2.466292,-2.156892 -1.100732,-3.000867 0.403586,-0.249337 0.733822,-0.103733 0.733822,0.323612 0,0.427423 0.33021,0.777133 0.73381,0.777133 1.46306,0 0.69258,-1.892273 -0.81676,-2.005958 -2.184459,-0.164468 -2.695579,-0.914976 -1.195126,-1.754652 1.876406,-1.0501 1.557466,-2.109964 -0.634986,-2.109964 -1.360734,0 -1.79636,-0.304114 -1.508867,-1.053318 0.22244,-0.579328 0.01067,-1.230156 -0.471853,-1.446294 -0.48184,-0.216055 -0.319814,-0.320034 0.360026,-0.230755 0.679814,0.08931 1.291334,-0.168073 1.358934,-0.571728 0.06827,-0.407232 -0.956307,-0.620597 -2.302027,-0.479455 -2.110974,0.221326 -2.30372,0.10844 -1.48876,-0.873651 0.514893,-0.620402 1.450173,-0.930784 2.0784,-0.689712 0.74568,0.286142 0.553733,-0.238521 -0.552893,-1.51125 -0.932307,-1.07226 -2.048334,-1.944524 -2.480067,-1.93834 -0.43172,0.0056 -0.344494,0.290441 0.193866,0.631692 0.781441,0.495373 0.733454,0.714618 -0.23796,1.087404 -0.66924,0.256825 -1.675746,0.0083 -2.23672,-0.553008 -0.870653,-0.870655 -0.798173,-1.077891 0.495294,-1.416119 0.876293,-0.229091 1.301773,-0.74152 1.00908,-1.215095 -0.371227,-0.600656 -0.773907,-0.596522 -1.511414,0.01664 -0.580013,0.481396 -1.919814,0.633522 -3.167,0.359584 -2.905818,-0.638209 -3.597334,0.747012 -1.04117,2.085667 3.033344,1.58852 6.534384,5.534454 8.221837,9.266607 1.707467,3.776475 2.043587,11.465989 0.676814,15.484202 -0.997374,2.93211 -4.962774,8.731876 -5.970174,8.731876 -0.3846,0 -0.246,-0.577886 0.307867,-1.284183 0.90868,-1.158656 0.88388,-1.187639 -0.253507,-0.296543 -0.6934,0.543218 -1.188747,1.368776 -1.100744,1.834556 0.257936,1.364782 -6.703423,4.386308 -10.908996,4.735078 -4.313192,0.35767 -9.397992,-1.06194 -13.287364,-3.709688 -2.186371,-1.488396 -3.604587,-3.560586 -1.580892,-2.309878 0.529113,0.327023 0.647833,0.201078 0.316202,-0.335565 -0.292048,-0.472548 -0.794265,-0.69648 -1.116037,-0.497593 -0.895777,0.553617 -2.756604,-1.841518 -4.509611,-5.804482 -1.305011,-2.950193 -1.525001,-4.556408 -1.252667,-9.14596 0.188876,-3.183195 0.860655,-6.584304 1.568715,-7.942263 1.563006,-2.997649 5.512635,-7.531592 6.560966,-7.531592 0.437302,0 -0.174786,1.073232 -1.360206,2.384928 l -2.155296,2.38493 2.358824,-2.130323 c 1.297352,-1.171663 2.182374,-2.415798 1.966715,-2.764731 -0.835903,-1.352521 5.887867,-3.511465 10.986824,-3.527773 4.864206,-0.01664 5.023536,-0.07323 4.596396,-1.667203 -0.243346,-0.908125 -0.446984,-2.248473 -0.452496,-2.978595 -0.0056,-0.731149 -0.353078,-1.115472 -0.77369,-0.85554 -0.420019,0.259599 -0.588175,1.187194 -0.373684,2.061316 0.214501,0.874151 0.195808,1.162788 -0.04152,0.641455 -0.331244,-0.727683 -0.670656,-0.749427 -1.460866,-0.09347 -0.798101,0.662366 -1.031896,0.62803 -1.040608,-0.15282 -0.0089,-0.793829 -0.168988,-0.773998 -0.756112,0.09347 -0.552644,0.816656 -0.623904,0.579937 -0.276129,-0.917279 0.590128,-2.540521 -0.823155,-2.71819 -1.459331,-0.183328 -0.472259,1.881623 -1.891204,2.562599 -1.911359,0.917279 -0.0075,-0.620764 -0.260348,-0.561467 -0.78189,0.183328 -0.603284,0.861669 -0.669791,0.742132 -0.306224,-0.550372 0.255438,-0.908099 0.153236,-1.651089 -0.227122,-1.651089 -0.380352,0 -0.884234,0.963428 -1.119742,2.140998 -0.310424,1.552104 -0.78979,2.072134 -1.742826,1.890692 -0.723042,-0.137565 -1.447706,-0.275685 -1.610361,-0.306444 -0.162665,-0.03079 0.497784,-0.768064 1.467643,-1.638192 1.325089,-1.188858 1.429276,-1.462436 0.419174,-1.100745 -0.739313,0.264592 -1.647417,0.481313 -2.018009,0.481313 -0.370591,0 -0.6738,0.990664 -0.6738,2.201462 0,1.210824 -0.247673,2.162354 -0.550368,2.114566 -1.915788,-0.302476 -3.030428,0.196919 -2.650284,1.187639 0.232308,0.605399 0.05683,1.100717 -0.389943,1.100717 -0.446782,0 -1.059993,0 -1.362696,0 -0.302701,0 -0.550364,-0.330213 -0.550364,-0.733812 0,-0.403598 -0.33022,-0.651272 -0.733822,-0.550372 -0.403602,0.10096 -0.689299,0.348574 -0.634888,0.550372 0.05441,0.201911 0.325466,1.113475 0.602338,2.025955 0.472091,1.555848 0.385852,1.605493 -1.386217,0.798073 -2.036146,-0.927733 -3.090628,-0.514538 -2.23209,0.874595 0.404046,0.653768 0.664587,0.646668 1.082487,-0.0294 0.39329,-0.636351 0.69362,-0.658704 1.052311,-0.07849 0.276073,0.446699 0.116907,0.812163 -0.353695,0.812163 -0.470601,0 -0.696574,0.414526 -0.502164,0.92116 0.194422,0.506606 -0.10048,1.345173 -0.655311,1.863456 -0.930388,0.86913 -1.311818,0.602265 -1.095682,-0.766594 0.04779,-0.3027 -0.408431,-0.550373 -1.013832,-0.550373 -1.43966,0 -1.39002,0.658705 0.183466,2.434352 0.946154,1.067713 1.041531,1.53402 0.362338,1.771543 -0.507016,0.177226 -0.735192,0.624397 -0.507059,0.993521 0.228148,0.369124 0.07544,0.671159 -0.339305,0.671159 -0.414755,0 -0.564024,0.495317 -0.331708,1.100716 0.290724,0.757608 -0.04607,1.100745 -1.080454,1.100745 -2.284089,0 -2.521668,1.168861 -0.506018,2.489544 1.227834,0.804508 1.65188,1.580587 1.326668,2.428084 -0.299178,0.779629 -0.587746,0.916363 -0.771382,0.365436 -0.330256,-0.990776 -2.372546,-1.218147 -2.372546,-0.264037 0,0.338838 0.825546,0.99219 1.834549,1.451925 2.252037,1.026081 2.574764,3.402635 0.366912,2.701883 -0.807204,-0.256271 -1.467643,-0.149213 -1.467643,0.237967 0,0.38704 0.789124,0.901773 1.75361,1.143844 1.88368,0.47277 3.033925,2.329957 1.883444,3.04097 -0.385974,0.238522 -0.701772,0.06463 -0.701772,-0.386708 0,-0.451248 -0.330218,-0.616353 -0.73382,-0.366905 -1.407934,0.870156 -0.718504,1.834556 1.311481,1.834556 1.607731,0 2.062709,0.353232 2.126671,1.651089 0.04476,0.908098 -0.07829,1.236258 -0.273411,0.729263 -0.383447,-0.996295 -1.697085,-0.533232 -1.697085,0.598243 0,0.379774 1.010146,0.690489 2.244771,0.690489 1.234621,0 2.058113,0.302033 1.829976,0.671157 -0.228147,0.369126 4.1e-5,0.854847 0.507058,1.07939 0.507018,0.224653 0.29567,0.335288 -0.469662,0.246009 -0.765332,-0.08903 -1.55138,0.297263 -1.74677,0.858729 -0.270639,0.777688 0.111827,0.903632 1.60569,0.528683 1.333682,-0.334732 2.329308,-0.123693 3.11251,0.659399 1.046207,1.046193 0.964111,1.117583 -0.897261,0.780045 -1.858553,-0.337035 -1.942229,-0.264868 -0.900989,0.776298 0.915898,0.91589 1.464765,0.97824 2.716257,0.30847 1.618044,-0.86597 3.005728,-0.50458 3.005728,0.78271 0,0.4036 -0.307403,0.54385 -0.683117,0.31166 -0.375711,-0.23215 -0.904107,-0.0646 -1.174212,0.37242 -0.853363,1.38076 0.320078,1.71605 2.299105,0.65688 1.717665,-0.91925 2.017643,-0.87682 3.018384,0.42695 0.770133,1.00337 1.216713,1.16614 1.455031,0.5304 0.5958,-1.58938 1.689194,-0.99563 1.689194,0.91728 0,1.009 0.35247,1.83456 0.783271,1.83456 0.444425,0 0.606081,-0.71426 0.373684,-1.65109 z m 3.245969,-0.5937 c 0,-0.42742 0.330218,-0.57303 0.73382,-0.32358 0.403601,0.24934 0.73382,0.59913 0.73382,0.77713 0,0.17806 -0.330219,0.32359 -0.73382,0.32359 -0.403602,0 -0.73382,-0.34971 -0.73382,-0.77714 z m 16.51098,-39.582984 c 0.249333,-0.403599 0.59912,-0.733812 0.777093,-0.733812 0.178067,0 0.323614,0.330213 0.323614,0.733812 0,0.403598 -0.349707,0.733838 -0.777134,0.733838 -0.427413,0 -0.573027,-0.33024 -0.323573,-0.733838 z m 97.231199,41.137254 c 0,-0.37978 -0.33022,-0.89459 -0.73382,-1.14404 -0.4036,-0.24934 -0.7338,0.0613 -0.7338,0.69052 0,0.62922 0.3302,1.14404 0.7338,1.14404 0.4036,0 0.73382,-0.31075 0.73382,-0.69052 z m 5.11518,-1.32751 0.94782,-2.01799 0.69876,2.01799 c 0.90976,2.62739 1.75221,2.56022 2.30094,-0.18332 0.31526,-1.57638 0.86223,-2.20147 1.92624,-2.20147 0.8173,0 1.48599,0.34971 1.48599,0.77714 0,0.42742 -0.37307,0.54654 -0.82903,0.26487 -0.47562,-0.29397 -0.70241,-0.13258 -0.53201,0.37863 0.50616,1.51852 1.71635,0.91861 1.95415,-0.9687 0.23713,-1.88201 1.98508,-3.090944 2.72888,-1.88741 0.23852,0.38596 0.0647,0.70175 -0.38671,0.70175 -0.45125,0 -0.61636,0.33024 -0.36691,0.73384 0.96115,1.55518 1.98964,0.65562 1.67802,-1.46766 -0.17778,-1.210792 -0.24212,-2.201456 -0.14339,-2.201456 0.0991,0 0.70213,-0.200524 1.34053,-0.445424 0.64948,-0.249338 1.16078,-0.06851 1.16078,0.410228 0,0.470606 -0.38126,0.620014 -0.84723,0.332042 -0.52488,-0.324416 -0.648,-0.201356 -0.32359,0.323584 0.73322,1.186366 1.80287,1.055706 3.24126,-0.395917 1.12758,-1.137964 1.12925,-1.204335 0.0195,-0.784593 -0.80936,0.306221 -1.33086,0.0028 -1.57002,-0.910955 -0.33944,-1.298051 1.40705,-2.716804 2.27541,-1.848423 0.21133,0.21134 -0.0195,0.384184 -0.51524,0.384184 -0.49471,0 -0.69535,0.330212 -0.44592,0.733811 0.74496,1.205333 2.78343,0.877285 2.27995,-0.366905 -0.2449,-0.605399 -0.6648,-1.645487 -0.93295,-2.311292 -0.40773,-1.012354 -0.15559,-1.127259 1.53943,-0.701832 1.4961,0.375502 1.94022,0.260153 1.69564,-0.440515 -0.18223,-0.522111 -0.95762,-0.852961 -1.72292,-0.735225 -1.06736,0.16419 -1.15595,0.05519 -0.38023,-0.468334 0.5562,-0.375309 0.78437,-1.049517 0.50705,-1.498241 -0.30664,-0.496151 0.0788,-0.815852 0.98368,-0.815852 1.07996,0 1.37846,0.352096 1.08864,1.284184 -0.37641,1.210631 -0.3525,1.211519 0.4177,0.01664 1.1127,-1.727804 0.75577,-2.250831 -1.66599,-2.441341 -1.70012,-0.133683 -2.38983,0.369096 -3.94321,2.874672 -2.81296,4.53727 -4.62802,6.293116 -8.58996,8.309557 -9.8795,5.028293 -21.60283,1.467043 -27.32752,-8.301403 -1.7366,-2.963258 -3.57562,-3.953173 -3.57562,-1.924668 0,0.437215 -0.24768,1.04264 -0.55034,1.34534 -0.3027,0.302699 -0.55038,0.145608 -0.55038,-0.349072 0,-0.494681 -0.33021,-0.695342 -0.73381,-0.445922 -1.40793,0.870156 -0.71852,1.834556 1.31148,1.834556 1.60773,0 2.06271,0.353232 2.12665,1.651117 0.0447,0.908097 -0.0783,1.236257 -0.27346,0.729235 -0.38343,-0.996295 -1.69707,-0.533232 -1.69707,0.598242 0,0.379775 1.01013,0.69049 2.24476,0.69049 1.23461,0 2.05809,0.302033 1.82997,0.671157 -0.22825,0.369125 3e-5,0.854847 0.50706,1.079389 0.5923,0.262372 0.52837,0.352068 -0.1789,0.251002 -0.60542,-0.08653 -1.1625,0.170846 -1.23802,0.5717 -0.0755,0.400853 0.5257,0.646058 1.33604,0.544853 0.81036,-0.101227 2.02789,0.375643 2.70568,1.059669 1.15417,1.164788 1.15086,1.212818 -0.0519,0.757388 -0.86084,-0.32597 -1.28419,-0.130908 -1.28419,0.59142 0,1.29078 0.356,1.33153 2.34302,0.26819 1.15666,-0.61901 1.65436,-0.58038 2.11449,0.1642 0.35345,0.57186 0.24795,1.19229 -0.25544,1.50348 -0.47152,0.29141 -0.65136,0.73578 -0.39964,0.9875 0.25184,0.25184 1.14201,0.0302 1.97845,-0.4921 1.20003,-0.74942 1.71036,-0.76016 2.41968,-0.0508 0.68896,0.68897 0.69323,0.89889 0.0195,0.89889 -0.48431,0 -0.88059,0.45405 -0.88059,1.009 0,0.59808 0.77904,1.00903 1.91291,1.00903 1.06496,0 1.53748,-0.23215 1.06599,-0.52342 -0.61427,-0.37964 -0.55636,-0.76454 0.21078,-1.40125 0.83106,-0.68969 1.28896,-0.64661 2.13663,0.20108 0.74448,0.74451 1.31457,0.84317 1.8394,0.31837 0.5248,-0.5248 0.91215,-0.28273 1.24977,0.78101 0.66095,2.08245 1.4358,1.93879 2.57023,-0.47651 z M 39.380508,105.6285 c -0.0061,-0.3027 -0.331343,-1.04569 -0.722584,-1.65111 -0.575223,-0.89007 -0.713498,-0.78476 -0.722584,0.55037 -0.0061,0.9081 0.318982,1.65109 0.722584,1.65109 0.403602,0 0.728764,-0.24768 0.722584,-0.55035 z m 8.642183,-5.09058 c -0.701594,-0.18361 -2.022471,-0.19026 -2.935282,-0.0139 -0.912809,0.17556 -0.338773,0.3258 1.275631,0.33393 1.614404,0.008 2.361248,-0.13535 1.659651,-0.31912 z M 169.79207,99.596207 c 1.12931,-0.706132 1.05875,-0.753087 -0.48761,-0.324416 -0.99443,0.275685 -3.47108,0.772779 -5.50364,1.104659 l -3.6956,0.60342 4.18321,-0.27901 c 2.30075,-0.15337 4.7774,-0.65058 5.50364,-1.104653 z m -11.15449,-0.02219 c -1.4004,-0.601765 -1.39197,-0.633022 0.1836,-0.682224 1.46327,-0.04576 1.65109,-0.432166 1.65109,-3.397088 0,-3.925826 -0.81638,-3.786569 -2.18932,0.373424 -0.53946,1.634642 -1.34669,2.972076 -1.79381,2.972076 -1.17241,0 -6.48149,-3.722584 -5.99824,-4.20581 0.22355,-0.223544 0.85191,-0.03633 1.39663,0.415692 0.78054,0.647805 1.25741,0.262094 2.25066,-1.820828 0.69312,-1.453532 1.0797,-2.823335 0.85898,-3.04405 -0.40247,-0.402433 -4.19722,2.629828 -4.68866,3.746576 -0.14393,0.327356 -0.97069,0.0056 -1.83693,-0.718168 -0.86625,-0.722385 -0.41921,-0.04188 0.99339,1.512387 2.52578,2.778931 7.37826,5.583796 9.53968,5.514146 0.72218,-0.0222 0.596,-0.252383 -0.36694,-0.666133 z M 40.064413,99.300554 C 39.315232,98.6302 34.988821,96.63811 34.988821,96.963496 c 0,0.456156 3.804555,2.54177 4.708681,2.581264 0.369968,0.01664 0.535079,-0.09375 0.366911,-0.244068 z M 164.27221,94.046251 c -0.24019,-5.206433 -0.84195,-6.767495 -2.2685,-5.885856 -0.87934,0.543467 -1.05978,5.517259 -0.33216,9.155363 0.32454,1.622633 0.82479,2.254518 1.6511,2.085501 0.98304,-0.201079 1.1452,-1.115665 0.94956,-5.355008 z M 43.794666,95.53814 c 0,-1.816224 -0.181968,-3.302206 -0.404353,-3.302206 -0.476313,0 -2.530927,4.746614 -2.530927,5.846998 0,0.416579 0.660438,0.757387 1.467642,0.757387 1.25021,0 1.467638,-0.489217 1.467638,-3.302179 z m 4.114525,2.141443 c -0.244983,-0.638431 -0.450476,-2.867405 -0.456659,-4.953296 -0.0061,-2.085889 -0.336396,-4.287879 -0.733819,-4.893276 -1.259456,-1.918565 -2.166619,0.601876 -2.178988,6.054012 -0.01107,4.851397 0.02812,4.953296 1.901824,4.953296 1.442978,0 1.803612,-0.285227 1.467642,-1.160736 z m 3.957502,0.39048 c 0,-0.423651 -0.519677,-1.775203 -1.154838,-3.003473 -0.635163,-1.22827 -0.979535,-2.408531 -0.765274,-2.622783 0.214252,-0.214391 0.960212,0.807087 1.657663,2.269635 1.23674,2.593438 2.666227,3.379114 3.549085,1.950598 0.910068,-1.472532 -4.605182,-10.29868 -6.435378,-10.29868 -0.387011,0 -0.470035,0.888518 -0.18857,2.018023 0.2766,1.109897 0.459754,3.916757 0.407038,6.237479 -0.0864,3.80346 0.05333,4.219457 1.417212,4.219457 0.832184,0 1.51306,-0.346604 1.513062,-0.770256 z m 116.884847,0.219939 c 0.16169,-0.302699 -0.4738,-1.871222 -1.41227,-3.485646 l -1.70625,-2.935273 -0.0107,3.485645 c -0.0107,2.965255 0.20052,3.485646 1.41227,3.485646 0.7834,0 1.55665,-0.247674 1.71835,-0.550372 z m 6.89627,-2.201462 c 1.58921,-1.513496 2.04445,-2.059458 1.01166,-1.213265 -1.03282,0.846221 -2.69434,2.084531 -3.69225,2.751833 -0.99789,0.667303 -1.45315,1.213266 -1.01163,1.213266 0.44148,0 2.103,-1.23831 3.69222,-2.751834 z m -5.15956,-3.666366 c -2.22734,-3.961632 -4.87936,-5.95769 -4.87936,-3.672496 0,0.563325 1.01474,2.897804 2.25502,5.187712 1.94816,3.59689 2.44134,4.063752 3.6241,3.430757 1.29474,-0.692957 1.2405,-0.96146 -0.99976,-4.945973 z M 41.930465,92.607998 c 2.047516,-4.817616 2.10554,-7.965311 0.1164,-6.314471 -1.430033,1.186805 -5.026205,9.477337 -4.488423,10.347493 1.066487,1.725614 2.47793,0.423596 4.372019,-4.033022 z m 24.837293,4.295561 c 0.781373,-0.781376 -0.198027,-1.69638 -1.34468,-1.256337 -0.590134,0.226317 -0.89032,0.707352 -0.666987,1.068654 0.475653,0.769646 1.348307,0.851048 2.011667,0.187767 z m 91.769612,-3.841984 c 2.32549,-5.181831 2.32929,-5.228425 0.42653,-5.228425 -1.11455,0 -1.9894,1.050988 -3.35152,4.026282 -1.01381,2.214442 -1.63649,4.36085 -1.38375,4.769828 1.04472,1.690363 2.48386,0.498731 4.30874,-3.567685 z M 38.51844,90.034084 c -0.12508,-0.347186 -1.331911,0.359722 -2.681834,1.570935 -2.321296,2.082756 -2.38099,2.256239 -1.10073,3.198839 1.218085,0.896809 1.486712,0.739441 2.681833,-1.570936 0.730488,-1.412152 1.225817,-2.851624 1.100731,-3.198838 z m 19.967355,4.752632 c 0.510545,-0.61516 0.798629,-1.217425 0.640233,-1.338377 -1.607295,-1.227132 -4.998004,-3.413728 -5.293631,-3.413728 -0.206902,0 0.33942,1.318159 1.213987,2.929227 1.768935,3.258578 2.10156,3.43489 3.439411,1.822878 z M 174.74822,92.597764 c -4.16597,-3.25403 -4.9032,-2.948669 -2.47947,1.026998 1.4038,2.302666 1.60751,2.399516 2.7157,1.291338 1.10817,-1.108177 1.09045,-1.282076 -0.23631,-2.318336 z M 60.960944,91.809148 c 0.244907,-0.638402 0.445427,-1.28299 0.445427,-1.432398 0,-0.519754 -6.506123,-4.744008 -8.437695,-5.478402 -3.340279,-1.269984 -1.945609,1.380451 2.569448,4.882959 4.564727,3.54106 4.807327,3.631781 5.42282,2.027841 z m 93.640606,-3.425626 c 3e-5,-1.087738 -3.54164,-0.521916 -5.21508,0.833157 -1.44878,1.173161 -1.56214,1.560008 -0.74544,2.544072 0.86434,1.041447 1.21948,0.955996 3.46183,-0.833185 1.37427,-1.09653 2.49867,-2.241346 2.49869,-2.544044 z m 23.12275,3.840597 c 0.25349,-0.4102 0.74551,-0.569925 1.09333,-0.354952 0.34783,0.214945 0.87327,-0.02773 1.16767,-0.538391 0.29439,-0.5111 0.27125,-0.690794 -0.0511,-0.399356 -0.32253,0.291467 -1.55657,-0.286418 -2.74232,-1.284184 -1.9915,-1.675717 -6.48338,-2.560074 -6.41886,-1.263714 0.0288,0.581657 5.11834,4.435373 5.98332,4.530558 0.27889,0.03079 0.71448,-0.279789 0.96797,-0.689961 z M 37.909428,88.580523 c 3.999121,-3.695822 4.410217,-4.970963 1.333036,-4.134782 -2.481463,0.674292 -8.254626,5.92585 -7.628374,6.939146 0.935254,1.513275 2.263807,0.921437 6.295338,-2.804364 z m 108.956842,2.139085 c -0.26597,-0.430446 0.12734,-1.245493 0.87396,-1.811202 0.74674,-0.565738 0.98535,-1.039063 0.53027,-1.051932 -1.19619,-0.03384 -2.68391,1.979888 -2.12775,2.87983 0.26044,0.421267 0.63852,0.765958 0.84032,0.765958 0.20191,0 0.14922,-0.352207 -0.1168,-0.782654 z M 33.5489,87.04323 c 1.464993,-1.301934 1.971544,-2.078623 1.196449,-1.834556 -0.739313,0.232974 -1.895079,0.428366 -2.568372,0.434552 -1.963712,0.01941 -3.146239,1.108316 -2.638155,2.432354 0.644644,1.679906 1.085958,1.566304 4.010078,-1.03235 z m 29.613511,1.097112 c 0.648,-1.688699 0.669733,-1.665956 -2.08356,-2.182463 -3.866256,-0.725297 -4.572832,-0.05297 -1.805747,1.71818 3.002533,1.921865 3.315627,1.959252 3.889307,0.464283 z m 116.389039,0.426924 c 0,-0.403599 -0.51482,-0.733812 -1.14404,-0.733812 -0.62923,0 -0.93996,0.330213 -0.69052,0.733812 0.24933,0.403626 0.76426,0.733838 1.14404,0.733838 0.37977,0 0.69052,-0.330212 0.69052,-0.733838 z m 13.94261,-5.870546 c 0,-5.302951 -0.64496,-5.509687 -5.15049,-1.651089 l -3.21322,2.751805 -16.91548,0.211619 -16.91549,0.211617 -3.92624,-2.963313 c -2.15945,-1.629816 -4.47096,-3.003667 -5.13673,-3.053035 -5.11151,-0.379027 -7.15482,-0.269861 -7.62022,0.406649 -0.67534,0.981872 -0.73286,7.339223 -0.0724,7.99973 0.26903,0.269029 13.64294,0.489217 29.71972,0.489217 h 29.23047 z m -60.17328,-0.332792 v -4.001876 l -2.19683,1.250041 c -2.73872,1.558428 -2.79998,3.25295 -0.18804,5.201635 1.10992,0.828083 2.10056,1.516048 2.20146,1.528834 0.10093,0.01387 0.18361,-1.777589 0.18361,-3.978634 z m 63.91256,2.484275 c 1.17221,-0.834683 2.13129,-2.084364 2.13129,-2.777074 0,-1.342537 -3.87732,-4.058316 -4.66688,-3.268785 -0.59294,0.592945 -0.62317,7.56346 -0.0327,7.56346 0.24046,0 1.39618,-0.682918 2.56837,-1.517601 z M 34.019434,84.49192 c 3.715322,-0.652299 6.51933,-2.409363 5.48911,-3.439577 -0.815075,-0.815075 -9.388882,0.550038 -10.67118,1.69907 -0.980499,0.878587 0.141892,3.090949 1.335698,2.632851 0.573338,-0.219939 2.304207,-0.621568 3.846372,-0.892344 z m 15.499034,-0.474324 c 1.459601,-1.459607 1.046423,-4.790601 -0.750336,-6.049103 -2.088068,-1.46252 -3.424237,-1.443632 -5.099138,0.07211 -1.505053,1.362036 -1.714918,3.321899 -0.582328,5.438157 0.870766,1.627044 4.997838,1.972789 6.431802,0.538808 z m -5.577036,-0.733839 c -1.361575,-1.361564 -1.045508,-3.323589 0.736477,-4.571717 1.377922,-0.965149 1.83914,-0.985479 3.118736,-0.137288 1.832307,1.214347 2.291806,3.094832 1.10551,4.524235 -1.072214,1.291922 -3.753734,1.391878 -4.960723,0.184992 z m 4.178967,-0.860948 c 1.205945,-1.453061 0.200689,-3.395173 -1.757359,-3.395173 -0.922641,0 -1.883667,0.537169 -2.135611,1.193712 -0.513959,1.339348 0.730356,3.209183 2.135611,3.209183 0.506565,0 1.297377,-0.453467 1.757359,-1.007722 z m 8.986858,1.280162 c -1.355518,-0.591503 -2.841501,-0.932448 -3.302206,-0.757663 -1.061195,0.402628 2.341938,1.864288 4.299112,1.846481 1.027468,-0.0083 0.728457,-0.335897 -0.996906,-1.088818 z m 7.234381,-0.272358 c 0,-1.223028 -0.489214,-1.467649 -2.935267,-1.467649 -3.393014,0 -3.840072,1.014905 -0.91728,2.082395 3.061266,1.118052 3.852547,0.991802 3.852547,-0.614746 z m 63.294752,-1.100716 c -0.11067,-0.449196 -6.79961,-0.881361 -17.24479,-1.114196 -9.38522,-0.209121 -17.682077,-0.672684 -18.437457,-1.030021 -0.75536,-0.357309 -3.18143,-3.452308 -5.39124,-6.877796 -3.23464,-5.014089 -3.93603,-6.637112 -3.59821,-8.326198 0.46441,-2.322192 -0.89482,-2.906096 -2.43763,-1.047161 -1.45384,1.751795 7.91841,17.425508 11.22655,18.774786 2.23114,0.909984 36.112107,0.551732 35.882777,-0.379414 z m 57.28351,0.252666 c 1.86227,-0.985284 4.87392,-3.699343 4.89237,-4.40897 0.008,-0.26792 -2.74781,-0.384905 -6.12177,-0.259877 -3.37396,0.12508 -6.5936,-0.06351 -7.15476,-0.418852 -0.69407,-0.439516 -0.14033,-0.64972 1.73152,-0.657375 2.82315,-0.01107 3.19301,-0.380384 2.10415,-2.098425 -0.51712,-0.815935 -1.01116,-0.786896 -2.85776,0.168073 -1.22788,0.634964 -2.36502,1.55191 -2.52691,2.037631 -0.21549,0.646752 -4.16148,0.892844 -14.74268,0.919359 -7.94659,0.01941 -14.44835,0.207457 -14.44837,0.416496 0,0.209121 1.2383,1.441052 2.75182,2.737605 l 2.75187,2.35736 16.00883,0.02773 c 10.74638,0.01941 16.53574,-0.251278 17.61169,-0.820482 z m -32.78435,-1.128786 c -0.87702,-0.877034 -0.47384,-2.426086 0.63148,-2.426086 0.6054,0 1.10071,0.475821 1.10071,1.057394 0,1.225968 -1.04735,2.053524 -1.73219,1.368692 z m 7.2598,-0.185824 c -0.6452,-1.04397 0.1775,-2.240178 1.54082,-2.240178 0.64292,0 1.01124,0.515536 0.87394,1.22336 -0.28582,1.473836 -1.75101,2.0908 -2.41476,1.016818 z m 8.18567,0.221048 c -1.00815,-1.008165 -0.48523,-2.565261 0.77968,-2.321665 0.70629,0.135901 1.28419,0.710597 1.28419,1.276835 0,1.158598 -1.29467,1.814004 -2.06387,1.04483 z m 8.03675,-0.03523 c -0.877,-0.877062 -0.47383,-2.426115 0.63146,-2.426115 0.6054,0 1.10075,0.475821 1.10075,1.057396 0,1.225967 -1.04737,2.053523 -1.73221,1.368692 z m 7.19638,-0.28861 c -0.75621,-1.223582 0.94458,-2.626693 1.9569,-1.614396 0.84674,0.846748 0.3168,2.412136 -0.81666,2.412136 -0.35597,0 -0.86906,-0.358973 -1.14024,-0.79774 z m 19.48575,1.164674 c 0.76324,-0.919635 0.65727,-1.100744 -0.64397,-1.100744 -0.8952,0 -1.5575,0.468054 -1.5575,1.100744 0,0.605398 0.28982,1.100717 0.64399,1.100717 0.35417,0 1.05504,-0.495319 1.55748,-1.100717 z M 33.750497,79.757592 c -0.327924,-0.29474 -1.669439,-0.736391 -2.981144,-0.981457 -2.144852,-0.40077 -2.384917,-0.270694 -2.384917,1.29256 0,1.667286 0.121586,1.707308 2.981146,0.981484 1.63963,-0.416191 2.712842,-0.997848 2.384915,-1.292587 z m 29.306967,1.002063 c 0.706294,-0.199691 1.284174,-0.99513 1.284174,-1.76741 0,-1.244828 -0.39552,-1.356544 -3.485641,-0.984452 -6.567138,0.790724 -9.921281,2.386538 -7.338197,3.491303 0.938579,0.401436 7.230784,-0.08625 9.539664,-0.739441 z m 33.080289,-1.464738 c -3.7246,-1.31985 -5.8996,-3.435805 -8.31385,-8.088066 -1.86703,-3.597806 -4.40292,-6.708474 -4.40292,-5.400882 0,0.875093 5.55811,10.110138 7.23672,12.024099 1.53958,1.755484 3.5686,2.575135 6.33896,2.560768 2.0662,-0.01107 2.01341,-0.07821 -0.85891,-1.095919 z m 32.633337,0.319784 c 1.26928,-1.269262 1.08313,-4.224504 -0.29951,-4.755074 -0.76352,-0.292992 -1.94235,0.362745 -3.3394,1.857604 l -2.15928,2.310432 -9.68594,0.07323 c -5.32724,0.04021 -10.51145,0.337506 -11.52045,0.660619 -1.06927,0.342443 3.99691,0.618045 12.14472,0.660673 9.98028,0.05215 14.23119,-0.17889 14.85986,-0.80742 z M 40.34283,79.027636 c 0.48797,0 0.362652,-0.468416 -0.303556,-1.134609 -1.034538,-1.034542 -7.799037,-3.238694 -10.003741,-3.259606 -0.961661,-0.0083 -1.322729,2.902712 -0.366911,2.958931 0.302702,0.01664 2.201462,0.491047 4.219468,1.051625 2.018006,0.560552 4.108886,0.876175 4.646396,0.701418 0.537512,-0.174731 1.351267,-0.317759 1.808344,-0.317759 z m 37.715153,-7.029063 c -2.28485,-8.03182 -8.522532,-16.021703 -15.399332,-19.725096 -2.87932,-1.550633 -3.040267,-1.518349 -3.73506,0.748705 -0.371787,1.213099 0.106506,1.833308 2.41402,3.130195 6.661987,3.744245 12.410042,12.421956 13.740842,20.744299 l 0.4782,2.990604 1.84726,-1.847231 1.84723,-1.84723 z m 56.730447,4.07493 c 0,-0.393254 -0.99066,-0.714979 -2.20146,-0.714979 -1.86502,0 -2.20146,0.283284 -2.20146,1.853388 0,1.823101 0.036,1.834777 2.20146,0.714979 1.2108,-0.626144 2.20146,-1.460162 2.20146,-1.853388 z M 57.943688,75.668877 c 4.390523,-2.746314 4.572216,-2.983892 3.534483,-4.622222 -0.511867,-0.808114 -1.35188,-0.531403 -4.20822,1.38633 -3.598776,2.416186 -5.403258,4.175247 -5.403258,5.267256 0,1.194239 1.976327,0.533592 6.076995,-2.031364 z m 44.931582,-0.453744 c 2.13571,-2.538108 2.27496,-4.189418 0.6254,-7.414716 l -1.20112,-2.348485 1.57251,1.402003 c 0.86489,0.771086 1.79065,1.183865 2.05724,0.917277 0.26653,-0.266533 0.0799,-0.484724 -0.41472,-0.484724 -0.49468,0 -0.69534,-0.330212 -0.4459,-0.733811 0.24935,-0.403599 0.18639,-0.776412 -0.14005,-0.828443 -8.052677,-1.283518 -9.797427,-1.117802 -11.715997,1.112671 -3.0213,3.512464 -2.00126,8.590734 2.06931,10.302286 3.0126,1.266682 5.422337,0.656097 7.593407,-1.924058 z m -8.847227,-0.190261 c -2.20126,-2.20124 -2.29786,-4.707703 -0.28032,-7.272603 3.19144,-4.057235 9.486417,-1.688144 9.486417,3.570154 0,5.139536 -5.540697,7.367845 -9.206097,3.702449 z m 3.88588,-1.63994 c -0.70629,-0.184715 -1.86206,-0.184715 -2.56836,0 -0.70629,0.184437 -0.1284,0.335593 1.28419,0.335593 1.41263,0 1.99048,-0.151156 1.28417,-0.335593 z m 2.568377,-1.492639 c -1.311697,-0.162805 -3.458107,-0.162805 -4.769827,0 -1.31169,0.162804 -0.23852,0.295987 2.38492,0.295987 2.623397,0 3.696627,-0.133133 2.384907,-0.295987 z m 0,-1.467622 c -1.311697,-0.162806 -3.458107,-0.162806 -4.769827,0 -1.31169,0.162804 -0.23852,0.295958 2.38492,0.295958 2.623397,0 3.696627,-0.133133 2.384907,-0.295958 z m -0.35376,-1.461134 c -1.102657,-0.167518 -3.083987,-0.170846 -4.402917,-0.0083 -1.31894,0.163358 -0.41675,0.300313 2.00488,0.304418 2.421577,0.0028 3.500727,-0.12952 2.398037,-0.29693 z m -0.380057,-1.461188 c -0.90809,-0.175008 -2.39408,-0.175008 -3.30217,0 -0.90813,0.175008 -0.16503,0.31801 1.65108,0.31801 1.8162,0 2.559197,-0.143112 1.65109,-0.31801 z m 3.485657,10.057526 c 0,-0.4036 -0.14562,-0.733812 -0.32359,-0.733812 -0.17807,0 -0.52772,0.330212 -0.77713,0.733812 -0.24934,0.403626 -0.10374,0.733838 0.32358,0.733838 0.42742,0 0.77714,-0.330212 0.77714,-0.733838 z m 4.40292,0.410226 c 0,-0.178057 -0.33022,-0.527685 -0.73382,-0.777133 -0.4036,-0.249337 -0.73381,-0.103733 -0.73381,0.323612 0,0.427423 0.33021,0.777133 0.73381,0.777133 0.4036,0 0.73382,-0.145609 0.73382,-0.323612 z m 8.07202,-0.410226 c 0,-0.4036 -0.31073,-0.733812 -0.6905,-0.733812 -0.37978,0 -0.8946,0.330212 -1.14404,0.733812 -0.24935,0.403626 0.0613,0.733838 0.69052,0.733838 0.62921,0 1.14402,-0.330212 1.14402,-0.733838 z m 8.66376,-1.38342 c 2.02335,-2.167292 5.27883,-3.665562 5.27883,-2.429471 0,0.739996 21.90246,3.483371 23.51612,2.94548 0.90732,-0.302423 -24.07709,-6.732465 -26.43939,-6.804493 -1.37878,-0.04216 -1.9489,-2.601566 -0.57949,-2.601566 0.55428,0 1.35141,0.343608 1.77137,0.763599 0.89693,0.89692 9.98123,-14.329622 9.63635,-16.151808 -0.25905,-1.368582 -5.28062,-1.868754 -10.10643,-1.006695 -3.26518,0.583293 -3.24049,0.594193 2.20147,0.970751 7.0016,0.484473 7.19156,1.272201 2.18288,9.051494 -4.67956,7.268138 -5.60535,7.280174 -10.39905,0.13507 -3.6933,-5.504806 -4.28755,-7.921851 -2.24078,-9.113982 0.99154,-0.577497 0.40622,-0.75306 -2.56836,-0.770282 -4.01124,-0.02219 -5.19682,1.07997 -2.01801,1.877821 1.00901,0.25322 1.83455,0.573864 1.83455,0.712484 0,0.138675 -0.98418,3.157347 -2.18704,6.70828 l -2.18707,6.456251 -2.50527,-0.152542 c -1.79256,-0.109 -2.63185,0.20413 -2.95016,1.100717 -0.24462,0.689297 -0.65264,1.711996 -0.90652,2.272685 -0.27957,0.61738 -0.1517,0.827944 0.32392,0.533925 0.52419,-0.323972 0.65543,0.31629 0.39447,1.92439 -0.31047,1.913101 -0.0367,2.710648 1.32764,3.868998 l 1.71875,1.459108 -1.28419,-1.525422 c -1.61995,-1.924251 -1.63404,-3.842983 -0.0411,-5.603126 1.1766,-1.30013 1.16679,-1.349028 -0.1836,-0.915142 -1.41182,0.453688 -1.41182,0.446449 -0.003,-0.70225 0.7836,-0.638346 2.03694,-1.160624 2.78534,-1.160624 1.99043,0 4.96314,3.302428 4.96314,5.513598 0,1.051182 0.30589,1.722173 0.67976,1.491113 0.8717,-0.538751 -0.26071,-4.591437 -1.73943,-6.225525 -0.98672,-1.090316 -0.9342,-1.74267 0.49432,-6.136358 0.87912,-2.703963 1.77876,-4.90462 1.99916,-4.890308 0.22049,0.01387 2.00887,2.698416 3.97433,5.964677 3.4426,5.720943 3.54239,6.042835 2.72239,8.779831 -0.77525,2.587532 -1.07789,2.841168 -3.39016,2.841168 -2.04969,0 -2.53891,0.282786 -2.53891,1.467651 0,2.370228 4.02032,1.966075 6.4623,-0.649608 z m 3.31324,-4.094011 c 0.13924,-0.418021 0.69363,-0.760021 1.23178,-0.760021 0.53813,0 1.09243,0.342 1.23176,0.760021 0.13923,0.418021 -0.41495,0.76002 -1.23176,0.76002 -0.81683,0 -1.37111,-0.341999 -1.23178,-0.76002 z m -64.263603,4.439755 c 0.503614,-0.503611 -0.36788,-2.632268 -1.075813,-2.627776 -0.315373,0.002 -1.564053,0.85027 -2.774853,1.885034 l -2.20146,1.881372 2.842753,-0.385986 c 1.563493,-0.212174 3.007747,-0.551011 3.209373,-0.752644 z m 50.178753,-0.246564 c 0.91279,-1.163898 0.88683,-1.189858 -0.27707,-0.277072 -1.22236,0.95863 -1.61106,1.561228 -1.00712,1.561228 0.15227,0 0.73027,-0.577886 1.28419,-1.284184 z M 195.38725,73.6465 c -2.24014,-9.636896 -8.78491,-17.817402 -17.83188,-22.288664 -4.92626,-2.434684 -6.24692,-2.75569 -12.45439,-3.027159 -3.81911,-0.166964 -7.23768,-0.01107 -7.59685,0.349321 -0.35916,0.359168 -0.47019,1.352191 -0.24684,2.206704 0.3687,1.409934 1.02849,1.581752 7.1307,1.856772 8.1091,0.365463 13.26627,2.436044 18.68006,7.500002 3.70305,3.463761 7.3165,9.804193 8.00482,14.045865 0.31699,1.953372 0.79359,2.517279 2.32714,2.753498 1.06066,0.16336 2.14637,0.346549 2.41266,0.40701 0.26626,0.06047 0.0749,-1.651033 -0.42552,-3.803349 z M 42.327028,75.8742 c 0,-0.876896 -3.73881,-4.769025 -6.78784,-7.066228 -1.035452,-0.780128 -1.500056,-0.788393 -2.398686,-0.04244 -0.965566,0.801347 -0.705282,1.279136 1.947831,3.575507 4.807311,4.16088 7.238695,5.347686 7.238695,3.533294 z M 176.48393,74.450509 c 1.88894,-1.306482 3.76464,-2.269634 4.16824,-2.140306 0.40362,0.12924 0.5137,0.01387 0.24461,-0.254052 -0.26903,-0.26903 -0.63108,-0.379136 -0.80451,-0.244623 -0.17333,0.134515 -0.83653,-0.188043 -1.47364,-0.716753 -0.98384,-0.816518 -1.77486,-0.552064 -5.24953,1.754984 -2.25013,1.493998 -4.09112,2.99984 -4.09112,3.346305 0,1.438417 4.00543,0.468165 7.20595,-1.745555 z m 9.52513,1.494886 c 0.68491,-0.684887 0.88059,-0.684887 0.88059,0 0,0.484336 0.33021,0.880585 0.73384,0.880585 0.40358,0 0.7338,-0.495319 0.7338,-1.100717 0,-0.605399 -0.24767,-1.061639 -0.55038,-1.013823 -1.95412,0.308523 -3.23269,-0.199137 -2.87156,-1.14024 0.22244,-0.579328 0.0107,-1.236701 -0.47185,-1.460855 -0.48181,-0.224098 -0.16087,-0.232141 0.71328,-0.01664 2.09228,0.513402 2.59079,-0.433802 1.18215,-2.24617 -0.91894,-1.182396 -1.05032,-1.215679 -0.69176,-0.175284 0.32836,0.952722 0.0493,1.284182 -1.08052,1.284182 -1.02192,0 -1.39011,-0.346604 -1.11895,-1.053317 0.22244,-0.579328 0.17501,-1.185641 -0.1048,-1.347392 -0.28004,-0.161695 -0.10507,-0.196917 0.38871,-0.07793 0.49385,0.118986 1.19909,-0.322059 1.56722,-0.979876 0.56915,-1.017014 0.83512,-0.87515 1.77703,0.947758 0.60925,1.179096 1.52939,3.629784 2.04481,5.445979 0.5154,1.816224 1.05976,2.775215 1.2097,2.131127 0.59289,-2.547123 -2.88098,-9.55225 -6.87783,-13.869334 -5.54621,-5.990527 -10.39769,-8.237445 -18.69544,-8.658573 l -6.33555,-0.321531 0.36544,1.911659 c 0.20108,1.051432 0.64348,1.739841 0.98331,1.529832 0.33981,-0.209954 0.43184,-0.866607 0.20441,-1.459108 -0.32896,-0.857232 0.32475,-1.077226 3.20106,-1.077226 4.96412,0 10.8462,1.876048 15.43844,4.923952 3.62506,2.405951 5.24994,4.57513 2.69184,3.593506 -0.63846,-0.244899 -1.29888,-0.445423 -1.46768,-0.445423 -0.1689,0 -0.30688,-0.495319 -0.30688,-1.100744 0,-1.323595 -0.33343,-1.363201 -2.11422,-0.251001 -0.80964,0.505634 -1.91978,0.608226 -2.74186,0.25322 -1.27363,-0.549763 -1.2812,-0.620238 -0.0971,-0.903439 0.70631,-0.168905 1.28419,-0.778243 1.28419,-1.354076 0,-1.332359 -0.37603,-1.315163 -2.56191,0.11704 -1.82172,1.193629 -3.31735,0.895645 -3.29737,-0.656901 0.005,-0.525134 0.29514,-0.434635 0.72254,0.226872 0.57,0.882026 0.71356,0.75708 0.72258,-0.628891 0.008,-1.203808 -0.30896,-1.606713 -1.04206,-1.325397 -0.57933,0.222434 -1.18564,0.175006 -1.34736,-0.10484 -0.16169,-0.28004 -0.20274,-0.120374 -0.0909,0.35448 0.11173,0.474989 -0.27264,1.258418 -0.85411,1.74095 -0.80713,0.669855 -1.0571,0.672323 -1.0571,0.01107 0,-0.476847 -0.33022,-0.662893 -0.73382,-0.413472 -0.4036,0.249337 -0.73381,0.06352 -0.73381,-0.413445 0,-0.646086 -0.28048,-0.634215 -1.10075,0.0466 -0.8874,0.736473 -1.1029,0.718334 -1.11197,-0.09347 -0.008,-0.793829 -0.16891,-0.774 -0.75611,0.09347 -0.55265,0.816656 -0.6239,0.579937 -0.27624,-0.917278 0.25794,-1.109897 0.175,-2.017996 -0.18361,-2.017996 -0.8326,0 -2.52257,4.41252 -2.00853,5.244263 0.213,0.344469 2.16826,0.626284 4.34522,0.626284 2.17703,0 4.88183,0.397857 6.0107,0.884105 2.91358,1.255007 8.29004,5.103786 8.29004,5.934531 0,0.384602 -0.55302,0.24601 -1.22891,-0.307857 -1.06952,-0.876508 -1.0586,-0.745432 0.0843,1.010883 1.50981,2.319973 2.0085,2.576438 1.42696,0.73384 -0.29494,-0.934475 0.008,-0.815131 1.11566,0.438184 0.83655,0.947342 1.90712,3.01121 2.37906,4.586389 0.88252,2.945619 1.87534,3.522339 3.41428,1.983409 z m -5.35689,-9.392885 c 0.24933,-0.403598 0.0843,-0.733838 -0.36691,-0.733838 -0.45125,0 -0.6158,-0.3311 -0.36569,-0.735808 0.3005,-0.486222 0.95877,-0.466059 1.94076,0.05935 0.81726,0.437408 1.6778,0.603402 1.91226,0.368903 0.23464,-0.23436 0.0411,-0.426369 -0.42974,-0.426369 -0.47084,0 -0.85611,-0.568706 -0.85611,-1.263799 0,-1.079971 0.24019,-1.023087 1.65107,0.391063 1.41304,1.416257 1.49238,1.755594 0.5504,2.35331 -1.46658,0.930563 -4.61291,0.920497 -4.03604,-0.01387 z m -2.80595,-3.229818 c -0.25849,-0.673348 0.0311,-0.946039 0.83876,-0.789974 0.67837,0.131187 1.50052,0.263759 1.82704,0.294544 0.32655,0.03079 0.38961,0.386348 0.14005,0.789948 -0.66302,1.072843 -2.34914,0.895867 -2.80593,-0.294518 z M 51.693725,68.744181 c 1.604192,-4.582645 2.15756,-7.105 1.666484,-7.596075 -1.000126,-1.000122 -0.989252,-1.020922 -3.594945,6.873858 -2.586273,7.835927 -2.670635,8.315548 -1.387369,7.887792 0.502769,-0.16752 1.994892,-3.392096 3.31583,-7.165575 z m 53.509335,5.742744 c -0.23436,-0.585374 -0.40815,-0.411504 -0.44334,0.443371 -0.0319,0.773555 0.14144,1.206969 0.3854,0.963124 0.24379,-0.243791 0.26987,-0.876757 0.058,-1.406495 z m 51.87409,-0.561744 c -1.08598,-2.176944 -4.9736,-5.905048 -6.15769,-5.905048 -0.34879,0 -0.87556,0.390536 -1.17057,0.867882 -0.59898,0.969142 5.83653,7.204153 7.43581,7.204153 0.78449,0 0.7636,-0.420711 -0.1076,-2.166987 z m 5.59644,1.843376 c 0,-0.774526 -1.40826,-1.099913 -1.82714,-0.422181 -0.25351,0.4102 0.0537,0.745792 0.6831,0.745792 0.62923,0 1.14404,-0.145608 1.14404,-0.323611 z m 3.39528,-7.671486 c 0.455,-4.895331 0.39443,-5.213673 -0.99182,-5.213673 -1.17578,0 -1.55928,0.61813 -1.88356,3.03573 -0.22411,1.669671 -0.10174,3.838988 0.27152,4.820777 0.37325,0.981762 0.47737,2.670211 0.2313,3.752095 -0.44345,1.950156 -0.43724,1.953539 0.72036,0.392921 0.65147,-0.878282 1.38187,-3.878954 1.6522,-6.78785 z m 3.45204,5.610169 c 3.86511,-5.163388 4.84856,-8.62238 2.45148,-8.62238 -1.02261,0 -5.62969,8.033123 -5.62969,9.816231 0,1.868226 1.23265,1.405218 3.17821,-1.193851 z M 34.502238,73.065425 c -1.2611,-1.26108 -2.658181,-2.067141 -3.104625,-1.791233 -1.532803,0.947315 -0.809217,2.405008 1.573201,3.169272 3.787524,1.215013 3.96487,1.055427 1.531424,-1.378039 z m 10.762179,1.008748 c 0.0025,-1.53241 -3.700367,-10.461817 -4.331664,-10.445731 -0.242153,0.0056 -0.871684,0.284866 -1.398961,0.619267 -1.469296,0.931893 3.188802,11.110648 5.08455,11.110648 0.354182,0 0.644915,-0.577885 0.646075,-1.284184 z m 9.423076,-3.446428 c 1.985296,-3.397614 2.283142,-4.378793 1.482822,-4.885261 -1.705034,-1.079028 -2.306162,-0.370484 -4.035712,4.756737 -2.042815,6.055899 -0.942967,6.111258 2.55289,0.128414 z m -31.4398,2.896056 c 0,-0.605398 -0.33022,-1.100745 -0.73382,-1.100745 -0.403602,0 -0.733822,0.495347 -0.733822,1.100745 0,0.605399 0.33022,1.100718 0.733822,1.100718 0.4036,0 0.73382,-0.495319 0.73382,-1.100718 z m 91.495027,-0.504498 c -0.23436,-0.585402 -0.40812,-0.411504 -0.44334,0.443342 -0.0319,0.773556 0.14145,1.20697 0.38542,0.963152 0.2438,-0.24379 0.26987,-0.876785 0.058,-1.406494 z m 8.15248,-0.772918 c 0.88767,-1.860654 0.72963,-2.398158 -2.11062,-7.178997 -1.68856,-2.842279 -3.26132,-4.976594 -3.49502,-4.742899 -0.2338,0.233807 -0.96276,1.841823 -1.62013,3.573592 -1.12825,2.9723 -1.11952,3.242134 0.15615,4.817395 0.74318,0.917805 1.35128,2.402651 1.35128,3.299683 0,2.15825 0.66444,2.721353 2.90237,2.45959 1.17593,-0.137565 2.20836,-0.954498 2.81609,-2.228364 z m 27.91343,0.453134 c -1.90402,-1.90406 -3.54526,-1.865759 -3.54526,0.08265 0,0.911481 1.39817,1.466875 4.38625,1.742337 0.69905,0.06435 0.4004,-0.583709 -0.84099,-1.825097 z M 90.556463,72.001957 c -0.13923,-1.038785 -0.69387,-2.161246 -1.23276,-2.494288 -1.27908,-0.790529 -0.35671,-3.236724 1.02112,-2.708012 0.57247,0.21966 1.43567,-0.07627 1.9182,-0.65768 1.05024,-1.265461 0.24878,-1.335881 -2.86197,-0.251556 -2.72191,0.94887 -2.77538,1.277778 -0.82842,5.09419 1.71708,3.36572 2.34119,3.685781 1.98383,1.01729 z M 48.466967,68.439791 c 1.536826,-4.638143 1.508176,-5.556393 -0.173372,-5.556393 -1.451226,0 -2.272968,2.884158 -2.2894,8.035342 -0.01027,3.175015 0.889345,2.269607 2.46276,-2.478949 z m 11.07459,1.096973 c 0.209667,-0.33906 -0.0976,-1.013685 -0.682505,-1.499129 -0.871127,-0.722968 -1.333747,-0.43935 -2.557551,1.567938 -0.82173,1.347836 -1.495274,2.720744 -1.496772,3.050928 -0.0028,0.63122 4.080866,-2.058404 4.736828,-3.119737 z M 176.53205,68.285723 c -1.2418,-1.496273 -1.84667,-1.243663 -3.52514,1.472144 -2.14552,3.4715 -1.93584,3.69008 1.41354,1.473557 2.32344,-1.537569 2.76686,-2.156171 2.1116,-2.945701 z m -30.55132,1.640522 c 0.65488,-1.373268 2.53222,-3.574952 4.17194,-4.892667 3.31871,-2.666993 3.70972,-3.617802 1.48779,-3.617802 -1.28651,0 -1.37995,-0.212172 -0.67435,-1.530498 0.45051,-0.841782 0.62723,-1.722368 0.39274,-1.956866 -0.23436,-0.234638 -0.42638,-0.04105 -0.42638,0.429753 0,0.470884 -0.48708,0.856149 -1.08238,0.856149 -0.81127,0 -0.97211,0.551399 -0.6421,2.201462 0.2805,1.40239 0.14062,2.201461 -0.38526,2.201461 -0.45404,0 -1.0732,0 -1.3759,0 -0.3027,0 -0.55037,-0.33024 -0.55037,-0.733839 0,-0.403598 -0.33021,-0.651272 -0.73381,-0.550372 -0.4036,0.10096 -0.6893,0.348572 -0.63491,0.550372 0.0544,0.201911 0.32433,1.109898 0.59981,2.018023 0.30151,0.993855 0.18916,1.651089 -0.28236,1.651089 -1.28069,0 -1.89574,-0.331765 -1.70057,-0.917277 0.10093,-0.3027 -0.34719,-0.550373 -0.99577,-0.550373 -0.72314,0 -1.02292,0.407398 -0.77506,1.053318 0.22244,0.579327 0.17502,1.185642 -0.1048,1.347391 -0.28001,0.161695 -0.1176,0.201634 0.36072,0.08875 1.25479,-0.29632 1.61156,1.371549 0.52571,2.4574 -1.25417,1.254147 -2.01189,1.164619 -1.49709,-0.176949 0.2471,-0.64395 0.0107,-1.100744 -0.56974,-1.100744 -1.25545,0 -2.02765,2.747506 -0.90194,3.2091 2.6603,1.09076 4.63357,0.397109 5.79422,-2.036827 z m -31.73929,1.485956 c 0,-0.152265 -0.57789,-0.730261 -1.28418,-1.284184 -1.16387,-0.912785 -1.18983,-0.886825 -0.27708,0.277072 0.95864,1.222363 1.56124,1.611068 1.56124,1.007112 z m 28.7329,-7.918883 c 1.16412,-1.480741 3.65264,-3.709744 5.53008,-4.953296 1.8774,-1.243552 3.17537,-2.261008 2.88432,-2.261008 -3.5476,0 -13.75912,11.103493 -13.63261,14.823443 0.0167,0.524523 0.72302,-0.367184 1.56705,-1.98158 0.84403,-1.614394 2.48708,-4.146819 3.65116,-5.627559 z M 39.034681,68.297455 c -0.610817,-1.46191 -1.110576,-2.794407 -1.110576,-2.961122 0,-0.166687 -0.722899,0.08376 -1.606436,0.55664 -1.602255,0.857481 -1.600316,0.865192 0.745396,2.961095 1.293508,1.155743 2.516164,2.101365 2.717015,2.101365 0.200857,0 -0.13457,-1.196097 -0.745399,-2.657978 z m 99.667949,-1.643739 c 2.77326,-4.493063 7.36948,-9.129568 10.4347,-10.526162 1.84925,-0.842588 2.26142,-2.378772 1.12132,-4.17949 -1.5346,-2.423842 -12.76276,7.125108 -16.12302,13.711769 -2.1553,4.224755 -2.06769,4.536163 1.46576,5.210482 0.24519,0.04687 1.64088,-1.85067 3.10124,-4.216599 z m -69.224259,2.834068 c 0,-0.4036 -0.1456,-0.733812 -0.323573,-0.733812 -0.178067,0 -0.527694,0.330212 -0.777134,0.733812 -0.249346,0.403599 -0.103733,0.733839 0.3236,0.733839 0.427427,0 0.777107,-0.33024 0.777107,-0.733839 z m 90.626849,0 c 0.92508,-0.397525 1.06073,-0.630665 0.36691,-0.630665 -0.6054,0 -1.76116,0.283812 -2.56836,0.630665 -0.92508,0.397524 -1.06074,0.630664 -0.36691,0.630664 0.6054,0 1.76116,-0.283784 2.56836,-0.630664 z M 45.262309,66.185605 c 0,-2.868876 -0.202881,-3.302207 -1.546152,-3.302207 -1.181589,0 -1.423429,0.302811 -1.025673,1.284184 0.286262,0.706298 0.849224,2.19231 1.251029,3.302206 1.021211,2.820923 1.320796,2.529623 1.320796,-1.284183 z m 87.932521,-0.400799 c 2.18624,-4.661106 7.75778,-10.734422 12.38804,-13.503729 6.11167,-3.6553 6.66898,-7.553836 0.94668,-6.622358 -4.50937,0.734006 -12.27321,3.582469 -10.51024,3.856074 3.73575,0.579744 3.56887,1.897015 -1.33808,10.56316 -5.59138,9.874807 -5.38773,9.417098 -4.17344,9.379766 0.53814,-0.01664 1.7473,-1.669367 2.68704,-3.672913 z m 8.19799,-15.699949 c 0,-0.581573 0.26348,-1.220227 0.5854,-1.419225 0.93877,-0.580187 2.58684,0.765706 2.03367,1.660769 -0.72811,1.178097 -2.61907,1.0037 -2.61907,-0.241572 z m 4.40292,-2.244784 c 0,-0.755804 0.48092,-1.115722 1.28419,-0.961016 1.54677,0.297874 1.44922,1.600224 -0.14479,1.9321 -0.66483,0.138397 -1.13948,-0.265977 -1.13948,-0.971084 z m 9.52843,20.730432 c -0.0221,-1.756288 -1.29015,-2.972659 -2.58296,-2.476536 -1.20426,0.462119 -1.20206,0.569397 0.0397,1.941474 1.4984,1.655721 2.55973,1.879016 2.54329,0.535062 z m 13.56806,-1.24774 c 1.48927,-2.879913 1.41172,-3.705528 -0.34806,-3.705528 -1.22303,0 -1.46766,0.489189 -1.46766,2.935273 0,3.50359 0.32988,3.643513 1.81572,0.770255 z m -18.69357,-0.403349 c 0.94789,-1.008998 1.55835,-1.834556 1.35655,-1.834556 -0.20191,0 -1.14246,0.825558 -2.09039,1.834556 -0.94789,1.008997 -1.55837,1.834556 -1.35655,1.834556 0.20192,0 1.14247,-0.825559 2.09039,-1.834556 z m 10.07472,0.657375 c -0.24379,-0.243791 -0.87676,-0.269862 -1.40647,-0.05797 -0.5854,0.23436 -0.41153,0.408148 0.44335,0.443343 0.77355,0.03189 1.20697,-0.141725 0.96312,-0.385404 z m -1.6358,-1.024281 c 0.96772,-0.415857 1.09269,-0.644421 0.36693,-0.67102 -0.60542,-0.02219 -1.59606,0.279763 -2.20146,0.67102 -1.3414,0.866885 -0.18278,0.866885 1.83453,0 z M 59.204907,66.275438 c 0,-0.152265 -0.577886,-0.730261 -1.284184,-1.284184 -1.163898,-0.912784 -1.189856,-0.886825 -0.277072,0.277072 0.95863,1.222363 1.561228,1.611097 1.561228,1.007112 z m 117.411263,-0.0588 c 0,-0.582212 -6.65311,-4.262805 -7.02795,-3.887968 -0.19664,0.196642 0.633,0.767482 1.84335,1.268847 1.21036,0.501336 2.58226,1.371327 3.04865,1.93332 0.80781,0.973331 2.13595,1.399783 2.13595,0.685801 z m -45.46235,-6.02583 c 2.02072,-3.095415 3.55573,-5.984815 3.41115,-6.420947 -0.16059,-0.483975 -3.31319,-0.874067 -8.09173,-1.001204 -9.31797,-0.247951 -9.35985,-0.185547 -4.78232,7.100285 2.94216,4.682935 4.02574,5.914783 5.22375,5.938607 0.31083,0.0056 2.21847,-2.521356 4.23915,-5.616741 z m -7.02047,-3.201558 c -0.83707,-1.354464 0.74052,-2.302665 3.40699,-2.047753 3.51113,0.335648 3.35449,2.365319 -0.20551,2.662055 -1.47603,0.123146 -2.91672,-0.153374 -3.20159,-0.614302 z m 4.78451,-0.710125 c 0,-0.403599 -0.82556,-0.733811 -1.83456,-0.733811 -1.009,0 -1.83456,0.330212 -1.83456,0.733811 0,0.403599 0.82556,0.733812 1.83456,0.733812 1.009,0 1.83456,-0.330213 1.83456,-0.733812 z m -22.07578,8.545221 c -0.16806,-0.14339 -1.92738,-0.801818 -3.90934,-1.463269 -3.883397,-1.296053 -4.046697,-0.671407 -0.19636,0.750785 2.23024,0.823784 4.74905,1.260887 4.10565,0.712484 z m 55.83151,-0.840092 c 0,-0.605426 -0.33021,-1.100745 -0.73381,-1.100745 -0.4036,0 -0.73381,0.495319 -0.73381,1.100745 0,0.605399 0.33021,1.100716 0.73381,1.100716 0.4036,0 0.73381,-0.495317 0.73381,-1.100716 z M 94.795193,63.276929 c 2.83407,-1.297689 1.51585,-1.316744 -1.83456,-0.02773 -1.41258,0.543993 -2.07301,0.99929 -1.46761,1.011798 0.6054,0.01387 2.09137,-0.430889 3.30217,-0.985312 z m -12.64284,-1.570852 c 0.24407,-0.244067 -0.43549,-2.236073 -1.50994,-4.426857 -3.15715,-6.437338 -3.0956,-6.466376 14.21143,-6.70326 8.017067,-0.109827 14.851827,-0.474823 15.188337,-0.811331 0.3365,-0.336508 -0.38624,-1.025249 -1.60608,-1.530526 -1.21984,-0.505246 -2.41622,-1.543588 -2.65864,-2.307381 -0.54252,-1.709304 -1.32122,-1.76078 -2.63694,-0.174175 -2.0858,2.515088 -5.456237,3.188521 -15.958147,3.188521 -9.8671,0 -10.21482,0.05187 -9.84458,1.46765 0.26682,1.020674 0.0221,1.467623 -0.80252,1.467623 -1.55204,0 -1.56544,-0.06268 1.17264,5.489772 2.1729,4.406389 3.28862,5.495929 4.44444,4.340103 z m 85.841437,-0.04244 c -0.50449,-0.203575 -1.33005,-0.203575 -1.83456,0 -0.50449,0.203575 -0.0917,0.370123 0.91728,0.370123 1.009,0 1.42178,-0.16641 0.91728,-0.370123 z M 101.73215,51.325746 c 0.1004,-0.536254 -7.280087,-0.08181 -7.620647,0.469303 -0.6221,1.006529 -5.7704,1.404304 -7.15245,0.552592 -0.91418,-0.563352 -1.90754,-0.395168 -3.85255,0.652299 -1.44145,0.776273 -2.62079,1.474389 -2.62079,1.551409 0,1.118579 1.16614,2.461532 2.13747,2.461532 1.817,0 10.62518,-3.045741 11.1608,-3.859235 0.5053,-0.767481 2.84577,2.199715 2.84577,3.607818 0,0.489328 0.36401,1.819274 0.80897,2.955464 0.79122,2.020545 0.84672,1.953288 2.534,-3.07098 0.948817,-2.825194 1.740537,-5.219302 1.759427,-5.320202 z m -17.249937,3.421716 c -0.75623,-1.223582 0.94456,-2.626721 1.95689,-1.614396 0.84677,0.846776 0.31679,2.412164 -0.81665,2.412164 -0.35596,0 -0.86908,-0.359001 -1.14024,-0.797768 z m -49.92154,4.728754 c 0.254496,-0.66317 0.289811,-1.378648 0.07852,-1.589962 -0.211313,-0.21134 -0.384185,0.0011 -0.384185,0.471939 0,0.470884 -0.49533,0.856149 -1.100731,0.856149 -0.605401,0 -1.100731,0.330212 -1.100731,0.733812 0,1.207108 2.007858,0.829136 2.507134,-0.471938 z m 25.242004,0.2449 c 0.92876,0.318702 0.873294,0.142002 -0.222706,-0.709987 -1.722344,-1.338628 -2.703996,-0.983093 -2.04285,0.739885 0.272358,0.709404 0.587066,0.871044 0.749204,0.384628 0.15393,-0.461426 0.836182,-0.647972 1.516406,-0.414526 z m -3.27741,-2.891784 c 0.610973,-1.715296 1.684732,-4.715858 2.386121,-6.667927 1.089343,-3.031818 1.123463,-3.645232 0.234083,-4.208223 -0.572671,-0.362441 -1.424495,-0.664087 -1.892939,-0.670243 -0.956189,-0.01387 -5.568304,13.042305 -4.957061,14.031305 0.215445,0.348601 1.005358,0.633826 1.755366,0.633826 0.940826,0 1.708086,-0.967034 2.474514,-3.118738 z M 30.08677,57.138521 c 5.346334,-3.617803 9.134022,-4.767251 16.186491,-4.912081 5.376282,-0.110387 6.641387,-0.360334 7.24013,-1.43021 1.098553,-1.962996 -0.513763,-2.565288 -6.901516,-2.578047 -6.678443,-0.01387 -12.98063,1.758646 -18.226071,5.124615 -3.359317,2.155671 -4.491806,4.071686 -3.181255,5.382244 0.840056,0.840064 1.717733,0.554839 4.882221,-1.586521 z m 84.80258,-3.12964 c -0.55813,-0.353481 -1.4276,-0.647777 -1.93209,-0.653963 -0.50451,-0.0056 -0.91728,-0.341444 -0.91728,-0.745044 0,-0.403598 -0.82554,-0.733838 -1.83456,-0.733838 -1.00899,0 -1.83452,0.334122 -1.83452,0.742492 0,0.455269 -1.13556,0.56094 -2.93531,0.273189 -5.08897,-0.813743 -3.33696,1.019011 2.75184,2.878693 5.60911,1.71316 5.70103,1.717404 6.70192,0.309135 0.86389,-1.215484 0.86389,-1.523453 0,-2.070581 z m -5.29543,1.047049 c -0.89376,-0.89373 -0.50566,-2.446056 0.6115,-2.446056 0.61153,0 1.10074,0.652271 1.10074,1.467623 0,1.461965 -0.78193,1.908775 -1.71224,0.978433 z m 57.48259,0.812828 c 0,-0.629222 -0.33021,-0.939964 -0.73381,-0.690516 -0.4036,0.249338 -0.73381,0.764264 -0.73381,1.144039 0,0.379775 0.33021,0.690517 0.73381,0.690517 0.4036,0 0.73381,-0.514816 0.73381,-1.14404 z M 48.197591,55.545148 c 0,-0.403599 -0.14561,-0.733812 -0.3236,-0.733812 -0.177976,0 -0.527691,0.330213 -0.777131,0.733812 -0.249448,0.403598 -0.103813,0.73381 0.323603,0.73381 0.42742,0 0.777128,-0.330212 0.777128,-0.73381 z m 33.734502,-2.906623 c 0.59372,-0.375476 0.83352,-0.928649 0.53289,-1.229268 -0.30061,-0.30062 -1.10481,0.01107 -1.78709,0.693928 -1.3263,1.326285 -0.53232,1.665179 1.2542,0.53534 z m 25.168567,-1.243829 c -0.49682,-0.201079 -1.48748,-0.213282 -2.20146,-0.02773 -0.71398,0.186102 -0.3075,0.350515 0.9033,0.365464 1.21082,0.01387 1.79497,-0.137288 1.29816,-0.338284 z m 19.98264,-1.720122 c 0.28612,-0.462952 -1.47444,-0.733812 -4.76983,-0.733812 -3.29539,0 -5.05596,0.270971 -4.76983,0.733812 0.24934,0.403599 2.39586,0.733839 4.76983,0.733839 2.37397,0 4.52037,-0.33024 4.76983,-0.733839 z m 50.63359,-6.237452 c 0,-4.384091 -0.19331,-5.153847 -1.34964,-5.376559 -1.99059,-0.383352 -4.88784,2.68172 -4.88784,5.170932 0,2.475567 3.08424,5.929511 4.97044,5.566266 1.0557,-0.203297 1.26704,-1.097472 1.26704,-5.360639 z m 2.56837,0 c 0,-3.179867 -0.30983,-5.50364 -0.73381,-5.50364 -0.42399,0 -0.73382,2.323773 -0.73382,5.50364 0,3.179868 0.30983,5.50364 0.73382,5.50364 0.42398,0 0.73381,-2.323772 0.73381,-5.50364 z m -79.52151,3.347941 c 5.05467,-3.312024 5.10137,-12.135898 0.0785,-14.824081 -2.077797,-1.111977 -24.283827,-5.73875 -27.625007,-5.755862 -2.37441,-0.01107 -2.43825,0.0538 -1.28421,1.329198 0.66797,0.738082 1.21449,1.936786 1.21449,2.663803 0,1.131364 -0.473,1.268541 -3.282062,0.951892 -3.94608,-0.444758 -4.413493,0.365685 -3.665213,6.35477 0.613413,4.909614 2.582773,8.257388 5.677545,9.651596 3.25469,1.466263 26.53834,1.166976 28.885967,-0.371316 z m 36.4658,0.321338 c 0.73722,-0.311991 1.65408,-1.392323 2.0375,-2.400766 0.85422,-2.246752 -0.74214,-5.079544 -3.20372,-5.685137 -0.903,-0.222157 -7.55054,-0.309937 -14.77234,-0.194976 -13.12015,0.208567 -13.1316,0.210231 -14.52925,2.08356 -1.13306,1.518627 -1.25451,2.254157 -0.63932,3.872243 0.41772,1.098609 1.50729,2.282225 2.42124,2.630188 2.00293,0.7626 26.78591,0.49909 28.68589,-0.304974 z m 34.22451,-0.414471 c -0.67401,-1.259361 -0.99993,-1.358069 -1.93149,-0.584931 -0.99327,0.824339 -0.96659,0.99072 0.23464,1.463435 2.23012,0.877618 2.54848,0.712788 1.69685,-0.878504 z m -2.72645,-1.237063 c 1.77666,-1.583388 1.94233,-16.327232 0.1836,-16.327232 -0.90522,0 -1.10072,1.306594 -1.10072,7.356363 0,7.221377 -0.0347,7.369509 -1.88234,8.072036 -1.03526,0.393613 -3.98776,0.715644 -6.56106,0.715644 -4.52075,0 -6.8788,0.964927 -4.224,1.728471 2.5437,0.73162 12.27146,-0.37495 13.58465,-1.545282 z m -25.86718,-0.190261 c 0,-0.759855 -1.94149,-1.475916 -2.49661,-0.920773 -1.02547,1.025473 -0.36005,2.237517 1.029,1.874273 0.80719,-0.211063 1.46761,-0.640151 1.46761,-0.9535 z M 65.717851,40.134943 c -0.774227,-3.02702 -1.219013,-6.367417 -0.988387,-7.423093 0.383934,-1.757452 0.153374,-1.986959 -2.731893,-2.7193 -1.733187,-0.439932 -3.356959,-0.566847 -3.608432,-0.282038 -0.251556,0.284811 -1.188222,3.281406 -2.08173,6.659079 -1.199037,4.532723 -1.409518,6.358654 -0.803621,6.971291 0.596745,0.603401 10.61197,2.633128 11.513996,2.333508 0.05933,-0.01941 -0.52568,-2.512453 -1.299933,-5.539447 z m 100.216339,2.771998 c 1.53747,-2.195055 1.43779,-3.944187 -0.3253,-5.70727 -1.32787,-1.327866 -2.44608,-1.46765 -11.74115,-1.46765 -9.29505,0 -10.41325,0.139784 -11.74112,1.46765 -1.76308,1.763083 -1.86279,3.512215 -0.32529,5.70727 1.09348,1.561145 1.60965,1.630926 12.06641,1.630926 10.45677,0 10.97297,-0.06989 12.06645,-1.630926 z M 48.931413,29.861446 c 0,-4.729058 -0.21403,-5.870546 -1.10073,-5.870546 -0.878364,0 -1.100732,1.087127 -1.100732,5.38133 0,2.959763 0.220133,5.601517 0.489214,5.870573 1.301774,1.301768 1.712248,0.01107 1.712248,-5.381357 z m 4.654392,5.055833 c 1.868283,-0.851269 3.41764,-3.446706 3.41764,-5.725216 0,-2.393499 -2.90102,-5.305945 -5.038436,-5.058244 -1.83597,0.212727 -1.943957,0.459207 -2.154093,4.916519 -0.320591,6.800221 0.1435,7.521497 3.774889,5.866941 z M 72.273033,29.80642 c -0.1445,-0.433885 -0.57666,-0.788865 -0.9601,-0.788865 -0.38342,0 -0.81547,0.35498 -0.96007,0.788865 -0.14451,0.433858 0.28741,0.788866 0.96007,0.788866 0.67268,0 1.1047,-0.355008 0.9601,-0.788866 z m -2.550862,-0.989472 c 0.392022,-1.021589 -2.76984,-2.624586 -5.176933,-2.624586 -1.740107,0 -0.702934,2.465 1.267906,3.013402 2.856734,0.794884 3.478547,0.733035 3.909027,-0.388816 z m -7.091227,-1.707336 c -0.124,-1.61373 -0.517467,-2.017994 -1.96396,-2.017994 -2.451023,0 -2.881996,2.343964 -0.599293,3.259161 2.562226,1.027275 2.731333,0.945401 2.563253,-1.241167 z m 19.296599,-7.473404 c 1.12671,-2.105277 0.93439,-9.071631 -0.29627,-10.7318439 -0.96005,-1.2951667 -1.16206,-1.3199347 -2.22606,-0.272912 -0.64362,0.6333547 -1.3736,2.4049249 -1.62219,3.9368089 -0.43233,2.664275 -0.37548,2.764177 1.30881,2.299062 1.63847,-0.45244 1.65883,-0.425288 0.29314,0.390868 -0.8072,0.482395 -1.5517,0.939965 -1.6544,1.016791 -0.10267,0.07683 0.17722,1.183894 0.62216,2.460146 0.91446,2.623255 2.44644,3.009408 3.57481,0.901052 z"
       id="path826"
       inkscape:connector-curvature="0" />
  </g>
</svg>
