<?xml version="1.0" encoding="UTF-8" standalone="no"?>
<!-- Created with Inkscape (http://www.inkscape.org/) -->

<svg
   xmlns:dc="http://purl.org/dc/elements/1.1/"
   xmlns:cc="http://creativecommons.org/ns#"
   xmlns:rdf="http://www.w3.org/1999/02/22-rdf-syntax-ns#"
   xmlns:svg="http://www.w3.org/2000/svg"
   xmlns="http://www.w3.org/2000/svg"
   xmlns:sodipodi="http://sodipodi.sourceforge.net/DTD/sodipodi-0.dtd"
   xmlns:inkscape="http://www.inkscape.org/namespaces/inkscape"
   width="210mm"
   height="115mm"
   viewBox="0 0 210 115"
   version="1.1"
   id="svg8"
   inkscape:version="0.92.2 (5c3e80d, 2017-08-06)"
   sodipodi:docname="bike.svg">
  <defs
     id="defs2" />
  <sodipodi:namedview
     id="base"
     pagecolor="#ffffff"
     bordercolor="#666666"
     borderopacity="1.0"
     inkscape:pageopacity="0.0"
     inkscape:pageshadow="2"
     inkscape:zoom="0.24748737"
     inkscape:cx="-256.41583"
     inkscape:cy="560"
     inkscape:document-units="mm"
     inkscape:current-layer="layer1"
     showgrid="false"
     inkscape:window-width="1366"
     inkscape:window-height="745"
     inkscape:window-x="-8"
     inkscape:window-y="-8"
     inkscape:window-maximized="1" />
  <metadata
     id="metadata5">
    <rdf:RDF>
      <cc:Work
         rdf:about="">
        <dc:format>image/svg+xml</dc:format>
        <dc:type
           rdf:resource="http://purl.org/dc/dcmitype/StillImage" />
        <dc:title></dc:title>
      </cc:Work>
    </rdf:RDF>
  </metadata>
  <g
     inkscape:label="Layer 1"
     inkscape:groupmode="layer"
     id="layer1"
     transform="translate(0,-182)">
    <path
       style="fill:#34b3d3;fill-opacity:1;stroke-width:0.73382062"
       d="m 4.7978405,292.03282 c 0.505859,-0.50589 24.8970285,-0.56457 25.4004675,-0.0613 0.229229,0.22937 -5.472111,0.4168 -12.669666,0.4168 -7.197567,0 -12.9264165,-0.16003 -12.7308015,-0.35565 z M 116.04405,291.84505 c 2.52253,-0.14339 6.65025,-0.14339 9.17274,0 2.52254,0.14339 0.45866,0.26043 -4.58636,0.26043 -5.045,0 -7.10888,-0.11732 -4.58638,-0.26043 z m -88.975742,-4.42042 13.208769,-0.22992 -4.402922,-2.13648 c -21.00733,-10.19354 -20.866077,-39.24914 0.238381,-49.03503 3.477731,-1.61256 5.223391,-1.93454 10.584995,-1.95226 6.848976,-0.0222 8.330216,-0.67044 3.427109,-1.49883 -5.676307,-0.95899 -14.480411,1.35436 -19.381625,5.0927 -3.003235,2.29068 -5.178271,2.41055 -6.283034,0.34629 -2.678823,-5.00543 15.152199,-12.43452 26.315763,-10.96418 3.377742,0.4449 3.992848,0.32877 4.637298,-0.87542 0.52247,-0.97622 0.482976,-1.70165 -0.133134,-2.44395 -0.828026,-0.99771 -0.731398,-2.49113 0.471272,-7.28289 0.469664,-1.87133 0.399966,-1.94467 -1.090233,-1.14715 -0.87562,0.46861 -3.149315,0.75184 -5.052684,0.62936 l -3.460667,-0.22271 -0.220825,-5.12137 c -0.121453,-2.81679 -0.02247,-5.91173 0.219993,-6.87771 0.407776,-1.62471 0.716496,-1.7298 4.120451,-1.40272 2.113345,0.20302 4.56788,1.01024 5.766307,1.89629 1.832309,1.35469 2.141277,1.40045 2.534642,0.37528 0.339752,-0.88533 1.124707,-1.0767 3.24819,-0.79186 3.3562,0.45014 4.883507,-0.29332 6.323667,-3.07833 0.731546,-1.41459 2.38424,-2.62683 5.136745,-3.76765 3.66775,-1.52021 4.05925,-1.89852 4.06901,-3.93193 0.0139,-2.86424 1.5051,-5.83752 3.08006,-6.14082 3.10412,-0.5978 5.13038,8.67144 2.83365,12.9629 -1.24716,2.33031 -3.80157,1.78679 -5.18675,-1.10366 l -1.10468,-2.30519 -3.30217,1.28071 c -2.36136,0.91581 -3.717785,2.03514 -4.760852,3.9286 -1.857547,3.37205 -0.956907,4.59849 2.654852,3.61526 1.91861,-0.52231 5.43355,-0.0721 15.68167,2.0087 7.26481,1.47503 13.913294,3.12781 14.774384,3.67283 1.99267,1.26124 3.93803,4.53322 3.93803,6.62352 0,1.28976 0.2596,1.48931 1.28418,0.9875 0.7063,-0.34588 7.67787,-0.72521 15.49232,-0.84292 11.90795,-0.17944 14.49187,-0.0283 15.96061,0.93417 1.55613,1.01962 1.75246,1.02306 1.75246,0.0305 0,-0.61469 0.66043,-1.77809 1.46764,-2.58528 1.33328,-1.33328 2.44607,-1.46763 12.15627,-1.46763 5.96464,0 11.31596,0.33574 12.10805,0.75964 1.32228,0.70765 1.41939,0.48711 1.41939,-3.22369 0,-3.04136 0.28933,-4.09435 1.22344,-4.45279 2.02995,-0.77897 2.72915,0.77965 2.77187,6.17871 0.0221,2.82724 0.17972,5.14056 0.34981,5.14072 0.17001,2e-4 0.86015,-0.49834 1.53361,-1.10781 0.67346,-0.60948 2.84588,-1.18736 4.8276,-1.28419 l 3.60319,-0.17611 0.21133,6.36949 0.21135,6.3695 -2.04149,0.23492 c -1.96327,0.22576 -1.89399,0.32918 1.80857,2.69747 7.628,4.87908 13.40249,13.3812 15.0292,22.12833 0.84825,4.56126 2.22137,5.86261 6.18597,5.86261 1.79458,0 1.83454,0.0829 0.79506,1.65109 -0.60196,0.9081 -1.70706,1.77215 -2.45579,1.92009 -0.74873,0.14783 -2.51959,1.05607 -3.93523,2.01803 -1.5285,1.03864 -3.64201,1.74899 -5.2038,1.74899 -2.51006,0 -2.7094,0.1922 -4.37485,4.21948 -1.09553,2.64911 -3.12579,5.58496 -5.45519,7.88857 -3.5888,3.54891 -4.89028,4.41909 -9.58088,6.40577 -1.89221,0.80143 0.27264,0.98678 15.41024,1.31938 13.84431,0.30423 10.9403,0.39228 -13.57568,0.4117 -17.15304,0.0139 -28.21537,-0.16059 -24.58298,-0.38696 l 6.60438,-0.4117 -3.49812,-1.34963 c -5.14096,-1.9835 -11.09601,-7.77286 -13.77997,-13.39662 -1.76081,-3.68941 -2.59288,-4.69999 -3.86983,-4.69999 -0.8947,0 -2.8179,-0.80942 -4.27376,-1.79872 -2.61436,-1.77648 -2.87836,-1.80142 -21.37552,-2.018 -16.920924,-0.19803 -18.871254,-0.34863 -20.207854,-1.5594 -2.46585,-2.23371 -10.54208,-16.79936 -10.14875,-18.30348 0.20054,-0.76729 -0.92424,-3.74164 -2.56661,-6.78647 -2.42088,-4.48815 -2.78543,-5.67906 -2.11945,-6.92347 0.64489,-1.205 0.5856,-1.50293 -0.29918,-1.50293 -0.74224,0 -0.9484,0.42041 -0.62972,1.28418 0.26626,0.72178 -0.46689,0.29178 -1.67413,-0.98187 -1.65923,-1.75052 -3.029905,-2.38307 -6.024479,-2.78029 -4.321027,-0.57317 -4.953493,-0.37936 -5.492907,1.68332 -0.29388,1.12376 0.638147,2.08417 4.355854,4.48846 7.376582,4.77054 13.396142,13.48742 14.626282,21.18021 0.40709,2.54573 0.17889,3.15812 -2.10395,5.64924 l -2.56055,2.79402 -0.54008,-4.00024 c -1.16465,-8.6259 -5.492262,-15.92047 -12.133929,-20.45272 -4.926731,-3.36198 -5.381167,-2.47898 -0.573587,1.11439 9.812956,7.33464 13.844456,18.89349 10.508136,30.12814 -1.46576,4.93574 -5.066869,9.89109 -6.785629,9.33741 -1.095866,-0.35303 -1.125346,-0.29257 -0.19304,0.39553 0.9322,0.68791 0.707467,1.14515 -1.467627,2.98622 -1.412613,1.19568 -4.366053,2.92518 -6.563254,3.84334 l -3.994887,1.66937 3.627981,0.43508 c 1.995363,0.23935 -6.939062,0.41253 -19.854301,0.38496 -12.915243,-0.0277 -17.538313,-0.15365 -10.27349,-0.28012 z m 16.934097,-2.55791 c -0.225262,-0.90813 -0.215417,-1.22456 0.02191,-0.70319 0.317432,0.69731 0.687295,0.73558 1.399156,0.14477 0.737787,-0.6123 1.081223,-0.44526 1.44573,0.70319 0.650669,2.05009 1.435322,1.89155 2.532669,-0.51173 l 0.921432,-2.018 0.954468,2.20146 0.954468,2.20146 0.839412,-2.26261 c 0.780828,-2.10467 2.879671,-3.24674 2.697201,-1.46763 -0.172788,1.68377 1.398259,1.11109 1.612316,-0.58775 0.237135,-1.88202 1.985047,-3.09095 2.72887,-1.88742 0.23852,0.38596 0.06467,0.70175 -0.386708,0.70175 -0.451248,0 -0.616354,0.33024 -0.366906,0.73383 0.96116,1.55519 1.989654,0.65563 1.678027,-1.46764 -0.177787,-1.2108 -0.242133,-2.20146 -0.143387,-2.20146 0.09907,0 0.784667,-0.19637 1.524,-0.43613 1.091814,-0.35426 1.141374,-0.29277 0.26404,0.32743 -0.929173,0.65682 -0.899106,0.83305 0.215227,1.26061 1.78496,0.68497 2.13204,0.11483 1.28548,-2.11187 -0.607147,-1.5969 -0.494173,-1.96946 0.713294,-2.3527 0.789053,-0.25045 1.43464,-0.96421 1.43464,-1.58617 0,-0.85115 0.471493,-1.01252 1.90636,-0.65238 1.386306,0.34794 1.815973,0.21939 1.574986,-0.4708 -0.182213,-0.52211 -0.9576,-0.85296 -1.72292,-0.73522 -1.067346,0.16419 -1.155933,0.0552 -0.380213,-0.46834 0.556187,-0.37531 0.825667,-0.98273 0.59876,-1.3498 -0.226867,-0.3671 -0.104,-1.14704 0.27292,-1.73316 0.598133,-0.92998 0.773773,-0.9282 1.379333,0.0139 0.381667,0.59372 0.929986,0.84342 1.218526,0.55487 0.28854,-0.28853 -0.056,-1.16626 -0.765806,-1.95052 -0.709733,-0.78423 -1.05168,-1.81217 -0.75988,-2.2843 0.392614,-0.6353 0.689467,-0.60121 1.142036,0.13118 0.44237,0.71576 0.83341,0.76762 1.4136,0.18749 0.58019,-0.58019 0.29068,-1.13711 -1.04659,-2.01331 -1.153979,-0.75614 -1.687406,-1.63137 -1.419606,-2.32929 0.302814,-0.78911 0.693494,-0.8985 1.328116,-0.37181 0.49449,0.41042 1.11636,0.5289 1.38192,0.2632 0.91024,-0.9102 0.48129,-1.54717 -1.35169,-2.0072 -1.845012,-0.4631 -2.466292,-2.1569 -1.100732,-3.00087 0.403586,-0.24934 0.733822,-0.10373 0.733822,0.32361 0,0.42742 0.33021,0.77713 0.73381,0.77713 1.46306,0 0.69258,-1.89227 -0.81676,-2.00595 -2.184459,-0.16447 -2.695579,-0.91498 -1.195126,-1.75466 1.876406,-1.0501 1.557466,-2.10996 -0.634986,-2.10996 -1.360734,0 -1.79636,-0.30411 -1.508867,-1.05332 0.22244,-0.57933 0.01067,-1.23015 -0.471853,-1.44629 -0.48184,-0.21606 -0.319814,-0.32004 0.360026,-0.23076 0.679814,0.0893 1.291334,-0.16807 1.358934,-0.57173 0.06827,-0.40723 -0.956307,-0.62059 -2.302027,-0.47945 -2.110974,0.22133 -2.30372,0.10844 -1.48876,-0.87365 0.514893,-0.6204 1.450173,-0.93079 2.0784,-0.68971 0.74568,0.28614 0.553733,-0.23852 -0.552893,-1.51125 -0.932307,-1.07226 -2.048334,-1.94453 -2.480067,-1.93834 -0.43172,0.006 -0.344494,0.29044 0.193866,0.63169 0.781441,0.49537 0.733454,0.71462 -0.23796,1.0874 -0.66924,0.25683 -1.675746,0.008 -2.23672,-0.55301 -0.870653,-0.87065 -0.798173,-1.07789 0.495294,-1.41611 0.876293,-0.2291 1.301773,-0.74152 1.00908,-1.2151 -0.371227,-0.60066 -0.773907,-0.59652 -1.511414,0.0166 -0.580013,0.4814 -1.919814,0.63352 -3.167,0.35958 -2.905818,-0.6382 -3.597334,0.74702 -1.04117,2.08567 3.033344,1.58852 6.534384,5.53446 8.221837,9.26661 1.707467,3.77647 2.043587,11.46599 0.676814,15.4842 -0.997374,2.93211 -4.962774,8.73188 -5.970174,8.73188 -0.3846,0 -0.246,-0.57789 0.307867,-1.28419 0.90868,-1.15865 0.88388,-1.18764 -0.253507,-0.29654 -0.6934,0.54322 -1.188747,1.36878 -1.100744,1.83456 0.257936,1.36478 -6.703423,4.3863 -10.908996,4.73507 -4.313192,0.35767 -9.397992,-1.06194 -13.287364,-3.70968 -2.186371,-1.4884 -3.604587,-3.56059 -1.580892,-2.30988 0.529113,0.32702 0.647833,0.20108 0.316202,-0.33557 -0.292048,-0.47254 -0.794265,-0.69648 -1.116037,-0.49759 -0.895777,0.55362 -2.756604,-1.84152 -4.509611,-5.80448 -1.305011,-2.95019 -1.525001,-4.55641 -1.252667,-9.14596 0.188876,-3.1832 0.860655,-6.58431 1.568715,-7.94226 1.563006,-2.99765 5.512635,-7.5316 6.560966,-7.5316 0.437302,0 -0.174786,1.07324 -1.360206,2.38493 l -2.155296,2.38493 2.358824,-2.13032 c 1.297352,-1.17166 2.182374,-2.4158 1.966715,-2.76473 -0.835903,-1.35252 5.887867,-3.51147 10.986824,-3.52778 4.864206,-0.0166 5.023536,-0.0732 4.596396,-1.6672 -0.243346,-0.90812 -0.446984,-2.24847 -0.452496,-2.97859 -0.0056,-0.73115 -0.353078,-1.11548 -0.77369,-0.85554 -0.420019,0.2596 -0.588175,1.18719 -0.373684,2.06131 0.214501,0.87415 0.195808,1.16279 -0.04152,0.64146 -0.331244,-0.72769 -0.670656,-0.74943 -1.460866,-0.0935 -0.798101,0.66236 -1.031896,0.62803 -1.040608,-0.15282 -0.0089,-0.79383 -0.168988,-0.774 -0.756112,0.0935 -0.552644,0.81665 -0.623904,0.57993 -0.276129,-0.91728 0.590128,-2.54052 -0.823155,-2.71819 -1.459331,-0.18333 -0.472259,1.88162 -1.891204,2.5626 -1.911359,0.91728 -0.0075,-0.62076 -0.260348,-0.56147 -0.78189,0.18333 -0.603284,0.86167 -0.669791,0.74213 -0.306224,-0.55037 0.255438,-0.9081 0.153236,-1.65109 -0.227122,-1.65109 -0.380352,0 -0.884234,0.96342 -1.119742,2.14099 -0.310424,1.55211 -0.78979,2.07214 -1.742826,1.8907 -0.723042,-0.13757 -1.447706,-0.27569 -1.610361,-0.30645 -0.162665,-0.0308 0.497784,-0.76806 1.467643,-1.63819 1.325089,-1.18886 1.429276,-1.46244 0.419174,-1.10074 -0.739313,0.26459 -1.647417,0.48131 -2.018009,0.48131 -0.370591,0 -0.6738,0.99066 -0.6738,2.20146 0,1.21082 -0.247673,2.16235 -0.550368,2.11457 -1.915788,-0.30248 -3.030428,0.19692 -2.650284,1.18764 0.232308,0.60539 0.05683,1.10071 -0.389943,1.10071 -0.446782,0 -1.059993,0 -1.362696,0 -0.302701,0 -0.550364,-0.33021 -0.550364,-0.73381 0,-0.4036 -0.33022,-0.65127 -0.733822,-0.55037 -0.403602,0.10096 -0.689299,0.34857 -0.634888,0.55037 0.05441,0.20191 0.325466,1.11348 0.602338,2.02596 0.472091,1.55584 0.385852,1.60549 -1.386217,0.79807 -2.036146,-0.92773 -3.090628,-0.51454 -2.23209,0.87459 0.404046,0.65377 0.664587,0.64667 1.082487,-0.0294 0.39329,-0.63635 0.69362,-0.6587 1.052311,-0.0785 0.276073,0.4467 0.116907,0.81217 -0.353695,0.81217 -0.470601,0 -0.696574,0.41452 -0.502164,0.92116 0.194422,0.5066 -0.10048,1.34517 -0.655311,1.86345 -0.930388,0.86913 -1.311818,0.60227 -1.095682,-0.76659 0.04779,-0.3027 -0.408431,-0.55037 -1.013832,-0.55037 -1.43966,0 -1.39002,0.6587 0.183466,2.43435 0.946154,1.06771 1.041531,1.53402 0.362338,1.77154 -0.507016,0.17723 -0.735192,0.6244 -0.507059,0.99352 0.228148,0.36913 0.07544,0.67116 -0.339305,0.67116 -0.414755,0 -0.564024,0.49532 -0.331708,1.10072 0.290724,0.7576 -0.04607,1.10074 -1.080454,1.10074 -2.284089,0 -2.521668,1.16886 -0.506018,2.48955 1.227834,0.8045 1.65188,1.58058 1.326668,2.42808 -0.299178,0.77963 -0.587746,0.91636 -0.771382,0.36544 -0.330256,-0.99078 -2.372546,-1.21815 -2.372546,-0.26404 0,0.33884 0.825546,0.99219 1.834549,1.45192 2.252037,1.02608 2.574764,3.40264 0.366912,2.70189 -0.807204,-0.25627 -1.467643,-0.14922 -1.467643,0.23796 0,0.38704 0.789124,0.90178 1.75361,1.14385 1.88368,0.47277 3.033925,2.32995 1.883444,3.04097 -0.385974,0.23852 -0.701772,0.0646 -0.701772,-0.38671 0,-0.45125 -0.330218,-0.61635 -0.73382,-0.36691 -1.407934,0.87016 -0.718504,1.83456 1.311481,1.83456 1.607731,0 2.062709,0.35323 2.126671,1.65109 0.04476,0.9081 -0.07829,1.23626 -0.273411,0.72926 -0.383447,-0.99629 -1.697085,-0.53323 -1.697085,0.59825 0,0.37977 1.010146,0.69048 2.244771,0.69048 1.234621,0 2.058113,0.30204 1.829976,0.67116 -0.228147,0.36913 4.1e-5,0.85485 0.507058,1.07939 0.507018,0.22465 0.29567,0.33529 -0.469662,0.24601 -0.765332,-0.089 -1.55138,0.29726 -1.74677,0.85873 -0.270639,0.77769 0.111827,0.90363 1.60569,0.52868 1.333682,-0.33473 2.329308,-0.12369 3.11251,0.6594 1.046207,1.04619 0.964111,1.11758 -0.897261,0.78005 -1.858553,-0.33704 -1.942229,-0.26487 -0.900989,0.77629 0.915898,0.91589 1.464765,0.97824 2.716257,0.30847 1.618044,-0.86597 3.005728,-0.50458 3.005728,0.78271 0,0.4036 -0.307403,0.54385 -0.683117,0.31166 -0.375711,-0.23215 -0.904107,-0.0646 -1.174212,0.37242 -0.853363,1.38076 0.320078,1.71605 2.299105,0.65688 1.717665,-0.91925 2.017643,-0.87682 3.018384,0.42695 0.770133,1.00337 1.216713,1.16614 1.455031,0.5304 0.5958,-1.58938 1.689194,-0.99563 1.689194,0.91728 0,1.009 0.35247,1.83456 0.783271,1.83456 0.444425,0 0.606081,-0.71426 0.373684,-1.65109 z m 3.245969,-0.5937 c 0,-0.42742 0.330218,-0.57303 0.73382,-0.32358 0.403601,0.24934 0.73382,0.59913 0.73382,0.77713 0,0.17806 -0.330219,0.32359 -0.73382,0.32359 -0.403602,0 -0.73382,-0.34971 -0.73382,-0.77714 z m 16.51098,-39.58298 c 0.249333,-0.4036 0.59912,-0.73381 0.777093,-0.73381 0.178067,0 0.323614,0.33021 0.323614,0.73381 0,0.4036 -0.349707,0.73384 -0.777134,0.73384 -0.427413,0 -0.573027,-0.33024 -0.323573,-0.73384 z m 97.231206,41.13725 c 0,-0.37978 -0.33022,-0.89459 -0.73382,-1.14404 -0.4036,-0.24934 -0.7338,0.0613 -0.7338,0.69052 0,0.62922 0.3302,1.14404 0.7338,1.14404 0.4036,0 0.73382,-0.31075 0.73382,-0.69052 z m 5.11518,-1.32751 0.94782,-2.01799 0.69876,2.01799 c 0.90976,2.62739 1.75221,2.56022 2.30094,-0.18332 0.31526,-1.57638 0.86223,-2.20147 1.92624,-2.20147 0.8173,0 1.48599,0.34971 1.48599,0.77714 0,0.42742 -0.37307,0.54654 -0.82903,0.26487 -0.47562,-0.29397 -0.70241,-0.13258 -0.53201,0.37863 0.50616,1.51852 1.71635,0.91861 1.95415,-0.9687 0.23713,-1.88201 1.98508,-3.09094 2.72888,-1.88741 0.23852,0.38596 0.0647,0.70175 -0.38671,0.70175 -0.45125,0 -0.61636,0.33024 -0.36691,0.73384 0.96115,1.55518 1.98964,0.65562 1.67802,-1.46766 -0.17778,-1.21079 -0.24212,-2.20145 -0.14339,-2.20145 0.0991,0 0.70213,-0.20053 1.34053,-0.44543 0.64948,-0.24933 1.16078,-0.0685 1.16078,0.41023 0,0.47061 -0.38126,0.62002 -0.84723,0.33204 -0.52488,-0.32441 -0.648,-0.20135 -0.32359,0.32359 0.73322,1.18636 1.80287,1.0557 3.24126,-0.39592 1.12758,-1.13796 1.12925,-1.20433 0.0195,-0.78459 -0.80936,0.30622 -1.33086,0.003 -1.57002,-0.91096 -0.33944,-1.29805 1.40705,-2.7168 2.27541,-1.84842 0.21133,0.21134 -0.0195,0.38418 -0.51524,0.38418 -0.49471,0 -0.69535,0.33022 -0.44592,0.73382 0.74496,1.20533 2.78343,0.87728 2.27995,-0.36691 -0.2449,-0.6054 -0.6648,-1.64549 -0.93295,-2.31129 -0.40773,-1.01236 -0.15559,-1.12726 1.53943,-0.70183 1.4961,0.3755 1.94022,0.26015 1.69564,-0.44052 -0.18223,-0.52211 -0.95762,-0.85296 -1.72292,-0.73522 -1.06736,0.16419 -1.15595,0.0552 -0.38023,-0.46834 0.5562,-0.37531 0.78437,-1.04951 0.50705,-1.49824 -0.30664,-0.49615 0.0788,-0.81585 0.98368,-0.81585 1.07996,0 1.37846,0.3521 1.08864,1.28418 -0.37641,1.21063 -0.3525,1.21152 0.4177,0.0166 1.1127,-1.7278 0.75577,-2.25083 -1.66599,-2.44134 -1.70012,-0.13368 -2.38983,0.3691 -3.94321,2.87467 -2.81296,4.53727 -4.62802,6.29312 -8.58996,8.30956 -9.8795,5.02829 -21.60283,1.46704 -27.32752,-8.3014 -1.7366,-2.96326 -3.57562,-3.95317 -3.57562,-1.92467 0,0.43722 -0.24768,1.04264 -0.55034,1.34534 -0.3027,0.3027 -0.55038,0.14561 -0.55038,-0.34907 0,-0.49468 -0.33021,-0.69534 -0.73381,-0.44592 -1.40793,0.87015 -0.71852,1.83455 1.31148,1.83455 1.60773,0 2.06271,0.35323 2.12665,1.65112 0.0447,0.9081 -0.0783,1.23626 -0.27346,0.72923 -0.38343,-0.99629 -1.69707,-0.53323 -1.69707,0.59825 0,0.37977 1.01013,0.69049 2.24476,0.69049 1.23461,0 2.05809,0.30203 1.82997,0.67115 -0.22825,0.36913 3e-5,0.85485 0.50706,1.07939 0.5923,0.26237 0.52837,0.35207 -0.1789,0.251 -0.60542,-0.0865 -1.1625,0.17085 -1.23802,0.5717 -0.0755,0.40086 0.5257,0.64606 1.33604,0.54486 0.81036,-0.10123 2.02789,0.37564 2.70568,1.05967 1.15417,1.16478 1.15086,1.21281 -0.0519,0.75738 -0.86084,-0.32597 -1.28419,-0.1309 -1.28419,0.59142 0,1.29078 0.356,1.33153 2.34302,0.26819 1.15666,-0.61901 1.65436,-0.58038 2.11449,0.1642 0.35345,0.57186 0.24795,1.19229 -0.25544,1.50348 -0.47152,0.29141 -0.65136,0.73578 -0.39964,0.9875 0.25184,0.25184 1.14201,0.0302 1.97845,-0.4921 1.20003,-0.74942 1.71036,-0.76016 2.41968,-0.0508 0.68896,0.68897 0.69323,0.89889 0.0195,0.89889 -0.48431,0 -0.88059,0.45405 -0.88059,1.009 0,0.59808 0.77904,1.00903 1.91291,1.00903 1.06496,0 1.53748,-0.23215 1.06599,-0.52342 -0.61427,-0.37964 -0.55636,-0.76454 0.21078,-1.40125 0.83106,-0.68969 1.28896,-0.64661 2.13663,0.20108 0.74448,0.74451 1.31457,0.84317 1.8394,0.31837 0.5248,-0.5248 0.91215,-0.28273 1.24977,0.78101 0.66095,2.08245 1.4358,1.93879 2.57023,-0.47651 z m -126.206809,0.73384 c -0.0061,-0.3027 -0.331343,-1.04569 -0.722584,-1.65111 -0.575223,-0.89007 -0.713498,-0.78476 -0.722584,0.55037 -0.0061,0.9081 0.318982,1.65109 0.722584,1.65109 0.403602,0 0.728764,-0.24768 0.722584,-0.55035 z m 8.642183,-5.09058 c -0.701594,-0.18361 -2.022471,-0.19026 -2.935282,-0.0139 -0.912809,0.17556 -0.338773,0.3258 1.275631,0.33393 1.614404,0.008 2.361248,-0.13535 1.659651,-0.31912 z M 170.3105,279.20133 c 1.12931,-0.70613 1.05875,-0.75309 -0.48761,-0.32441 -0.99443,0.27568 -3.47108,0.77277 -5.50364,1.10465 l -3.6956,0.60342 4.18321,-0.27901 c 2.30075,-0.15337 4.7774,-0.65058 5.50364,-1.10465 z m -11.15449,-0.0222 c -1.4004,-0.60176 -1.39197,-0.63302 0.1836,-0.68222 1.46327,-0.0458 1.65109,-0.43217 1.65109,-3.39709 0,-3.92583 -0.81638,-3.78657 -2.18932,0.37342 -0.53946,1.63465 -1.34669,2.97208 -1.79381,2.97208 -1.17241,0 -6.48149,-3.72258 -5.99824,-4.20581 0.22355,-0.22354 0.85191,-0.0363 1.39663,0.41569 0.78054,0.64781 1.25741,0.2621 2.25066,-1.82083 0.69312,-1.45353 1.0797,-2.82333 0.85898,-3.04405 -0.40247,-0.40243 -4.19722,2.62983 -4.68866,3.74658 -0.14393,0.32736 -0.97069,0.006 -1.83693,-0.71817 -0.86625,-0.72238 -0.41921,-0.0419 0.99339,1.51239 2.52578,2.77893 7.37826,5.58379 9.53968,5.51414 0.72218,-0.0222 0.596,-0.25238 -0.36694,-0.66613 z M 40.582836,278.90568 c -0.749181,-0.67036 -5.075592,-2.66245 -5.075592,-2.33706 0,0.45616 3.804555,2.54177 4.708681,2.58126 0.369968,0.0166 0.535079,-0.0937 0.366911,-0.24406 z m 124.207804,-5.2543 c -0.24019,-5.20644 -0.84195,-6.7675 -2.2685,-5.88586 -0.87934,0.54347 -1.05978,5.51726 -0.33216,9.15536 0.32454,1.62264 0.82479,2.25452 1.6511,2.0855 0.98304,-0.20108 1.1452,-1.11566 0.94956,-5.355 z m -120.477551,1.49188 c 0,-1.81622 -0.181968,-3.3022 -0.404353,-3.3022 -0.476313,0 -2.530927,4.74661 -2.530927,5.847 0,0.41658 0.660438,0.75738 1.467642,0.75738 1.25021,0 1.467638,-0.48921 1.467638,-3.30218 z m 4.114525,2.14145 c -0.244983,-0.63843 -0.450476,-2.86741 -0.456659,-4.9533 -0.0061,-2.08589 -0.336396,-4.28788 -0.733819,-4.89327 -1.259456,-1.91857 -2.166619,0.60187 -2.178988,6.05401 -0.01107,4.85139 0.02812,4.95329 1.901824,4.95329 1.442978,0 1.803612,-0.28522 1.467642,-1.16073 z m 3.957502,0.39048 c 0,-0.42365 -0.519677,-1.77521 -1.154838,-3.00348 -0.635163,-1.22827 -0.979535,-2.40853 -0.765274,-2.62278 0.214252,-0.21439 0.960212,0.80709 1.657663,2.26964 1.23674,2.59343 2.666227,3.37911 3.549085,1.95059 0.910068,-1.47253 -4.605182,-10.29868 -6.435378,-10.29868 -0.387011,0 -0.470035,0.88852 -0.18857,2.01803 0.2766,1.10989 0.459754,3.91675 0.407038,6.23748 -0.0864,3.80346 0.05333,4.21945 1.417212,4.21945 0.832184,0 1.51306,-0.3466 1.513062,-0.77025 z m 116.884854,0.21994 c 0.16169,-0.3027 -0.4738,-1.87123 -1.41227,-3.48565 l -1.70625,-2.93527 -0.0107,3.48564 c -0.0107,2.96526 0.20052,3.48565 1.41227,3.48565 0.7834,0 1.55665,-0.24768 1.71835,-0.55037 z m 6.89627,-2.20147 c 1.58921,-1.51349 2.04445,-2.05945 1.01166,-1.21326 -1.03282,0.84622 -2.69434,2.08453 -3.69225,2.75183 -0.99789,0.66731 -1.45315,1.21327 -1.01163,1.21327 0.44148,0 2.103,-1.23831 3.69222,-2.75184 z m -5.15956,-3.66636 c -2.22734,-3.96163 -4.87936,-5.95769 -4.87936,-3.6725 0,0.56333 1.01474,2.89781 2.25502,5.18771 1.94816,3.59689 2.44134,4.06376 3.6241,3.43076 1.29474,-0.69296 1.2405,-0.96146 -0.99976,-4.94597 z m -128.557792,0.18582 c 2.047516,-4.81761 2.10554,-7.96531 0.1164,-6.31447 -1.430033,1.18681 -5.026205,9.47734 -4.488423,10.34749 1.066487,1.72562 2.47793,0.4236 4.372019,-4.03302 z m 24.837293,4.29556 c 0.781373,-0.78137 -0.198027,-1.69638 -1.34468,-1.25633 -0.590134,0.22631 -0.89032,0.70735 -0.666987,1.06865 0.475653,0.76965 1.348307,0.85105 2.011667,0.18777 z M 159.0558,272.6667 c 2.32549,-5.18183 2.32929,-5.22843 0.42653,-5.22843 -1.11455,0 -1.9894,1.05099 -3.35152,4.02629 -1.01381,2.21444 -1.63649,4.36085 -1.38375,4.76982 1.04472,1.69037 2.48386,0.49874 4.30874,-3.56768 z M 39.036863,269.63921 c -0.12508,-0.34719 -1.331911,0.35972 -2.681834,1.57093 -2.321296,2.08276 -2.38099,2.25624 -1.10073,3.19884 1.218085,0.89681 1.486712,0.73944 2.681833,-1.57093 0.730488,-1.41216 1.225817,-2.85163 1.100731,-3.19884 z m 19.967355,4.75263 c 0.510545,-0.61516 0.798629,-1.21742 0.640233,-1.33838 -1.607295,-1.22713 -4.998004,-3.41372 -5.293631,-3.41372 -0.206902,0 0.33942,1.31815 1.213987,2.92922 1.768935,3.25858 2.10156,3.43489 3.439411,1.82288 z m 116.262432,-2.18895 c -4.16597,-3.25403 -4.9032,-2.94867 -2.47947,1.027 1.4038,2.30266 1.60751,2.39951 2.7157,1.29133 1.10817,-1.10817 1.09045,-1.28207 -0.23631,-2.31833 z M 61.479367,271.41427 c 0.244907,-0.6384 0.445427,-1.28299 0.445427,-1.4324 0,-0.51975 -6.506123,-4.744 -8.437695,-5.4784 -3.340279,-1.26998 -1.945609,1.38045 2.569448,4.88296 4.564727,3.54106 4.807327,3.63178 5.42282,2.02784 z m 93.640613,-3.42562 c 3e-5,-1.08774 -3.54164,-0.52192 -5.21508,0.83315 -1.44878,1.17316 -1.56214,1.56001 -0.74544,2.54408 0.86434,1.04144 1.21948,0.95599 3.46183,-0.83319 1.37427,-1.09653 2.49867,-2.24135 2.49869,-2.54404 z m 23.12275,3.84059 c 0.25349,-0.4102 0.74551,-0.56992 1.09333,-0.35495 0.34783,0.21495 0.87327,-0.0277 1.16767,-0.53839 0.29439,-0.5111 0.27125,-0.69079 -0.0511,-0.39936 -0.32253,0.29147 -1.55657,-0.28641 -2.74232,-1.28418 -1.9915,-1.67572 -6.48338,-2.56007 -6.41886,-1.26371 0.0288,0.58165 5.11834,4.43537 5.98332,4.53055 0.27889,0.0308 0.71448,-0.27978 0.96797,-0.68996 z M 38.427851,268.18565 c 3.999121,-3.69582 4.410217,-4.97097 1.333036,-4.13478 -2.481463,0.67429 -8.254626,5.92585 -7.628374,6.93914 0.935254,1.51328 2.263807,0.92144 6.295338,-2.80436 z m 108.956849,2.13908 c -0.26597,-0.43044 0.12734,-1.24549 0.87396,-1.8112 0.74674,-0.56574 0.98535,-1.03906 0.53027,-1.05193 -1.19619,-0.0338 -2.68391,1.97989 -2.12775,2.87983 0.26044,0.42127 0.63852,0.76596 0.84032,0.76596 0.20191,0 0.14922,-0.35221 -0.1168,-0.78266 z M 34.067323,266.64835 c 1.464993,-1.30193 1.971544,-2.07862 1.196449,-1.83455 -0.739313,0.23297 -1.895079,0.42836 -2.568372,0.43455 -1.963712,0.0194 -3.146239,1.10832 -2.638155,2.43235 0.644644,1.67991 1.085958,1.56631 4.010078,-1.03235 z m 29.613511,1.09712 c 0.648,-1.6887 0.669733,-1.66596 -2.08356,-2.18247 -3.866256,-0.72529 -4.572832,-0.053 -1.805747,1.71818 3.002533,1.92187 3.315627,1.95926 3.889307,0.46429 z m 116.389046,0.42692 c 0,-0.4036 -0.51482,-0.73381 -1.14404,-0.73381 -0.62923,0 -0.93996,0.33021 -0.69052,0.73381 0.24933,0.40363 0.76426,0.73384 1.14404,0.73384 0.37977,0 0.69052,-0.33021 0.69052,-0.73384 z m 13.94261,-5.87055 c 0,-5.30295 -0.64496,-5.50968 -5.15049,-1.65108 l -3.21322,2.7518 -16.91548,0.21162 -16.91549,0.21162 -3.92624,-2.96332 c -2.15945,-1.62981 -4.47096,-3.00366 -5.13673,-3.05303 -5.11151,-0.37903 -7.15482,-0.26986 -7.62022,0.40665 -0.67534,0.98187 -0.73286,7.33922 -0.0724,7.99973 0.26903,0.26903 13.64294,0.48921 29.71972,0.48921 h 29.23047 z m -60.17328,-0.33279 v -4.00187 l -2.19683,1.25004 c -2.73872,1.55843 -2.79998,3.25295 -0.18804,5.20163 1.10992,0.82809 2.10056,1.51605 2.20146,1.52884 0.10093,0.0139 0.18361,-1.77759 0.18361,-3.97864 z m 63.91256,2.48428 c 1.17221,-0.83469 2.13129,-2.08437 2.13129,-2.77708 0,-1.34253 -3.87732,-4.05831 -4.66688,-3.26878 -0.59294,0.59294 -0.62317,7.56346 -0.0327,7.56346 0.24046,0 1.39618,-0.68292 2.56837,-1.5176 z M 34.537857,264.09704 c 3.715322,-0.65229 6.51933,-2.40936 5.48911,-3.43957 -0.815075,-0.81508 -9.388882,0.55004 -10.67118,1.69907 -0.980499,0.87858 0.141892,3.09095 1.335698,2.63285 0.573338,-0.21994 2.304207,-0.62157 3.846372,-0.89235 z m 15.499034,-0.47432 c 1.459601,-1.45961 1.046423,-4.7906 -0.750336,-6.0491 -2.088068,-1.46252 -3.424237,-1.44363 -5.099138,0.0721 -1.505053,1.36203 -1.714918,3.3219 -0.582328,5.43815 0.870766,1.62705 4.997838,1.97279 6.431802,0.53881 z m -5.577036,-0.73384 c -1.361575,-1.36156 -1.045508,-3.32359 0.736477,-4.57172 1.377922,-0.96514 1.83914,-0.98547 3.118736,-0.13728 1.832307,1.21434 2.291806,3.09483 1.10551,4.52423 -1.072214,1.29192 -3.753734,1.39188 -4.960723,0.18499 z m 4.178967,-0.86095 c 1.205945,-1.45306 0.200689,-3.39517 -1.757359,-3.39517 -0.922641,0 -1.883667,0.53717 -2.135611,1.19371 -0.513959,1.33935 0.730356,3.20919 2.135611,3.20919 0.506565,0 1.297377,-0.45347 1.757359,-1.00773 z m 8.986858,1.28017 c -1.355518,-0.59151 -2.841501,-0.93245 -3.302206,-0.75767 -1.061195,0.40263 2.341938,1.86429 4.299112,1.84648 1.027468,-0.008 0.728457,-0.33589 -0.996906,-1.08881 z m 7.234381,-0.27236 c 0,-1.22303 -0.489214,-1.46765 -2.935267,-1.46765 -3.393014,0 -3.840072,1.0149 -0.91728,2.08239 3.061266,1.11806 3.852547,0.99181 3.852547,-0.61474 z m 63.294759,-1.10072 c -0.11067,-0.44919 -6.79961,-0.88136 -17.24479,-1.11419 -9.38522,-0.20913 -17.682084,-0.67269 -18.437464,-1.03003 -0.75536,-0.3573 -3.18143,-3.4523 -5.39124,-6.87779 -3.23464,-5.01409 -3.93603,-6.63711 -3.59821,-8.3262 0.46441,-2.32219 -0.89482,-2.9061 -2.43763,-1.04716 -1.45384,1.75179 7.91841,17.42551 11.22655,18.77479 2.23114,0.90998 36.112114,0.55173 35.882784,-0.37942 z m 57.28351,0.25267 c 1.86227,-0.98529 4.87392,-3.69935 4.89237,-4.40897 0.008,-0.26792 -2.74781,-0.38491 -6.12177,-0.25988 -3.37396,0.12508 -6.5936,-0.0635 -7.15476,-0.41885 -0.69407,-0.43952 -0.14033,-0.64972 1.73152,-0.65738 2.82315,-0.0111 3.19301,-0.38038 2.10415,-2.09842 -0.51712,-0.81594 -1.01116,-0.7869 -2.85776,0.16807 -1.22788,0.63497 -2.36502,1.55191 -2.52691,2.03763 -0.21549,0.64675 -4.16148,0.89285 -14.74268,0.91936 -7.94659,0.0194 -14.44835,0.20746 -14.44837,0.4165 0,0.20912 1.2383,1.44105 2.75182,2.7376 l 2.75187,2.35736 16.00883,0.0277 c 10.74638,0.0194 16.53574,-0.25128 17.61169,-0.82048 z m -32.78435,-1.12879 c -0.87702,-0.87703 -0.47384,-2.42608 0.63148,-2.42608 0.6054,0 1.10071,0.47582 1.10071,1.05739 0,1.22597 -1.04735,2.05352 -1.73219,1.36869 z m 7.2598,-0.18582 c -0.6452,-1.04397 0.1775,-2.24018 1.54082,-2.24018 0.64292,0 1.01124,0.51554 0.87394,1.22336 -0.28582,1.47384 -1.75101,2.0908 -2.41476,1.01682 z m 8.18567,0.22105 c -1.00815,-1.00817 -0.48523,-2.56527 0.77968,-2.32167 0.70629,0.1359 1.28419,0.7106 1.28419,1.27684 0,1.15859 -1.29467,1.814 -2.06387,1.04483 z m 8.03675,-0.0352 c -0.877,-0.87707 -0.47383,-2.42612 0.63146,-2.42612 0.6054,0 1.10075,0.47582 1.10075,1.0574 0,1.22596 -1.04737,2.05352 -1.73221,1.36869 z m 7.19638,-0.28861 c -0.75621,-1.22359 0.94458,-2.6267 1.9569,-1.6144 0.84674,0.84675 0.3168,2.41214 -0.81666,2.41214 -0.35597,0 -0.86906,-0.35898 -1.14024,-0.79774 z m 19.48575,1.16467 c 0.76324,-0.91964 0.65727,-1.10074 -0.64397,-1.10074 -0.8952,0 -1.5575,0.46805 -1.5575,1.10074 0,0.6054 0.28982,1.10072 0.64399,1.10072 0.35417,0 1.05504,-0.49532 1.55748,-1.10072 z M 34.26892,259.36272 c -0.327924,-0.29474 -1.669439,-0.73639 -2.981144,-0.98146 -2.144852,-0.40077 -2.384917,-0.27069 -2.384917,1.29256 0,1.66729 0.121586,1.70731 2.981146,0.98148 1.63963,-0.41619 2.712842,-0.99784 2.384915,-1.29258 z m 29.306967,1.00206 c 0.706294,-0.19969 1.284174,-0.99513 1.284174,-1.76741 0,-1.24483 -0.39552,-1.35654 -3.485641,-0.98445 -6.567138,0.79072 -9.921281,2.38654 -7.338197,3.4913 0.938579,0.40144 7.230784,-0.0863 9.539664,-0.73944 z m 33.080289,-1.46474 c -3.7246,-1.31985 -5.8996,-3.4358 -8.31385,-8.08806 -1.86703,-3.59781 -4.40292,-6.70848 -4.40292,-5.40089 0,0.8751 5.55811,10.11014 7.23672,12.0241 1.53958,1.75549 3.5686,2.57514 6.33896,2.56077 2.066206,-0.0111 2.013416,-0.0782 -0.85891,-1.09592 z m 32.633344,0.31979 c 1.26928,-1.26927 1.08313,-4.22451 -0.29951,-4.75508 -0.76352,-0.29299 -1.94235,0.36275 -3.3394,1.85761 l -2.15928,2.31043 -9.68594,0.0732 c -5.32724,0.0402 -10.51145,0.3375 -11.52045,0.66062 -1.06927,0.34244 3.99691,0.61804 12.14472,0.66067 9.98028,0.0521 14.23119,-0.17889 14.85986,-0.80742 z m -88.428267,-0.58707 c 0.48797,0 0.362652,-0.46842 -0.303556,-1.13461 -1.034538,-1.03454 -7.799037,-3.23869 -10.003741,-3.2596 -0.961661,-0.008 -1.322729,2.90271 -0.366911,2.95893 0.302702,0.0166 2.201462,0.49104 4.219468,1.05162 2.018006,0.56055 4.108886,0.87618 4.646396,0.70142 0.537512,-0.17473 1.351267,-0.31776 1.808344,-0.31776 z m 37.715153,-7.02906 c -2.28485,-8.03182 -8.522532,-16.02171 -15.399332,-19.7251 -2.87932,-1.55063 -3.040267,-1.51835 -3.73506,0.74871 -0.371787,1.2131 0.106506,1.8333 2.41402,3.13019 6.661987,3.74425 12.410042,12.42196 13.740842,20.7443 l 0.4782,2.9906 1.84726,-1.84723 1.84723,-1.84723 z m 56.730454,4.07493 c 0,-0.39326 -0.99066,-0.71498 -2.20146,-0.71498 -1.86502,0 -2.20146,0.28328 -2.20146,1.85339 0,1.8231 0.036,1.83477 2.20146,0.71498 1.2108,-0.62615 2.20146,-1.46017 2.20146,-1.85339 z M 58.462111,255.274 c 4.390523,-2.74631 4.572216,-2.98389 3.534483,-4.62222 -0.511867,-0.80811 -1.35188,-0.5314 -4.20822,1.38633 -3.598776,2.41619 -5.403258,4.17525 -5.403258,5.26726 0,1.19423 1.976327,0.53359 6.076995,-2.03137 z m 44.931589,-0.45374 c 2.13571,-2.53811 2.27496,-4.18942 0.6254,-7.41472 l -1.20112,-2.34848 1.57251,1.402 c 0.86489,0.77109 1.79065,1.18386 2.05724,0.91728 0.26653,-0.26654 0.0799,-0.48473 -0.41472,-0.48473 -0.49468,0 -0.69534,-0.33021 -0.4459,-0.73381 0.24935,-0.4036 0.18639,-0.77641 -0.14005,-0.82844 -8.052684,-1.28352 -9.797434,-1.1178 -11.716004,1.11267 -3.0213,3.51246 -2.00126,8.59073 2.06931,10.30229 3.0126,1.26668 5.422344,0.65609 7.593414,-1.92406 z M 94.546466,254.63 c -2.20126,-2.20124 -2.29786,-4.70771 -0.28032,-7.27261 3.19144,-4.05723 9.486424,-1.68814 9.486424,3.57016 0,5.13953 -5.540704,7.36784 -9.206104,3.70245 z m 3.88588,-1.63994 c -0.70629,-0.18472 -1.86206,-0.18472 -2.56836,0 -0.70629,0.18443 -0.1284,0.33559 1.28419,0.33559 1.41263,0 1.990476,-0.15116 1.28417,-0.33559 z m 2.568384,-1.49264 c -1.311698,-0.16281 -3.458114,-0.16281 -4.769834,0 -1.31169,0.1628 -0.23852,0.29598 2.38492,0.29598 2.623404,0 3.696634,-0.13313 2.384914,-0.29598 z m 0,-1.46762 c -1.311698,-0.16281 -3.458114,-0.16281 -4.769834,0 -1.31169,0.1628 -0.23852,0.29595 2.38492,0.29595 2.623404,0 3.696634,-0.13313 2.384914,-0.29595 z m -0.35376,-1.46114 c -1.102658,-0.16752 -3.083994,-0.17084 -4.402924,-0.008 -1.31894,0.16336 -0.41675,0.30031 2.00488,0.30442 2.421584,0.003 3.500734,-0.12952 2.398044,-0.29693 z m -0.38006,-1.46119 c -0.908098,-0.175 -2.394084,-0.175 -3.302174,0 -0.90813,0.17501 -0.16503,0.31801 1.65108,0.31801 1.816204,0 2.559204,-0.14311 1.651094,-0.31801 z m 3.48566,10.05753 c 0,-0.4036 -0.14562,-0.73381 -0.32359,-0.73381 -0.17807,0 -0.52772,0.33021 -0.77713,0.73381 -0.24934,0.40363 -0.10374,0.73384 0.32358,0.73384 0.42742,0 0.77714,-0.33021 0.77714,-0.73384 z m 4.40292,0.41023 c 0,-0.17806 -0.33022,-0.52769 -0.73382,-0.77714 -0.4036,-0.24933 -0.73381,-0.10373 -0.73381,0.32361 0,0.42743 0.33021,0.77714 0.73381,0.77714 0.4036,0 0.73382,-0.14561 0.73382,-0.32361 z m 8.07202,-0.41023 c 0,-0.4036 -0.31073,-0.73381 -0.6905,-0.73381 -0.37978,0 -0.8946,0.33021 -1.14404,0.73381 -0.24935,0.40363 0.0613,0.73384 0.69052,0.73384 0.62921,0 1.14402,-0.33021 1.14402,-0.73384 z m 8.66376,-1.38342 c 2.02335,-2.16729 5.27883,-3.66556 5.27883,-2.42947 0,0.73999 21.90246,3.48337 23.51612,2.94548 0.90732,-0.30242 -24.07709,-6.73247 -26.43939,-6.80449 -1.37878,-0.0422 -1.9489,-2.60157 -0.57949,-2.60157 0.55428,0 1.35141,0.34361 1.77137,0.7636 0.89693,0.89692 9.98123,-14.32962 9.63635,-16.15181 -0.25905,-1.36858 -5.28062,-1.86875 -10.10643,-1.00669 -3.26518,0.58329 -3.24049,0.59419 2.20147,0.97075 7.0016,0.48447 7.19156,1.2722 2.18288,9.05149 -4.67956,7.26814 -5.60535,7.28017 -10.39905,0.13507 -3.6933,-5.50481 -4.28755,-7.92185 -2.24078,-9.11398 0.99154,-0.5775 0.40622,-0.75306 -2.56836,-0.77028 -4.01124,-0.0222 -5.19682,1.07997 -2.01801,1.87782 1.00901,0.25322 1.83455,0.57386 1.83455,0.71248 0,0.13868 -0.98418,3.15735 -2.18704,6.70828 l -2.18707,6.45625 -2.50527,-0.15254 c -1.79256,-0.109 -2.63185,0.20413 -2.95016,1.10072 -0.24462,0.68929 -0.65264,1.71199 -0.90652,2.27268 -0.27957,0.61738 -0.1517,0.82795 0.32392,0.53393 0.52419,-0.32397 0.65543,0.31629 0.39447,1.92439 -0.31047,1.9131 -0.0367,2.71065 1.32764,3.869 l 1.71875,1.4591 -1.28419,-1.52542 c -1.61995,-1.92425 -1.63404,-3.84298 -0.0411,-5.60312 1.1766,-1.30013 1.16679,-1.34903 -0.1836,-0.91515 -1.41182,0.45369 -1.41182,0.44645 -0.003,-0.70225 0.7836,-0.63834 2.03694,-1.16062 2.78534,-1.16062 1.99043,0 4.96314,3.30243 4.96314,5.5136 0,1.05118 0.30589,1.72217 0.67976,1.49111 0.8717,-0.53875 -0.26071,-4.59144 -1.73943,-6.22552 -0.98672,-1.09032 -0.9342,-1.74267 0.49432,-6.13636 0.87912,-2.70397 1.77876,-4.90462 1.99916,-4.89031 0.22049,0.0139 2.00887,2.69842 3.97433,5.96468 3.4426,5.72094 3.54239,6.04283 2.72239,8.77983 -0.77525,2.58753 -1.07789,2.84117 -3.39016,2.84117 -2.04969,0 -2.53891,0.28278 -2.53891,1.46765 0,2.37022 4.02032,1.96607 6.4623,-0.64961 z m 3.31324,-4.09401 c 0.13924,-0.41802 0.69363,-0.76002 1.23178,-0.76002 0.53813,0 1.09243,0.342 1.23176,0.76002 0.13923,0.41802 -0.41495,0.76002 -1.23176,0.76002 -0.81683,0 -1.37111,-0.342 -1.23178,-0.76002 z m -64.26361,4.43975 c 0.503614,-0.50361 -0.36788,-2.63226 -1.075813,-2.62777 -0.315373,0.002 -1.564053,0.85027 -2.774853,1.88503 l -2.20146,1.88137 2.842753,-0.38598 c 1.563493,-0.21218 3.007747,-0.55101 3.209373,-0.75265 z m 50.17876,-0.24656 c 0.91279,-1.1639 0.88683,-1.18986 -0.27707,-0.27707 -1.22236,0.95863 -1.61106,1.56123 -1.00712,1.56123 0.15227,0 0.73027,-0.57789 1.28419,-1.28419 z m 81.78602,-2.62914 c -2.24014,-9.63689 -8.78491,-17.8174 -17.83188,-22.28866 -4.92626,-2.43468 -6.24692,-2.75569 -12.45439,-3.02716 -3.81911,-0.16696 -7.23768,-0.0111 -7.59685,0.34932 -0.35916,0.35917 -0.47019,1.35219 -0.24684,2.20671 0.3687,1.40993 1.02849,1.58175 7.1307,1.85677 8.1091,0.36546 13.26627,2.43604 18.68006,7.5 3.70305,3.46376 7.3165,9.80419 8.00482,14.04587 0.31699,1.95337 0.79359,2.51727 2.32714,2.75349 1.06066,0.16336 2.14637,0.34655 2.41266,0.40701 0.26626,0.0605 0.0749,-1.65103 -0.42552,-3.80335 z m -153.060229,2.2277 c 0,-0.87689 -3.73881,-4.76902 -6.78784,-7.06622 -1.035452,-0.78013 -1.500056,-0.7884 -2.398686,-0.0424 -0.965566,0.80134 -0.705282,1.27913 1.947831,3.5755 4.807311,4.16088 7.238695,5.34769 7.238695,3.5333 z m 134.156909,-1.42369 c 1.88894,-1.30648 3.76464,-2.26963 4.16824,-2.1403 0.40362,0.12924 0.5137,0.0139 0.24461,-0.25405 -0.26903,-0.26903 -0.63108,-0.37914 -0.80451,-0.24463 -0.17333,0.13452 -0.83653,-0.18804 -1.47364,-0.71675 -0.98384,-0.81652 -1.77486,-0.55206 -5.24953,1.75498 -2.25013,1.494 -4.09112,2.99984 -4.09112,3.34631 0,1.43842 4.00543,0.46816 7.20595,-1.74556 z m 9.52513,1.49489 c 0.68491,-0.68489 0.88059,-0.68489 0.88059,0 0,0.48434 0.33021,0.88058 0.73384,0.88058 0.40358,0 0.7338,-0.49531 0.7338,-1.10071 0,-0.6054 -0.24767,-1.06164 -0.55038,-1.01383 -1.95412,0.30853 -3.23269,-0.19913 -2.87156,-1.14024 0.22244,-0.57932 0.0107,-1.2367 -0.47185,-1.46085 -0.48181,-0.2241 -0.16087,-0.23214 0.71328,-0.0166 2.09228,0.5134 2.59079,-0.4338 1.18215,-2.24617 -0.91894,-1.1824 -1.05032,-1.21568 -0.69176,-0.17528 0.32836,0.95272 0.0493,1.28418 -1.08052,1.28418 -1.02192,0 -1.39011,-0.34661 -1.11895,-1.05332 0.22244,-0.57933 0.17501,-1.18564 -0.1048,-1.34739 -0.28004,-0.1617 -0.10507,-0.19692 0.38871,-0.0779 0.49385,0.11898 1.19909,-0.32206 1.56722,-0.97988 0.56915,-1.01701 0.83512,-0.87515 1.77703,0.94776 0.60925,1.1791 1.52939,3.62978 2.04481,5.44598 0.5154,1.81622 1.05976,2.77521 1.2097,2.13113 0.59289,-2.54713 -2.88098,-9.55225 -6.87783,-13.86934 -5.54621,-5.99052 -10.39769,-8.23744 -18.69544,-8.65857 l -6.33555,-0.32153 0.36544,1.91166 c 0.20108,1.05143 0.64348,1.73984 0.98331,1.52983 0.33981,-0.20995 0.43184,-0.86661 0.20441,-1.45911 -0.32896,-0.85723 0.32475,-1.07722 3.20106,-1.07722 4.96412,0 10.8462,1.87604 15.43844,4.92395 3.62506,2.40595 5.24994,4.57513 2.69184,3.5935 -0.63846,-0.2449 -1.29888,-0.44542 -1.46768,-0.44542 -0.1689,0 -0.30688,-0.49532 -0.30688,-1.10074 0,-1.3236 -0.33343,-1.3632 -2.11422,-0.251 -0.80964,0.50563 -1.91978,0.60822 -2.74186,0.25322 -1.27363,-0.54977 -1.2812,-0.62024 -0.0971,-0.90344 0.70631,-0.16891 1.28419,-0.77825 1.28419,-1.35408 0,-1.33236 -0.37603,-1.31516 -2.56191,0.11704 -1.82172,1.19363 -3.31735,0.89565 -3.29737,-0.6569 0.005,-0.52513 0.29514,-0.43464 0.72254,0.22687 0.57,0.88203 0.71356,0.75708 0.72258,-0.62889 0.008,-1.20381 -0.30896,-1.60671 -1.04206,-1.3254 -0.57933,0.22244 -1.18564,0.17501 -1.34736,-0.10484 -0.16169,-0.28004 -0.20274,-0.12037 -0.0909,0.35448 0.11173,0.47499 -0.27264,1.25842 -0.85411,1.74095 -0.80713,0.66986 -1.0571,0.67233 -1.0571,0.0111 0,-0.47684 -0.33022,-0.66289 -0.73382,-0.41347 -0.4036,0.24934 -0.73381,0.0635 -0.73381,-0.41344 0,-0.64609 -0.28048,-0.63422 -1.10075,0.0466 -0.8874,0.73647 -1.1029,0.71833 -1.11197,-0.0935 -0.008,-0.79383 -0.16891,-0.774 -0.75611,0.0935 -0.55265,0.81665 -0.6239,0.57993 -0.27624,-0.91728 0.25794,-1.1099 0.175,-2.018 -0.18361,-2.018 -0.8326,0 -2.52257,4.41252 -2.00853,5.24427 0.213,0.34446 2.16826,0.62628 4.34522,0.62628 2.17703,0 4.88183,0.39786 6.0107,0.8841 2.91358,1.25501 8.29004,5.10379 8.29004,5.93454 0,0.3846 -0.55302,0.24601 -1.22891,-0.30786 -1.06952,-0.87651 -1.0586,-0.74543 0.0843,1.01088 1.50981,2.31997 2.0085,2.57644 1.42696,0.73384 -0.29494,-0.93447 0.008,-0.81513 1.11566,0.43819 0.83655,0.94734 1.90712,3.01121 2.37906,4.58638 0.88252,2.94562 1.87534,3.52234 3.41428,1.98341 z m -5.35689,-9.39289 c 0.24933,-0.40359 0.0843,-0.73383 -0.36691,-0.73383 -0.45125,0 -0.6158,-0.3311 -0.36569,-0.73581 0.3005,-0.48622 0.95877,-0.46606 1.94076,0.0593 0.81726,0.43741 1.6778,0.6034 1.91226,0.3689 0.23464,-0.23436 0.0411,-0.42637 -0.42974,-0.42637 -0.47084,0 -0.85611,-0.5687 -0.85611,-1.2638 0,-1.07997 0.24019,-1.02308 1.65107,0.39107 1.41304,1.41625 1.49238,1.75559 0.5504,2.35331 -1.46658,0.93056 -4.61291,0.92049 -4.03604,-0.0139 z m -2.80595,-3.22981 c -0.25849,-0.67335 0.0311,-0.94604 0.83876,-0.78998 0.67837,0.13119 1.50052,0.26376 1.82704,0.29455 0.32655,0.0308 0.38961,0.38634 0.14005,0.78994 -0.66302,1.07285 -2.34914,0.89587 -2.80593,-0.29451 z m -126.152502,5.42149 c 1.604192,-4.58265 2.15756,-7.105 1.666484,-7.59608 -1.000126,-1.00012 -0.989252,-1.02092 -3.594945,6.87386 -2.586273,7.83593 -2.670635,8.31555 -1.387369,7.88779 0.502769,-0.16752 1.994892,-3.3921 3.31583,-7.16557 z m 53.509342,5.74274 c -0.23436,-0.58537 -0.40815,-0.4115 -0.44334,0.44337 -0.0319,0.77356 0.14144,1.20697 0.3854,0.96312 0.24379,-0.24379 0.26987,-0.87675 0.058,-1.40649 z m 51.87409,-0.56174 c -1.08598,-2.17695 -4.9736,-5.90505 -6.15769,-5.90505 -0.34879,0 -0.87556,0.39053 -1.17057,0.86788 -0.59898,0.96914 5.83653,7.20415 7.43581,7.20415 0.78449,0 0.7636,-0.42071 -0.1076,-2.16698 z m 5.59644,1.84337 c 0,-0.77452 -1.40826,-1.09991 -1.82714,-0.42218 -0.25351,0.4102 0.0537,0.74579 0.6831,0.74579 0.62923,0 1.14404,-0.14561 1.14404,-0.32361 z m 3.39528,-7.67148 c 0.455,-4.89534 0.39443,-5.21368 -0.99182,-5.21368 -1.17578,0 -1.55928,0.61813 -1.88356,3.03573 -0.22411,1.66967 -0.10174,3.83899 0.27152,4.82078 0.37325,0.98176 0.47737,2.67021 0.2313,3.75209 -0.44345,1.95016 -0.43724,1.95354 0.72036,0.39293 0.65147,-0.87829 1.38187,-3.87896 1.6522,-6.78785 z m 3.45204,5.61016 c 3.86511,-5.16338 4.84856,-8.62238 2.45148,-8.62238 -1.02261,0 -5.62969,8.03313 -5.62969,9.81624 0,1.86822 1.23265,1.40521 3.17821,-1.19386 z M 35.020661,252.67055 c -1.2611,-1.26108 -2.658181,-2.06714 -3.104625,-1.79123 -1.532803,0.94731 -0.809217,2.405 1.573201,3.16927 3.787524,1.21501 3.96487,1.05543 1.531424,-1.37804 z m 10.762179,1.00875 c 0.0025,-1.53241 -3.700367,-10.46182 -4.331664,-10.44573 -0.242153,0.006 -0.871684,0.28486 -1.398961,0.61926 -1.469296,0.9319 3.188802,11.11065 5.08455,11.11065 0.354182,0 0.644915,-0.57788 0.646075,-1.28418 z m 9.423076,-3.44643 c 1.985296,-3.39761 2.283142,-4.37879 1.482822,-4.88526 -1.705034,-1.07903 -2.306162,-0.37049 -4.035712,4.75674 -2.042815,6.05589 -0.942967,6.11125 2.55289,0.12841 z m -31.4398,2.89606 c 0,-0.6054 -0.33022,-1.10075 -0.73382,-1.10075 -0.403602,0 -0.733822,0.49535 -0.733822,1.10075 0,0.60539 0.33022,1.10071 0.733822,1.10071 0.4036,0 0.73382,-0.49532 0.73382,-1.10071 z m 91.495034,-0.5045 c -0.23436,-0.5854 -0.40812,-0.41151 -0.44334,0.44334 -0.0319,0.77356 0.14145,1.20697 0.38542,0.96315 0.2438,-0.24379 0.26987,-0.87678 0.058,-1.40649 z m 8.15248,-0.77292 c 0.88767,-1.86065 0.72963,-2.39816 -2.11062,-7.179 -1.68856,-2.84228 -3.26132,-4.97659 -3.49502,-4.7429 -0.2338,0.23381 -0.96276,1.84183 -1.62013,3.5736 -1.12825,2.9723 -1.11952,3.24213 0.15615,4.81739 0.74318,0.91781 1.35128,2.40265 1.35128,3.29968 0,2.15825 0.66444,2.72136 2.90237,2.45959 1.17593,-0.13756 2.20836,-0.95449 2.81609,-2.22836 z m 27.91343,0.45313 c -1.90402,-1.90406 -3.54526,-1.86576 -3.54526,0.0827 0,0.91148 1.39817,1.46688 4.38625,1.74234 0.69905,0.0644 0.4004,-0.58371 -0.84099,-1.8251 z m -60.252174,-0.69756 c -0.13923,-1.03878 -0.69387,-2.16124 -1.23276,-2.49429 -1.27908,-0.79053 -0.35671,-3.23672 1.02112,-2.70801 0.57247,0.21966 1.43567,-0.0763 1.9182,-0.65768 1.05024,-1.26546 0.24878,-1.33588 -2.86197,-0.25155 -2.72191,0.94887 -2.77538,1.27777 -0.82842,5.09419 1.71708,3.36572 2.34119,3.68578 1.98383,1.01729 z M 48.98539,248.04492 c 1.536826,-4.63815 1.508176,-5.5564 -0.173372,-5.5564 -1.451226,0 -2.272968,2.88416 -2.2894,8.03534 -0.01027,3.17502 0.889345,2.26961 2.46276,-2.47894 z m 11.07459,1.09697 c 0.209667,-0.33906 -0.0976,-1.01369 -0.682505,-1.49913 -0.871127,-0.72297 -1.333747,-0.43935 -2.557551,1.56794 -0.82173,1.34783 -1.495274,2.72074 -1.496772,3.05093 -0.0028,0.63122 4.080866,-2.05841 4.736828,-3.11974 z m 116.9905,-1.25104 c -1.2418,-1.49628 -1.84667,-1.24367 -3.52514,1.47214 -2.14552,3.4715 -1.93584,3.69008 1.41354,1.47356 2.32344,-1.53757 2.76686,-2.15617 2.1116,-2.9457 z m -30.55132,1.64052 c 0.65488,-1.37327 2.53222,-3.57495 4.17194,-4.89267 3.31871,-2.66699 3.70972,-3.6178 1.48779,-3.6178 -1.28651,0 -1.37995,-0.21217 -0.67435,-1.5305 0.45051,-0.84178 0.62723,-1.72237 0.39274,-1.95686 -0.23436,-0.23464 -0.42638,-0.041 -0.42638,0.42975 0,0.47088 -0.48708,0.85615 -1.08238,0.85615 -0.81127,0 -0.97211,0.5514 -0.6421,2.20146 0.2805,1.40239 0.14062,2.20146 -0.38526,2.20146 -0.45404,0 -1.0732,0 -1.3759,0 -0.3027,0 -0.55037,-0.33024 -0.55037,-0.73384 0,-0.4036 -0.33021,-0.65127 -0.73381,-0.55037 -0.4036,0.10096 -0.6893,0.34857 -0.63491,0.55037 0.0544,0.20191 0.32433,1.1099 0.59981,2.01803 0.30151,0.99385 0.18916,1.65108 -0.28236,1.65108 -1.28069,0 -1.89574,-0.33176 -1.70057,-0.91727 0.10093,-0.3027 -0.34719,-0.55038 -0.99577,-0.55038 -0.72314,0 -1.02292,0.4074 -0.77506,1.05332 0.22244,0.57933 0.17502,1.18564 -0.1048,1.34739 -0.28001,0.1617 -0.1176,0.20164 0.36072,0.0888 1.25479,-0.29632 1.61156,1.37155 0.52571,2.4574 -1.25417,1.25415 -2.01189,1.16462 -1.49709,-0.17695 0.2471,-0.64395 0.0107,-1.10074 -0.56974,-1.10074 -1.25545,0 -2.02765,2.74751 -0.90194,3.2091 2.6603,1.09076 4.63357,0.39711 5.79422,-2.03683 z m -31.73929,1.48596 c 0,-0.15227 -0.57789,-0.73027 -1.28418,-1.28419 -1.16387,-0.91278 -1.18983,-0.88682 -0.27708,0.27707 0.95864,1.22237 1.56124,1.61107 1.56124,1.00712 z m 28.7329,-7.91889 c 1.16412,-1.48074 3.65264,-3.70974 5.53008,-4.95329 1.8774,-1.24356 3.17537,-2.26101 2.88432,-2.26101 -3.5476,0 -13.75912,11.10349 -13.63261,14.82344 0.0167,0.52452 0.72302,-0.36718 1.56705,-1.98158 0.84403,-1.61439 2.48708,-4.14682 3.65116,-5.62756 z m -103.939666,4.80414 c -0.610817,-1.46191 -1.110576,-2.79441 -1.110576,-2.96112 0,-0.16669 -0.722899,0.0838 -1.606436,0.55664 -1.602255,0.85748 -1.600316,0.86519 0.745396,2.96109 1.293508,1.15575 2.516164,2.10137 2.717015,2.10137 0.200857,0 -0.13457,-1.1961 -0.745399,-2.65798 z m 99.667956,-1.64374 c 2.77326,-4.49306 7.36948,-9.12957 10.4347,-10.52616 1.84925,-0.84259 2.26142,-2.37877 1.12132,-4.17949 -1.5346,-2.42384 -12.76276,7.12511 -16.12302,13.71177 -2.1553,4.22475 -2.06769,4.53616 1.46576,5.21048 0.24519,0.0469 1.64088,-1.85067 3.10124,-4.2166 z m -69.224266,2.83407 c 0,-0.4036 -0.1456,-0.73381 -0.323573,-0.73381 -0.178067,0 -0.527694,0.33021 -0.777134,0.73381 -0.249346,0.4036 -0.103733,0.73384 0.3236,0.73384 0.427427,0 0.777107,-0.33024 0.777107,-0.73384 z m 90.626856,0 c 0.92508,-0.39753 1.06073,-0.63067 0.36691,-0.63067 -0.6054,0 -1.76116,0.28382 -2.56836,0.63067 -0.92508,0.39752 -1.06074,0.63066 -0.36691,0.63066 0.6054,0 1.76116,-0.28378 2.56836,-0.63066 z M 45.780732,245.79073 c 0,-2.86888 -0.202881,-3.30221 -1.546152,-3.30221 -1.181589,0 -1.423429,0.30281 -1.025673,1.28419 0.286262,0.70629 0.849224,2.19231 1.251029,3.3022 1.021211,2.82093 1.320796,2.52963 1.320796,-1.28418 z m 87.932528,-0.4008 c 2.18624,-4.66111 7.75778,-10.73442 12.38804,-13.50373 6.11167,-3.6553 6.66898,-7.55383 0.94668,-6.62236 -4.50937,0.73401 -12.27321,3.58247 -10.51024,3.85608 3.73575,0.57974 3.56887,1.89701 -1.33808,10.56316 -5.59138,9.8748 -5.38773,9.4171 -4.17344,9.37976 0.53814,-0.0166 1.7473,-1.66936 2.68704,-3.67291 z m 8.19799,-15.69995 c 0,-0.58157 0.26348,-1.22023 0.5854,-1.41922 0.93877,-0.58019 2.58684,0.7657 2.03367,1.66077 -0.72811,1.17809 -2.61907,1.0037 -2.61907,-0.24158 z m 4.40292,-2.24478 c 0,-0.75581 0.48092,-1.11572 1.28419,-0.96102 1.54677,0.29788 1.44922,1.60023 -0.14479,1.9321 -0.66483,0.1384 -1.13948,-0.26598 -1.13948,-0.97108 z m 9.52843,20.73043 c -0.0221,-1.75629 -1.29015,-2.97266 -2.58296,-2.47654 -1.20426,0.46212 -1.20206,0.5694 0.0397,1.94148 1.4984,1.65572 2.55973,1.87901 2.54329,0.53506 z m 13.56806,-1.24774 c 1.48927,-2.87991 1.41172,-3.70553 -0.34806,-3.70553 -1.22303,0 -1.46766,0.48919 -1.46766,2.93527 0,3.50359 0.32988,3.64352 1.81572,0.77026 z m -18.69357,-0.40335 c 0.94789,-1.009 1.55835,-1.83456 1.35655,-1.83456 -0.20191,0 -1.14246,0.82556 -2.09039,1.83456 -0.94789,1.009 -1.55837,1.83456 -1.35655,1.83456 0.20192,0 1.14247,-0.82556 2.09039,-1.83456 z m 10.07472,0.65738 c -0.24379,-0.2438 -0.87676,-0.26987 -1.40647,-0.058 -0.5854,0.23436 -0.41153,0.40814 0.44335,0.44334 0.77355,0.0319 1.20697,-0.14173 0.96312,-0.38541 z m -1.6358,-1.02429 c 0.96772,-0.41585 1.09269,-0.64442 0.36693,-0.67102 -0.60542,-0.0222 -1.59606,0.27977 -2.20146,0.67102 -1.3414,0.86689 -0.18278,0.86689 1.83453,0 z m -99.43268,-0.27707 c 0,-0.15226 -0.577886,-0.73026 -1.284184,-1.28418 -1.163898,-0.91279 -1.189856,-0.88683 -0.277072,0.27707 0.95863,1.22236 1.561228,1.6111 1.561228,1.00711 z m 117.41127,-0.0588 c 0,-0.58221 -6.65311,-4.2628 -7.02795,-3.88797 -0.19664,0.19665 0.633,0.76749 1.84335,1.26885 1.21036,0.50134 2.58226,1.37133 3.04865,1.93332 0.80781,0.97333 2.13595,1.39978 2.13595,0.6858 z m -45.46235,-6.02583 c 2.02072,-3.09541 3.55573,-5.98481 3.41115,-6.42094 -0.16059,-0.48398 -3.31319,-0.87407 -8.09173,-1.00121 -9.31797,-0.24795 -9.35985,-0.18555 -4.78232,7.10029 2.94216,4.68293 4.02574,5.91478 5.22375,5.9386 0.31083,0.006 2.21847,-2.52135 4.23915,-5.61674 z m -7.02047,-3.20156 c -0.83707,-1.35446 0.74052,-2.30266 3.40699,-2.04775 3.51113,0.33565 3.35449,2.36532 -0.20551,2.66206 -1.47603,0.12314 -2.91672,-0.15338 -3.20159,-0.61431 z m 4.78451,-0.71012 c 0,-0.4036 -0.82556,-0.73381 -1.83456,-0.73381 -1.009,0 -1.83456,0.33021 -1.83456,0.73381 0,0.4036 0.82556,0.73381 1.83456,0.73381 1.009,0 1.83456,-0.33021 1.83456,-0.73381 z m -22.07578,8.54522 c -0.16806,-0.14339 -1.92738,-0.80182 -3.90934,-1.46327 -3.883398,-1.29605 -4.046708,-0.67141 -0.19636,0.75079 2.23024,0.82378 4.74905,1.26088 4.10565,0.71248 z m 55.83151,-0.84009 c 0,-0.60543 -0.33021,-1.10075 -0.73381,-1.10075 -0.4036,0 -0.73381,0.49532 -0.73381,1.10075 0,0.6054 0.33021,1.10071 0.73381,1.10071 0.4036,0 0.73381,-0.49531 0.73381,-1.10071 z m -67.878404,-0.70733 c 2.83407,-1.29769 1.51585,-1.31674 -1.83456,-0.0277 -1.41258,0.544 -2.07301,0.99929 -1.46761,1.0118 0.6054,0.0139 2.09137,-0.43089 3.30217,-0.98531 z m -12.64284,-1.57085 c 0.24407,-0.24407 -0.43549,-2.23607 -1.50994,-4.42686 -3.15715,-6.43733 -3.0956,-6.46637 14.21143,-6.70326 8.017074,-0.10982 14.851834,-0.47482 15.188344,-0.81133 0.3365,-0.3365 -0.38624,-1.02525 -1.60608,-1.53052 -1.21984,-0.50525 -2.41622,-1.54359 -2.65864,-2.30738 -0.54252,-1.70931 -1.32122,-1.76078 -2.63694,-0.17418 -2.0858,2.51509 -5.456244,3.18852 -15.958154,3.18852 -9.8671,0 -10.21482,0.0519 -9.84458,1.46765 0.26682,1.02068 0.0221,1.46763 -0.80252,1.46763 -1.55204,0 -1.56544,-0.0627 1.17264,5.48977 2.1729,4.40639 3.28862,5.49593 4.44444,4.3401 z m 85.841444,-0.0424 c -0.50449,-0.20357 -1.33005,-0.20357 -1.83456,0 -0.50449,0.20358 -0.0917,0.37012 0.91728,0.37012 1.009,0 1.42178,-0.16641 0.91728,-0.37012 z m -66.26164,-10.33789 c 0.1004,-0.53625 -7.280094,-0.0818 -7.620654,0.4693 -0.6221,1.00653 -5.7704,1.40431 -7.15245,0.5526 -0.91418,-0.56336 -1.90754,-0.39517 -3.85255,0.65229 -1.44145,0.77628 -2.62079,1.47439 -2.62079,1.55141 0,1.11858 1.16614,2.46154 2.13747,2.46154 1.817,0 10.62518,-3.04575 11.1608,-3.85924 0.5053,-0.76748 2.84577,2.19972 2.84577,3.60782 0,0.48933 0.36401,1.81927 0.80897,2.95546 0.79122,2.02055 0.84672,1.95329 2.534004,-3.07098 0.94882,-2.82519 1.74054,-5.2193 1.75943,-5.3202 z m -17.249944,3.42172 c -0.75623,-1.22359 0.94456,-2.62672 1.95689,-1.6144 0.84677,0.84678 0.31679,2.41216 -0.81665,2.41216 -0.35596,0 -0.86908,-0.359 -1.14024,-0.79776 z m -49.92154,4.72875 c 0.254496,-0.66317 0.289811,-1.37865 0.07852,-1.58996 -0.211313,-0.21134 -0.384185,0.001 -0.384185,0.47194 0,0.47088 -0.49533,0.85615 -1.100731,0.85615 -0.605401,0 -1.100731,0.33021 -1.100731,0.73381 0,1.20711 2.007858,0.82913 2.507134,-0.47194 z m 25.242004,0.2449 c 0.92876,0.3187 0.873294,0.142 -0.222706,-0.70999 -1.722344,-1.33862 -2.703996,-0.98309 -2.04285,0.73989 0.272358,0.7094 0.587066,0.87104 0.749204,0.38463 0.15393,-0.46143 0.836182,-0.64798 1.516406,-0.41453 z m -3.27741,-2.89178 c 0.610973,-1.7153 1.684732,-4.71586 2.386121,-6.66793 1.089343,-3.03182 1.123463,-3.64523 0.234083,-4.20822 -0.572671,-0.36244 -1.424495,-0.66409 -1.892939,-0.67025 -0.956189,-0.0139 -5.568304,13.04231 -4.957061,14.03131 0.215445,0.3486 1.005358,0.63382 1.755366,0.63382 0.940826,0 1.708086,-0.96703 2.474514,-3.11873 z m -26.438497,0.30919 c 5.346334,-3.61781 9.134022,-4.76726 16.186491,-4.91209 5.376282,-0.11038 6.641387,-0.36033 7.24013,-1.43021 1.098553,-1.96299 -0.513763,-2.56528 -6.901516,-2.57804 -6.678443,-0.0139 -12.98063,1.75864 -18.226071,5.12461 -3.359317,2.15567 -4.491806,4.07169 -3.181255,5.38225 0.840056,0.84006 1.717733,0.55484 4.882221,-1.58652 z m 84.802587,-3.12964 c -0.55813,-0.35349 -1.4276,-0.64778 -1.93209,-0.65397 -0.50451,-0.006 -0.91728,-0.34144 -0.91728,-0.74504 0,-0.4036 -0.82554,-0.73384 -1.83456,-0.73384 -1.00899,0 -1.83452,0.33412 -1.83452,0.74249 0,0.45527 -1.13556,0.56094 -2.93531,0.27319 -5.08897,-0.81374 -3.33696,1.01901 2.75184,2.87869 5.60911,1.71316 5.70103,1.71741 6.70192,0.30914 0.86389,-1.21548 0.86389,-1.52345 0,-2.07058 z m -5.29543,1.04704 c -0.89376,-0.89373 -0.50566,-2.44605 0.6115,-2.44605 0.61153,0 1.10074,0.65227 1.10074,1.46762 0,1.46197 -0.78193,1.90878 -1.71224,0.97843 z m 57.48259,0.81283 c 0,-0.62922 -0.33021,-0.93996 -0.73381,-0.69051 -0.4036,0.24933 -0.73381,0.76426 -0.73381,1.14404 0,0.37977 0.33021,0.69051 0.73381,0.69051 0.4036,0 0.73381,-0.51481 0.73381,-1.14404 z M 48.716014,235.15027 c 0,-0.4036 -0.14561,-0.73381 -0.3236,-0.73381 -0.177976,0 -0.527691,0.33021 -0.777131,0.73381 -0.249448,0.4036 -0.103813,0.73381 0.323603,0.73381 0.42742,0 0.777128,-0.33021 0.777128,-0.73381 z m 33.734502,-2.90662 c 0.59372,-0.37548 0.83352,-0.92865 0.53289,-1.22927 -0.30061,-0.30062 -1.10481,0.0111 -1.78709,0.69393 -1.3263,1.32628 -0.53232,1.66518 1.2542,0.53534 z m 25.168574,-1.24383 c -0.49682,-0.20108 -1.48748,-0.21328 -2.20146,-0.0277 -0.71398,0.1861 -0.3075,0.35052 0.9033,0.36546 1.21082,0.0139 1.79497,-0.13728 1.29816,-0.33828 z m 19.98264,-1.72012 c 0.28612,-0.46295 -1.47444,-0.73381 -4.76983,-0.73381 -3.29539,0 -5.05596,0.27097 -4.76983,0.73381 0.24934,0.4036 2.39586,0.73384 4.76983,0.73384 2.37397,0 4.52037,-0.33024 4.76983,-0.73384 z m 50.63359,-6.23745 c 0,-4.38409 -0.19331,-5.15385 -1.34964,-5.37656 -1.99059,-0.38335 -4.88784,2.68172 -4.88784,5.17093 0,2.47557 3.08424,5.92951 4.97044,5.56627 1.0557,-0.2033 1.26704,-1.09748 1.26704,-5.36064 z m 2.56837,0 c 0,-3.17987 -0.30983,-5.50364 -0.73381,-5.50364 -0.42399,0 -0.73382,2.32377 -0.73382,5.50364 0,3.17986 0.30983,5.50364 0.73382,5.50364 0.42398,0 0.73381,-2.32378 0.73381,-5.50364 z m -79.52151,3.34794 c 5.05467,-3.31203 5.10137,-12.1359 0.0785,-14.82408 -2.077808,-1.11198 -24.283834,-5.73875 -27.625014,-5.75587 -2.37441,-0.0111 -2.43825,0.0538 -1.28421,1.3292 0.66797,0.73808 1.21449,1.93679 1.21449,2.66381 0,1.13136 -0.473,1.26854 -3.282062,0.95189 -3.94608,-0.44476 -4.413493,0.36568 -3.665213,6.35477 0.613413,4.90961 2.582773,8.25739 5.677545,9.65159 3.25469,1.46627 26.538336,1.16698 28.885974,-0.37131 z m 36.4658,0.32134 c 0.73722,-0.312 1.65408,-1.39233 2.0375,-2.40077 0.85422,-2.24675 -0.74214,-5.07954 -3.20372,-5.68514 -0.903,-0.22215 -7.55054,-0.30993 -14.77234,-0.19497 -13.12015,0.20856 -13.1316,0.21023 -14.52925,2.08356 -1.13306,1.51862 -1.25451,2.25415 -0.63932,3.87224 0.41772,1.09861 1.50729,2.28222 2.42124,2.63019 2.00293,0.7626 26.78591,0.49909 28.68589,-0.30498 z m 34.22451,-0.41448 c -0.67401,-1.25936 -0.99993,-1.35806 -1.93149,-0.58493 -0.99327,0.82434 -0.96659,0.99072 0.23464,1.46344 2.23012,0.87762 2.54848,0.71279 1.69685,-0.87851 z m -2.72645,-1.23706 c 1.77666,-1.58339 1.94233,-16.32723 0.1836,-16.32723 -0.90522,0 -1.10072,1.30659 -1.10072,7.35636 0,7.22138 -0.0347,7.36951 -1.88234,8.07204 -1.03526,0.39361 -3.98776,0.71564 -6.56106,0.71564 -4.52075,0 -6.8788,0.96493 -4.224,1.72847 2.5437,0.73162 12.27146,-0.37495 13.58465,-1.54528 z m -25.86718,-0.19026 c 0,-0.75985 -1.94149,-1.47592 -2.49661,-0.92077 -1.02547,1.02547 -0.36005,2.23751 1.029,1.87427 0.80719,-0.21106 1.46761,-0.64015 1.46761,-0.9535 z m -77.142586,-5.12966 c -0.774227,-3.02702 -1.219013,-6.36742 -0.988387,-7.4231 0.383934,-1.75745 0.153374,-1.98695 -2.731893,-2.7193 -1.733187,-0.43993 -3.356959,-0.56684 -3.608432,-0.28203 -0.251556,0.28481 -1.188222,3.2814 -2.08173,6.65908 -1.199037,4.53272 -1.409518,6.35865 -0.803621,6.97129 0.596745,0.6034 10.61197,2.63312 11.513996,2.3335 0.05933,-0.0194 -0.52568,-2.51245 -1.299933,-5.53944 z m 100.216346,2.772 c 1.53747,-2.19506 1.43779,-3.94419 -0.3253,-5.70727 -1.32787,-1.32787 -2.44608,-1.46765 -11.74115,-1.46765 -9.29505,0 -10.41325,0.13978 -11.74112,1.46765 -1.76308,1.76308 -1.86279,3.51221 -0.32529,5.70727 1.09348,1.56114 1.60965,1.63092 12.06641,1.63092 10.45677,0 10.97297,-0.0699 12.06645,-1.63092 z M 49.449836,209.46657 c 0,-4.72906 -0.21403,-5.87055 -1.10073,-5.87055 -0.878364,0 -1.100732,1.08713 -1.100732,5.38133 0,2.95977 0.220133,5.60152 0.489214,5.87058 1.301774,1.30177 1.712248,0.0111 1.712248,-5.38136 z m 4.654392,5.05583 c 1.868283,-0.85127 3.41764,-3.4467 3.41764,-5.72521 0,-2.3935 -2.90102,-5.30595 -5.038436,-5.05825 -1.83597,0.21273 -1.943957,0.45921 -2.154093,4.91652 -0.320591,6.80022 0.1435,7.5215 3.774889,5.86694 z m 18.687228,-5.11086 c -0.1445,-0.43388 -0.57666,-0.78886 -0.9601,-0.78886 -0.38342,0 -0.81547,0.35498 -0.96007,0.78886 -0.14451,0.43386 0.28741,0.78887 0.96007,0.78887 0.67268,0 1.1047,-0.35501 0.9601,-0.78887 z m -2.550862,-0.98947 c 0.392022,-1.02159 -2.76984,-2.62458 -5.176933,-2.62458 -1.740107,0 -0.702934,2.465 1.267906,3.0134 2.856734,0.79488 3.478547,0.73303 3.909027,-0.38882 z m -7.091227,-1.70733 c -0.124,-1.61373 -0.517467,-2.018 -1.96396,-2.018 -2.451023,0 -2.881996,2.34397 -0.599293,3.25916 2.562226,1.02728 2.731333,0.9454 2.563253,-1.24116 z m 19.296599,-7.47341 c 1.12671,-2.10527 0.93439,-9.07163 -0.29627,-10.73184 -0.96005,-1.29517 -1.16206,-1.31994 -2.22606,-0.27291 -0.64362,0.63335 -1.3736,2.40492 -1.62219,3.93681 -0.43233,2.66427 -0.37548,2.76417 1.30881,2.29906 1.63847,-0.45244 1.65883,-0.42529 0.29314,0.39087 -0.8072,0.48239 -1.5517,0.93996 -1.6544,1.01679 -0.10267,0.0768 0.17722,1.18389 0.62216,2.46014 0.91446,2.62326 2.44644,3.00941 3.57481,0.90105 z"
       id="path826"
       inkscape:connector-curvature="0" />
  </g>
</svg>
