<?xml version="1.0" encoding="UTF-8" standalone="no"?>
<!-- Created with Inkscape (http://www.inkscape.org/) -->

<svg
   xmlns:dc="http://purl.org/dc/elements/1.1/"
   xmlns:cc="http://creativecommons.org/ns#"
   xmlns:rdf="http://www.w3.org/1999/02/22-rdf-syntax-ns#"
   xmlns:svg="http://www.w3.org/2000/svg"
   xmlns="http://www.w3.org/2000/svg"
   xmlns:sodipodi="http://sodipodi.sourceforge.net/DTD/sodipodi-0.dtd"
   xmlns:inkscape="http://www.inkscape.org/namespaces/inkscape"
   width="210mm"
   height="227mm"
   viewBox="0 0 210 227"
   version="1.1"
   id="svg8"
   inkscape:version="0.92.2 (5c3e80d, 2017-08-06)"
   sodipodi:docname="logo.svg">
  <defs
     id="defs2" />
  <sodipodi:namedview
     id="base"
     pagecolor="#ffffff"
     bordercolor="#666666"
     borderopacity="1.0"
     inkscape:pageopacity="0.0"
     inkscape:pageshadow="2"
     inkscape:zoom="0.35"
     inkscape:cx="-94.358034"
     inkscape:cy="598.98915"
     inkscape:document-units="mm"
     inkscape:current-layer="layer1"
     showgrid="false"
     inkscape:window-width="1366"
     inkscape:window-height="745"
     inkscape:window-x="-8"
     inkscape:window-y="-8"
     inkscape:window-maximized="1" />
  <metadata
     id="metadata5">
    <rdf:RDF>
      <cc:Work
         rdf:about="">
        <dc:format>image/svg+xml</dc:format>
        <dc:type
           rdf:resource="http://purl.org/dc/dcmitype/StillImage" />
        <dc:title></dc:title>
      </cc:Work>
    </rdf:RDF>
  </metadata>
  <g
     inkscape:label="Layer 1"
     inkscape:groupmode="layer"
     id="layer1"
     transform="translate(0,-70)">
    <g
       id="g878"
       transform="matrix(3.4177365,0,0,3.4177365,-230.68843,-116.07667)">
      <path
         style="fill:#a5dcea;stroke-width:0.26458335"
         d="m 105.5712,118.44689 -1.14717,-1.16887 -9.954273,-0.11426 c -11.011772,-0.12639 -11.35007,-0.17052 -15.021297,-1.95941 -4.971282,-2.42238 -8.879277,-7.54416 -10.000125,-13.10607 -0.610803,-3.030943 -0.60281,-25.232346 0.01015,-28.199887 1.395544,-6.756261 6.065209,-12.021353 12.590104,-14.195463 1.72856,-0.57596 3.392933,-0.870559 3.392933,-0.600559 0,0.08368 2.234654,6.414398 2.503563,7.092528 0.136895,0.34522 -0.147776,0.474043 -1.567341,0.709272 -4.609845,0.763876 -8.194137,4.097735 -9.109544,8.473061 -0.188292,0.899971 -0.293345,5.451874 -0.293345,12.710558 0,12.0268 0.08051,12.95307 1.340453,15.42277 0.727681,1.42638 2.471214,3.29085 3.812373,4.07682 2.599337,1.52331 2.768011,1.54637 12.435348,1.69952 l 8.989221,0.14241 1.78802,4.8948 c 0.98342,2.69213 1.79007,4.98409 1.79256,5.09323 0.01,0.43975 -0.47102,0.14081 -1.56163,-0.97045 z m 8.14906,-2.9983 c -0.39719,-1.02058 -2.34957,-6.4455 -2.34957,-6.52855 0,-0.0376 0.4544,-0.20457 1.00978,-0.37096 1.64775,-0.49368 3.87072,-2.27311 5.05475,-4.04621 1.90679,-2.85544 1.90212,-2.81159 1.81662,-17.069247 l -0.0759,-12.664726 -0.7101,-1.51508 c -0.93985,-2.005314 -2.11895,-3.433952 -3.76285,-4.559216 -2.54577,-1.742596 -2.94743,-1.813345 -11.2318,-1.978351 L 95.968474,66.566813 94.144583,61.443581 C 93.141442,58.625804 92.32069,56.18875 92.32069,56.027905 c 0,-0.160844 0.688062,0.388438 1.529027,1.220628 l 1.529025,1.513072 h 7.477968 c 8.80604,0 10.29012,0.214536 14.05735,2.032121 2.11592,1.020875 2.84865,1.558292 4.7625,3.493049 3.27259,3.308347 4.86295,6.348847 5.55193,10.614413 0.42842,2.652347 0.35266,24.237777 -0.0938,26.740562 -1.00127,5.61235 -4.97248,10.95646 -10.01859,13.48211 -2.50601,1.25431 -3.01508,1.30299 -3.3958,0.32473 z M 98.638012,96.866879 96.950899,92.109652 90.73319,92.038233 84.515482,91.966814 v -3.96875 -3.96875 l 8.894405,-0.06962 c 6.916483,-0.05414 8.953103,0.0047 9.158343,0.264584 0.23014,0.291404 6.15663,16.911322 6.15663,17.265302 0,0.074 -1.88994,0.13453 -4.19987,0.13453 h -4.19987 z"
         id="path892"
         inkscape:connector-curvature="0" />
      <path
         style="fill:#9797ac;stroke-width:0.26458335"
         d="m 105.75112,118.44094 -0.98936,-1.15748 -9.858556,-0.11687 c -11.084153,-0.1314 -11.556135,-0.19596 -15.547097,-2.12648 -1.841296,-0.89067 -2.682181,-1.52178 -4.638929,-3.48162 -1.915361,-1.9184 -2.611688,-2.84036 -3.506461,-4.64272 -2.057168,-4.14378 -2.041068,-3.99456 -2.041068,-18.917706 0,-14.923148 -0.0161,-14.77393 2.041068,-18.917709 0.891753,-1.796268 1.598666,-2.734159 3.511932,-4.659425 1.978746,-1.991156 2.785706,-2.597962 4.63893,-3.488315 2.423986,-1.164567 5.49308,-2.071568 5.83578,-1.724633 0.20664,0.209193 2.625415,6.846664 2.625415,7.20452 0,0.09852 -0.751884,0.307914 -1.670852,0.465327 -3.515285,0.602143 -6.807822,3.117183 -8.328025,6.361453 l -0.716748,1.529615 v 13.229167 13.229166 l 0.858156,1.75398 c 1.108116,2.26486 3.63688,4.68798 5.804838,5.56233 1.494301,0.60266 1.802114,0.62303 10.577678,0.69992 8.219309,0.072 9.054809,0.12 9.217519,0.5294 0.0984,0.24761 0.87238,2.3552 1.71993,4.68354 0.84756,2.32833 1.62375,4.44169 1.72486,4.69635 0.31787,0.80059 -0.23202,0.48969 -1.25901,-0.71181 z m 7.11603,-5.67309 c -0.67753,-1.87981 -1.23188,-3.48055 -1.23188,-3.55722 0,-0.0767 0.62508,-0.42964 1.38907,-0.78439 2.90007,-1.3466 5.12263,-3.82914 6.01515,-6.7188 0.5014,-1.62335 0.53328,-2.443187 0.53328,-13.713673 0,-11.132518 -0.0367,-12.105021 -0.5148,-13.641177 -0.96082,-3.087124 -3.12333,-5.476215 -6.27197,-6.929149 -1.20935,-0.558052 -1.72226,-0.59964 -8.93332,-0.724336 l -7.650298,-0.132292 -1.794948,-4.894792 c -0.987222,-2.692135 -1.797282,-5.073385 -1.800133,-5.291667 -0.0029,-0.218281 0.575595,0.257969 1.285437,1.058334 l 1.290622,1.455208 8.55669,0.140487 c 8.50704,0.139671 8.56896,0.144762 10.67335,0.877341 4.74979,1.653501 8.67833,5.094816 10.81719,9.475638 1.93442,3.962083 2.0151,4.707192 2.0151,18.610702 0,13.918206 -0.0783,14.637676 -2.0308,18.653126 -1.61986,3.33141 -4.68714,6.48792 -7.89107,8.12064 -3.43123,1.74856 -3.04088,1.92409 -4.45667,-2.00398 z M 98.83514,97.191459 c -0.855441,-2.436992 -1.663301,-4.639254 -1.795249,-4.893916 -0.217905,-0.420565 -0.79702,-0.46302 -6.31601,-0.46302 h -6.076107 v -3.836459 -3.836458 h 8.970962 8.970964 l 0.39581,1.124479 c 3.39202,9.636525 5.47476,15.722195 5.47476,15.997005 0,0.26343 -0.91801,0.34082 -4.03489,0.34014 l -4.0349,-7.9e-4 -1.55534,-4.430896 z"
         id="path890"
         inkscape:connector-curvature="0" />
      <path
         style="fill:#47b9d6;stroke-width:0.26458335"
         d="m 105.54441,118.15502 -1.16306,-1.18508 h -9.427592 c -8.597037,0 -9.611963,-0.0471 -11.520432,-0.53522 -6.784811,-1.73515 -11.922511,-6.78781 -13.609627,-13.38437 -0.484562,-1.89462 -0.521759,-2.96771 -0.521759,-15.052286 0,-12.084579 0.0372,-13.157665 0.521759,-15.052284 1.582434,-6.187261 6.266338,-11.127099 12.353318,-13.02832 1.187697,-0.370968 2.362905,-0.633967 2.611571,-0.584442 0.384958,0.07667 1.848973,3.519461 2.885874,6.786447 0.141012,0.444289 -0.01592,0.522558 -1.316969,0.656838 -1.765434,0.182209 -4.386363,1.3544 -5.803989,2.595791 -1.574305,1.378592 -2.954596,3.710906 -3.428028,5.792427 -0.610521,2.684255 -0.610521,22.98283 0,25.667089 0.75678,3.32731 3.024676,6.04098 6.350158,7.59834 l 1.569015,0.73478 9.059577,0.079 c 8.235874,0.0719 9.081644,0.12029 9.302264,0.53251 0.13347,0.2494 0.79588,1.99977 1.47201,3.8897 0.67614,1.88993 1.40643,3.89759 1.62288,4.46145 0.21645,0.56387 0.35136,1.06739 0.29982,1.11894 -0.0515,0.0515 -0.6171,-0.43957 -1.25679,-1.09136 z m 7.32274,-5.38717 c -0.67753,-1.87981 -1.23188,-3.48055 -1.23188,-3.55722 0,-0.0767 0.62508,-0.42964 1.38907,-0.78439 2.90007,-1.3466 5.12263,-3.82914 6.01515,-6.7188 0.5014,-1.62335 0.53328,-2.443187 0.53328,-13.713673 0,-11.132518 -0.0367,-12.105021 -0.5148,-13.641177 -0.96082,-3.087124 -3.12333,-5.476215 -6.27197,-6.929149 -1.20935,-0.558052 -1.72226,-0.59964 -8.93332,-0.724336 l -7.650298,-0.132292 -1.794948,-4.894792 c -0.987222,-2.692135 -1.797282,-5.073385 -1.800133,-5.291667 -0.0029,-0.218281 0.575595,0.257969 1.285437,1.058334 l 1.290622,1.455208 8.55669,0.140487 c 8.50704,0.139671 8.56896,0.144762 10.67335,0.877341 4.74979,1.653501 8.67833,5.094816 10.81719,9.475638 1.93442,3.962083 2.0151,4.707192 2.0151,18.610702 0,13.918206 -0.0783,14.637676 -2.0308,18.653126 -1.61986,3.33141 -4.68714,6.48792 -7.89107,8.12064 -3.43123,1.74856 -3.04088,1.92409 -4.45667,-2.00398 z m -12.48026,-11.47447 c -0.0656,-0.1819 -0.658723,-1.878545 -1.318057,-3.770316 -0.659334,-1.891771 -1.385676,-3.945599 -1.614099,-4.564062 l -0.415311,-1.124479 h -6.195824 -6.195825 v -3.836459 -3.836458 h 8.847927 c 5.074797,0 8.911829,0.103391 8.997769,0.242453 0.20426,0.330494 5.9668,16.766961 5.9668,17.019061 0,0.11054 -1.78967,0.20099 -3.97705,0.20099 -2.94164,0 -4.00811,-0.0861 -4.09633,-0.33073 z"
         id="path888"
         inkscape:connector-curvature="0" />
      <path
         style="fill:#32b1d1;stroke-width:0.26458335"
         d="m 105.54441,118.15502 -1.16306,-1.18508 h -9.427592 c -8.597037,0 -9.611963,-0.0471 -11.520432,-0.53522 -6.784811,-1.73515 -11.922511,-6.78781 -13.609627,-13.38437 -0.484562,-1.89462 -0.521759,-2.96771 -0.521759,-15.052286 0,-12.084579 0.0372,-13.157665 0.521759,-15.052284 1.582434,-6.187261 6.266338,-11.127099 12.353318,-13.02832 1.187697,-0.370968 2.362905,-0.633967 2.611571,-0.584442 0.384958,0.07667 1.848973,3.519461 2.885874,6.786447 0.141012,0.444289 -0.01592,0.522558 -1.316969,0.656838 -1.765434,0.182209 -4.386363,1.3544 -5.803989,2.595791 -1.574305,1.378592 -2.954596,3.710906 -3.428028,5.792427 -0.610521,2.684255 -0.610521,22.98283 0,25.667089 0.75678,3.32731 3.024676,6.04098 6.350158,7.59834 l 1.569015,0.73478 9.059577,0.079 c 8.235874,0.0719 9.081644,0.12029 9.302264,0.53251 0.13347,0.2494 0.79588,1.99977 1.47201,3.8897 0.67614,1.88993 1.40643,3.89759 1.62288,4.46145 0.21645,0.56387 0.35136,1.06739 0.29982,1.11894 -0.0515,0.0515 -0.6171,-0.43957 -1.25679,-1.09136 z m 7.3772,-5.61191 -1.2272,-3.36812 1.5476,-0.74277 c 3.10505,-1.49029 5.33024,-4.17888 6.18976,-7.47882 0.59783,-2.29522 0.59783,-23.615451 0,-25.910669 -1.12289,-4.311087 -4.52847,-7.523149 -8.84415,-8.341602 -0.7732,-0.146634 -4.29675,-0.266608 -7.83012,-0.266608 h -6.424292 l -0.420621,-1.124479 c -0.231344,-0.618463 -1.067801,-2.899607 -1.858798,-5.069209 l -1.438175,-3.94473 1.373892,1.342984 1.373893,1.342984 8.069791,0.117881 c 8.7808,0.128268 9.60741,0.242797 12.9364,1.792381 3.83751,1.786297 6.66254,4.434543 8.50311,7.971011 2.03795,3.915715 2.09974,4.471248 2.10435,18.918984 0.005,14.346792 -0.0674,15.090792 -1.81325,18.736572 -1.25109,2.61265 -2.94094,4.71146 -5.11838,6.35708 -1.54785,1.1698 -5.00561,3.03587 -5.62456,3.03543 -0.14962,-1e-4 -0.82429,-1.51584 -1.49925,-3.3683 z m -12.53472,-11.24973 c -0.0656,-0.1819 -0.658723,-1.878545 -1.318057,-3.770316 -0.659334,-1.891771 -1.385676,-3.945599 -1.614099,-4.564062 l -0.415311,-1.124479 h -6.195824 -6.195825 v -3.836459 -3.836458 h 8.847927 c 5.074797,0 8.911829,0.103391 8.997769,0.242453 0.20426,0.330494 5.9668,16.766961 5.9668,17.019061 0,0.11054 -1.78967,0.20099 -3.97705,0.20099 -2.94164,0 -4.00811,-0.0861 -4.09633,-0.33073 z"
         id="path886"
         inkscape:connector-curvature="0" />
      <path
         style="fill:#6e6e8b;stroke-width:0.26458335"
         d="m 105.54441,118.15502 -1.16306,-1.18508 h -9.427592 c -8.597037,0 -9.611963,-0.0471 -11.520432,-0.53522 -6.784811,-1.73515 -11.922511,-6.78781 -13.609627,-13.38437 -0.484562,-1.89462 -0.521759,-2.96771 -0.521759,-15.052286 0,-12.084579 0.0372,-13.157665 0.521759,-15.052284 1.582434,-6.187261 6.266338,-11.127099 12.353318,-13.02832 1.187697,-0.370968 2.362905,-0.633967 2.611571,-0.584442 0.384958,0.07667 1.848973,3.519461 2.885874,6.786447 0.141012,0.444289 -0.01592,0.522558 -1.316969,0.656838 -1.765434,0.182209 -4.386363,1.3544 -5.803989,2.595791 -1.574305,1.378592 -2.954596,3.710906 -3.428028,5.792427 -0.610521,2.684255 -0.610521,22.98283 0,25.667089 0.75678,3.32731 3.024676,6.04098 6.350158,7.59834 l 1.569015,0.73478 9.059577,0.079 c 8.235874,0.0719 9.081644,0.12029 9.302264,0.53251 0.13347,0.2494 0.79588,1.99977 1.47201,3.8897 0.67614,1.88993 1.40643,3.89759 1.62288,4.46145 0.21645,0.56387 0.35136,1.06739 0.29982,1.11894 -0.0515,0.0515 -0.6171,-0.43957 -1.25679,-1.09136 z m -5.15752,-16.86164 c -0.0656,-0.1819 -0.658723,-1.878545 -1.318057,-3.770316 -0.659334,-1.891771 -1.385676,-3.945599 -1.614099,-4.564062 l -0.415311,-1.124479 h -6.195824 -6.195825 v -3.836459 -3.836458 h 8.847927 c 5.074797,0 8.911829,0.103391 8.997769,0.242453 0.20426,0.330494 5.9668,16.766961 5.9668,17.019061 0,0.11054 -1.78967,0.20099 -3.97705,0.20099 -2.94164,0 -4.00811,-0.0861 -4.09633,-0.33073 z"
         id="path884"
         inkscape:connector-curvature="0" />
      <path
         style="fill:#46466c;stroke-width:0.26458335"
         d="m 105.61477,118.02829 -0.85589,-1.01946 -10.121699,-0.0958 c -10.056204,-0.0952 -10.134825,-0.10028 -12.150167,-0.7781 -6.343404,-2.13347 -11.069204,-7.1162 -12.664247,-13.35276 -0.482662,-1.88719 -0.520827,-2.970516 -0.520827,-14.784056 0,-14.498434 0.04482,-14.89171 2.164763,-18.99357 1.474662,-2.853315 4.801319,-6.249107 7.496851,-7.652652 1.497441,-0.779707 5.211129,-2.061071 5.973458,-2.061071 0.21413,0 2.722623,6.865917 2.565792,7.022748 -0.0645,0.0645 -0.754317,0.23808 -1.532936,0.385742 -3.560865,0.675304 -6.67689,3.106294 -8.230636,6.421191 L 76.842565,75.03353 V 87.998114 100.9627 l 0.847051,1.78819 c 1.609323,3.39742 4.754556,5.89224 8.251042,6.54479 0.783846,0.14628 5.010565,0.26666 9.392708,0.2675 l 7.967534,0.002 1.65733,4.6691 c 0.91152,2.56801 1.62472,4.7017 1.58487,4.74155 -0.0398,0.0398 -0.45759,-0.38631 -0.92833,-0.94701 z m -5.32213,-17.26408 c -0.11936,-0.32742 -0.853689,-2.440781 -1.631834,-4.696354 -0.778143,-2.255573 -1.540735,-4.188516 -1.694649,-4.295429 -0.153913,-0.106912 -2.928982,-0.196209 -6.166821,-0.198437 l -5.886979,-0.0041 v -3.704167 -3.704166 h 8.739554 c 6.754559,0 8.765399,0.07512 8.853359,0.330729 0.0626,0.181901 1.40724,4.051432 2.98812,8.598958 l 2.87432,8.268226 h -3.92902 c -3.83384,0 -3.93427,-0.0144 -4.14605,-0.59531 z"
         id="path882"
         inkscape:connector-curvature="0" />
      <path
         style="fill:#3b3b63;stroke-width:0.26458335"
         d="m 105.40512,117.71471 c -1.03461,-1.09537 -1.03591,-1.09929 -0.11985,-0.36402 0.8177,0.65632 1.51425,1.47133 1.25747,1.47133 -0.0505,0 -0.56239,-0.49829 -1.13762,-1.10731 z m -20.558909,-1.18458 c 0.181901,-0.0734 0.479558,-0.0734 0.661459,0 0.181901,0.0734 0.03307,0.13345 -0.33073,0.13345 -0.363802,0 -0.51263,-0.06 -0.330729,-0.13345 z m -1.041797,-0.2701 c 0.190996,-0.0764 0.4192,-0.067 0.507119,0.0209 0.08792,0.0879 -0.06835,0.15045 -0.347266,0.13896 -0.308225,-0.0127 -0.370919,-0.0754 -0.159853,-0.15985 z m -1.058333,-0.26458 c 0.190996,-0.0764 0.419199,-0.067 0.507118,0.0209 0.08792,0.0879 -0.06835,0.15045 -0.347265,0.13896 -0.308225,-0.0127 -0.37092,-0.0754 -0.159853,-0.15985 z m -2.067057,-0.61301 c -0.218282,-0.14107 -0.277813,-0.25648 -0.132292,-0.25648 0.145521,0 0.443177,0.11541 0.661458,0.25648 0.218282,0.14107 0.277813,0.25648 0.132292,0.25648 -0.145521,0 -0.443177,-0.11541 -0.661458,-0.25648 z m 10.004683,-5.75429 c 2.373877,-0.0439 6.183877,-0.0438 8.466665,1.9e-4 2.282788,0.044 0.340527,0.0799 -4.31614,0.0798 -4.656667,-1.1e-4 -6.524403,-0.0361 -4.150525,-0.08 z m -6.035933,-0.34322 c -0.28984,-0.19613 -0.182805,-0.22068 0.396875,-0.091 0.972854,0.21761 1.18404,0.36904 0.507118,0.36364 -0.278915,-0.002 -0.685712,-0.12491 -0.903993,-0.27263 z m -12.435417,-1.04624 c -0.155761,-0.29104 -0.22367,-0.52917 -0.15091,-0.52917 0.07276,0 0.259733,0.23813 0.415493,0.52917 0.155761,0.29104 0.223671,0.52917 0.15091,0.52917 -0.07276,0 -0.259732,-0.23813 -0.415493,-0.52917 z m 8.697501,-0.99219 c -0.329107,-0.41964 -0.319749,-0.429 0.0999,-0.0999 0.254661,0.19972 0.463021,0.40808 0.463021,0.46302 0,0.21776 -0.217272,0.0776 -0.562916,-0.36313 z m -9.636257,-0.6199 c -0.232749,-0.45008 -0.376208,-0.86531 -0.318798,-0.92272 0.05741,-0.0574 0.302388,0.31084 0.544395,0.81834 0.544138,1.14107 0.355604,1.2283 -0.225597,0.10438 z m -0.748349,-1.70543 c -0.255318,-0.66535 -0.179999,-0.83702 0.131903,-0.30066 0.154435,0.26558 0.225055,0.5386 0.156933,0.60673 -0.06812,0.0681 -0.198099,-0.0696 -0.288836,-0.30607 z m 8.003356,-0.0559 c -0.329107,-0.41964 -0.319749,-0.429 0.09989,-0.0999 0.254661,0.19972 0.463021,0.40808 0.463021,0.46302 0,0.21776 -0.217272,0.0776 -0.562916,-0.36313 z M 69.982297,103.325 c -0.09732,-0.38775 -0.125917,-0.75603 -0.06355,-0.81839 0.06237,-0.0624 0.193018,0.20385 0.290337,0.5916 0.09732,0.38775 0.125917,0.75603 0.06355,0.8184 -0.06237,0.0624 -0.193017,-0.20386 -0.290337,-0.59161 z m 7.509599,-0.13606 c -0.162431,-0.3035 -0.245492,-0.60166 -0.18458,-0.66257 0.06091,-0.0609 0.2466,0.18741 0.41264,0.55183 0.364614,0.80024 0.187084,0.88645 -0.22806,0.11074 z m -7.863988,-1.82942 c 0,-0.50932 0.05445,-0.71768 0.121,-0.46302 0.06655,0.25466 0.06655,0.67138 0,0.92604 -0.06655,0.25467 -0.121,0.0463 -0.121,-0.46302 z m 7.247344,0.38665 c -0.09074,-0.23646 -0.157431,-0.56902 -0.148207,-0.73902 0.0092,-0.16999 0.130844,-0.0239 0.270267,0.32464 0.139423,0.34855 0.206116,0.68111 0.148207,0.73901 -0.05791,0.0579 -0.179529,-0.0882 -0.270267,-0.32463 z M 69.423891,87.998064 c 5.6e-5,-6.693959 0.03439,-9.394466 0.07629,-6.001126 0.0419,3.393337 0.04186,8.870212 -1.01e-4,12.170834 -0.04196,3.300619 -0.07624,0.524251 -0.07619,-6.169708 z m 7.14375,0 c 5.6e-5,-6.693959 0.03439,-9.394466 0.07629,-6.001126 0.0419,3.393337 0.04186,8.870212 -1.01e-4,12.170834 -0.04196,3.300619 -0.07624,0.524251 -0.07619,-6.169708 z M 69.627908,74.636605 c 0,-0.509323 0.05445,-0.717682 0.121,-0.463021 0.06655,0.254662 0.06655,0.671381 0,0.926042 -0.06655,0.254661 -0.121,0.0463 -0.121,-0.463021 z m 7.105014,0.264583 c -0.008,-0.218281 0.100871,-0.575468 0.241935,-0.79375 0.312558,-0.483649 0.312558,-0.0659 0,0.661459 -0.149935,0.348916 -0.232345,0.393979 -0.241935,0.132291 z m -6.864622,-1.5875 c 0,-0.218281 0.102325,-0.635 0.22739,-0.926041 0.143329,-0.333544 0.227391,-0.38245 0.227391,-0.132292 0,0.218281 -0.102326,0.635 -0.227391,0.926042 -0.143328,0.333544 -0.22739,0.382449 -0.22739,0.132291 z m 7.37114,0.09467 c 0,-0.141961 0.185162,-0.489226 0.411471,-0.771701 0.38798,-0.484268 0.393486,-0.475826 0.09645,0.147868 -0.385713,0.809898 -0.507924,0.959998 -0.507924,0.623833 z m 2.248959,-3.53425 c 0.263389,-0.291042 0.53842,-0.529167 0.611181,-0.529167 0.07276,0 -0.08321,0.238125 -0.346598,0.529167 -0.263389,0.291042 -0.53842,0.529167 -0.611181,0.529167 -0.07276,0 0.08321,-0.238125 0.346598,-0.529167 z m -8.334375,-0.169917 c 0,-0.14196 0.185162,-0.489226 0.411471,-0.771701 0.387979,-0.484268 0.393486,-0.475826 0.09645,0.147868 -0.385712,0.809898 -0.507923,0.959998 -0.507923,0.623833 z m 1.219174,-2.162938 c 0.275339,-0.482705 0.730975,-1.078018 1.012523,-1.322916 0.297744,-0.258987 0.19316,-0.0025 -0.249986,0.613062 -1.060213,1.472727 -1.353334,1.745597 -0.762537,0.709854 z m 14.820804,-1.513832 c -0.255318,-0.665346 -0.179999,-0.837024 0.131904,-0.300656 0.154434,0.265576 0.225054,0.538601 0.156932,0.606723 -0.06812,0.06812 -0.198098,-0.06961 -0.288836,-0.306067 z M 74.329024,64.979313 c 0.341774,-0.363802 0.680939,-0.661458 0.753699,-0.661458 0.07276,0 -0.147342,0.297656 -0.489116,0.661458 -0.341774,0.363802 -0.680939,0.661458 -0.753699,0.661458 -0.07276,0 0.147342,-0.297656 0.489116,-0.661458 z"
         id="path880"
         inkscape:connector-curvature="0" />
    </g>
  </g>
</svg>
