<?xml version="1.0" encoding="UTF-8" standalone="no"?>
<!-- Created with Inkscape (http://www.inkscape.org/) -->

<svg
   xmlns:dc="http://purl.org/dc/elements/1.1/"
   xmlns:cc="http://creativecommons.org/ns#"
   xmlns:rdf="http://www.w3.org/1999/02/22-rdf-syntax-ns#"
   xmlns:svg="http://www.w3.org/2000/svg"
   xmlns="http://www.w3.org/2000/svg"
   xmlns:sodipodi="http://sodipodi.sourceforge.net/DTD/sodipodi-0.dtd"
   xmlns:inkscape="http://www.inkscape.org/namespaces/inkscape"
   width="210mm"
   height="157mm"
   viewBox="0 0 210 157"
   version="1.1"
   id="svg8"
   inkscape:version="0.92.2 (5c3e80d, 2017-08-06)"
   sodipodi:docname="step3.svg">
  <defs
     id="defs2" />
  <sodipodi:namedview
     id="base"
     pagecolor="#ffffff"
     bordercolor="#666666"
     borderopacity="1.0"
     inkscape:pageopacity="0.0"
     inkscape:pageshadow="2"
     inkscape:zoom="0.35"
     inkscape:cx="-538.31271"
     inkscape:cy="559.59116"
     inkscape:document-units="mm"
     inkscape:current-layer="layer1"
     showgrid="false"
     inkscape:window-width="1366"
     inkscape:window-height="745"
     inkscape:window-x="-8"
     inkscape:window-y="-8"
     inkscape:window-maximized="1" />
  <metadata
     id="metadata5">
    <rdf:RDF>
      <cc:Work
         rdf:about="">
        <dc:format>image/svg+xml</dc:format>
        <dc:type
           rdf:resource="http://purl.org/dc/dcmitype/StillImage" />
        <dc:title />
      </cc:Work>
    </rdf:RDF>
  </metadata>
  <g
     inkscape:label="Layer 1"
     inkscape:groupmode="layer"
     id="layer1"
     transform="translate(0,-140)">
    <g
       id="g993"
       transform="matrix(4.7273087,0,0,3.534045,-336.52445,-194.49697)">
      <path
         style="fill:#dfdfdf;stroke-width:0.26458332"
         d="m 77.320267,137.48362 c -0.275854,-0.44634 0.109668,-0.80215 0.870276,-0.80321 l 0.711989,-9.9e-4 -0.805026,-0.49092 c -1.56111,-0.95199 -2.860475,-2.95889 -2.287019,-3.53235 0.360603,-0.3606 0.843087,-0.0281 0.843087,0.58098 0,0.6861 1.153149,1.98683 2.114373,2.38498 1.021791,0.42325 3.195053,0.22354 4.113044,-0.37795 0.385686,-0.25271 0.933806,-0.98522 1.218046,-1.62779 0.547482,-1.23767 1.021203,-1.52806 1.021203,-0.626 0,1.21072 -1.828474,3.36458 -2.935391,3.45775 -0.204545,0.0172 -0.01471,0.10768 0.42185,0.20104 0.450908,0.0964 0.79375,0.34003 0.79375,0.564 0,0.32133 -0.54684,0.40809 -2.955713,0.46889 -1.827375,0.0461 -3.020135,-0.0296 -3.124469,-0.19843 z m 21.078251,-0.20691 c 0.06233,-0.3283 0.433645,-0.5092 1.27617,-0.62172 0.653542,-0.0873 1.043572,-0.17658 0.866742,-0.19844 -0.52122,-0.0644 -2.185914,-1.6417 -2.621313,-2.48367 -0.561228,-1.08529 -0.519012,-3.4609 0.07966,-4.48267 1.873745,-3.19795 6.241933,-3.49238 8.470243,-0.57091 0.65598,0.86003 0.74293,1.19808 0.74293,2.8883 0,1.73616 -0.0745,2.00627 -0.80038,2.90316 -0.44021,0.54389 -1.19123,1.19851 -1.66893,1.4547 -0.4879,0.26166 -0.7459,0.54162 -0.58869,0.63878 0.15393,0.0951 0.27987,0.34454 0.27987,0.55423 0,0.31 -0.57236,0.38126 -3.0621,0.38126 -2.773402,0 -3.053826,-0.0437 -2.974203,-0.46302 z m 6.327912,-1.98965 c 2.56397,-1.71285 2.34596,-5.85186 -0.37328,-7.0864 -0.60992,-0.27691 -1.47068,-0.50609 -1.91279,-0.50928 -1.23426,-0.009 -3.053385,1.05047 -3.624636,2.11085 -0.638445,1.18512 -0.519912,3.41064 0.236627,4.44274 1.211879,1.6533 3.994239,2.1643 5.674079,1.04209 z m -3.46661,-2.04525 c -0.29104,-0.29104 -0.52916,-0.64822 -0.52916,-0.79375 0,-0.41598 0.72013,-0.30887 0.88943,0.1323 0.0838,0.21828 0.44095,0.39687 0.79375,0.39687 0.3528,0 0.70998,-0.17859 0.79375,-0.39687 0.1893,-0.49332 0.69807,-0.52321 0.69807,-0.041 0,0.52593 -0.88365,1.23163 -1.54219,1.23163 -0.31596,0 -0.81261,-0.23812 -1.10365,-0.52917 z m 6.48229,3.96875 c -0.33487,-0.54184 0.2069,-0.79375 1.7071,-0.79375 1.08017,0 1.58632,0.11139 1.68595,0.37101 0.0783,0.20406 0.0712,0.44218 -0.0158,0.52917 -0.26736,0.26737 -3.20341,0.17485 -3.37725,-0.10643 z m -28.27473,-3.45878 c -0.730251,-0.57442 -0.933822,-1.30372 -0.363909,-1.30372 0.183276,0 0.481942,0.23813 0.6637,0.52917 0.181758,0.29104 0.507046,0.52917 0.722861,0.52917 0.215815,0 0.541103,-0.23813 0.722861,-0.52917 0.419081,-0.67106 0.732347,-0.67747 0.732347,-0.015 0,0.5147 -0.90965,1.33792 -1.478398,1.33792 -0.166277,0 -0.616035,-0.24677 -0.999462,-0.54837 z m -7.055693,-1.97548 c -0.459549,-0.55372 0.054,-3.39571 0.959478,-5.30973 l 0.654938,-1.38442 -0.670639,-0.67064 c -0.588924,-0.58893 -0.67064,-0.89433 -0.67064,-2.50644 0,-1.94251 0.399074,-2.55689 1.105135,-1.70138 0.275637,0.33399 0.279751,0.44785 0.01934,0.53549 -0.209821,0.0706 -0.330728,0.63184 -0.330728,1.53517 0,1.13693 0.103127,1.47904 0.511773,1.69774 0.916473,0.49048 1.122674,0.28889 0.368262,-0.36003 -0.647143,-0.55664 -0.704844,-0.72527 -0.473381,-1.38344 0.460499,-1.30942 1.031807,-1.41408 7.742422,-1.41832 6.692396,-0.004 7.555864,0.15245 7.876311,1.42921 0.274726,1.0946 0.03303,1.86692 -0.612972,1.95867 -1.173037,0.16661 -0.976327,2.71397 0.31737,4.1099 0.609167,0.6573 0.795338,0.7004 3.025168,0.7004 2.151524,0 2.392083,-0.0505 2.545684,-0.53446 0.0933,-0.29395 0.568596,-1.05713 1.05622,-1.69595 l 0.886588,-1.1615 -0.750787,-0.31098 c -0.412932,-0.17104 -0.811274,-0.56872 -0.885204,-0.88374 -0.367903,-1.5676 -0.759405,-4.70795 -0.606053,-4.8613 0.361843,-0.36184 0.672348,0.38982 1.036389,2.50885 0.359938,2.09516 0.565492,2.68024 0.843839,2.4019 0.0701,-0.0701 -0.04688,-1.19128 -0.259964,-2.4915 -0.213085,-1.30021 -0.389506,-2.45332 -0.392046,-2.56246 -0.0095,-0.40946 0.758814,-0.17948 0.883938,0.26458 0.328242,1.16493 0.738788,4.38311 0.618054,4.84481 -0.08578,0.32803 1.6e-5,0.513 0.23795,0.513 0.491501,0 0.471329,-0.56038 -0.161904,-4.49792 -0.761109,-4.73269 -0.710622,-4.57493 -1.40802,-4.39989 -0.327845,0.0823 -0.947742,0.0556 -1.377548,-0.0594 -0.593615,-0.15876 -0.781465,-0.36342 -0.781465,-0.85142 0,-0.62317 0.06676,-0.64474 2.228044,-0.72 2.088882,-0.0727 2.308946,-0.0273 3.52331,0.72761 0.712401,0.44285 1.644541,0.80518 2.071441,0.80518 h 0.77617 v 2.38125 c 0,2.36841 -0.004,2.38125 -0.6665,2.38125 -0.59339,0 -0.64719,0.0798 -0.49043,0.7276 0.39695,1.64033 0.59498,1.91823 1.36694,1.91823 1.20331,0 3.36397,0.74052 3.90501,1.33836 0.45614,0.50404 0.46416,0.60904 0.0962,1.25941 -0.34412,0.60824 -0.55059,0.69892 -1.44643,0.63526 -3.3834,-0.24045 -4.23613,-0.1819 -5.278348,0.36241 -1.332339,0.69583 -2.507864,2.33681 -2.699962,3.76902 -0.114234,0.85168 -0.261345,1.10221 -0.647208,1.10221 -0.40612,0 -0.470299,-0.13587 -0.343688,-0.72761 0.5449,-2.54667 1.952537,-4.4057 3.976166,-5.25123 1.07145,-0.44768 3.41383,-0.48374 4.59842,-0.0708 0.68629,0.23924 0.90662,0.22759 1.08268,-0.0573 0.35447,-0.57355 -0.20753,-0.98473 -1.79691,-1.31469 -2.01501,-0.41831 -4.024522,7.2e-4 -5.756998,1.20045 -1.215888,0.842 -1.588412,1.27977 -2.873588,3.37687 -0.439845,0.71772 -0.482887,0.7276 -3.168427,0.7276 -2.628606,0 -2.746008,-0.0251 -3.403278,-0.7276 -1.031251,-1.10223 -1.534915,-2.29169 -1.534915,-3.62488 v -1.20377 h -3.836458 c -3.233797,0 -3.836459,-0.0623 -3.836459,-0.39687 0,-0.33728 0.678111,-0.39688 4.515491,-0.39688 h 4.515491 l -0.08372,-0.7276 -0.08372,-0.72761 -6.574681,-0.13229 c -3.616074,-0.0728 -6.711699,-0.0448 -6.879166,0.0621 -0.167467,0.10691 2.106529,0.19621 5.053326,0.19843 4.848747,0.004 6.152098,0.17181 4.939298,0.63721 -0.230183,0.0883 -2.61846,0.16059 -5.307281,0.16059 -3.191804,0 -4.832007,0.0918 -4.725246,0.26459 0.08994,0.14552 0.39462,0.26458 0.677073,0.26458 0.606247,0 0.686384,0.47945 0.116677,0.69807 -0.218281,0.0838 -0.396875,0.26494 -0.396875,0.40261 0,0.13767 -0.300796,0.69048 -0.668436,1.22846 -0.718484,1.05139 -1.712814,3.93936 -1.712814,4.97477 0,0.57453 0.11098,0.63359 1.190625,0.63359 h 1.190625 l 9.79e-4,-1.52135 c 0.0012,-1.78288 0.605612,-2.97351 1.914822,-3.77174 0.700688,-0.42722 1.333434,-0.52576 3.375856,-0.52576 2.848161,0 3.832656,0.39494 4.770748,1.91383 0.532842,0.86274 0.620228,2.44981 0.13489,2.44981 -0.139555,0 -0.327444,-0.35718 -0.41753,-0.79375 -0.44436,-2.15338 -1.729372,-2.87015 -4.908571,-2.73795 -2.0845,0.0867 -2.265426,0.14217 -3.062469,0.9393 -0.724232,0.72431 -0.863875,1.07927 -0.962837,2.4474 l -0.115739,1.60021 h 9.578849 c 7.545458,0 9.555458,0.0702 9.468658,0.33073 -0.08533,0.25611 -2.619368,0.3463 -11.232082,0.39972 -9.810156,0.0608 -11.162305,0.0203 -11.464544,-0.34388 z m 27.696433,-7.88118 0.83267,-0.3106 -0.49258,-1.58363 c -0.31634,-1.01703 -0.40126,-1.67495 -0.23736,-1.83885 0.14037,-0.14038 0.25447,-0.97555 0.25355,-1.85595 -0.002,-1.51575 -0.0456,-1.62575 -0.829587,-2.07202 -0.45535,-0.2592 -0.869675,-0.42952 -0.920715,-0.37847 -0.05104,0.051 0.20321,1.54912 0.565001,3.32906 0.755901,3.71885 0.794291,4.26757 0.298569,4.26757 -0.250539,0 -0.575405,-1.1008 -1.073647,-3.63802 -0.891066,-4.53762 -0.899073,-4.56406 -1.381969,-4.56406 -0.33405,0 -0.340601,0.0573 -0.0408,0.35714 0.196429,0.19643 0.638069,2.13119 0.981424,4.29948 0.343355,2.16828 0.67442,4.03163 0.735703,4.14077 0.139549,0.24853 0.278095,0.2324 1.309741,-0.15242 z m 1.3431,-6.32987 c -0.0587,-0.47294 -0.10671,-0.086 -0.10671,0.8599 0,0.94588 0.048,1.33284 0.10671,0.85989 0.0587,-0.47294 0.0587,-1.24684 0,-1.71979 z m -23.827507,12.32518 c -0.490741,-0.49075 0.07001,-0.61737 2.734027,-0.61737 2.410648,0 2.910417,0.0682 2.910417,0.39688 0,0.32717 -0.48017,0.39687 -2.734028,0.39687 -1.503715,0 -2.813403,-0.0794 -2.910416,-0.17638 z m -0.176389,-1.55454 c 0,-0.33887 0.343855,-0.39491 2.029287,-0.33072 1.330133,0.0506 2.066988,0.19122 2.138715,0.408 0.0815,0.24633 -0.436342,0.33073 -2.029287,0.33073 -1.75062,0 -2.138715,-0.074 -2.138715,-0.40801 z m 9.526132,-16.96895 c 6.23e-4,-0.11981 0.364441,-0.75361 0.808485,-1.40846 1.535124,-2.26389 2.629966,-4.69534 2.629966,-5.84068 0,-0.88842 -0.167305,-1.25871 -0.899584,-1.99098 -0.767854,-0.76786 -1.081678,-0.89959 -2.143125,-0.89959 -1.061446,0 -1.37527,0.13173 -2.143124,0.89959 -1.27421,1.2742 -1.233547,2.54592 0.16571,5.18258 1.166674,2.1984 1.219037,2.3845 0.670924,2.3845 -0.211421,0 -0.868182,-0.96979 -1.478246,-2.18281 -0.964714,-1.9182 -1.084327,-2.35146 -0.986677,-3.57391 0.119173,-1.49191 0.746366,-2.42526 2.104628,-3.13196 2.03785,-1.060295 4.892655,0.27113 5.511839,2.5706 0.214716,0.7974 0.162945,1.25524 -0.273987,2.42305 -0.758748,2.02793 -2.95225,5.59429 -3.504921,5.69856 -0.254661,0.048 -0.462511,-0.0107 -0.461888,-0.13049 z m -0.886167,-5.86106 c -0.94191,-1.0408 -0.14954,-2.95573 1.223038,-2.95573 0.89618,0 1.778663,0.72944 1.778663,1.47021 0,0.78134 -0.672774,0.87306 -0.870063,0.11862 -0.189065,-0.72298 -0.932074,-0.95842 -1.435592,-0.4549 -0.503517,0.50352 -0.268074,1.24652 0.454907,1.43559 0.290307,0.0759 0.527831,0.30274 0.527831,0.50405 0,0.53283 -1.163867,0.45113 -1.678784,-0.11784 z"
         id="path1007"
         inkscape:connector-curvature="0" />
      <path
         style="fill:#d7d7d7;stroke-width:0.26458332"
         d="m 77.447324,137.21056 c 0,-0.14552 0.506015,-0.27212 1.124479,-0.28135 1.011342,-0.0151 1.058723,-0.043 0.470927,-0.2776 -1.154397,-0.46072 -2.37964,-1.56014 -2.920765,-2.62083 -0.625485,-1.22605 -0.636798,-1.31813 -0.161949,-1.31813 0.200627,0 0.512955,0.35773 0.694062,0.79497 0.415628,1.00341 1.950676,2.36796 2.720681,2.41849 2.636565,0.17302 4.432389,-0.76685 4.915289,-2.57248 0.29514,-1.10357 0.958334,-1.21555 0.740222,-0.12498 -0.326644,1.63321 -1.602377,2.85867 -3.612483,3.47012 -0.507758,0.15445 -0.337647,0.20706 0.725891,0.22447 0.763984,0.0125 1.389062,0.1418 1.389062,0.28732 0,0.16106 -1.190625,0.26459 -3.042708,0.26459 -1.852083,0 -3.042708,-0.10353 -3.042708,-0.26459 z m 20.902082,0 c 0,-0.15019 0.829355,-0.27337 1.918234,-0.28491 1.87012,-0.0198 1.8932,-0.0281 0.92034,-0.33073 -2.218253,-0.68999 -3.632324,-2.5558 -3.632324,-4.7927 0,-2.98862 2.469474,-5.17804 5.460174,-4.84094 3.36747,0.37956 5.29127,4.02143 3.7341,7.06888 -0.66832,1.30793 -1.46063,1.97555 -2.99186,2.52103 l -1.04304,0.37156 0.8599,0.0116 c 0.47294,0.006 0.85989,0.13067 0.85989,0.27619 0,0.16106 -1.19062,0.26459 -3.04271,0.26459 -1.852079,0 -3.042704,-0.10353 -3.042704,-0.26459 z m 6.286274,-1.85065 c 2.68024,-1.63416 2.56849,-5.715 -0.19673,-7.18444 -1.15875,-0.61576 -2.77326,-0.62653 -3.9676,-0.0265 -2.764675,1.38902 -2.884417,5.57794 -0.20613,7.21091 1.15353,0.70332 3.21692,0.70332 4.37046,0 z m -3.32974,-2.20129 c -0.3164,-0.3368 -0.57528,-0.69399 -0.57528,-0.79375 0,-0.35416 0.73959,-0.17497 0.88943,0.21549 0.0838,0.21828 0.45742,0.39687 0.83036,0.39687 0.37293,0 0.7466,-0.17859 0.83036,-0.39687 0.18932,-0.49336 0.62485,-0.52194 0.62485,-0.041 0,0.51034 -0.87616,1.23163 -1.49607,1.23163 -0.2906,0 -0.78724,-0.27556 -1.10365,-0.61236 z m 6.63461,4.14735 c -0.81783,-0.34497 -0.18612,-0.62457 1.41111,-0.62457 1.27521,0 1.71264,0.0886 1.63285,0.33073 -0.11087,0.33644 -2.41554,0.55892 -3.04396,0.29384 z m -27.98887,-3.27558 c -0.724049,-0.26928 -1.26919,-0.96171 -1.044002,-1.32607 0.122598,-0.19836 0.35183,-0.11486 0.694544,0.25299 0.644434,0.69172 1.186934,0.69843 1.610671,0.0199 0.415263,-0.66495 0.732347,-0.67898 0.732347,-0.0324 0,0.83441 -1.083073,1.42418 -1.99356,1.08555 z m -5.906895,-2.05873 -1.682747,-0.0795 0.101413,-1.79476 c 0.07427,-1.31434 0.312848,-2.22134 0.891303,-3.38842 l 0.789891,-1.59366 -0.729911,-0.66877 c -0.656533,-0.60154 -0.72991,-0.84556 -0.72991,-2.42734 0,-1.35262 0.09572,-1.7953 0.414659,-1.91769 0.561153,-0.21533 1.170958,0.37902 0.692356,0.67481 -0.230443,0.14242 -0.316936,0.67495 -0.262372,1.61538 0.08038,1.38528 0.240326,1.62211 1.31795,1.95143 0.382928,0.11702 0.301017,0.41475 -0.605783,2.2019 -0.633963,1.24944 -1.111326,2.61584 -1.20726,3.45565 l -0.158675,1.38906 h 1.227479 1.227479 v -1.33346 c 0,-1.76988 0.727527,-3.14567 2.059237,-3.89414 0.853662,-0.47978 1.468088,-0.59323 3.212849,-0.59323 3.241673,0 4.860599,1.02965 5.233677,3.32866 0.155417,0.95773 -0.337723,1.31072 -0.616993,0.44165 -0.814518,-2.53473 -1.485639,-2.9742 -4.544097,-2.97557 -3.417489,-0.002 -4.550923,0.91748 -4.550923,3.69004 v 1.33605 h 9.525 c 6.018107,0 9.525,0.0951 9.525,0.25826 0,0.24586 -17.200853,0.50935 -21.129622,0.32367 z m 22.193766,-0.75832 c 0.0072,-0.92544 0.887898,-2.91588 1.664257,-3.76123 1.438736,-1.56658 4.308482,-2.25356 6.575952,-1.5742 0.78837,0.2362 1.10464,0.23575 1.34228,-0.002 0.49799,-0.498 -0.28843,-1.06504 -1.96474,-1.41665 -2.88249,-0.60462 -6.13557,0.74554 -7.605213,3.15647 -1.341807,2.20122 -1.313991,2.18638 -4.099089,2.18638 -2.28092,0 -2.560945,-0.057 -3.288282,-0.66898 -0.976711,-0.82185 -1.725074,-2.68938 -1.579021,-3.94043 l 0.108959,-0.93331 -3.826962,-0.0729 c -2.77292,-0.0528 -3.857236,-0.164 -3.93688,-0.40364 -0.08515,-0.25621 0.938298,-0.33073 4.542338,-0.33073 4.418433,0 4.652257,-0.0256 4.652257,-0.51027 0,-1.26925 -0.393629,-1.34181 -7.279326,-1.34181 -4.013115,0 -6.509523,0.0999 -6.611299,0.26458 -0.106885,0.17295 1.62885,0.26458 5.011468,0.26458 3.273605,0 5.17499,0.0972 5.17499,0.26459 0,0.16759 -1.945483,0.26458 -5.307281,0.26458 -5.253259,0 -6.040957,0.15085 -4.281224,0.8199 0.50664,0.19263 0.602616,0.33432 0.37835,0.55859 -0.428756,0.42876 -1.565516,-0.1367 -1.943773,-0.96688 -0.239529,-0.52571 -0.211527,-0.78682 0.142288,-1.32681 l 0.440506,-0.6723 h 6.964352 c 6.508599,0 6.994153,0.0329 7.419752,0.50321 0.306533,0.33872 0.428052,0.83604 0.371736,1.52136 -0.06916,0.84169 -0.192842,1.03358 -0.713625,1.10723 -0.59788,0.0845 -0.622335,0.16297 -0.480215,1.53998 0.102314,0.99132 0.368975,1.73832 0.841863,2.35831 l 0.692118,0.90741 h 2.493282 2.493282 l 0.442884,-0.85989 c 0.243587,-0.47295 0.731356,-1.23942 1.083932,-1.70328 l 0.641047,-0.84337 -0.780776,-0.40376 c -0.672876,-0.34796 -0.822235,-0.63361 -1.080772,-2.06704 -0.422746,-2.34384 -0.465843,-3.2385 -0.160434,-3.3304 0.14552,-0.0438 0.44571,0.95916 0.667088,2.22878 0.221378,1.26963 0.548799,2.35717 0.727604,2.41678 0.402567,0.13418 0.390312,-0.53912 -0.05421,-2.97844 -0.296426,-1.62664 -0.182353,-2.63424 0.249353,-2.20253 0.249112,0.24911 0.964898,4.79457 0.8339,5.29551 -0.121827,0.46587 0.464913,0.70195 0.697021,0.28045 0.0601,-0.10914 -0.200819,-2.10343 -0.579819,-4.43177 l -0.689089,-4.23333 -1.455089,-0.13229 c -1.340428,-0.12187 -1.455089,-0.18442 -1.455089,-0.79375 0,-0.64513 0.05317,-0.66335 2.153816,-0.73784 1.982484,-0.0703 2.25963,-0.014 3.484013,0.70794 0.731599,0.43137 1.667389,0.82293 2.079509,0.87012 l 0.74932,0.0858 v 2.24896 c 0,2.13081 -0.0313,2.2534 -0.59531,2.3335 -0.6949,0.0987 -0.69354,0.0892 -0.23419,1.62565 l 0.35308,1.18103 1.42884,0.0869 c 2.0463,0.12444 3.26008,0.77707 3.36058,1.80692 0.12026,1.23239 -0.48704,1.61038 -1.95603,1.21749 -3.77345,-1.00925 -6.922675,0.73881 -7.498448,4.1622 -0.191436,1.13824 -0.81399,1.42758 -0.805827,0.37451 z m 3.72502,-7.27122 c 0.494659,-0.16713 0.930409,-0.32715 0.968349,-0.3556 0.0379,-0.0285 -0.10197,-0.53624 -0.31089,-1.12839 -0.27843,-0.78914 -0.33925,-1.75754 -0.22775,-3.62637 0.0874,-1.46483 0.0508,-2.52018 -0.086,-2.48029 -0.13096,0.0382 -0.51619,-0.0846 -0.856076,-0.2728 -0.339884,-0.18822 -0.67664,-0.28356 -0.748347,-0.21185 -0.07171,0.0717 0.186615,1.70251 0.57405,3.624 0.492501,2.44256 0.620752,3.57731 0.426294,3.77176 -0.373417,0.37342 -0.424627,0.20882 -1.299199,-4.17597 -0.677664,-3.39758 -0.7889,-3.7114 -1.343935,-3.79149 -0.589199,-0.085 -0.592215,-0.0744 -0.11466,0.40313 0.36114,0.36114 0.656786,1.55269 1.121275,4.5191 0.346951,2.21575 0.713319,4.02863 0.814154,4.02863 0.100836,0 0.588055,-0.13674 1.082715,-0.30386 z m 1.615979,-5.18624 c -0.12953,-2.01057 -0.25586,-2.18404 -0.28904,-0.39688 -0.0169,0.90951 0.0595,1.65365 0.16966,1.65365 0.11019,0 0.16391,-0.56555 0.11938,-1.25677 z m -23.939971,11.15041 c -0.460826,-0.46083 0.325485,-0.63323 2.888116,-0.63323 2.109756,0 2.757979,0.0802 2.674876,0.33073 -0.11833,0.35681 -5.23069,0.63481 -5.562992,0.3025 z m -0.0087,-1.33159 c -0.413099,-0.4131 0.246672,-0.62455 1.948699,-0.62455 1.456028,0 1.836469,0.0822 1.836469,0.39687 0,0.31406 -0.377277,0.39688 -1.807986,0.39688 -0.994393,0 -1.884125,-0.0761 -1.977182,-0.1692 z m 9.341417,-17.13246 c 0,-0.0571 0.64734,-1.13484 1.438532,-2.39507 0.791193,-1.26022 1.629422,-2.86602 1.862731,-3.56845 0.391565,-1.1789 0.390325,-1.3618 -0.01612,-2.37761 -0.795149,-1.98727 -3.201606,-2.5779 -4.850463,-1.19048 -1.55013,1.30435 -1.477132,3.17744 0.232088,5.95528 0.552576,0.89805 0.751867,1.45685 0.580637,1.62808 -0.557253,0.55726 -2.686989,-3.67461 -2.686989,-5.33915 0,-1.8792 1.898708,-3.72054 3.836458,-3.72054 1.146286,0 2.543354,0.78761 3.235872,1.82425 1.138651,1.70445 0.684738,3.63288 -1.769969,7.51964 -0.614055,0.97228 -1.284384,1.76779 -1.48962,1.76779 -0.205237,0 -0.373158,-0.0467 -0.373158,-0.10374 z m -0.79375,-5.98167 c -0.738409,-0.73841 -0.669811,-1.70305 0.167974,-2.36205 0.383426,-0.3016 0.84362,-0.54837 1.022651,-0.54837 0.567565,0 1.719792,1.07646 1.719792,1.6067 0,0.72596 -0.496147,0.63126 -0.79375,-0.15149 -0.268391,-0.70593 -1.007056,-0.87149 -1.534583,-0.34396 -0.527527,0.52753 -0.361964,1.26619 0.343958,1.53458 0.363802,0.13832 0.661458,0.3735 0.661458,0.52262 0,0.46479 -1.032498,0.29697 -1.5875,-0.25803 z"
         id="path1005"
         inkscape:connector-curvature="0" />
      <path
         style="fill:#cecece;stroke-width:0.26458332"
         d="m 77.447324,137.21056 c 0,-0.16035 1.146527,-0.26458 2.910416,-0.26458 1.763889,0 2.910417,0.10423 2.910417,0.26458 0,0.16036 -1.146528,0.26459 -2.910417,0.26459 -1.763889,0 -2.910416,-0.10423 -2.910416,-0.26459 z m 20.902082,0 c 0,-0.16105 1.190625,-0.26458 3.042704,-0.26458 1.85209,0 3.04271,0.10353 3.04271,0.26458 0,0.16106 -1.19062,0.26459 -3.04271,0.26459 -1.852079,0 -3.042704,-0.10353 -3.042704,-0.26459 z m 9.525004,-0.26458 c 0,-0.14699 0.70555,-0.26458 1.5875,-0.26458 0.88194,0 1.5875,0.11759 1.5875,0.26458 0,0.14699 -0.70556,0.26458 -1.5875,0.26458 -0.88195,0 -1.5875,-0.11759 -1.5875,-0.26458 z M 78.116606,136.0777 c -1.127654,-0.63868 -2.256782,-2.07713 -2.256782,-2.87501 0,-0.73365 0.442057,-0.59047 0.733472,0.23756 0.368998,1.04848 1.563599,2.13635 2.729529,2.48567 1.931915,0.57882 4.261927,-0.58409 4.980284,-2.48567 0.273936,-0.72514 0.817131,-1.00442 0.817131,-0.42012 0,0.16912 -0.295973,0.81253 -0.657718,1.4298 -1.227978,2.09538 -4.18232,2.85319 -6.345916,1.62777 z m 22.196384,0.10196 c -3.599974,-1.63502 -3.627857,-6.9924 -0.0454,-8.72662 2.12908,-1.03068 4.15371,-0.5929 5.82779,1.26011 3.49223,3.86548 -0.98423,9.64572 -5.78237,7.46651 z m 3.33982,-0.2909 c 1.94339,-0.53989 3.34737,-2.90649 2.90027,-4.88885 -0.47916,-2.12453 -1.95889,-3.31177 -4.12965,-3.31336 -3.93525,-0.003 -5.634319,4.66444 -2.69492,7.40291 0.99528,0.92724 2.41954,1.21733 3.9243,0.7993 z m -2.06953,-2.52966 c -0.32342,-0.22653 -0.58804,-0.58372 -0.58804,-0.79375 0,-0.51316 0.16491,-0.48154 0.79981,0.15336 0.42512,0.42511 0.64286,0.47763 1.05834,0.25527 0.2877,-0.15397 0.5231,-0.39482 0.5231,-0.53522 0,-0.1404 0.11906,-0.25528 0.26458,-0.25528 0.14552,0 0.26459,0.17184 0.26459,0.38187 0,0.3992 -0.97338,1.20563 -1.45521,1.20563 -0.15352,0 -0.54375,-0.18534 -0.86717,-0.41188 z m -22.405292,0.0825 c -0.290002,-0.41404 -0.323566,-0.62475 -0.110812,-0.69567 0.167859,-0.0559 0.413759,0.0923 0.546445,0.32935 0.30213,0.53988 1.10341,0.5577 1.537869,0.0342 0.368909,-0.4445 0.79375,-0.52543 0.79375,-0.15119 0,0.49912 -0.854048,1.07723 -1.591396,1.07723 -0.487532,0 -0.908938,-0.21285 -1.175856,-0.59393 z m -6.694607,-3.30867 c 0.11552,-1.53686 0.648368,-3.12456 1.724005,-5.13692 0.05174,-0.0968 -0.132543,-0.24791 -0.409512,-0.33582 -0.718596,-0.22807 -1.11305,-1.273 -1.11305,-2.94853 0,-1.06379 0.108969,-1.49288 0.408286,-1.60774 0.606417,-0.2327 0.655548,-0.0632 0.417767,1.44095 -0.256313,1.62143 0.06484,2.46888 1.028146,2.71307 0.746318,0.1892 0.734961,0.54038 -0.05327,1.64735 -0.652129,0.91583 -1.536345,3.62903 -1.536345,4.71423 0,0.73329 0.05551,0.77018 1.158825,0.77018 h 1.158824 l 0.115087,-1.59105 c 0.122387,-1.69199 0.596271,-2.57674 1.902494,-3.55197 0.622307,-0.46463 1.117257,-0.54552 3.337687,-0.54552 2.230778,0 2.714838,0.0799 3.354035,0.55349 1.008748,0.74744 1.937631,2.16033 1.937631,2.94727 0,0.94733 -0.613138,0.59818 -0.832428,-0.47403 -0.103895,-0.50799 -0.542376,-1.22215 -1.003162,-1.63386 -0.766024,-0.68444 -0.972086,-0.73141 -3.208806,-0.73141 -3.629267,0 -4.745187,0.86801 -4.745187,3.69103 v 1.33605 h 9.525 c 6.173611,0 9.525,0.0931 9.525,0.26458 0,0.1723 -3.980601,0.26459 -11.412635,0.26459 H 72.349138 Z m 23.825211,0.70095 c 0.478752,-3.56935 4.536268,-6.08722 7.940358,-4.92733 0.86744,0.29557 1.26826,0.32618 1.4813,0.11314 0.91569,-0.91569 -0.60941,-1.64525 -3.41209,-1.63223 -1.62026,0.008 -2.23149,0.13792 -3.331113,0.71061 -1.455947,0.75828 -2.810253,2.13199 -3.473918,3.52371 -0.229388,0.48104 -0.667332,0.94179 -0.973209,1.0239 -1.00731,0.27041 -4.513515,0.14415 -5.097978,-0.18358 -1.283806,-0.71988 -2.323349,-2.95496 -2.148971,-4.6204 l 0.07623,-0.72804 -3.902604,-0.0732 c -5.628851,-0.10561 -5.031873,-0.58824 0.727605,-0.58824 h 4.630208 v -0.60854 c 0,-1.19949 -0.254367,-1.24354 -7.181052,-1.24354 -4.078631,0 -6.607688,0.0997 -6.709573,0.26458 -0.106885,0.17295 1.62885,0.26458 5.011468,0.26458 3.273605,0 5.17499,0.0972 5.17499,0.26459 0,0.1676 -1.947627,0.26458 -5.313715,0.26458 -4.132673,0 -5.289507,0.0735 -5.204796,0.33073 0.05991,0.1819 0.367483,0.36878 0.683507,0.41528 0.842514,0.12397 0.702687,0.62692 -0.146886,0.52834 -1.300213,-0.15088 -1.626979,-1.90398 -0.495688,-2.65936 0.160116,-0.10691 3.338526,-0.19621 7.063134,-0.19844 6.322454,-0.004 6.802245,0.0294 7.227414,0.49916 0.306533,0.33872 0.428052,0.83604 0.371736,1.52136 -0.06766,0.82339 -0.197538,1.03431 -0.678977,1.10269 -0.500104,0.071 -0.595312,0.24811 -0.595312,1.10725 0,1.25408 0.385277,2.32113 1.122078,3.10768 0.500894,0.53471 0.808151,0.59531 3.018289,0.59531 h 2.460627 l 0.43329,-0.85989 c 0.23831,-0.47295 0.778505,-1.22415 1.200433,-1.66936 l 0.767143,-0.80945 -0.898622,-0.42852 c -0.833544,-0.39749 -0.920457,-0.55922 -1.200134,-2.23326 -0.165831,-0.9926 -0.36758,-2.13215 -0.448331,-2.53233 -0.105085,-0.52078 -0.04014,-0.72761 0.228477,-0.72761 0.26839,0 0.470805,0.64197 0.710582,2.25364 0.35912,2.41385 0.787791,3.03803 2.086429,3.03803 0.51752,0 0.607396,-0.10727 0.498777,-0.59531 -0.07287,-0.32742 -0.406104,-2.34622 -0.740519,-4.48622 l -0.608026,-3.8909 -1.468404,-0.0778 c -1.191888,-0.0632 -1.486248,-0.17152 -1.563155,-0.57531 -0.139761,-0.73377 0.410217,-0.94917 2.435052,-0.95369 1.470752,-0.003 2.062175,0.12978 3.108853,0.69946 1.261881,0.6868 1.642321,1.14857 0.946271,1.14857 -0.190467,0 -0.57742,-0.17481 -0.859895,-0.38846 -0.282474,-0.21365 -0.586414,-0.39225 -0.675423,-0.39687 -0.08901,-0.005 0.173752,1.62869 0.583914,3.6296 0.883444,4.30978 0.854624,4.0349 0.423095,4.0349 -0.234886,0 -0.590068,-1.27021 -1.10976,-3.96875 l -0.764312,-3.96875 -1.73451,0.0489 c -1.695209,0.0478 -1.702766,0.0512 -0.333485,0.14654 1.70786,0.11896 1.631705,-0.0423 2.426317,5.13663 l 0.594844,3.87691 1.162344,-0.39605 c 0.639281,-0.21783 1.162341,-0.42278 1.162341,-0.45545 0,-0.0327 -0.16816,-0.64655 -0.37369,-1.36419 -0.26935,-0.94044 -0.32476,-1.96973 -0.19844,-3.68604 l 0.17525,-2.38125 h 0.79375 0.79375 v 2.24896 c 0,2.24011 -0.003,2.24928 -0.70622,2.33061 l -0.70621,0.0817 0.46599,1.37355 0.46599,1.37355 1.56315,0.1522 c 2.08557,0.20306 3.12858,0.72032 3.23115,1.60243 0.11164,0.9601 -0.62779,1.65167 -1.51133,1.41353 -0.37722,-0.10167 -1.41603,-0.24056 -2.30847,-0.30865 -1.2855,-0.0981 -1.84365,-0.011 -2.686388,0.4189 -1.431361,0.73023 -2.602899,2.21519 -2.976594,3.77292 -0.379443,1.5817 -0.913964,1.73115 -0.708333,0.19806 z m 5.480398,-12.40876 c 0,-1.23472 -0.0882,-1.5875 -0.39688,-1.5875 -0.30868,0 -0.39687,0.35278 -0.39687,1.5875 0,1.23472 0.0882,1.5875 0.39687,1.5875 0.30869,0 0.39688,-0.35278 0.39688,-1.5875 z m -23.967007,11.39913 c -0.06054,-0.0606 -0.110076,-0.20946 -0.110076,-0.33073 0,-0.31677 5.227194,-0.27427 5.423958,0.0441 0.08994,0.14552 0.0672,0.26942 -0.05053,0.27533 -1.747879,0.0878 -5.179612,0.0952 -5.263352,0.0113 z m -0.110076,-1.47726 c 0,-0.31498 0.382176,-0.39687 1.852083,-0.39687 1.469908,0 1.852084,0.0819 1.852084,0.39687 0,0.31498 -0.382176,0.39688 -1.852084,0.39688 -1.469907,0 -1.852083,-0.0819 -1.852083,-0.39688 z m 18.929786,-4.16718 c -0.637024,-2.91053 -0.817275,-4.96094 -0.436114,-4.96094 0.214362,0 0.467316,1.14593 0.978269,4.43177 0.185187,1.19092 -0.294783,1.65939 -0.542155,0.52917 z m -9.505548,-12.96459 c 0.107278,-0.1819 0.645906,-1.05135 1.196951,-1.93211 2.517997,-4.02463 2.816026,-5.69049 1.290904,-7.21561 -1.638183,-1.63818 -4.163466,-1.19417 -5.160722,0.90739 -0.563839,1.1882 -0.375331,2.08491 0.953602,4.53617 0.797669,1.47132 0.943683,1.91823 0.626724,1.91823 -0.518697,0 -2.510864,-4.03671 -2.510864,-5.08774 0,-2.8158 3.138143,-4.755453 5.55625,-3.43425 1.230479,0.6723 2.116719,2.01364 2.116458,3.2033 -3.44e-4,1.5729 -3.086336,7.42748 -3.91801,7.43304 -0.204936,0.001 -0.266707,-0.13272 -0.151293,-0.32842 z m -0.947265,-5.80457 c -0.661423,-0.70996 -0.684077,-1.30926 -0.07645,-2.02249 0.772249,-0.90646 1.983269,-0.85938 2.612919,0.10159 0.324448,0.49517 0.363944,0.7534 0.148223,0.96912 -0.215721,0.21572 -0.367237,0.10167 -0.568626,-0.42802 -0.221174,-0.58173 -0.415962,-0.70583 -1.00202,-0.6384 -0.570727,0.0657 -0.745468,0.24 -0.81098,0.80908 -0.06479,0.56276 0.06681,0.79385 0.587016,1.03087 0.368786,0.16803 0.607696,0.40717 0.53091,0.53141 -0.245507,0.39724 -0.865421,0.24317 -1.42099,-0.35316 z"
         id="path1003"
         inkscape:connector-curvature="0" />
      <path
         style="fill:#bcbcbc;stroke-width:0.26458332"
         d="m 77.447324,137.21056 c 0,-0.16035 1.146527,-0.26458 2.910416,-0.26458 1.763889,0 2.910417,0.10423 2.910417,0.26458 0,0.16036 -1.146528,0.26459 -2.910417,0.26459 -1.763889,0 -2.910416,-0.10423 -2.910416,-0.26459 z m 21.166666,0 c 0,-0.15949 1.097224,-0.26458 2.76251,-0.26458 1.55627,0 2.83391,0.11553 2.92603,0.26458 0.10525,0.1703 -0.8792,0.26459 -2.76251,0.26459 -1.774296,0 -2.92603,-0.10415 -2.92603,-0.26459 z m 9.26042,-0.26458 c 0,-0.14699 0.70555,-0.26458 1.5875,-0.26458 0.88194,0 1.5875,0.11759 1.5875,0.26458 0,0.14699 -0.70556,0.26458 -1.5875,0.26458 -0.88195,0 -1.5875,-0.11759 -1.5875,-0.26458 z m -29.520968,-0.79874 c -1.170336,-0.57932 -2.105377,-1.65915 -2.378307,-2.74659 -0.25658,-1.0223 0.255088,-0.83309 0.642212,0.23748 0.46693,1.29128 1.883476,2.30279 3.420818,2.44271 2.049955,0.18657 3.867249,-1.07507 4.645342,-3.22499 0.05484,-0.15152 0.178867,-0.20271 0.275622,-0.11375 0.258334,0.23752 -0.315198,1.59422 -0.980992,2.32056 -0.774324,0.84473 -2.482938,1.60584 -3.620397,1.61272 -0.509323,0.003 -1.411257,-0.23458 -2.004298,-0.52814 z m 22.244918,0.16567 c -1.739869,-0.76231 -3.047797,-2.76964 -3.035417,-4.6586 0.0067,-1.02576 0.888167,-2.72632 1.819177,-3.50971 2.22808,-1.87481 5.41707,-1.385 7.08362,1.088 2.55327,3.78879 -1.69082,8.91023 -5.86738,7.08031 z m 3.84655,-0.75599 c 1.60036,-0.80702 2.51328,-2.56179 2.24914,-4.3232 -0.35476,-2.36573 -2.75402,-4.09134 -5.08144,-3.65472 -1.26548,0.23741 -2.914517,1.74884 -3.295522,3.02052 -0.596787,1.99189 0.375449,4.19552 2.220602,5.03312 1.47154,0.668 2.47077,0.64864 3.90722,-0.0757 z m -2.86163,-2.19782 c -0.32342,-0.22653 -0.58804,-0.60447 -0.58804,-0.83987 0,-0.35184 0.10896,-0.32563 0.61236,0.1473 0.76019,0.71416 1.1415,0.72539 1.56571,0.0461 0.38721,-0.62003 0.73235,-0.68944 0.73235,-0.1473 0,0.3992 -0.97338,1.20563 -1.45521,1.20563 -0.15352,0 -0.54375,-0.18534 -0.86717,-0.41188 z m -22.085435,0.39069 c -0.254662,-0.14833 -0.463021,-0.44236 -0.463021,-0.65341 0,-0.50312 0.430211,-0.49407 0.624847,0.0131 0.209178,0.54511 1.407448,0.50065 1.723411,-0.064 0.141837,-0.25345 0.345461,-0.37324 0.452497,-0.2662 0.304458,0.30445 -0.703341,1.2571 -1.320408,1.24814 -0.304868,-0.004 -0.762665,-0.1294 -1.017326,-0.27773 z m -7.013149,-3.53642 c 0.09002,-1.12151 0.414067,-2.29782 0.946308,-3.43519 l 0.809405,-1.72966 -0.777793,-0.77779 c -0.653054,-0.65306 -0.777792,-0.98975 -0.777792,-2.09942 0,-0.7269 0.07227,-1.50996 0.160599,-1.74015 0.204069,-0.53179 0.897734,-0.54851 0.897734,-0.0216 0,0.21828 -0.119062,0.39688 -0.264583,0.39688 -0.348584,0 -0.341359,2.27258 0.0093,2.92781 0.150641,0.28147 0.500801,0.51177 0.778135,0.51177 0.848973,0 0.824268,0.38718 -0.145474,2.27982 -0.601805,1.17454 -0.988545,2.36143 -1.089159,3.34258 l -0.15601,1.52135 h 1.227641 1.227641 v -1.13456 c 0,-1.53281 0.956033,-3.34795 2.116667,-4.01876 1.320615,-0.76327 5.03076,-0.76682 6.322343,-0.006 1.118662,0.65892 1.823195,1.59458 2.042049,2.71198 0.239048,1.2205 -0.277404,1.07928 -0.654374,-0.17894 -0.602612,-2.01134 -2.6269,-2.93369 -5.652199,-2.57539 -2.322557,0.27507 -3.318217,1.31511 -3.567045,3.72602 l -0.152306,1.47571 h 9.694307 c 6.286483,0 9.694308,0.093 9.694308,0.26458 0,0.1723 -3.980825,0.26459 -11.413308,0.26459 H 72.347792 Z m 23.748044,1.2732 c 0,-1.78472 1.654786,-4.20921 3.534158,-5.17802 1.239242,-0.63882 3.882162,-0.77999 4.847192,-0.2589 0.76078,0.4108 1.45744,0.12397 1.35608,-0.55832 -0.17137,-1.15347 -3.76853,-1.62429 -6.166706,-0.80715 -1.399575,0.47688 -3.633292,2.49587 -4.418314,3.99357 l -0.450715,0.8599 h -2.740929 c -2.6492,0 -2.763642,-0.0243 -3.419561,-0.72761 -1.028796,-1.10303 -1.272455,-1.74567 -1.272455,-3.35604 v -1.4726 h -3.984365 c -2.588868,0 -3.927092,-0.0927 -3.820843,-0.26459 0.0986,-0.15954 1.943025,-0.26458 4.645823,-0.26458 h 4.482302 v -0.60854 c 0,-1.20161 -0.246587,-1.24354 -7.313343,-1.24354 -4.166826,0 -6.739839,0.0995 -6.841865,0.26458 -0.106939,0.17303 1.672947,0.26458 5.14376,0.26458 3.361798,0 5.307281,0.097 5.307281,0.26459 0,0.1676 -1.947627,0.26458 -5.313715,0.26458 -4.132673,0 -5.289507,0.0735 -5.204796,0.33073 0.05991,0.1819 0.367483,0.36878 0.683507,0.41528 0.711077,0.10463 0.763732,0.57691 0.06432,0.57691 -1.209422,0 -1.778355,-1.63959 -0.857961,-2.47254 0.423256,-0.38304 1.317943,-0.43788 7.14375,-0.43788 6.307117,0 6.687925,0.028 7.189062,0.52917 0.323492,0.32349 0.529166,0.88194 0.529166,1.4368 0,0.73982 -0.110074,0.92328 -0.595312,0.99219 -1.102968,0.15665 -0.963631,2.98965 0.209254,4.25456 0.64475,0.69533 0.77782,0.72478 3.275083,0.72478 h 2.603026 l 0.350231,-0.84553 c 0.192627,-0.46504 0.684644,-1.22641 1.093372,-1.69192 l 0.743142,-0.84639 -0.897484,-0.52953 c -0.853376,-0.50351 -0.91414,-0.64148 -1.236361,-2.8073 -0.186381,-1.25277 -0.262888,-2.35375 -0.170016,-2.44662 0.223364,-0.22337 0.335807,0.18156 0.717798,2.58493 0.299363,1.88351 0.376758,2.04342 1.172692,2.42297 1.685559,0.80379 1.699913,0.52936 0.374038,-7.15155 l -0.285451,-1.65364 h -1.263359 c -1.454535,0 -2.149631,-0.51961 -1.592736,-1.19063 0.236583,-0.28506 0.862363,-0.39687 2.221243,-0.39687 1.717911,0 2.021157,0.0851 3.297989,0.92604 0.796478,0.52454 1.740248,0.92604 2.176778,0.92604 h 0.77066 v 2.11667 2.11666 h -0.82206 c -0.6509,0 -0.78763,0.0897 -0.65669,0.43095 0.0909,0.23701 0.29252,0.93591 0.44793,1.5531 l 0.28256,1.12216 1.6309,0.13605 c 0.89699,0.0748 1.96117,0.28932 2.36485,0.47664 0.97486,0.45237 1.22167,1.45454 0.52883,2.14738 -0.50605,0.50604 -0.58178,0.51001 -1.95296,0.10237 -3.36631,-1.0008 -6.615359,0.97718 -7.254198,4.41625 -0.182972,0.985 -0.654582,1.38837 -0.654582,0.55986 z m 3.90651,-7.4385 c 0.84195,-0.18246 0.94131,-0.4648 0.56066,-1.5932 -0.19485,-0.57765 -0.31022,-2.02951 -0.27815,-3.50055 l 0.0548,-2.51355 -0.96409,-0.47431 c -0.530252,-0.26087 -0.998985,-0.43942 -1.041633,-0.39677 -0.06743,0.0674 0.931455,5.31333 1.342128,7.04854 0.101058,0.427 0.04327,0.58662 -0.184849,0.51058 -0.193548,-0.0645 -0.667043,-1.75706 -1.13602,-4.06079 l -0.804148,-3.95016 -1.42367,-0.0812 c -2.060159,-0.11746 -2.664167,0.28992 -0.692996,0.46741 l 1.587499,0.14293 0.705443,4.10104 c 0.387993,2.25558 0.715415,4.26261 0.727604,4.46008 0.01466,0.23751 0.178888,0.29316 0.485183,0.16442 0.254661,-0.10705 0.732671,-0.25306 1.062239,-0.32449 z m 1.64974,-5.62292 c 0,-1.23472 -0.0882,-1.5875 -0.39688,-1.5875 -0.30868,0 -0.39687,0.35278 -0.39687,1.5875 0,1.23472 0.0882,1.5875 0.39687,1.5875 0.30869,0 0.39688,-0.35278 0.39688,-1.5875 z m -24.077083,11.1125 c 0,-0.15875 1.058333,-0.26459 2.645833,-0.26459 1.5875,0 2.645834,0.10584 2.645834,0.26459 0,0.15875 -1.058334,0.26458 -2.645834,0.26458 -1.5875,0 -2.645833,-0.10583 -2.645833,-0.26458 z m 0.132292,-1.05834 c -0.103165,-0.16692 0.531624,-0.26458 1.719791,-0.26458 1.188168,0 1.822956,0.0977 1.719792,0.26458 -0.08994,0.14553 -0.863843,0.26459 -1.719792,0.26459 -0.855948,0 -1.629854,-0.11906 -1.719791,-0.26459 z m 18.917346,-3.71739 c -1.99e-4,-0.0655 -0.17863,-1.13109 -0.396513,-2.36802 -0.457778,-2.59881 -0.499736,-3.39026 -0.160606,-3.02948 0.376237,0.40026 1.070026,4.98008 0.797619,5.26521 -0.132077,0.13824 -0.240301,0.19777 -0.2405,0.13229 z m -9.524638,-13.40846 c 0,-0.17056 0.343915,-0.8221 0.764256,-1.44786 1.30593,-1.94413 2.444655,-4.3214 2.58574,-5.39814 0.177477,-1.35446 -0.711467,-2.71309 -2.127889,-3.25218 -1.384708,-0.52702 -2.935673,-0.009 -3.793169,1.26785 -0.837398,1.24655 -0.763902,1.97318 0.454395,4.49247 1.151876,2.38193 1.162864,2.41372 0.834408,2.41372 -0.326563,0 -2.106826,-3.56281 -2.303134,-4.60922 -0.116542,-0.62122 -0.0022,-1.26646 0.375714,-2.12089 0.444453,-1.00476 0.766485,-1.32679 1.771245,-1.77124 2.807143,-1.241733 5.734828,0.89629 5.289925,3.86312 -0.246747,1.64542 -3.851491,7.78737 -3.851491,6.56237 z m -0.797511,-5.84274 c -0.655726,-0.53097 -0.785036,-1.66747 -0.261499,-2.2983 0.5503,-0.66307 2.035305,-0.50428 2.543959,0.27203 0.241348,0.36834 0.35014,0.75529 0.24176,0.85989 -0.108379,0.1046 -0.377155,-0.0777 -0.597278,-0.40513 -0.499482,-0.74295 -1.542293,-0.77784 -1.924129,-0.0644 -0.23329,0.4359 -0.163921,0.65116 0.387567,1.20265 1.015033,1.01503 0.725255,1.33662 -0.39038,0.43323 z"
         id="path1001"
         inkscape:connector-curvature="0" />
      <path
         style="fill:#acacac;stroke-width:0.26458332"
         d="m 77.711907,137.21056 c 0,-0.15958 1.102431,-0.26458 2.778125,-0.26458 1.675694,0 2.778125,0.105 2.778125,0.26458 0,0.15959 -1.102431,0.26459 -2.778125,0.26459 -1.675694,0 -2.778125,-0.105 -2.778125,-0.26459 z m 20.902083,0 c 0,-0.15958 1.102431,-0.26458 2.77812,-0.26458 1.6757,0 2.77813,0.105 2.77813,0.26458 0,0.15959 -1.10243,0.26459 -2.77813,0.26459 -1.675689,0 -2.77812,-0.105 -2.77812,-0.26459 z m 9.39271,-0.26458 c 0.0899,-0.14552 0.75181,-0.26458 1.47082,-0.26458 0.71902,0 1.3073,0.11906 1.3073,0.26458 0,0.14552 -0.66187,0.26458 -1.47082,0.26458 -0.91317,0 -1.40883,-0.10031 -1.3073,-0.26458 z m -29.368751,-0.75386 c -1.235574,-0.58286 -2.096826,-1.45122 -2.50332,-2.52398 -0.41389,-1.09228 -0.116007,-1.19167 0.335177,-0.11184 0.431178,1.03195 1.769839,2.2545 2.733447,2.49635 2.027816,0.50895 4.524887,-0.65962 5.159464,-2.41452 0.184063,-0.50901 0.431402,-0.92548 0.549642,-0.92548 0.293707,0 -0.49948,1.84725 -1.058356,2.4648 -1.187038,1.31166 -3.593939,1.77987 -5.216054,1.01467 z m 22.266061,0.10334 c -2.034015,-0.72522 -3.159364,-2.35886 -3.159364,-4.58635 0,-1.67508 0.952095,-3.25551 2.456844,-4.07824 1.36965,-0.74886 3.85271,-0.56301 5.09038,0.38101 1.17246,0.89427 1.84984,2.32214 1.84984,3.89929 0,2.11524 -1.38436,3.92234 -3.44271,4.494 -1.24751,0.34647 -1.54874,0.33465 -2.79499,-0.10971 z m 3.37214,-0.51203 c 2.20019,-0.9193 3.17892,-3.98052 1.9546,-6.11349 -0.68362,-1.19098 -2.4679,-2.25256 -3.77022,-2.24315 -1.99644,0.0144 -3.985166,1.65883 -4.29186,3.54877 -0.578348,3.56393 2.77214,6.20147 6.10748,4.80787 z m -3.00702,-2.7888 c -0.43575,-0.81422 -0.31932,-0.9597 0.26558,-0.33187 0.29671,0.31848 0.70879,0.57905 0.91574,0.57905 0.20694,0 0.61902,-0.26057 0.91573,-0.57905 0.29671,-0.31848 0.53948,-0.44605 0.53948,-0.28348 0,1.0479 -2.13798,1.54689 -2.63653,0.61535 z m -21.796424,0.55708 c -0.580796,-0.64177 -0.562253,-1.02788 0.02514,-0.52344 0.855566,0.73475 1.102611,0.76458 1.666044,0.20115 0.697982,-0.69799 1.043629,-0.45138 0.385945,0.27536 -0.59887,0.66174 -1.502259,0.68215 -2.077128,0.0469 z m -6.876077,-1.8092 c -0.548595,-0.5486 0.358878,-4.47356 1.393315,-6.02631 l 0.518795,-0.77874 -0.779666,-0.47414 c -0.742994,-0.45184 -0.779666,-0.5607 -0.779666,-2.3145 0,-1.71963 0.273701,-2.49899 0.658791,-1.8759 0.0914,0.14789 0.0401,0.26889 -0.114009,0.26889 -0.163245,0 -0.280198,0.6074 -0.280198,1.45521 0,1.5131 0.579203,2.51354 1.455208,2.51354 0.523919,0 0.501501,0.16826 -0.143022,1.07341 -0.747729,1.05009 -1.57677,3.56799 -1.57677,4.78885 v 1.01691 h 1.322917 1.322917 v -1.49012 c 0,-2.97445 1.397053,-4.06675 5.199361,-4.06514 3.176528,0.001 4.198218,0.62004 4.865382,2.94631 0.127881,0.4459 0.115947,0.75687 -0.02905,0.75687 -0.135362,0 -0.246113,-0.19431 -0.246113,-0.43179 0,-0.77193 -1.045167,-2.1475 -1.962386,-2.58275 -1.278476,-0.60668 -4.516005,-0.57346 -5.694216,0.0584 -1.16856,0.62671 -1.868398,1.9554 -1.868398,3.5473 v 1.2609 h 9.525 c 6.17361,0 9.524999,0.0931 9.524999,0.26458 0,0.29804 -22.016329,0.38506 -22.313194,0.0882 z m 23.941813,-1.21267 c 0.338828,-1.52737 1.328399,-2.9571 2.653797,-3.8342 0.993091,-0.6572 1.315571,-0.72604 3.238891,-0.69138 1.17479,0.0212 2.43364,0.0807 2.79744,0.13229 0.52114,0.0739 0.67955,-0.0336 0.74673,-0.50702 0.11952,-0.84212 -1.41261,-1.44525 -3.63879,-1.43241 -1.40108,0.008 -2.02354,0.16881 -3.443954,0.88926 -1.480727,0.75104 -1.906637,1.14005 -2.918168,2.66533 l -1.184393,1.78594 h -2.67209 c -2.433383,0 -2.720718,-0.0532 -3.216429,-0.59531 -0.929559,-1.01661 -1.399986,-2.23465 -1.399986,-3.62489 v -1.33605 l -3.902604,-0.051 -3.902604,-0.051 4.497917,-0.17014 c 2.473854,-0.0936 4.527682,-0.1897 4.564062,-0.21362 0.204875,-0.1347 0.01785,-1.30886 -0.251354,-1.57807 -0.406851,-0.40685 -13.587813,-0.45726 -13.837708,-0.0529 -0.106879,0.17294 1.623645,0.26458 4.995853,0.26458 3.15418,0 5.222928,0.10284 5.322897,0.26459 0.106938,0.17303 -1.672947,0.26458 -5.14376,0.26458 -3.245071,0 -5.307282,0.0995 -5.307282,0.25613 0,0.14088 0.327422,0.43377 0.727604,0.65087 0.642289,0.34845 0.662609,0.39597 0.173299,0.40532 -0.688971,0.0132 -1.430069,-0.77276 -1.430069,-1.51659 0,-1.26112 0.682517,-1.38323 7.731787,-1.38323 6.265512,0 6.579827,0.0241 7.100479,0.54477 0.746902,0.7469 0.623657,2.19885 -0.196554,2.31561 -1.251006,0.17809 -0.958426,3.1847 0.44664,4.58976 0.706665,0.70667 0.8846,0.7517 2.955107,0.74789 2.407603,-0.004 2.621667,-0.0766 3.127881,-1.05428 0.188362,-0.3638 0.682906,-1.0959 1.098988,-1.62689 L 97.02858,125.6224 96.164,125.11229 c -0.813726,-0.48011 -0.885438,-0.64607 -1.219178,-2.82147 -0.195028,-1.27124 -0.294017,-2.37193 -0.219976,-2.44597 0.137091,-0.13709 0.191411,0.0848 0.743069,3.03491 0.283518,1.51619 0.398565,1.71705 1.203266,2.10079 1.518055,0.72391 1.593683,0.36782 0.899446,-4.23497 -0.335161,-2.22213 -0.701379,-4.21165 -0.813817,-4.42116 -0.128961,-0.24031 -0.651778,-0.38935 -1.416196,-0.40372 -0.666471,-0.0125 -1.347141,-0.15815 -1.512599,-0.32361 -0.606092,-0.60609 0.06759,-0.87611 2.185878,-0.87611 1.700834,0 2.338797,0.11669 3.159386,0.57789 0.565515,0.31784 1.028211,0.68679 1.028211,0.81988 0,0.1331 -0.416719,-0.004 -0.926042,-0.30438 -1.12676,-0.6648 -1.117536,-0.78348 -0.264583,3.40453 0.654587,3.21403 0.785056,4.18054 0.529881,3.92537 -0.102801,-0.10281 -1.720506,-7.68844 -1.720506,-8.06769 0,-0.0501 -0.833438,-0.091 -1.852083,-0.091 -1.058334,0 -1.852084,0.11339 -1.852084,0.26458 0,0.14552 0.580734,0.26458 1.29052,0.26458 0.709786,0 1.413935,0.14883 1.564774,0.33073 0.150838,0.1819 0.544187,2.08503 0.874109,4.22918 0.329925,2.14415 0.675481,4.02081 0.767905,4.17036 0.114316,0.18496 0.458523,0.17884 1.076516,-0.0192 0.499653,-0.16008 1.051503,-0.33414 1.226323,-0.3868 0.23209,-0.0699 0.17355,-0.52303 -0.21694,-1.67933 -0.40801,-1.20821 -0.46768,-1.70896 -0.2517,-2.11252 0.15569,-0.29091 0.28308,-1.25113 0.28308,-2.13382 0,-1.5355 0.0286,-1.6049 0.66145,-1.6049 0.65044,0 0.66146,0.0353 0.66146,2.11667 0,2.08139 -0.011,2.11666 -0.66146,2.11666 -0.78172,0 -0.77239,-0.0662 -0.2458,1.74522 0.40556,1.39509 0.43926,1.42982 1.38906,1.43126 1.99388,0.003 4.01612,0.88889 4.01612,1.75932 0,0.19573 -0.23422,0.59009 -0.52049,0.87636 -0.48625,0.48625 -0.59289,0.49495 -1.62077,0.13229 -1.56346,-0.55162 -2.81264,-0.47869 -4.39141,0.25637 -1.607668,0.74852 -2.86192,2.29843 -3.126294,3.86325 -0.09742,0.57664 -0.273073,1.04843 -0.390334,1.04843 -0.117262,0 -0.100949,-0.50601 0.03625,-1.12447 z m 5.250548,-12.10469 c 0,-1.46991 -0.0819,-1.85208 -0.39688,-1.85208 -0.311,0 -0.39687,0.36257 -0.39687,1.67569 0,0.92163 0.0794,1.75507 0.17639,1.85208 0.45916,0.45916 0.61736,0.0298 0.61736,-1.67569 z m -23.944791,11.1125 c 0.08994,-0.14552 1.22103,-0.26459 2.513541,-0.26459 1.292511,0 2.423605,0.11907 2.513542,0.26459 0.104899,0.16973 -0.796207,0.26458 -2.513542,0.26458 -1.717334,0 -2.61844,-0.0949 -2.513541,-0.26458 z m 0.727604,-1.25108 c 0.545703,-0.0571 1.438672,-0.0571 1.984375,0 0.545703,0.0571 0.09922,0.10379 -0.992188,0.10379 -1.091406,0 -1.53789,-0.0467 -0.992187,-0.10379 z M 96.5205,122.73905 c -0.165413,-0.9902 -0.366819,-2.12778 -0.44757,-2.52796 -0.08075,-0.40019 -0.03556,-0.72761 0.100421,-0.72761 0.268989,0 1.021356,4.68248 0.789604,4.91423 -0.07793,0.0779 -0.277041,-0.66846 -0.442455,-1.65866 z m -9.274078,-11.26636 c -0.0052,-0.11306 0.646483,-1.29373 1.448259,-2.6237 2.301342,-3.81741 2.511111,-5.43925 0.902808,-6.9801 -0.689733,-0.66081 -1.01728,-0.77395 -2.240576,-0.77395 -1.252227,0 -1.537035,0.10429 -2.260458,0.82771 -1.339974,1.33998 -1.340758,2.65334 -0.0031,5.23813 1.177877,2.27608 1.218322,2.38201 0.814075,2.13217 -0.149144,-0.0922 -0.703279,-1.02193 -1.231412,-2.06613 -1.481774,-2.9297 -1.272769,-4.55998 0.781197,-6.09348 0.944239,-0.70498 2.879783,-0.70498 3.824022,0 2.187931,1.63352 2.301037,3.17953 0.48465,6.6245 -1.181204,2.24029 -2.497833,4.18163 -2.519437,3.71485 z m -1.014932,-6.06504 c -0.82938,-0.82938 -0.0093,-2.59292 1.205789,-2.59292 0.654132,0 1.387128,0.658 1.387128,1.24521 0,0.28397 -0.171923,0.19509 -0.54837,-0.28348 -0.652337,-0.82932 -1.061015,-0.8747 -1.683429,-0.18694 -0.569547,0.62934 -0.339974,1.54513 0.469129,1.87141 0.555174,0.22387 0.556049,0.23117 0.02965,0.24745 -0.298318,0.009 -0.685271,-0.12611 -0.859897,-0.30073 z"
         id="path999"
         inkscape:connector-curvature="0" />
      <path
         style="fill:#9f9f9f;stroke-width:0.26458332"
         d="m 79.11063,137.27934 c 0.842058,-0.0527 2.151746,-0.0522 2.910417,0.001 0.758671,0.0533 0.06971,0.0964 -1.531015,0.0958 -1.600729,-5.3e-4 -2.22146,-0.0442 -1.379402,-0.0968 z m 20.90208,0 c 0.84206,-0.0527 2.15175,-0.0522 2.91042,0.001 0.75867,0.0533 0.0697,0.0964 -1.53102,0.0958 -1.600724,-5.3e-4 -2.221455,-0.0442 -1.3794,-0.0968 z m -21.972492,-1.39026 c -0.901184,-0.54946 -1.920536,-1.96639 -1.904466,-2.64727 0.0052,-0.21828 0.168801,-0.0397 0.363664,0.39688 0.462612,1.03641 1.73152,2.21496 2.695301,2.50337 0.543596,0.16267 0.612435,0.23559 0.236982,0.25102 -0.291042,0.012 -0.917208,-0.21483 -1.391481,-0.504 z m 3.243564,0.28201 c 1.615498,-0.38987 2.897099,-1.48898 3.298184,-2.82855 0.162719,-0.54346 0.23445,-0.61033 0.24996,-0.23302 0.05648,1.37396 -2.193227,3.34918 -3.736041,3.28021 -0.491961,-0.022 -0.456639,-0.0631 0.187897,-0.21864 z m 18.965238,-0.19924 c -2.279338,-1.12321 -3.141086,-4.24621 -1.80213,-6.53097 1.78955,-3.05363 6.34275,-2.98146 8.0905,0.12825 1.46358,2.60409 -0.14171,6.27838 -2.9402,6.72969 -0.87539,0.14117 -0.87435,0.1393 0.13511,-0.24419 3.5984,-1.36701 4.21907,-5.67098 1.14614,-7.94786 -0.57378,-0.42514 -1.13682,-0.5535 -2.42799,-0.5535 -1.29117,0 -1.85422,0.12836 -2.428,0.5535 -1.285649,0.9526 -1.937627,2.16387 -1.937627,3.59981 0,2.0787 1.095973,3.61555 3.083767,4.3243 0.57876,0.20636 0.78917,0.36512 0.48811,0.3683 -0.29104,0.003 -0.9245,-0.18923 -1.40768,-0.42733 z m -20.626158,-2.34816 c -0.323421,-0.22654 -0.588038,-0.54664 -0.588038,-0.71135 0,-0.16471 0.242763,-0.0389 0.539473,0.27958 0.683429,0.73358 1.174435,0.73349 1.688396,-2.6e-4 0.223186,-0.31864 0.477984,-0.50716 0.566218,-0.41892 0.213567,0.21356 -0.849975,1.26285 -1.280008,1.26285 -0.185901,0 -0.60262,-0.18534 -0.926041,-0.41187 z m 21.788148,-0.53307 c -0.57982,-0.57982 -0.52251,-0.82117 0.0681,-0.28669 0.60333,0.54601 1.59924,0.56867 1.80172,0.041 0.0838,-0.21828 0.27707,-0.39688 0.42958,-0.39688 0.1525,0 0.0618,0.23813 -0.20161,0.52917 -0.57402,0.63429 -1.52544,0.68572 -2.09777,0.11339 z m -28.9111,-1.61032 c -0.274458,-0.71523 0.431644,-3.55343 1.272466,-5.11472 0.5093,-0.9457 0.675219,-1.48791 0.475666,-1.55443 -0.924855,-0.30828 -1.298635,-1.11377 -1.298635,-2.79851 0,-1.60173 0.282694,-2.34826 0.658791,-1.73972 0.0914,0.14789 0.0401,0.26889 -0.114009,0.26889 -0.16525,0 -0.280198,0.63444 -0.280198,1.5465 0,1.61043 0.465956,2.42225 1.390291,2.42225 0.339229,0 0.248862,0.33329 -0.458142,1.68969 -0.952315,1.82704 -1.63657,4.35115 -1.368744,5.04909 0.128813,0.33568 0.452358,0.41587 1.426083,0.35344 l 1.25947,-0.0808 0.138763,-1.5875 c 0.07632,-0.87312 0.283926,-1.84615 0.461348,-2.16229 0.375316,-0.66875 1.586826,-1.67461 2.015258,-1.67318 0.162276,5.3e-4 -0.08612,0.23341 -0.552003,0.51747 -1.189401,0.72522 -1.709971,1.86369 -1.61373,3.52919 l 0.07953,1.37631 9.525,0.13732 9.525,0.13733 -11.18695,0.0611 c -10.207322,0.0558 -11.201687,0.0227 -11.355255,-0.37748 z m 24.028105,-0.36935 c -0.05636,-1.24062 1.262253,-3.41803 2.573496,-4.2496 0.661969,-0.41981 1.388629,-0.76067 1.614799,-0.75747 0.22617,0.003 -0.066,0.22263 -0.64938,0.48763 -1.747985,0.79409 -2.865267,2.33218 -3.389382,4.66593 -0.09418,0.41934 -0.125211,0.38893 -0.149533,-0.14649 z m -17.285884,-1.50409 c 0.768862,-0.0536 1.959487,-0.0531 2.645833,10e-4 0.686346,0.0543 0.05728,0.0982 -1.397932,0.0975 -1.455208,-7.9e-4 -2.016764,-0.0451 -1.247901,-0.0987 z m 6.141704,-0.53223 c -0.0014,-0.67485 -0.932964,-2.09425 -1.638499,-2.49666 -0.335209,-0.19119 -1.681033,-0.41602 -2.990721,-0.49963 l -2.38125,-0.15202 2.195952,-0.0464 c 2.348864,-0.0496 3.169353,0.20922 4.216123,1.33022 0.556051,0.59549 1.125142,2.32753 0.764748,2.32753 -0.09095,0 -0.16581,-0.20836 -0.166353,-0.46302 z m 3.92416,0.18875 c -0.613988,-0.35826 -1.614193,-2.03735 -1.452402,-2.4382 0.08081,-0.20022 0.141511,-0.15157 0.154176,0.12357 0.01149,0.2496 0.390409,0.87468 0.842046,1.38907 l 0.821159,0.93524 h 2.498439 2.498439 l 0.450714,-0.83283 c 0.247894,-0.45806 0.778137,-1.21792 1.17832,-1.68858 0.918485,-1.08023 0.911738,-1.30687 -0.05078,-1.70555 -0.506282,-0.20971 -0.826963,-0.56777 -0.91736,-1.02429 -0.434618,-2.1949 -0.70325,-4.07962 -0.596663,-4.1862 0.06715,-0.0672 0.262072,0.74888 0.433154,1.81341 0.43605,2.71325 0.479949,2.8188 1.362055,3.27495 0.780935,0.40384 1.820109,0.30869 1.820109,-0.16665 0,-0.13572 0.0893,-0.2251 0.198438,-0.19864 0.164819,0.04 2.420581,-0.57111 2.650701,-0.71806 0.0391,-0.025 -0.15338,-0.76635 -0.42765,-1.64756 -0.30006,-0.96412 -0.40899,-1.74368 -0.2735,-1.95745 0.12383,-0.19539 0.22698,-1.15893 0.22921,-2.14119 0.004,-1.72753 0.0257,-1.78594 0.6655,-1.78594 0.65044,0 0.66146,0.0353 0.66146,2.11667 0,2.08139 -0.011,2.11666 -0.66146,2.11666 -0.77335,0 -0.8087,0.26734 -0.2516,1.90234 0.404,1.18569 0.42974,1.2052 1.80252,1.36654 2.78112,0.32687 3.96112,1.13404 3.34388,2.28737 -0.29832,0.55741 -1.08898,0.6579 -1.98438,0.25223 -0.38707,-0.17536 -0.27594,-0.20046 0.41384,-0.0935 1.68774,0.26178 2.07587,-1.16151 0.46945,-1.72151 -3.50552,-1.22203 -7.345422,0.0668 -9.221058,3.09499 -0.424433,0.68524 -0.899651,1.39472 -1.056039,1.57662 -0.344668,0.4009 -4.931198,0.44713 -5.600723,0.0565 z m 12.480995,-10.83823 c 0,-1.46991 -0.0819,-1.85208 -0.39688,-1.85208 -0.31498,0 -0.39687,0.38217 -0.39687,1.85208 0,1.46991 0.0819,1.85208 0.39687,1.85208 0.31499,0 0.39688,-0.38217 0.39688,-1.85208 z m -23.084895,9.86277 c 0.472942,-0.0587 1.246848,-0.0587 1.719791,0 0.472943,0.0587 0.08599,0.10671 -0.859896,0.10671 -0.945885,0 -1.332838,-0.048 -0.859895,-0.10671 z m 8.864119,-2.85131 c 0.0029,-0.58209 0.05712,-0.78906 0.120406,-0.45994 0.06329,0.32912 0.06088,0.80537 -0.0053,1.05833 -0.06622,0.25297 -0.118003,-0.0163 -0.115066,-0.59839 z m 14.290556,0.47159 c 0.40219,-0.0608 0.9975,-0.0592 1.32292,0.004 0.32542,0.0628 -0.004,0.11256 -0.73124,0.11057 -0.72761,-0.002 -0.99386,-0.0534 -0.59168,-0.11419 z m -5.045283,-2.05909 c 0.0054,-0.43657 0.06469,-0.58313 0.131773,-0.3257 0.06708,0.25743 0.06267,0.61462 -0.0098,0.79375 -0.07249,0.17913 -0.127376,-0.0315 -0.121984,-0.46805 z m -13.016163,0.12795 -4.101042,-0.13664 4.696681,-0.12795 c 2.583175,-0.0704 4.696534,-0.0525 4.696354,0.0397 -6.09e-4,0.31191 -1.178544,0.36198 -5.291993,0.22494 z m 14.33908,-0.39254 c 0.0054,-0.43656 0.06469,-0.58312 0.131773,-0.32569 0.06708,0.25743 0.06267,0.61462 -0.0098,0.79375 -0.07249,0.17913 -0.127376,-0.0315 -0.121983,-0.46806 z m -23.599497,-0.13229 c -0.626108,-0.62611 -0.66274,-1.03892 -0.15399,-1.73537 0.350952,-0.48042 0.796816,-0.51872 6.905292,-0.59304 5.58591,-0.068 6.62198,-0.0193 7.165448,0.33682 0.349433,0.22896 0.635333,0.55536 0.635333,0.72534 0,0.16998 -0.168825,0.0779 -0.375167,-0.20453 -0.350406,-0.4797 -0.795212,-0.51884 -6.739387,-0.59306 -6.176662,-0.0771 -7.437529,0.0501 -7.437529,0.75023 0,0.15341 2.08524,0.27836 5.225521,0.31313 l 5.225521,0.0579 -5.418284,0.14058 -5.418283,0.14059 0.75761,0.59532 c 0.416686,0.32742 0.622492,0.59531 0.457347,0.59531 -0.165146,0 -0.53839,-0.23813 -0.829432,-0.52917 z m 24.891722,-0.68351 c 0.0127,-0.30822 0.07539,-0.37091 0.15985,-0.15985 0.07643,0.191 0.06703,0.4192 -0.02088,0.50712 -0.08792,0.0879 -0.150453,-0.0683 -0.138965,-0.34727 z m -2.879726,-0.50711 c 0.0054,-0.43657 0.06469,-0.58313 0.131774,-0.3257 0.06708,0.25743 0.06267,0.61462 -0.0098,0.79375 -0.07248,0.17913 -0.127363,-0.0315 -0.121971,-0.46805 z m 1.33272,-0.39688 c 0,-0.50932 0.05445,-0.71768 0.121002,-0.46302 0.06655,0.25466 0.06655,0.67138 0,0.92604 -0.06655,0.25466 -0.121002,0.0463 -0.121002,-0.46302 z m 1.303308,-0.26458 c 0,-0.3638 0.06006,-0.51263 0.133454,-0.33073 0.0734,0.1819 0.0734,0.47956 0,0.66146 -0.0734,0.1819 -0.133454,0.0331 -0.133454,-0.33073 z m -2.91616,-0.70597 c -0.01982,-0.31552 -0.104552,-0.79177 -0.1883,-1.05833 -0.144148,-0.45881 -0.136164,-0.45956 0.149696,-0.014 0.166082,0.25885 0.250817,0.7351 0.188301,1.05833 -0.113552,0.58712 -0.113701,0.58714 -0.149697,0.014 z m 1.338466,-0.74924 c 0.0054,-0.43656 0.06469,-0.58312 0.131773,-0.32569 0.06708,0.25743 0.06267,0.61461 -0.0098,0.79375 -0.07249,0.17913 -0.127375,-0.0315 -0.121983,-0.46806 z m 1.165503,-0.42333 c -0.09696,-0.60639 -0.12464,-1.15418 -0.0615,-1.21732 0.06314,-0.0631 0.197972,0.3775 0.299628,0.97919 0.101655,0.6017 0.129331,1.14949 0.0615,1.21732 -0.06783,0.0678 -0.202663,-0.37281 -0.299628,-0.97919 z m -1.430086,-1.16417 c 0.0054,-0.43656 0.06469,-0.58312 0.131773,-0.32569 0.06708,0.25743 0.06267,0.61461 -0.0098,0.79375 -0.07249,0.17913 -0.127376,-0.0315 -0.121983,-0.46806 z m 0.900919,-1.48167 c -0.09696,-0.60638 -0.12464,-1.15418 -0.0615,-1.21731 0.06314,-0.0631 0.197972,0.37749 0.299627,0.97919 0.101656,0.60169 0.129331,1.14949 0.0615,1.21732 -0.06783,0.0678 -0.202663,-0.37281 -0.299627,-0.9792 z m -1.181052,-0.007 c -0.03918,-0.75599 -0.402765,-1.15978 -1.226656,-1.36229 -0.407768,-0.10023 -0.364379,-0.13712 0.189128,-0.16077 0.821731,-0.0351 1.365325,0.71474 1.186433,1.63661 -0.09794,0.50473 -0.117639,0.48971 -0.148905,-0.11355 z m 2.083956,-1.40762 c -0.361977,-0.20036 -0.740704,-0.31326 -0.841613,-0.25089 -0.100912,0.0624 -0.258263,-0.008 -0.349666,-0.15551 -0.207811,-0.33624 -3.839125,-0.35867 -3.839125,-0.0237 0,0.13485 0.20836,0.29963 0.463021,0.36618 0.348432,0.0911 0.315693,0.1286 -0.132292,0.15169 -0.429154,0.0221 -0.595312,-0.117 -0.595312,-0.49847 0,-0.4845 0.176389,-0.52917 2.089659,-0.52917 1.741335,0 2.281601,0.10973 3.241147,0.65827 0.633317,0.36205 1.032424,0.65549 0.886904,0.65209 -0.145523,-0.003 -0.560747,-0.17012 -0.922723,-0.37048 z m -11.133373,-5.54457 c 1.466664,-2.13173 2.660736,-4.73577 2.662094,-5.80553 0.0025,-1.97112 -1.413966,-3.34811 -3.444096,-3.34811 -0.942173,0 -1.273834,0.15905 -2.141989,1.0272 -1.404966,1.40497 -1.403829,2.60271 0.005,5.25665 0.56005,1.05503 0.932401,1.91823 0.827447,1.91823 -0.445694,0 -2.124226,-3.79512 -2.124226,-4.80282 0,-2.10358 1.519991,-3.66187 3.571874,-3.66187 2.755625,0 4.328916,2.70108 3.177881,5.4559 -0.581678,1.39215 -2.846051,5.12546 -3.108759,5.12546 -0.124759,0 0.133894,-0.5243 0.574784,-1.16511 z m -1.661232,-4.875 c -0.854427,-0.94413 -0.204838,-2.42656 1.063299,-2.42656 0.650267,0 1.515745,0.89733 1.324984,1.37375 -0.0916,0.22878 -0.145634,0.19229 -0.159444,-0.10767 -0.01149,-0.24954 -0.26351,-0.58356 -0.560048,-0.74226 -1.330739,-0.71219 -2.491623,0.95618 -1.323498,1.90207 0.329101,0.26649 0.484566,0.48453 0.345477,0.48453 -0.139088,0 -0.449934,-0.21774 -0.69077,-0.48386 z"
         id="path997"
         inkscape:connector-curvature="0" />
      <path
         style="fill:#939393;stroke-width:0.26458332"
         d="m 83.53274,134.9276 c 0.509323,-0.58575 0.967952,-1.03379 1.019175,-0.99563 0.172794,0.12871 -0.701314,1.20715 -1.325654,1.63553 -0.437523,0.3002 -0.347474,0.11219 0.306479,-0.6399 z m 22.21711,-0.0836 c 0.15143,-0.28294 0.40609,-0.59525 0.56592,-0.69403 0.15984,-0.0988 0.086,0.13271 -0.16414,0.51443 -0.5296,0.80826 -0.80384,0.93085 -0.40178,0.1796 z m -26.069144,-1.21996 c -0.484268,-0.38797 -0.475826,-0.39348 0.147868,-0.0965 0.809898,0.38571 0.959998,0.50792 0.623833,0.50792 -0.141961,0 -0.489226,-0.18516 -0.771701,-0.41147 z m 1.476091,-0.25638 c 0.184076,-0.2218 0.38917,-0.34878 0.455766,-0.28218 0.183488,0.18348 -0.189321,0.68545 -0.509084,0.68545 -0.175444,0 -0.155372,-0.15181 0.05332,-0.40327 z m 20.210183,-0.45662 c -0.50352,-0.59472 -0.50348,-0.59485 0.046,-0.1323 0.3025,0.25467 0.8026,0.46302 1.11133,0.46302 0.30873,0 0.68269,-0.20835 0.83102,-0.46302 0.14832,-0.25466 0.2733,-0.338 0.27773,-0.1852 0.0284,0.98008 -1.52124,1.1972 -2.26605,0.3175 z m -28.946739,-2.05053 c 0,-0.43656 0.04602,-0.79375 0.102261,-0.79375 0.05624,0 0.154686,0.35719 0.21876,0.79375 0.06407,0.43657 0.01806,0.79375 -0.102262,0.79375 -0.120318,0 -0.218759,-0.35718 -0.218759,-0.79375 z m 33.052889,-2.3151 -0.64143,-0.7276 0.7276,0.64143 c 0.40018,0.35279 0.72761,0.68021 0.72761,0.7276 0,0.20751 -0.21426,0.0386 -0.81378,-0.64143 z m -32.251036,-0.99219 c 0,-0.14552 0.115416,-0.44317 0.25648,-0.66146 0.141064,-0.21828 0.25648,-0.27781 0.25648,-0.13229 0,0.14552 -0.115416,0.44318 -0.25648,0.66146 -0.141064,0.21828 -0.25648,0.27781 -0.25648,0.13229 z m 11.084371,-0.59531 -0.641433,-0.7276 0.727604,0.64143 c 0.400182,0.35279 0.727604,0.68021 0.727604,0.7276 0,0.20751 -0.214259,0.0386 -0.813775,-0.64143 z m -7.917475,0.36313 c 0,-0.055 0.20836,-0.2633 0.463021,-0.46303 0.419644,-0.3291 0.429003,-0.31974 0.09989,0.0999 -0.345643,0.44073 -0.562916,0.58089 -0.562916,0.36313 z m 19.976042,-0.69386 c 0.263389,-0.29104 0.538421,-0.52917 0.611182,-0.52917 0.07276,0 -0.08321,0.23813 -0.346599,0.52917 -0.263389,0.29104 -0.538421,0.52917 -0.611181,0.52917 -0.07276,0 0.08321,-0.23813 0.346598,-0.52917 z m 0.793749,-1.05833 c -0.08994,-0.14552 0.02913,-0.26459 0.264584,-0.26459 0.235458,0 0.35452,0.11907 0.264583,0.26459 -0.08994,0.14552 -0.209,0.26458 -0.264583,0.26458 -0.05558,0 -0.174646,-0.11906 -0.264584,-0.26458 z m 1.120069,-0.562 c 0.179477,-0.18082 0.39297,-0.26212 0.474432,-0.18065 0.08146,0.0815 -0.06538,0.2294 -0.326318,0.32876 -0.377084,0.14359 -0.407474,0.1132 -0.148114,-0.14811 z M 74.404616,124.7751 c -0.08994,-0.14552 0.02912,-0.26459 0.264583,-0.26459 0.235458,0 0.35452,0.11907 0.264583,0.26459 -0.08994,0.14552 -0.208999,0.26458 -0.264583,0.26458 -0.05558,0 -0.174647,-0.11906 -0.264583,-0.26458 z m 31.353124,0 c -0.23847,-0.15411 -0.2711,-0.2581 -0.0818,-0.26053 0.17331,-0.002 0.3887,0.11501 0.47863,0.26053 0.20302,0.32849 0.11143,0.32849 -0.39687,0 z m -32.370451,-0.74844 c -0.307881,-0.3402 -0.437882,-0.96861 -0.437882,-2.11667 0,-1.38662 0.06981,-1.62966 0.463021,-1.61192 0.276606,0.0125 0.329867,0.0746 0.132292,0.15434 -0.513828,0.20733 -0.430708,2.97992 0.107153,3.57425 0.240835,0.26612 0.378351,0.48385 0.30559,0.48385 -0.07276,0 -0.329338,-0.21773 -0.570174,-0.48385 z m 30.468761,0.0385 c 0.19099,-0.0764 0.41919,-0.067 0.50712,0.0209 0.0879,0.0879 -0.0684,0.15045 -0.34727,0.13896 -0.30823,-0.0127 -0.37092,-0.0754 -0.15985,-0.15985 z m -22.572268,-0.264 c 3.876883,-0.19096 7.806204,-0.20017 7.805728,-0.0183 -2.86e-4,0.10914 -2.113879,0.1755 -4.696874,0.14746 -2.582995,-0.028 -3.981979,-0.0862 -3.108854,-0.12918 z m 19.976038,-0.10004 c 0,-0.15411 0.11907,-0.20661 0.26459,-0.11668 0.14552,0.0899 0.26458,0.21603 0.26458,0.2802 0,0.0642 -0.11906,0.11668 -0.26458,0.11668 -0.14552,0 -0.26459,-0.12609 -0.26459,-0.2802 z m 1.00873,0.0995 c 0.19099,-0.0764 0.41919,-0.067 0.50712,0.0209 0.0879,0.0879 -0.0684,0.15045 -0.34727,0.13896 -0.30823,-0.0127 -0.37092,-0.0754 -0.15985,-0.15985 z m -27.862061,-0.3454 c -0.09269,-0.14998 0.01351,-0.19434 0.248968,-0.10398 0.458369,0.17589 0.542234,0.36553 0.161648,0.36553 -0.136932,0 -0.32171,-0.11769 -0.410616,-0.26155 z m 20.788806,-0.42195 c 0.01269,-0.30823 0.07539,-0.37092 0.159852,-0.15985 0.07643,0.19099 0.06703,0.41919 -0.02089,0.50711 -0.08792,0.0879 -0.150453,-0.0684 -0.138964,-0.34726 z m -20.930857,-0.88926 c 0.416121,-0.77753 0.796594,-0.90494 0.446167,-0.14942 -0.168294,0.36285 -0.399475,0.66065 -0.513736,0.66179 -0.114261,0.001 -0.08385,-0.22943 0.06757,-0.51237 z m 2.984448,0.31718 c 1.418828,-0.0476 3.740547,-0.0476 5.159375,0 1.418828,0.0476 0.257969,0.0865 -2.579687,0.0865 -2.837656,0 -3.998516,-0.0389 -2.579688,-0.0865 z m 11.194222,-0.7372 c -0.282475,-0.21366 -0.38635,-0.38847 -0.230834,-0.38847 0.155515,0 0.430975,0.1786 0.612133,0.39688 0.41201,0.49644 0.282399,0.49358 -0.381299,-0.008 z m 12.157922,-1.45111 c 0.0914,-0.1479 0.27703,-0.2004 0.41249,-0.11668 0.36699,0.22681 0.29856,0.38557 -0.16619,0.38557 -0.22687,0 -0.3377,-0.121 -0.2463,-0.26889 z m 1.13044,-1.2521 c 0.13045,-2.65502 0.24153,-2.91529 0.28246,-0.66182 0.0218,1.20055 -0.0496,2.18298 -0.15879,2.18318 -0.10915,1.9e-4 -0.16479,-0.68442 -0.12367,-1.52136 z m -7.813253,-3.77067 c 0.05886,-0.21828 0.395343,-0.41886 0.747747,-0.44573 0.50522,-0.0385 0.528816,-0.0181 0.111568,0.0968 -0.291042,0.0801 -0.627528,0.28066 -0.747748,0.44573 -0.144423,0.1983 -0.182274,0.16548 -0.111567,-0.0968 z m 3.902023,-0.26458 c -0.218281,-0.14107 -0.277813,-0.25649 -0.132292,-0.25649 0.145521,0 0.443177,0.11542 0.661458,0.25649 0.218282,0.14106 0.277813,0.25648 0.132292,0.25648 -0.145521,0 -0.443177,-0.11542 -0.661458,-0.25648 z M 83.804123,103.60848 c -0.0084,-0.69214 0.998899,-2.07586 1.820444,-2.50069 1.636975,-0.84652 4.066922,-0.22318 4.793956,1.22976 0.272171,0.54392 0.238415,0.5339 -0.313843,-0.0932 -0.818211,-0.9291 -1.569576,-1.28169 -2.731227,-1.28169 -1.428044,0 -2.487035,0.6695 -3.061944,1.93577 -0.27641,0.60882 -0.504734,0.92834 -0.507386,0.71006 z m 6.893255,-0.15434 c 0.01269,-0.30822 0.07539,-0.37092 0.159853,-0.15985 0.07643,0.191 0.06703,0.4192 -0.02089,0.50712 -0.08792,0.0879 -0.150453,-0.0684 -0.138965,-0.34727 z m -3.510081,-0.55557 c 0.190997,-0.0764 0.4192,-0.067 0.507119,0.0209 0.08792,0.0879 -0.06835,0.15046 -0.347266,0.13897 -0.308225,-0.0127 -0.370919,-0.0754 -0.159853,-0.15985 z"
         id="path995"
         inkscape:connector-curvature="0" />
    </g>
  </g>
</svg>
