<?xml version="1.0" encoding="UTF-8" standalone="no"?>
<!-- Created with Inkscape (http://www.inkscape.org/) -->

<svg
   xmlns:dc="http://purl.org/dc/elements/1.1/"
   xmlns:cc="http://creativecommons.org/ns#"
   xmlns:rdf="http://www.w3.org/1999/02/22-rdf-syntax-ns#"
   xmlns:svg="http://www.w3.org/2000/svg"
   xmlns="http://www.w3.org/2000/svg"
   xmlns:sodipodi="http://sodipodi.sourceforge.net/DTD/sodipodi-0.dtd"
   xmlns:inkscape="http://www.inkscape.org/namespaces/inkscape"
   width="210mm"
   height="153mm"
   viewBox="0 0 210 153"
   version="1.1"
   id="svg8"
   inkscape:version="0.92.2 (5c3e80d, 2017-08-06)"
   sodipodi:docname="step1.svg">
  <defs
     id="defs2" />
  <sodipodi:namedview
     id="base"
     pagecolor="#ffffff"
     bordercolor="#666666"
     borderopacity="1.0"
     inkscape:pageopacity="0.0"
     inkscape:pageshadow="2"
     inkscape:zoom="0.35"
     inkscape:cx="-538.31271"
     inkscape:cy="445.30544"
     inkscape:document-units="mm"
     inkscape:current-layer="layer1"
     showgrid="false"
     inkscape:window-width="1366"
     inkscape:window-height="745"
     inkscape:window-x="-8"
     inkscape:window-y="-8"
     inkscape:window-maximized="1" />
  <metadata
     id="metadata5">
    <rdf:RDF>
      <cc:Work
         rdf:about="">
        <dc:format>image/svg+xml</dc:format>
        <dc:type
           rdf:resource="http://purl.org/dc/dcmitype/StillImage" />
        <dc:title></dc:title>
      </cc:Work>
    </rdf:RDF>
  </metadata>
  <g
     inkscape:label="Layer 1"
     inkscape:groupmode="layer"
     id="layer1"
     transform="translate(0,-144)">
    <g
       id="g923"
       transform="matrix(3.5490507,0,0,3.8170204,-286.24513,-546.25889)">
      <path
         style="fill:#dfdfdf;stroke-width:0.26458332"
         d="m 92.487394,217.0174 c -0.251911,-0.25191 -0.214656,-2.40599 0.06223,-3.59833 0.134433,-0.5789 0.131803,-0.99219 -0.0063,-0.99219 -0.130196,0 -0.23672,-1.01577 -0.23672,-2.25726 0,-1.91083 -0.07106,-2.28247 -0.463021,-2.42147 -1.340482,-0.47538 -1.389062,-0.66944 -1.389062,-5.54874 0,-4.24284 0.03594,-4.5892 0.47625,-4.5892 0.261937,0 0.619125,0.14288 0.79375,0.3175 0.246944,0.24695 0.3175,-0.62871 0.3175,-3.94044 0,-3.63861 0.06087,-4.2813 0.418514,-4.41854 0.230184,-0.0883 2.120605,-0.1606 4.200937,-0.1606 2.945601,0 3.851448,0.0832 4.094398,0.37591 0.21435,0.25827 0.28658,1.45894 0.23083,3.83692 -0.0709,3.02576 -0.0281,3.46096 0.34088,3.46055 0.99443,-0.001 1.82317,2.28943 1.01014,2.79191 -0.20713,0.12801 -0.20713,0.25828 0,0.46541 0.1582,0.1582 0.28763,0.65673 0.28763,1.10784 0,0.45112 -0.12943,0.94965 -0.28763,1.10785 -0.20713,0.20712 -0.20713,0.33739 0,0.4654 0.1582,0.0978 0.28763,0.58472 0.28763,1.0821 0,0.67654 -0.16934,1.01529 -0.67229,1.34483 -1.29416,0.84797 -2.718983,-0.61768 -2.04293,-2.10146 0.25431,-0.55814 0.21129,-0.5758 -1.402774,-0.5758 -1.556929,0 -1.638411,0.0295 -1.253973,0.45432 0.22695,0.25078 0.348139,0.6953 0.2705,0.99219 -0.125698,0.48067 -0.01668,0.53786 1.0252,0.53786 0.859926,0 1.165854,0.10415 1.165854,0.39688 0,0.33288 -0.567384,0.39687 -3.518958,0.39687 -2.38419,0 -3.621343,-0.10238 -3.836458,-0.3175 -0.212527,-0.21252 -0.3175,-1.39347 -0.3175,-3.57187 0,-2.71639 -0.06561,-3.25438 -0.396875,-3.25438 -0.336241,0 -0.396875,0.64676 -0.396875,4.23334 0,4.0038 0.02765,4.23333 0.509963,4.23333 0.28048,0 0.726964,0.26789 0.992188,0.59531 0.454989,0.56169 0.646597,0.59097 3.39264,0.51836 4.129738,-0.10921 4.101038,-0.12181 4.101038,1.80179 0,1.23024 -0.0883,1.58246 -0.396871,1.58246 -0.293981,0 -0.396875,-0.30868 -0.396875,-1.19063 v -1.19062 h -1.694256 -1.694255 l -0.09168,1.32308 -0.09168,1.32308 1.852083,0.004 c 1.018646,0.002 1.971146,0.0914 2.116667,0.19827 0.145521,0.10691 0.300327,1.36716 0.344027,2.80055 0.0624,2.04686 0.006,2.58181 -0.264582,2.49264 -0.2197,-0.0725 -0.36864,-0.67968 -0.412132,-1.68012 -0.12761,-2.93542 0.08612,-2.75755 -3.310375,-2.75495 l -2.971521,0.002 -0.07882,2.04768 c -0.07564,1.96529 -0.279461,2.66067 -0.666427,2.2737 z m 2.677969,-6.64104 c -0.07987,-1.24466 -0.09021,-1.25756 -1.07283,-1.33889 -0.92038,-0.0762 -0.992188,-0.0307 -0.992188,0.62771 0,0.57184 0.07063,0.65121 0.36334,0.40828 0.693831,-0.57583 1.83898,0.51434 1.357915,1.29272 -0.09074,0.14682 -0.03237,0.26695 0.12971,0.26695 0.186496,0 0.265087,-0.46143 0.214053,-1.25677 z m 6.663437,-5.75132 c 0.39125,-0.47143 0.18362,-1.14121 -0.42634,-1.37528 -0.62653,-0.24042 -1.22125,0.62774 -0.87422,1.27617 0.31771,0.59365 0.85608,0.63468 1.30056,0.0991 z M 95.495632,204.374 c -0.335255,-0.40396 -0.01821,-1.33898 0.513773,-1.51521 0.14811,-0.0491 -0.505057,-0.0892 -1.451481,-0.0892 h -1.72077 l -6.88e-4,0.99219 -7.04e-4,0.99218 h 1.487605 c 1.262887,0 1.43997,-0.0574 1.172265,-0.37996 z m 1.30888,-0.36969 c 0,-0.34451 -0.31453,-0.57362 -0.570387,-0.4155 -0.273637,0.16912 -0.03769,0.63599 0.321418,0.63599 0.136933,0 0.248969,-0.0992 0.248969,-0.22049 z m 5.126528,-2.22194 c 0.35979,-0.57132 -0.366,-1.41913 -1.00497,-1.17393 -0.41964,0.16103 -0.57788,1.25101 -0.23186,1.59703 0.29282,0.29282 0.9214,0.0778 1.23683,-0.4231 z m -2.215611,-0.66643 5.01e-4,-0.99218 -3.175501,0.0817 -3.1755,0.0817 v 0.91049 0.91048 h 3.174999 3.175 l 5.03e-4,-0.99219 z m 0,-1.85208 c 4.5e-4,-0.41981 -0.295825,-0.4554 -3.175,-0.38132 -1.746525,0.0449 -3.1755,0.18999 -3.1755,0.32233 0,0.13235 1.398984,0.27834 3.108854,0.32443 1.709869,0.0461 3.138619,0.10939 3.174999,0.14069 0.03638,0.0313 0.06637,-0.15147 0.06665,-0.40613 z m 2.380751,-0.43993 c 0,-0.51483 -0.72078,-1.03375 -1.18726,-0.85475 -0.48201,0.18497 -0.53591,1.40037 -0.0695,1.56761 0.46158,0.16551 1.25677,-0.28554 1.25677,-0.71286 z m -2.381252,-0.88299 c 0,-0.41525 -0.327579,-0.46302 -3.175,-0.46302 -2.3195,0 -3.174999,0.0868 -3.174999,0.32233 0,0.23035 0.887205,0.34625 3.108854,0.40613 1.709869,0.0461 3.138619,0.1094 3.174999,0.14069 0.03638,0.0313 0.06615,-0.15147 0.06615,-0.40613 z m 0,-3.57187 v -2.31511 h -3.175 -3.174999 v 2.31511 2.3151 h 3.174999 3.175 z m -4.497916,-3.50573 c 0,-0.29535 0.311826,-0.39688 1.218932,-0.39688 0.974793,0 1.188429,0.0795 1.066638,0.39688 -0.123933,0.32296 0.117173,0.39687 1.294609,0.39687 1.270519,0 1.446899,-0.0645 1.446899,-0.52916 0,-0.50397 -0.17638,-0.52917 -3.704162,-0.52917 -3.527777,0 -3.704166,0.0252 -3.704166,0.52917 0,0.45077 0.176389,0.52916 1.190625,0.52916 0.881944,0 1.190625,-0.10289 1.190625,-0.39687 z m 17.991668,24.47396 c 0,-0.83084 0.43634,-1.07892 0.69807,-0.39688 0.0838,0.21828 0.37768,0.39688 0.65315,0.39688 0.44969,0 0.50086,-0.21627 0.50086,-2.11667 v -2.11667 h 7.14375 7.14375 v -7.54062 -7.54063 h -11.90625 -11.90625 v 7.54063 7.54062 h 4.10104 c 3.46898,0 4.10104,0.0612 4.10104,0.39688 0,0.33671 -0.66042,0.39687 -4.35631,0.39687 -4.03617,0 -4.37645,-0.0376 -4.63021,-0.51177 -0.41972,-0.78426 -0.36782,-15.1341 0.0568,-15.71278 0.3046,-0.41509 1.30249,-0.44521 12.63385,-0.3813 l 12.30313,0.0694 v 8.20208 8.20208 l -6.92293,0.0705 -6.92293,0.0705 -0.0885,1.716 -0.0885,1.716 1.5875,-1.3e-4 1.5875,-1.3e-4 V 214.105 c 0,-0.75028 0.1295,-1.27711 0.33073,-1.34539 0.23593,-0.0801 0.33073,0.27329 0.33073,1.23273 v 1.34497 h 0.92604 c 0.64676,0 0.92604,0.11969 0.92604,0.39687 0,0.33571 -0.63206,0.39688 -4.10104,0.39688 h -4.10104 z m -3.96875,-7.54063 c 0,-0.34381 1.04363,-0.39687 7.80521,-0.39687 6.76157,0 7.8052,0.0531 7.8052,0.39687 0,0.34381 -1.04363,0.39688 -7.8052,0.39688 -6.76158,0 -7.80521,-0.0531 -7.80521,-0.39688 z m -9.260418,-0.52916 c 0,-0.21829 0.182328,-0.39688 0.405178,-0.39688 0.22285,0 0.47371,-0.17859 0.55747,-0.39687 0.0838,-0.21829 0.25862,-0.39688 0.38858,-0.39688 0.34596,0 0.28837,0.9004 -0.0812,1.27 -0.44684,0.44684 -1.269998,0.39539 -1.269998,-0.0794 z m 9.260418,-0.79375 c 0,-0.34381 1.04363,-0.39688 7.80521,-0.39688 6.76157,0 7.8052,0.0531 7.8052,0.39688 0,0.3438 -1.04363,0.39687 -7.8052,0.39687 -6.76158,0 -7.80521,-0.0531 -7.80521,-0.39687 z m 0.18037,-1.09846 c -0.0992,-0.0992 -0.18037,-0.27958 -0.18037,-0.40085 0,-0.12127 3.52226,-0.22049 7.82725,-0.22049 6.14416,0 7.80358,0.0711 7.71712,0.33073 -0.0839,0.25204 -1.90335,0.34742 -7.64689,0.40086 -4.14521,0.0386 -7.61791,-0.011 -7.71711,-0.11025 z"
         id="path937"
         inkscape:connector-curvature="0" />
      <path
         style="fill:#d7d7d7;stroke-width:0.26458332"
         d="m 99.626734,217.01299 c -0.09701,-0.097 -0.176389,-0.98024 -0.176389,-1.96273 0,-2.75919 0.193226,-2.62338 -3.732474,-2.62338 h -3.411276 v -2.25726 c 0,-1.91083 -0.07106,-2.28247 -0.463021,-2.42147 -1.336058,-0.47381 -1.389062,-0.68081 -1.389062,-5.42475 0,-3.81012 0.06084,-4.48856 0.41466,-4.62433 0.228062,-0.0875 0.555484,-0.009 0.727604,0.17367 0.241291,0.25659 0.237219,0.36055 -0.01779,0.45405 -0.245522,0.09 -0.330729,1.19886 -0.330729,4.30387 v 4.1826 l 0.653821,0.1641 c 0.359602,0.0903 0.78051,0.40082 0.935351,0.69014 0.259573,0.48502 0.559371,0.52605 3.844095,0.52605 h 3.562556 v 1.60955 c 0,1.96183 -0.615829,2.09105 -0.742091,0.1557 l -0.08064,-1.23609 h -1.771658 -1.771658 l 0.0439,1.52136 0.0439,1.52135 1.676113,0.0495 c 0.921862,0.0272 1.854706,0.0573 2.072987,0.067 0.323407,0.0143 0.396867,0.47836 0.396867,2.50682 0,2.40101 -0.1105,2.99885 -0.485061,2.62428 z m -4.409722,-6.38528 c 0,-1.45423 -0.325557,-1.905 -1.375833,-1.905 -0.641457,0 -0.740834,0.10316 -0.740834,0.76898 0,0.6394 0.08941,0.7456 0.530576,0.63023 0.762307,-0.19934 1.34959,0.38116 1.157975,1.14461 -0.09558,0.38084 -0.0421,0.63118 0.13485,0.63118 0.173901,0 0.293266,-0.51691 0.293266,-1.27 z m -1.058333,0.35958 c 0,-0.0642 -0.119063,-0.19026 -0.264584,-0.2802 -0.145521,-0.0899 -0.264583,-0.0374 -0.264583,0.11668 0,0.1541 0.119062,0.28019 0.264583,0.28019 0.145521,0 0.264584,-0.0525 0.264584,-0.11667 z m -1.731957,4.02453 c 0.103675,-1.05214 0.25156,-2.01502 0.328633,-2.13972 0.326404,-0.52814 0.489267,0.34388 0.398647,2.13447 -0.07656,1.51285 -0.183587,1.91823 -0.50643,1.91823 -0.349048,0 -0.381582,-0.28181 -0.22085,-1.91298 z m 20.781958,0.45777 c 0,-0.7276 0.38466,-0.89049 0.62484,-0.26458 0.12537,0.32668 0.80887,0.39687 3.86477,0.39687 2.29859,0 3.71247,0.10077 3.71247,0.26458 0,0.16501 -1.5434,0.26459 -4.10104,0.26459 h -4.10104 z m 1.96889,-0.47412 c -0.0792,-0.20645 -0.10815,-1.13673 -0.0643,-2.06729 l 0.0798,-1.69192 7.07761,-0.0705 7.0776,-0.0705 v -7.5363 -7.53631 h -11.90625 -11.90625 v 7.53374 7.53373 l 4.01316,0.073 c 2.92185,0.0532 4.04305,0.16297 4.12309,0.40376 0.1674,0.50362 -8.21828,0.47263 -8.63701,-0.0319 -0.21367,-0.25746 -0.28062,-2.6558 -0.23083,-8.26823 l 0.0701,-7.90558 h 12.43542 12.43542 l 0.0701,8.05173 c 0.0545,6.26538 -0.004,8.09887 -0.26458,8.26418 -0.18407,0.11684 -3.34101,0.21426 -7.01541,0.21649 l -6.68073,0.004 v 1.57189 c 0,1.49718 -0.36888,2.32866 -0.67694,1.52587 z m 3.85194,-0.98109 c 0,-0.83539 0.10136,-1.2915 0.26458,-1.19062 0.14553,0.0899 0.26459,0.62571 0.26459,1.19062 0,0.56491 -0.11906,1.10069 -0.26459,1.19063 -0.16322,0.10087 -0.26458,-0.35524 -0.26458,-1.19063 z m -9.72344,-6.15156 c 0.0848,-0.25439 1.8712,-0.33073 7.73907,-0.33073 5.86787,0 7.65426,0.0763 7.73906,0.33073 0.0865,0.25963 -1.57721,0.33073 -7.73906,0.33073 -6.16186,0 -7.82561,-0.0711 -7.73907,-0.33073 z m -9.326558,-0.59531 c 0,-0.21829 0.182328,-0.39688 0.405178,-0.39688 0.22285,0 0.47371,-0.17859 0.55747,-0.39687 0.19356,-0.50439 0.62485,-0.51744 0.62485,-0.0189 0,0.48734 -0.72218,1.20952 -1.20952,1.20952 -0.20789,0 -0.377978,-0.17859 -0.377978,-0.39687 z m 9.440788,-0.56929 c -0.0992,-0.0992 -0.18037,-0.27959 -0.18037,-0.40085 0,-0.12127 3.52226,-0.22049 7.82725,-0.22049 6.14416,0 7.80358,0.0711 7.71712,0.33073 -0.0839,0.25204 -1.90335,0.34741 -7.64689,0.40085 -4.14521,0.0386 -7.61791,-0.011 -7.71711,-0.11024 z m -9.17621,-1.41509 c -0.643409,-0.64341 -0.680057,-1.51139 -0.0913,-2.16198 0.42239,-0.46673 0.29546,-0.48385 -3.587846,-0.48385 h -4.025729 l 0.08212,0.99218 0.08212,0.99219 1.458443,0.0775 1.458443,0.0775 -0.0032,-0.87123 c -0.0028,-0.74111 0.09893,-0.88309 0.68087,-0.95074 0.927579,-0.10783 1.518094,0.59601 1.083672,1.29163 -0.296733,0.47515 -0.232127,0.50768 1.008107,0.50768 0.730658,0 1.325158,0.12196 1.325158,0.27185 0,0.17679 -1.318358,0.24618 -3.770312,0.19844 l -3.770312,-0.0734 -0.07033,-7.50848 c -0.04981,-5.3188 0.0175,-7.61431 0.230835,-7.87136 0.230401,-0.27761 1.223815,-0.36287 4.228202,-0.36287 3.611759,0 3.949029,0.0411 4.200939,0.51177 0.15063,0.28148 0.27388,1.94244 0.27388,3.69102 0,2.74085 -0.0638,3.21929 -0.46302,3.46961 -0.39645,0.24862 -0.37555,0.26638 0.14525,0.1235 1.34243,-0.36827 2.42889,1.28528 1.65177,2.51398 -0.15533,0.2456 -0.14269,0.51174 0.0344,0.72518 0.1555,0.18736 0.20559,0.72032 0.11274,1.1995 -0.20063,1.03537 -0.20065,1.12824 -4.8e-4,2.35106 0.13149,0.80325 0.0572,1.02954 -0.45609,1.38906 -0.80275,0.56226 -1.17692,0.54175 -1.81836,-0.0997 z m 1.72916,-0.82325 c 0.35599,-1.12163 -1.21172,-1.73104 -1.63246,-0.63459 -0.1988,0.51806 0.35358,1.19326 0.97621,1.19326 0.26341,0 0.55873,-0.2514 0.65625,-0.55867 z m -5.168738,-0.65401 c 0,-0.46723 -0.569584,-0.38586 -0.733116,0.10473 -0.0576,0.17281 0.08378,0.3142 0.314192,0.3142 0.230408,0 0.418924,-0.18852 0.418924,-0.41893 z m 5.024288,-1.82666 c 0.6843,-0.82453 -0.47663,-1.8863 -1.23417,-1.12875 -0.31782,0.31781 -0.33932,0.51967 -0.10247,0.96222 0.35073,0.65535 0.87658,0.72086 1.33664,0.16653 z m -2.113872,-4.89816 v -5.02709 l -3.241145,-6e-4 -3.241146,-6.1e-4 0.08492,2.38186 0.08492,2.38185 h 3.023931 c 1.839565,0 3.023931,0.10363 3.023931,0.26459 0,0.16105 -1.190625,0.26458 -3.042708,0.26458 -2.528241,0 -3.042708,0.0671 -3.042708,0.39688 0,0.32977 0.514467,0.39687 3.042708,0.39687 2.528241,0 3.042708,0.0671 3.042708,0.39688 0,0.32977 -0.514467,0.39687 -3.042708,0.39687 -1.852084,0 -3.042708,0.10353 -3.042708,0.26458 0,0.16105 1.190624,0.26459 3.042708,0.26459 2.528241,0 3.042708,0.0671 3.042708,0.39687 0,0.32955 -0.511251,0.39688 -3.013761,0.39688 h -3.013761 l -0.108111,0.92604 -0.10811,0.92604 h 3.254163 3.254163 z m 2.113872,2.25232 c 0.6843,-0.82453 -0.47663,-1.88629 -1.23417,-1.12875 -0.31782,0.31782 -0.33932,0.51968 -0.10247,0.96223 0.35073,0.65534 0.87658,0.72086 1.33664,0.16652 z m -1.58471,-8.4773 v -0.66872 l -3.767003,0.0734 c -3.343143,0.0651 -3.777005,0.12551 -3.855859,0.53643 -0.07598,0.39596 0.123515,0.46302 1.377455,0.46302 1.221317,0 1.439775,-0.0691 1.307519,-0.41378 -0.13179,-0.34345 0.0383,-0.39967 1.000491,-0.33073 0.660978,0.0473 1.102413,0.19678 1.026985,0.34764 -0.07612,0.15223 0.485652,0.33053 1.322917,0.41989 0.800365,0.0854 1.484975,0.17472 1.521355,0.19844 0.0364,0.0237 0.0661,-0.2578 0.0661,-0.6256 z m 8.99584,14.16248 c 0,-0.17041 2.77812,-0.26459 7.80521,-0.26459 5.02708,0 7.8052,0.0942 7.8052,0.26459 0,0.17041 -2.77812,0.26458 -7.8052,0.26458 -5.02709,0 -7.80521,-0.0942 -7.80521,-0.26458 z"
         id="path935"
         inkscape:connector-curvature="0" />
      <path
         style="fill:#cdcdcd;stroke-width:0.26458332"
         d="m 92.405814,216.09797 c 0.09095,-0.45475 0.165365,-1.34772 0.165365,-1.98437 0,-0.63665 0.119062,-1.15755 0.264583,-1.15755 0.15287,0 0.264583,0.83784 0.264583,1.98437 0,1.65534 -0.07129,1.98438 -0.429948,1.98438 -0.34043,0 -0.395518,-0.17215 -0.264583,-0.82683 z m 7.183822,0.23151 c -0.07446,-0.32742 -0.166022,-1.30968 -0.203479,-2.18281 l -0.0681,-1.5875 -3.439583,-0.13229 -3.439583,-0.13229 -0.07645,-2.31511 c -0.06846,-2.07319 -0.129095,-2.3151 -0.58031,-2.3151 -1.100413,0 -1.327882,-0.90818 -1.323567,-5.28439 0.0022,-2.25958 0.101045,-4.26118 0.219591,-4.44801 0.118821,-0.18726 0.413819,-0.2636 0.657407,-0.17013 0.549631,0.21091 0.579845,0.64211 0.04499,0.64211 -0.603464,0 -0.58594,7.71064 0.0189,8.31548 0.228676,0.22868 0.581675,0.41577 0.784441,0.41577 0.202767,0 0.494267,0.23469 0.647778,0.52153 0.25282,0.4724 0.608842,0.52847 3.779622,0.59531 l 3.500507,0.0738 0.0828,1.15475 c 0.12318,1.71713 -0.285827,2.32922 -0.465969,0.69733 l -0.146034,-1.32291 -1.918229,-0.0777 -1.91823,-0.0777 v 1.48242 c 0,0.9209 -0.100219,1.42047 -0.264583,1.31889 -0.145521,-0.0899 -0.264583,-0.60893 -0.264583,-1.15332 0,-1.18103 -0.375777,-1.62481 -1.375833,-1.62481 -0.634332,0 -0.740834,0.1061 -0.740834,0.73804 0,0.63127 0.105258,0.73652 0.727604,0.7276 0.654435,-0.009 0.723681,0.076 0.688592,0.84947 l -0.03901,0.85989 h 2.750991 2.750992 l 0.0036,1.91823 c 0.002,1.05503 0.07541,2.18612 0.163146,2.51354 0.0945,0.35268 0.0412,0.59532 -0.13086,0.59532 -0.15972,0 -0.351319,-0.26789 -0.425775,-0.59532 z m -5.430957,-5.4901 c 0,-0.14552 -0.119063,-0.26458 -0.264584,-0.26458 -0.145521,0 -0.264583,0.11906 -0.264583,0.26458 0,0.14552 0.119062,0.26458 0.264583,0.26458 0.145521,0 0.264584,-0.11906 0.264584,-0.26458 z m 19.226391,5.11528 c -0.27447,-0.27447 -0.20739,-1.14653 0.0882,-1.14653 0.14552,0 0.26458,0.17859 0.26458,0.39688 0,0.33453 0.60267,0.39687 3.83646,0.39687 2.38125,0 3.83646,0.10036 3.83646,0.26458 0,0.29611 -7.73281,0.38108 -8.02569,0.0882 z m 1.73025,-2.80018 0.0777,-1.91822 7.08166,-0.0705 7.08165,-0.0705 -0.0702,-7.60245 -0.0702,-7.60244 h -11.90625 -11.90625 l -0.0702,7.60003 -0.0702,7.60004 4.17123,0.0729 c 5.46331,0.0955 5.49196,0.57548 0.0403,0.67525 -2.72372,0.0499 -4.1168,-0.0238 -4.36626,-0.23083 -0.49826,-0.41352 -0.54434,-15.56583 -0.0488,-16.06133 0.45696,-0.45696 24.04346,-0.45696 24.50042,0 0.45334,0.45335 0.45334,15.58041 0,16.03375 -0.23054,0.23054 -2.18723,0.3175 -7.14375,0.3175 h -6.82625 v 1.5875 c 0,0.92637 -0.11502,1.5875 -0.27618,1.5875 -0.17359,0 -0.2473,-0.71247 -0.19843,-1.91823 z m 3.91419,0.8599 c 0,-0.58208 0.11906,-1.05833 0.26458,-1.05833 0.14553,0 0.26459,0.47625 0.26459,1.05833 0,0.58208 -0.11906,1.05833 -0.26459,1.05833 -0.14552,0 -0.26458,-0.47625 -0.26458,-1.05833 z m -9.65596,-6.08326 c -0.0919,-0.14876 -0.009,-0.3311 0.18391,-0.4052 0.6803,-0.26105 15.16059,-0.002 15.16059,0.27075 0,0.36857 -15.11794,0.50104 -15.3445,0.13445 z m -9.21335,-0.43883 c -0.15373,-0.15372 0.99452,-1.41541 1.28815,-1.41541 0.30772,0 0.0667,0.75878 -0.36519,1.14962 -0.53289,0.48225 -0.66768,0.52107 -0.92296,0.26579 z m 9.21335,-0.88408 c -0.0919,-0.14877 -0.009,-0.33111 0.18391,-0.4052 0.6803,-0.26106 15.16059,-0.002 15.16059,0.27075 0,0.36856 -15.11794,0.50103 -15.3445,0.13445 z m -8.99402,-1.36988 c -0.767007,-0.60333 -0.8548,-1.42316 -0.22672,-2.11718 0.42238,-0.46673 0.29595,-0.48385 -3.571874,-0.48385 h -4.009757 v 1.05833 1.05833 h 1.562729 c 1.433852,0 1.551287,-0.0438 1.423981,-0.53057 -0.301501,-1.15295 1.22733,-1.81715 1.784841,-0.77543 0.216931,0.40534 0.21098,0.64401 -0.02309,0.92604 -0.267084,0.32182 -0.107939,0.37996 1.039973,0.37996 0.751298,0 1.355313,0.12116 1.355313,0.27185 0,0.17679 -1.318358,0.24618 -3.770312,0.19844 l -3.770312,-0.0734 -0.07054,-7.54063 c -0.06412,-6.8544 -0.02942,-7.57072 0.381299,-7.87135 0.4719,-0.34541 7.042723,-0.48747 7.869689,-0.17013 0.35396,0.13583 0.41851,0.73001 0.41851,3.85207 0,2.39361 -0.093,3.63399 -0.26458,3.52796 -0.14552,-0.0899 -0.26459,-0.0454 -0.26459,0.099 0,0.14437 0.37494,0.25184 0.83319,0.23881 1.23044,-0.035 2.0913,1.52668 1.28567,2.33231 -0.17348,0.17348 -0.1531,0.55197 0.0601,1.11688 0.24815,0.65744 0.25076,0.9694 0.0113,1.35284 -0.23531,0.3768 -0.23755,0.69358 -0.009,1.29864 0.62064,1.64427 -0.74158,2.87692 -2.04568,1.85111 z m 1.59365,-0.4994 c 0.31183,-0.50455 -0.12513,-1.57247 -0.6434,-1.57247 -0.68076,0 -1.16357,0.66071 -0.95742,1.31022 0.1844,0.58101 1.29171,0.7624 1.60082,0.26225 z m -5.168668,-0.93306 c 0,-0.46723 -0.569584,-0.38586 -0.733116,0.10473 -0.0576,0.17281 0.08378,0.3142 0.314192,0.3142 0.230408,0 0.418924,-0.18852 0.418924,-0.41893 z m 5.106978,-1.99251 c 0.39683,-0.63021 0.0303,-1.29273 -0.71522,-1.29273 -0.7701,0 -1.16646,0.87821 -0.66764,1.47925 0.39698,0.47833 1.01687,0.39472 1.38286,-0.18652 z m -2.196562,-4.73231 v -5.02709 h -3.307291 -3.307292 v 2.38125 2.38125 h 3.175 c 1.940278,0 3.175,0.1029 3.175,0.26459 0,0.16169 -1.234722,0.26458 -3.175,0.26458 -2.645833,0 -3.175,0.0661 -3.175,0.39688 0,0.33072 0.529167,0.39687 3.175,0.39687 1.940278,0 3.175,0.10289 3.175,0.26458 0,0.16169 -1.234722,0.26459 -3.175,0.26459 -2.645833,0 -3.175,0.0661 -3.175,0.39687 0,0.33073 0.529167,0.39688 3.175,0.39688 2.720453,0 3.175,0.06 3.175,0.41903 0,0.36395 -0.417407,0.40743 -3.17536,0.33073 l -3.17536,-0.0883 3.6e-4,0.99218 3.6e-4,0.99219 h 3.307292 3.307291 z m 2.106122,2.26167 c 0.49819,-0.60029 0.22654,-1.33563 -0.49341,-1.33563 -0.8346,0 -1.30739,0.7344 -0.83737,1.30074 0.4334,0.52221 0.91583,0.53486 1.33078,0.0349 z m -7.177711,-8.10339 c 0.679322,-0.0115 1.085561,-0.0812 0.902753,-0.15489 -0.60149,-0.2425 -0.05134,-0.61798 0.905467,-0.61798 0.700484,0 0.902287,0.095 0.795128,0.37423 -0.111754,0.29123 0.204834,0.39393 1.427383,0.46303 1.47921,0.0836 1.57096,0.054 1.57051,-0.50653 -4.8e-4,-0.58997 -0.0349,-0.59531 -3.836943,-0.59531 h -3.836458 v 0.68977 c 0,0.52027 0.102838,0.6503 0.418514,0.52916 0.230183,-0.0883 0.974324,-0.17 1.653646,-0.18148 z m 14.728881,13.77922 c 0.1028,-0.16634 2.95206,-0.26459 7.67292,-0.26459 4.72086,0 7.57011,0.0983 7.67291,0.26459 0.10761,0.17411 -2.516,0.26458 -7.67291,0.26458 -5.15692,0 -7.78053,-0.0905 -7.67292,-0.26458 z"
         id="path933"
         inkscape:connector-curvature="0" />
      <path
         style="fill:#bababa;stroke-width:0.26458332"
         d="m 92.589775,215.15448 c -0.01023,-1.04644 0.100466,-1.9762 0.245987,-2.06614 0.327049,-0.20213 0.327049,2.6785 0,3.43958 -0.156391,0.36394 -0.233197,-0.0649 -0.245987,-1.37344 z m 7.030392,0.77813 c -0.0902,-0.5457 -0.165308,-1.55773 -0.16691,-2.24896 l -0.0029,-1.25677 h -3.439583 -3.439583 l -0.0041,-2.05052 c -0.0045,-2.2712 -0.07337,-2.45011 -1.120428,-2.91013 l -0.727604,-0.31967 v -4.63588 c 0,-4.45949 0.02013,-4.63588 0.529167,-4.63588 0.291042,0 0.529167,0.11906 0.529167,0.26458 0,0.14552 -0.181618,0.26458 -0.403594,0.26458 -0.347726,0 -0.393507,0.5764 -0.330729,4.16395 l 0.07286,4.16394 0.744568,0.35654 c 0.409513,0.1961 0.809204,0.52498 0.888204,0.73085 0.113933,0.29691 0.876396,0.37431 3.687202,0.37431 h 3.543568 l -0.04894,1.65364 -0.04894,1.65365 -0.09717,-1.38906 -0.09718,-1.38907 -2.036694,-1.6e-4 -2.036693,-1.7e-4 0.09168,1.32309 c 0.05541,0.79966 -0.01735,1.32308 -0.18394,1.32308 -0.151593,0 -0.311912,-0.56555 -0.356265,-1.25677 l -0.08064,-1.25677 -1.124479,-0.0814 -1.124479,-0.0814 v 0.94125 c 0,0.88929 0.367896,1.29278 0.584967,0.64156 0.154479,-0.46343 1.267116,10e-4 1.267116,0.52919 0,0.25213 -0.142875,0.6013 -0.3175,0.77592 -0.246944,0.24695 0.341019,0.3175 2.645833,0.3175 h 2.963334 v 2.51355 c 0,1.38244 -0.04395,2.51354 -0.09767,2.51354 -0.05372,0 -0.171473,-0.44649 -0.261672,-0.99219 z m -6.122947,-4.29948 c -0.08994,-0.14552 -0.275557,-0.26458 -0.41249,-0.26458 -0.136932,0 -0.248968,0.11906 -0.248968,0.26458 0,0.14552 0.18562,0.26458 0.41249,0.26458 0.226869,0 0.338905,-0.11906 0.248968,-0.26458 z m 0.661459,-0.66146 c 0,-0.21828 -0.119063,-0.39687 -0.264584,-0.39687 -0.145521,0 -0.264583,0.17859 -0.264583,0.39687 0,0.21828 0.119062,0.39688 0.264583,0.39688 0.145521,0 0.264584,-0.1786 0.264584,-0.39688 z m 19.226391,4.98299 c -0.27447,-0.27447 -0.20739,-1.14653 0.0882,-1.14653 0.14552,0 0.26458,0.17859 0.26458,0.39688 0,0.3346 0.6044,0.39687 3.85208,0.39687 2.50067,0 3.7947,0.0928 3.68855,0.26458 -0.18169,0.29399 -7.60467,0.37693 -7.8934,0.0882 z m 1.67569,-2.72971 v -1.84776 l 7.07761,-0.0705 7.0776,-0.0705 v -7.67292 -7.67292 h -11.90625 -11.90625 v 7.67292 7.67292 l 4.10104,0.14623 4.10104,0.14623 -4.36562,-0.0139 -4.36563,-0.0139 -0.0704,-7.80521 c -0.0641,-7.10309 -0.0298,-7.83496 0.3813,-8.13594 0.69333,-0.5076 23.97685,-0.47707 24.39934,0.032 0.21356,0.25733 0.28063,2.62139 0.23083,8.13594 l -0.0702,7.77322 -5.82084,0.16491 c -3.20146,0.0907 -6.38638,0.18 -7.0776,0.19844 l -1.25677,0.0335 v 1.5875 c 0,0.88195 -0.11759,1.5875 -0.26459,1.5875 -0.15113,0 -0.26458,-0.79231 -0.26458,-1.84776 z m 3.96875,0.78943 c 0,-0.58208 0.11906,-1.05833 0.26458,-1.05833 0.14553,0 0.26459,0.47625 0.26459,1.05833 0,0.58208 -0.11906,1.05833 -0.26459,1.05833 -0.14552,0 -0.26458,-0.47625 -0.26458,-1.05833 z m -9.525,-6.08542 c 0,-0.1702 2.68993,-0.26458 7.54063,-0.26458 4.85069,0 7.54062,0.0944 7.54062,0.26458 0,0.1702 -2.68993,0.26459 -7.54062,0.26459 -4.8507,0 -7.54063,-0.0944 -7.54063,-0.26459 z m -9.38311,-0.51363 c -0.0952,-0.15407 -0.0517,-0.28012 0.0968,-0.28012 0.14844,0 0.52439,-0.26789 0.83544,-0.59531 0.50253,-0.52898 0.55527,-0.53987 0.47333,-0.0978 -0.11838,0.63869 -1.16458,1.36307 -1.40554,0.97319 z m 13.16961,-1.00725 c 2.15533,-0.0445 5.60815,-0.0444 7.67291,2.3e-4 2.06478,0.0446 0.30132,0.0811 -3.91878,0.081 -4.22011,-1.2e-4 -5.90947,-0.0367 -3.75413,-0.0812 z m -13.22515,-1.55482 c -0.422083,-0.64417 -0.423958,-0.74858 -0.0259,-1.44215 l 0.42913,-0.74771 -3.949353,-0.0792 -3.94935,-0.0792 3.96e-4,1.12447 3.96e-4,1.12448 h 1.722033 c 1.651124,0 1.708536,-0.0216 1.394235,-0.52489 -0.445956,-0.71408 0.256247,-1.46811 1.113755,-1.19595 0.466844,0.14817 0.562129,0.34052 0.472202,0.95324 -0.109311,0.74478 -0.07908,0.7676 1.016525,0.7676 0.621052,0 1.202771,0.11907 1.292708,0.26459 0.248939,0.40279 -6.819197,0.35101 -7.223125,-0.0529 -0.368931,-0.36893 -0.457945,-14.39738 -0.09498,-14.96933 0.162218,-0.25562 1.207864,-0.32003 4.295427,-0.26458 l 4.081011,0.0733 0.0667,3.70416 c 0.0451,2.50638 -0.0177,3.57583 -0.19439,3.30729 -0.21477,-0.32649 -0.26178,-0.29781 -0.26511,0.16175 -0.003,0.45592 0.11926,0.53505 0.66667,0.4304 1.22031,-0.23327 2.25824,1.40014 1.42143,2.23695 -0.20907,0.20907 -0.20907,0.43862 0,0.82927 0.40508,0.75689 0.3598,1.50983 -0.11445,1.90342 -0.36168,0.30017 -0.36168,0.38119 0,0.78084 0.54271,0.59969 0.50905,1.41738 -0.0803,1.95074 -0.71066,0.64314 -1.55447,0.53884 -2.07563,-0.25657 z m 1.98003,-0.8447 c -0.0635,-0.54998 -0.24376,-0.72846 -0.80038,-0.79263 -0.59191,-0.0682 -0.75016,0.0438 -0.89891,0.63647 -0.1333,0.53111 -0.0569,0.8097 0.2919,1.06477 0.70894,0.51838 1.51233,-2.9e-4 1.40739,-0.90861 z m -5.127615,-0.34291 c -0.225453,-0.36479 -0.907513,-0.27597 -0.907513,0.11817 0,0.19403 0.07834,0.43112 0.174093,0.52688 0.239271,0.23927 0.913482,-0.3537 0.73342,-0.64505 z m 5.136885,-2.07186 c 0.11781,-0.83461 -0.62239,-1.42612 -1.31845,-1.0536 -0.27094,0.145 -0.49262,0.47377 -0.49262,0.73058 0,1.1895 1.64729,1.4833 1.81107,0.32302 z m -2.340232,-4.65318 v -5.16752 l -3.241145,0.0743 -3.241146,0.0743 -0.07186,5.09323 -0.07186,5.09323 h 3.313005 3.313004 z m -4.818277,2.85469 c 0.915208,-0.0518 2.343958,-0.0514 3.175,9.5e-4 0.831042,0.0523 0.08224,0.0947 -1.664014,0.0942 -1.74625,-5.3e-4 -2.426194,-0.0434 -1.510986,-0.0952 z m -1.399431,-1.39134 c 0.09289,-0.1503 1.413859,-0.26458 3.058323,-0.26458 1.753479,0 2.894802,0.10432 2.894802,0.26458 0,0.16113 -1.19583,0.26459 -3.058323,0.26459 -1.971508,0 -3.000214,-0.094 -2.894802,-0.26459 z m -0.132291,-1.32291 c 0,-0.16105 1.190624,-0.26459 3.042708,-0.26459 1.852083,0 3.042708,0.10354 3.042708,0.26459 0,0.16105 -1.190625,0.26458 -3.042708,0.26458 -1.852084,0 -3.042708,-0.10353 -3.042708,-0.26458 z m 8.598961,1.71979 c 0,-0.70475 -0.0886,-0.79375 -0.79013,-0.79375 -0.55019,0 -0.81795,0.14447 -0.88174,0.47573 -0.12742,0.6616 0.45882,1.28508 1.11955,1.19068 0.41976,-0.06 0.55232,-0.26941 0.55232,-0.87266 z m -1.58315,-8.27545 c -0.14876,-0.59615 -0.19023,-0.60176 -3.913811,-0.52917 l -3.763459,0.0734 -0.08372,0.7276 -0.08372,0.72761 h 3.854033 3.854027 l 0.0554,2.44739 0.0554,2.4474 0.0881,-2.64583 c 0.0485,-1.45521 0.0205,-2.91698 -0.0622,-3.24837 z m -4.433039,0.28311 c 0.329118,-0.0633 0.805368,-0.0609 1.058333,0.005 0.252965,0.0662 -0.01631,0.118 -0.598397,0.11507 -0.582084,-0.003 -0.789055,-0.0571 -0.459936,-0.12041 z m 13.556809,14.21005 c 0,-0.1702 2.68993,-0.26459 7.54063,-0.26459 4.85069,0 7.54062,0.0944 7.54062,0.26459 0,0.1702 -2.68993,0.26458 -7.54062,0.26458 -4.8507,0 -7.54063,-0.0944 -7.54063,-0.26458 z"
         id="path931"
         inkscape:connector-curvature="0" />
      <path
         style="fill:#afafaf;stroke-width:0.26458332"
         d="m 92.630669,215.60188 c -0.0037,-0.80036 0.08858,-1.75286 0.205093,-2.11667 0.192465,-0.60097 0.212454,-0.57677 0.218598,0.26459 0.0037,0.50932 -0.08857,1.46182 -0.205093,2.11666 l -0.211855,1.19063 -0.0067,-1.45521 z m 6.944425,-0.92604 -0.187337,-2.24896 h -3.397988 -3.397988 l -0.07645,-2.29439 c -0.07475,-2.24341 -0.09409,-2.30415 -0.870197,-2.73322 l -0.79375,-0.43881 -0.07239,-4.54283 c -0.06704,-4.20691 -0.03769,-4.54129 0.396875,-4.52195 0.277042,0.0123 0.333792,0.0756 0.13854,0.15435 -0.244404,0.0986 -0.330729,1.19248 -0.330729,4.1908 0,2.23155 0.07227,4.24569 0.160599,4.47587 0.08833,0.23018 0.384976,0.41851 0.659216,0.41851 0.274239,0 0.647329,0.23813 0.829087,0.52917 0.303478,0.48595 0.617016,0.52917 3.8387,0.52917 h 3.508231 l -0.04894,1.65364 -0.04894,1.65365 -0.09717,-1.38906 -0.09718,-1.38907 -2.036694,-1.6e-4 -2.036693,-1.7e-4 0.04805,1.38923 c 0.04523,1.30766 0.03692,1.32709 -0.141567,0.3309 -0.270559,-1.51012 -0.470735,-1.7198 -1.641888,-1.7198 h -1.042718 v 1.5875 1.5875 h 3.512529 3.512529 l 0.07488,2.51355 c 0.04119,1.38244 0.01905,2.51354 -0.04919,2.51354 -0.06824,0 -0.208382,-1.01203 -0.311417,-2.24896 z m 17.739996,1.25702 c -3.66386,-0.0814 -4.52466,-0.28315 -3.89475,-0.91306 0.24695,-0.24695 0.3175,-0.21755 0.3175,0.13229 0,0.40191 0.39429,0.44979 3.70417,0.44979 2.29306,0 3.70417,0.10079 3.70417,0.26458 0,0.14552 -0.0298,0.23847 -0.0662,0.20655 -0.0364,-0.0319 -1.7306,-0.095 -3.76494,-0.14015 z m -1.94408,-2.64608 -0.0457,-1.91823 h 7.01146 7.01146 v -7.80521 -7.80521 h -12.04254 -12.04253 l 0.0701,7.73906 0.0701,7.73907 4.10104,0.14632 4.10104,0.14633 -4.23333,-0.014 -4.23333,-0.014 -0.07,-8.00365 -0.07,-8.00364 h 12.27869 c 10.95249,0 12.29604,0.0452 12.4393,0.41851 0.2381,0.62048 0.18698,15.00533 -0.0547,15.38577 -0.15353,0.2417 -1.9851,0.34446 -7.07355,0.39687 l -6.86638,0.0707 -0.15277,1.71979 -0.15277,1.7198 z m 3.6585,0.75608 c 0,-0.61492 0.10533,-1.05294 0.23408,-0.97338 0.2578,0.15933 0.20885,1.6485 -0.0631,1.92048 -0.094,0.094 -0.17095,-0.33217 -0.17095,-0.9471 z m -25.841357,-2.82712 c -0.08809,-0.22957 0.03471,-0.61227 0.272887,-0.85045 0.401018,-0.40102 0.465092,-0.40102 0.86611,0 0.540936,0.54094 0.292648,1.26784 -0.433055,1.26784 -0.300176,0 -0.61785,-0.18783 -0.705942,-0.41739 z m 1.091518,-0.0935 c 0.19567,-0.3166 -0.302055,-0.6303 -0.654475,-0.41249 -0.295899,0.18287 -0.101644,0.65879 0.268899,0.65879 0.128345,0 0.301854,-0.11084 0.385576,-0.2463 z M 113.29101,207.731 c 2.15533,-0.0445 5.60815,-0.0444 7.67291,2.3e-4 2.06478,0.0446 0.30132,0.0811 -3.91878,0.081 -4.22011,-1.3e-4 -5.90947,-0.0367 -3.75413,-0.0812 z m -12.51775,-0.86037 c 0.29104,-0.29104 0.59289,-0.52917 0.67077,-0.52917 0.0779,0 0.0142,0.23813 -0.1416,0.52917 -0.15576,0.29104 -0.45761,0.52917 -0.67077,0.52917 -0.29316,0 -0.25867,-0.12889 0.1416,-0.52917 z m 12.51775,-0.46255 c 2.15533,-0.0445 5.60815,-0.0444 7.67291,2.3e-4 2.06478,0.0446 0.30132,0.0811 -3.91878,0.081 -4.22011,-1.2e-4 -5.90947,-0.0367 -3.75413,-0.0812 z m -12.994,-1.17787 c -0.17462,-0.17462 -0.317498,-0.68659 -0.317498,-1.1377 0,-0.45112 0.142878,-0.96309 0.317498,-1.13771 0.24695,-0.24695 -0.546804,-0.3175 -3.571873,-0.3175 h -3.889375 v -5.55625 -5.55625 h 3.704166 3.704162 v 2.99688 2.99689 l 0.77024,-0.11305 c 0.61396,-0.0901 0.86609,0.0332 1.24267,0.60798 0.43132,0.65827 0.43708,0.78264 0.0662,1.42889 -0.36503,0.63603 -0.3651,0.76983 -6.6e-4,1.31869 0.36081,0.5434 0.36196,0.68799 0.0105,1.30967 -0.35048,0.61991 -0.3504,0.77729 6.6e-4,1.39345 0.35659,0.62585 0.35072,0.76336 -0.0592,1.38906 -0.48525,0.74059 -1.43309,0.92128 -1.97741,0.37695 z m 1.48167,-0.26458 c 0.84134,-0.84134 -0.0683,-2.32888 -1.0784,-1.76358 -0.795767,0.44533 -0.42646,2.08108 0.46986,2.08108 0.16007,0 0.43391,-0.14287 0.60854,-0.3175 z m -1.93146,-7.93346 v -5.1105 l -3.373437,-0.074 -3.373438,-0.074 v 5.12318 c 0,2.81775 0.04957,5.1728 0.11015,5.23343 0.06058,0.0606 1.578629,0.0883 3.373438,0.0614 l 3.263287,-0.0489 z m -4.950569,2.76313 c 0.915208,-0.0518 2.343958,-0.0514 3.175,9.5e-4 0.831042,0.0523 0.08224,0.0947 -1.664014,0.0942 -1.74625,-5.3e-4 -2.426194,-0.0434 -1.510986,-0.0952 z m 0,-1.32292 c 0.915208,-0.0518 2.343958,-0.0514 3.175,9.5e-4 0.831042,0.0523 0.08224,0.0947 -1.664014,0.0942 -1.74625,-5.3e-4 -2.426194,-0.0434 -1.510986,-0.0952 z m -1.267139,-1.39133 c 0,-0.16036 1.146528,-0.26459 2.910416,-0.26459 1.763889,0 2.910417,0.10423 2.910417,0.26459 0,0.16035 -1.146528,0.26458 -2.910417,0.26458 -1.763888,0 -2.910416,-0.10423 -2.910416,-0.26458 z m 8.334378,4.39446 c 0,-0.95227 -0.69735,-1.47406 -1.30074,-0.97329 -0.43001,0.35688 -0.56687,1.3699 -0.23052,1.70625 0.1037,0.1037 0.49065,0.15331 0.8599,0.11024 0.54588,-0.0637 0.67136,-0.22124 0.67136,-0.8432 z m 0,-2.64584 c 0,-0.95226 -0.69735,-1.47405 -1.30074,-0.97328 -0.43001,0.35687 -0.56687,1.3699 -0.23052,1.70625 0.1037,0.10369 0.49065,0.1533 0.8599,0.11024 0.54588,-0.0637 0.67136,-0.22125 0.67136,-0.84321 z m -9.537602,6.11916 c -0.07056,-0.18387 -0.09659,-3.66644 -0.05784,-7.73906 l 0.07044,-7.40476 h 4.101041 4.101041 l 0.0162,3.57187 0.0162,3.57188 -0.14849,-3.43959 -0.14849,-3.43958 H 96.539928 92.70347 v 7.40833 7.40834 l 1.653646,0.0788 c 1.620094,0.0772 1.944152,-0.0793 1.364551,-0.65891 -0.397719,-0.39772 0.186005,-1.46351 0.741608,-1.35406 0.697006,0.13731 1.047802,0.92792 0.67593,1.52338 -0.304302,0.48726 -0.235596,0.52254 1.192555,0.61234 0.833503,0.0524 -0.125386,0.11781 -2.130865,0.14532 -2.731372,0.0375 -3.678514,-0.0339 -3.774607,-0.28427 z m 4.510515,-1.00704 c 0,-0.20416 -0.208359,-0.41133 -0.46302,-0.46037 -0.456073,-0.0878 -0.644616,0.47359 -0.28112,0.83708 0.277338,0.27734 0.74414,0.041 0.74414,-0.37671 z m 16.354207,1.14338 c 2.15533,-0.0445 5.60815,-0.0444 7.67291,2.3e-4 2.06478,0.0446 0.30132,0.0811 -3.91878,0.081 -4.22011,-1.3e-4 -5.90947,-0.0367 -3.75413,-0.0812 z M 95.947701,190.8085 c 0.329118,-0.0633 0.805368,-0.0609 1.058333,0.005 0.252965,0.0662 -0.01631,0.118 -0.598397,0.11507 -0.582084,-0.003 -0.789055,-0.0571 -0.459936,-0.12041 z"
         id="path929"
         inkscape:connector-curvature="0" />
      <path
         style="fill:#9f9f9f;stroke-width:0.26458332"
         d="m 99.712629,216.0649 c -0.0013,-0.47294 -0.07697,-1.48154 -0.168242,-2.24132 l -0.165941,-1.38143 -3.337488,-0.0738 -3.337488,-0.0738 -0.132291,-2.22872 c -0.127388,-2.1461 -0.161717,-2.24498 -0.926042,-2.66707 l -0.79375,-0.43834 -0.07239,-4.54283 c -0.06704,-4.20691 -0.03769,-4.54129 0.396875,-4.52195 0.277042,0.0123 0.333792,0.0756 0.13854,0.15435 -0.245718,0.0991 -0.330729,1.24902 -0.330729,4.47347 v 4.34003 l 0.926041,0.38692 c 1.026649,0.42897 1.0058,0.36513 0.932002,2.85348 l -0.05273,1.7781 3.479559,0.074 3.47956,0.074 0.13162,2.44739 c 0.07239,1.34607 0.06493,2.4474 -0.01659,2.4474 -0.08151,0 -0.149243,-0.38696 -0.150508,-0.8599 z m -7.080066,-0.19844 c 0,-0.50932 0.05445,-0.71768 0.121,-0.46302 0.06655,0.25466 0.06655,0.67138 0,0.92604 -0.06655,0.25467 -0.121,0.0463 -0.121,-0.46302 z m 20.844747,-0.46302 c 0.003,-0.3211 0.0669,-0.36405 0.20922,-0.14011 0.14109,0.22206 1.35856,0.34853 3.89855,0.40498 l 3.69339,0.0821 -3.9026,0.058 c -3.56382,0.053 -3.90226,0.0178 -3.89856,-0.40499 z m 5.61892,-1.25677 c 0.003,-0.58208 0.0571,-0.78905 0.12041,-0.45993 0.0633,0.32911 0.0609,0.80536 -0.005,1.05833 -0.0662,0.25296 -0.118,-0.0163 -0.11507,-0.5984 z m -3.71991,-0.99219 -0.051,-1.78593 h 7.01146 7.01146 v -7.81042 -7.81041 l -12.15775,0.0714 c -6.68676,0.0392 -12.06716,-0.0192 -11.95643,-0.12982 0.11072,-0.11064 5.61147,-0.17017 12.22389,-0.13229 l 12.02258,0.0689 v 7.9375 7.9375 l -6.9328,0.0705 -6.9328,0.0705 -0.0938,1.64927 -0.0938,1.64928 z m -22.488978,0.46303 c 0.0054,-0.43657 0.06469,-0.58313 0.131774,-0.3257 0.06708,0.25743 0.06267,0.61462 -0.0098,0.79375 -0.07248,0.17913 -0.127363,-0.0315 -0.121971,-0.46805 z m 0.443838,-2.4474 c -0.329108,-0.41964 -0.31975,-0.429 0.09989,-0.0999 0.392449,0.30778 0.533594,0.30778 0.926042,0 0.419644,-0.3291 0.429002,-0.31974 0.09989,0.0999 -0.199719,0.25466 -0.453031,0.46302 -0.562916,0.46302 -0.109884,0 -0.363196,-0.20836 -0.562915,-0.46302 z m 11.8518,0.28663 c -0.097,-0.097 -0.17456,-0.30537 -0.17233,-0.46302 0.002,-0.17524 0.0839,-0.1609 0.20961,0.0369 0.14366,0.22612 1.43702,0.34786 4.29542,0.4043 l 4.08987,0.0808 -4.12309,0.0587 c -2.2677,0.0323 -4.20246,-0.0206 -4.29948,-0.11767 z m -9.665353,-1.06538 c -0.02666,-0.82077 -0.189046,-1.21665 -0.62407,-1.52135 l -0.588038,-0.41188 h 0.576049 c 0.444596,0 0.614209,0.20341 0.743274,0.89138 0.09197,0.49026 0.113582,1.17487 0.04802,1.52136 -0.07281,0.38477 -0.133228,0.19814 -0.155235,-0.47951 z m 4.156691,-0.61048 c -0.05043,-0.72769 -0.0024,-1.323 0.106756,-1.32291 0.109141,9e-5 0.198438,0.59547 0.198438,1.32308 0,1.70693 -0.186909,1.70683 -0.305194,-1.7e-4 z m -6.094416,-1.23891 c 0.190997,-0.0764 0.4192,-0.067 0.507119,0.0209 0.08792,0.0879 -0.06835,0.15045 -0.347266,0.13897 -0.308225,-0.0127 -0.370919,-0.0754 -0.159853,-0.15986 z m 3.163202,-0.011 c 0.475549,-0.0589 1.189924,-0.0577 1.5875,0.003 0.397576,0.0604 0.0085,0.10855 -0.864634,0.10707 -0.873125,-0.001 -1.198414,-0.0509 -0.722866,-0.10977 z m 16.399426,-0.79983 c 2.07367,-0.0447 5.46696,-0.0447 7.54063,0 2.07367,0.0447 0.37703,0.0813 -3.77032,0.0813 -4.14734,0 -5.84398,-0.0366 -3.77031,-0.0813 z m -12.34722,-0.88255 c 0.30317,-0.30317 0.60649,-0.49593 0.67406,-0.42837 0.15985,0.15985 -0.65988,0.97959 -0.97959,0.97959 -0.13513,0 0.002,-0.24805 0.30553,-0.55122 z m 12.4957,-0.4405 c 2.15533,-0.0445 5.60815,-0.0444 7.67291,2.3e-4 2.06478,0.0446 0.30132,0.0811 -3.91878,0.081 -4.22011,-1.2e-4 -5.90947,-0.0367 -3.75413,-0.0812 z m -12.90041,-1.21413 c -0.475265,-0.34752 -0.494663,-1.26841 -0.0483,-2.29207 0.15028,-0.34464 -0.33235,-0.3856 -3.666748,-0.31121 l -3.83981,0.0857 v -5.58324 -5.58324 l 3.638021,0.0736 3.638017,0.0736 0.075,2.9916 c 0.0706,2.81786 0.10459,2.98219 0.58531,2.82961 0.67578,-0.21448 1.59655,0.29899 1.558,0.86883 -0.0287,0.42461 -0.0383,0.42481 -0.1493,0.003 -0.15816,-0.60087 -1.0702,-0.86519 -1.56587,-0.45381 -0.51508,0.42747 -0.37372,1.56266 0.24108,1.93604 0.38965,0.23665 0.57574,0.17412 0.99219,-0.33335 0.3635,-0.44294 0.51259,-0.50707 0.51259,-0.22048 0,0.22227 -0.14883,0.4587 -0.33073,0.5254 -0.26458,0.097 -0.26458,0.19138 0,0.47184 0.1819,0.19282 0.32318,0.53512 0.31396,0.76068 -0.0103,0.25156 -0.10927,0.17997 -0.25606,-0.18521 -0.25977,-0.64629 -1.01957,-0.78458 -1.52634,-0.27781 -0.51157,0.51157 -0.37265,1.48645 0.26009,1.82508 0.49176,0.26318 0.64902,0.22089 1.05833,-0.28459 0.35579,-0.43938 0.48075,-0.48698 0.48075,-0.18313 0,0.22582 -0.11095,0.47915 -0.24657,0.56296 -0.14413,0.0891 -0.0979,0.439 0.11136,0.84229 0.76521,1.47494 -0.54475,2.80121 -1.83495,1.85779 z m 1.328,-0.11331 c 0.5641,-0.38626 0.61272,-1.09812 0.11631,-1.70281 -0.40485,-0.49315 -0.59008,-0.55306 -0.97893,-0.31664 -0.58795,0.35749 -0.76391,1.32309 -0.33522,1.83963 0.34753,0.41874 0.75876,0.48048 1.19784,0.17982 z m -1.799641,-8.06574 0.07174,-5.22552 h -3.445176 -3.445177 v 5.29957 5.29957 l 3.373438,-0.074 3.373437,-0.074 z m -4.900385,2.78104 c 0.836745,-0.0525 2.205964,-0.0525 3.042709,0 0.836744,0.0525 0.152135,0.0955 -1.521355,0.0955 -1.673489,0 -2.358098,-0.043 -1.521354,-0.0955 z m 0,-1.32292 c 0.836745,-0.0525 2.205964,-0.0525 3.042709,0 0.836744,0.0525 0.152135,0.0955 -1.521355,0.0955 -1.673489,0 -2.358098,-0.043 -1.521354,-0.0955 z m -2.592286,6.47581 c -0.07056,-0.18387 -0.09659,-3.66644 -0.05784,-7.73906 l 0.07044,-7.40476 h 4.101041 4.101041 l 0.0162,3.57187 0.0162,3.57188 -0.14849,-3.43959 -0.14849,-3.43958 -3.906739,-0.0732 -3.906737,-0.0733 0.07028,7.48158 0.07028,7.48158 1.829185,0.0792 c 1.528692,0.0662 1.779529,0.0194 1.526914,-0.285 -0.241476,-0.29096 -0.185317,-0.36011 0.279225,-0.3438 0.367841,0.0129 0.618499,-0.1629 0.682207,-0.47849 0.08288,-0.41057 -0.02104,-0.47562 -0.587055,-0.36742 -0.69311,0.1325 -0.971513,-0.17847 -0.357038,-0.3988 0.461585,-0.16551 1.25677,0.28554 1.25677,0.71286 0,0.19535 -0.198339,0.51858 -0.440754,0.7183 -0.387082,0.31891 -0.250153,0.38187 1.12448,0.51708 1.116137,0.10979 0.556988,0.16673 -1.9488,0.19844 -2.620669,0.0332 -3.546646,-0.0405 -3.642316,-0.28982 z m 20.864722,0.13634 c 2.15533,-0.0445 5.60815,-0.0444 7.67291,2.3e-4 2.06478,0.0446 0.30132,0.0811 -3.91878,0.081 -4.22011,-1.3e-4 -5.90947,-0.0367 -3.75413,-0.0812 z M 95.812324,190.81325 c 0.254662,-0.0666 0.67138,-0.0666 0.926042,0 0.254661,0.0665 0.0463,0.121 -0.463021,0.121 -0.509323,0 -0.717682,-0.0545 -0.463021,-0.121 z"
         id="path927"
         inkscape:connector-curvature="0" />
      <path
         style="fill:#919191;stroke-width:0.26458332"
         d="m 99.766509,215.99876 c 0.0054,-0.43657 0.06469,-0.58313 0.131773,-0.3257 0.06708,0.25743 0.06267,0.61462 -0.0098,0.79375 -0.07248,0.17913 -0.127363,-0.0315 -0.12197,-0.46805 z m -0.264584,-3.175 c 0.0054,-0.43657 0.06469,-0.58313 0.131774,-0.3257 0.06708,0.25743 0.06267,0.61462 -0.0098,0.79375 -0.07248,0.17913 -0.127363,-0.0315 -0.121971,-0.46805 z m 16.947895,-1.38337 c 0.54571,-0.0571 1.43868,-0.0571 1.98438,0 0.5457,0.0571 0.0992,0.10379 -0.99219,0.10379 -1.09141,0 -1.53789,-0.0467 -0.99219,-0.10379 z m -16.655606,-1.65934 c 0,-0.80037 0.0496,-1.12779 0.110223,-0.72761 0.06062,0.40019 0.06062,1.05503 0,1.45521 -0.06062,0.40018 -0.110223,0.0728 -0.110223,-0.7276 z m -8.967409,-7.40834 c 0,-2.40109 0.04011,-3.38336 0.08914,-2.18281 0.04903,1.20055 0.04903,3.16508 0,4.36563 -0.04903,1.20054 -0.08914,0.21828 -0.08914,-2.18282 z m 2.73066,2.71946 c 0.469697,-0.0585 1.303134,-0.0594 1.852083,-0.002 0.548949,0.0573 0.164651,0.10511 -0.853995,0.10628 -1.018645,0.001 -1.467785,-0.0457 -0.998088,-0.10414 z m 3.842359,10e-4 c 0.400183,-0.0606 1.055026,-0.0606 1.455209,0 0.400182,0.0606 0.07276,0.11022 -0.727605,0.11022 -0.800364,0 -1.127786,-0.0496 -0.727604,-0.11022 z m 2.897186,-0.12799 c -0.467567,-0.46757 -0.386375,-1.39024 0.16636,-1.89045 0.54832,-0.49622 0.99675,-0.5603 1.23406,-0.17633 0.093,0.15044 -0.0142,0.19406 -0.25234,0.10269 -0.9223,-0.35392 -1.629451,1.21813 -0.8835,1.96409 0.17463,0.17463 0.25797,0.3175 0.18521,0.3175 -0.0728,0 -0.27516,-0.14287 -0.44979,-0.3175 z m -0.317498,-5.41514 c 0,-1.55222 0.0569,-2.76532 0.126438,-2.69578 0.21402,0.21402 0.28323,5.51877 0.072,5.51838 -0.10914,-2.1e-4 -0.198438,-1.27038 -0.198438,-2.8226 z m 0.864928,0.5222 c 0.25743,-0.0671 0.61462,-0.0627 0.79375,0.01 0.17913,0.0725 -0.0315,0.12736 -0.46805,0.12197 -0.43657,-0.005 -0.58313,-0.0647 -0.3257,-0.13178 z m -0.23296,-6.56352 c 4.5e-4,-1.89177 0.0426,-2.63096 0.0936,-1.64264 0.0511,0.98832 0.0507,2.53613 -8.5e-4,3.43958 -0.0515,0.90346 -0.0933,0.0948 -0.0928,-1.79694 z m -6.133648,-1.91573 c 0.975899,-0.0508 2.642774,-0.0511 3.704167,-7.4e-4 1.061392,0.0503 0.262929,0.0919 -1.774362,0.0923 -2.037292,4.2e-4 -2.905704,-0.0408 -1.929805,-0.0916 z"
         id="path925"
         inkscape:connector-curvature="0" />
    </g>
  </g>
</svg>
