<?xml version="1.0" encoding="UTF-8" standalone="no"?>
<!-- Created with Inkscape (http://www.inkscape.org/) -->

<svg
   xmlns:dc="http://purl.org/dc/elements/1.1/"
   xmlns:cc="http://creativecommons.org/ns#"
   xmlns:rdf="http://www.w3.org/1999/02/22-rdf-syntax-ns#"
   xmlns:svg="http://www.w3.org/2000/svg"
   xmlns="http://www.w3.org/2000/svg"
   xmlns:sodipodi="http://sodipodi.sourceforge.net/DTD/sodipodi-0.dtd"
   xmlns:inkscape="http://www.inkscape.org/namespaces/inkscape"
   width="210mm"
   height="153mm"
   viewBox="0 0 210 153"
   version="1.1"
   id="svg8"
   inkscape:version="0.92.2 (5c3e80d, 2017-08-06)"
   sodipodi:docname="step2.svg">
  <defs
     id="defs2" />
  <sodipodi:namedview
     id="base"
     pagecolor="#ffffff"
     bordercolor="#666666"
     borderopacity="1.0"
     inkscape:pageopacity="0.0"
     inkscape:pageshadow="2"
     inkscape:zoom="0.35"
     inkscape:cx="-153.05435"
     inkscape:cy="355.84976"
     inkscape:document-units="mm"
     inkscape:current-layer="layer1"
     showgrid="false"
     inkscape:window-width="1366"
     inkscape:window-height="745"
     inkscape:window-x="-8"
     inkscape:window-y="-8"
     inkscape:window-maximized="1" />
  <metadata
     id="metadata5">
    <rdf:RDF>
      <cc:Work
         rdf:about="">
        <dc:format>image/svg+xml</dc:format>
        <dc:type
           rdf:resource="http://purl.org/dc/dcmitype/StillImage" />
        <dc:title></dc:title>
      </cc:Work>
    </rdf:RDF>
  </metadata>
  <g
     inkscape:label="Layer 1"
     inkscape:groupmode="layer"
     id="layer1"
     transform="translate(0,-144)">
    <g
       id="g966"
       transform="matrix(5.2612555,0,0,5.2550119,-308.80604,-619.31427)">
      <path
         style="fill:#dfdfdf;stroke-width:0.26458335"
         d="m 96.349971,173.29057 c -0.646563,-0.36585 -1.41369,-0.87769 -1.704732,-1.13743 -0.291042,-0.25975 -1.257697,-0.65039 -2.148123,-0.86809 -1.550532,-0.37911 -1.77977,-0.36439 -5.423958,0.34824 -2.092752,0.40924 -4.084192,0.7492 -4.425423,0.75546 -0.584382,0.0107 -7.682813,-3.04132 -8.970725,-3.85707 -0.708331,-0.44865 -0.805108,-1.70477 -0.179539,-2.33034 0.580242,-0.58024 1.455143,-0.5199 3.29365,0.22715 0.870234,0.35361 1.582243,0.51895 1.582243,0.36743 0,-0.25307 1.194546,-0.15406 2.407477,0.19954 0.365327,0.1065 0.41952,-0.17978 0.396875,-2.0965 -0.02306,-1.95191 -0.0901,-2.24794 -0.555394,-2.45256 -0.382551,-0.16823 -0.551236,-0.5346 -0.608821,-1.3223 -0.06919,-0.94647 0.03038,-1.18218 0.758033,-1.79446 l 0.837688,-0.70487 -4.269796,0.0306 -4.269797,0.0306 -0.929214,-0.81586 c -0.511068,-0.44873 -1.183176,-0.81586 -1.493573,-0.81586 -0.310397,0 -1.555279,0.53578 -2.766405,1.19062 -1.211125,0.65485 -2.32224,1.19063 -2.469143,1.19063 -0.166445,0 -0.267097,-1.33535 -0.267097,-3.54357 0,-2.9872 0.06571,-3.56878 0.418515,-3.70417 0.709057,-0.27209 1.168985,-0.17913 1.168985,0.23628 0,0.21828 -0.178594,0.39687 -0.396875,0.39687 -0.327663,0 -0.396875,0.48611 -0.396875,2.78744 0,2.70544 0.01557,2.7791 0.529167,2.50423 0.479377,-0.25655 0.529166,-0.55399 0.529166,-3.16118 v -2.87797 l 1.91823,-0.72099 c 1.055026,-0.39654 2.319722,-0.8832 2.810437,-1.08146 0.654396,-0.2644 2.369998,-0.36048 6.436498,-0.36048 h 5.544291 l 0.773397,0.77339 c 0.425369,0.42537 0.773398,0.9759 0.773398,1.22339 0,0.38353 0.214326,0.43222 1.451108,0.32966 1.432357,-0.11879 2.762767,-0.86423 2.32453,-1.30247 -0.113088,-0.11309 -1.148143,-0.24092 -2.300122,-0.28407 -1.381527,-0.0517 -2.131757,-0.19103 -2.203935,-0.40917 -0.177018,-0.53501 4.534036,-0.45607 5.075144,0.085 0.569765,0.56976 0.521595,1.06591 -0.170701,1.7582 -0.378453,0.37845 -0.55974,0.84133 -0.511106,1.30498 0.108671,1.03601 -0.924041,1.65748 -2.465539,1.48374 -1.039598,-0.11718 -1.180522,-0.0693 -1.251588,0.42503 -0.04405,0.30639 -0.437271,0.79057 -0.873833,1.07596 -0.69304,0.45306 -0.792561,0.67179 -0.784375,1.72396 0.0052,0.66279 0.153985,1.46513 0.33073,1.78298 0.590861,1.0626 0.215905,2.72938 -0.613998,2.72938 -0.310346,0 -0.387565,0.45373 -0.387565,2.27726 0,1.96787 0.05686,2.25545 0.418514,2.11667 0.230183,-0.0883 0.482887,-0.1606 0.561564,-0.1606 0.07868,0 -0.0047,-0.178 -0.185229,-0.39555 -0.264674,-0.31891 -0.243043,-0.52564 0.111639,-1.06695 0.433795,-0.66205 0.484859,-0.67086 3.669318,-0.63268 2.410292,0.0289 3.665613,0.17428 4.949194,0.5732 0.945885,0.29397 1.828673,0.59721 1.961747,0.67387 0.133078,0.0767 0.549797,0.16459 0.926042,0.1954 0.376248,0.0308 1.13057,0.24373 1.676273,0.47316 l 0.992188,0.41713 v 3.30518 c 0,1.81785 -0.09608,3.36455 -0.213498,3.43713 -0.117425,0.0726 -0.742503,-0.16738 -1.389062,-0.53322 z m 0.80881,-3.1135 v -2.48765 l -0.79375,-0.27671 -0.79375,-0.2767 v 2.45935 c 0,2.28897 0.04124,2.47923 0.595312,2.74645 0.327422,0.15791 0.68461,0.29517 0.79375,0.30502 0.109141,0.01 0.198438,-1.10154 0.198438,-2.46976 z m -10.704424,0.76931 c 3.947277,-0.75991 4.760998,-0.79491 6.669528,-0.28683 l 1.389062,0.36979 v -2.03657 -2.03657 l -2.147353,-0.70397 -2.147353,-0.70398 -3.871917,1.32953 c -3.553624,1.22024 -3.969763,1.3079 -5.062154,1.06636 -1.565115,-0.34606 -1.614632,-0.22506 -0.13858,0.33865 0.695802,0.26573 1.196524,0.62573 1.196524,0.86026 0,0.22181 -0.148828,0.34414 -0.330729,0.27184 -5.128078,-2.0383 -7.440807,-2.85434 -7.751515,-2.73511 -0.307416,0.11796 -0.588266,1.22245 -0.310847,1.22245 0.04047,0 1.856171,0.83056 4.034896,1.8457 2.178726,1.01513 4.204486,1.84856 4.501688,1.85208 0.297203,0.004 2.08314,-0.29062 3.96875,-0.65363 z m -0.540368,-4.88407 1.322917,-0.51658 -1.247462,-0.0124 c -0.984402,-0.01 -1.307182,0.0992 -1.530663,0.51679 -0.351441,0.65667 -0.198619,0.65795 1.455208,0.0122 z m -3.920301,-0.85552 c -0.08446,-0.21107 -0.147157,-0.14837 -0.159853,0.15985 -0.01149,0.27892 0.05105,0.43519 0.138965,0.34727 0.08792,-0.0879 0.09732,-0.31612 0.02089,-0.50712 z m 0.728076,-3.38342 c 0.507055,-0.19279 0.676649,-0.44369 0.670637,-0.99219 -0.0069,-0.62652 -0.04759,-0.66627 -0.27773,-0.27113 -0.177079,0.30402 -0.593751,0.46302 -1.213424,0.46302 -0.860901,0 -0.932774,-0.0574 -0.818823,-0.65345 0.0687,-0.3594 0.02305,-0.5905 -0.101448,-0.51356 -0.124499,0.0769 -0.226362,0.54131 -0.226362,1.03193 0,0.7147 0.118342,0.91482 0.595312,1.00668 0.327422,0.0631 0.617327,0.13088 0.644234,0.1507 0.02691,0.0198 0.354329,-0.0801 0.727604,-0.222 z m -0.313504,-2.29845 c -0.181901,-0.0734 -0.479558,-0.0734 -0.661459,0 -0.181901,0.0734 -0.03307,0.13345 0.33073,0.13345 0.363802,0 0.51263,-0.06 0.330729,-0.13345 z m 0.371719,-1.29139 c 0.246367,-0.64202 -0.04226,-0.70419 -0.568689,-0.1225 -0.438353,0.48437 -0.441341,0.53079 -0.03417,0.53079 0.245402,0 0.516689,-0.18373 0.602859,-0.40829 z m -2.370938,-1.17921 0.299607,-0.79375 H 79.23111 c -1.890214,0 -2.445246,-0.45633 -2.445246,-2.01038 0,-1.57061 0.610315,-1.95837 3.082376,-1.95837 1.744269,0 1.95291,0.0592 2.45467,0.69714 0.339944,0.43216 0.548371,1.08583 0.548371,1.71979 0,0.91234 0.0708,1.02265 0.656417,1.02265 0.485531,0 0.701174,-0.17832 0.828338,-0.68499 0.23286,-0.92778 -0.05322,-3.49554 -0.441588,-3.96349 -0.253757,-0.30576 -1.352087,-0.3786 -5.708605,-0.3786 h -5.394395 l -2.510709,0.961 -2.510709,0.961 v 2.35167 2.35166 l 1.047793,-0.53454 c 1.488442,-0.75935 2.478845,-0.68844 3.512096,0.25145 l 0.86407,0.78599 3.447722,0.008 3.447723,0.008 z m 1.363029,0.14604 c 0.05847,-0.30163 -0.03688,-0.42885 -0.264583,-0.35303 -0.195799,0.0652 -0.397135,0.33075 -0.447413,0.59011 -0.05847,0.30163 0.03688,0.42885 0.264584,0.35303 0.195798,-0.0652 0.397134,-0.33075 0.447412,-0.59011 z m 0.305461,-2.2801 c 0,-1.53082 -0.364416,-1.83515 -2.192122,-1.83064 -0.904385,0.002 -1.772084,0.0915 -1.928219,0.19844 -0.430987,0.29511 -0.590203,0.92801 -0.381702,1.5173 0.157082,0.44396 0.502656,0.55344 2.146198,0.67994 1.077433,0.0829 2.048266,0.17222 2.157407,0.19843 0.109141,0.0262 0.198438,-0.31734 0.198438,-0.76347 z m 6.026472,-1.15839 c 0.346709,-0.34671 -0.40584,-0.6763 -1.544171,-0.6763 -1.378245,0 -1.714495,0.37569 -0.711989,0.79551 0.543031,0.22741 1.985775,0.15118 2.25616,-0.11921 z"
         id="path980"
         inkscape:connector-curvature="0" />
      <path
         style="fill:#d7d7d7;stroke-width:0.26458335"
         d="m 96.030097,173.08149 c -0.548015,-0.32544 -1.143328,-0.77489 -1.322916,-0.99879 -0.179589,-0.2239 -1.100432,-0.5978 -2.046317,-0.8309 -1.695662,-0.41786 -1.77977,-0.41203 -5.99447,0.41538 l -4.274679,0.83919 -4.32428,-1.92553 c -2.378354,-1.05904 -4.473108,-2.11773 -4.655009,-2.35264 -0.755147,-0.9752 -0.03189,-2.44263 1.203915,-2.44263 0.311814,0 1.246211,0.30041 2.076438,0.66757 0.99553,0.44027 1.568813,0.57161 1.68369,0.38574 0.12157,-0.19671 0.527036,-0.20051 1.342311,-0.0126 1.778947,0.41005 1.824714,0.39401 1.555352,-0.5452 -0.130511,-0.45506 -0.190093,-1.44246 -0.132405,-2.19422 0.09236,-1.20351 0.03598,-1.39708 -0.471841,-1.62 -0.856367,-0.37593 -0.926995,-1.95993 -0.127824,-2.86671 0.335185,-0.38032 0.907083,-0.72176 1.270885,-0.75877 0.755761,-0.0769 1.04848,-0.38094 1.054282,-1.09515 0.0034,-0.42353 -0.07861,-0.39362 -0.544319,0.19844 l -0.54837,0.69714 H 77.437325 73.10011 l -0.904031,-0.79375 c -0.500422,-0.43938 -1.206131,-0.79375 -1.580695,-0.79375 -0.372166,0 -1.684054,0.53578 -2.915309,1.19062 -1.231254,0.65485 -2.310022,1.19063 -2.397261,1.19063 -0.08724,0 -0.158617,-1.59346 -0.158617,-3.54102 0,-3.44154 0.01659,-3.54536 0.590749,-3.6955 0.717727,-0.18769 1.287145,0.26252 0.644119,0.50928 -0.372746,0.14303 -0.441118,0.59692 -0.441118,2.92839 0,2.67714 0.01572,2.75072 0.529167,2.47593 0.478746,-0.25622 0.529166,-0.55399 0.529166,-3.12515 v -2.84194 l 2.976563,-1.12275 2.976562,-1.12276 5.23483,0.005 c 5.754407,0.006 6.188794,0.10821 6.809055,1.60565 0.289328,0.69851 0.447007,0.78086 1.495104,0.78086 1.31913,0 2.732887,-0.61411 2.732887,-1.18712 0,-0.2949 -0.512646,-0.39687 -2.293752,-0.45623 -1.542685,-0.0514 -2.329623,-0.18474 -2.403299,-0.40717 -0.150414,-0.45412 4.455422,-0.46653 4.908717,-0.0132 0.479751,0.47975 0.381299,1.39483 -0.207388,1.92758 -0.363234,0.32873 -0.476363,0.66835 -0.367329,1.10278 0.08666,0.34527 0.01324,0.80166 -0.163157,1.0142 -0.44834,0.54021 -2.034109,0.78892 -2.801332,0.43935 -0.546044,-0.24879 -0.64121,-0.22319 -0.64121,0.17247 0,0.76495 -0.7774,1.6407 -1.456448,1.6407 -0.58469,0 -0.612195,0.0588 -0.362527,0.775 0.177574,0.50939 0.181429,0.9408 0.01125,1.25879 -0.192847,0.36033 -0.130267,0.64267 0.245237,1.10639 0.277286,0.34244 0.504156,0.9581 0.504156,1.36815 0,0.72541 -0.581737,1.57709 -1.077232,1.57709 -0.135126,0 -0.245684,1.02005 -0.245684,2.26678 0,2.58214 -0.348145,2.42427 2.866574,1.29988 l 1.763634,-0.61686 -1.503525,-0.0197 c -1.280726,-0.0168 -1.528412,0.0587 -1.671475,0.50947 -0.214359,0.67539 -0.661458,0.68816 -0.661458,0.0189 0,-1.00011 0.706676,-1.34182 2.774975,-1.34182 1.099967,0 1.982909,0.11845 2.034398,0.27291 0.06152,0.18456 0.366504,0.17686 0.941994,-0.0238 0.722169,-0.25174 1.172442,-0.18962 2.973787,0.41028 1.167519,0.38882 2.122762,0.79639 2.122762,0.9057 0,0.48962 -0.429421,0.45976 -2.265444,-0.15755 l -1.962066,-0.65969 -4.037808,1.34425 c -3.645901,1.21378 -4.136516,1.31685 -5.054805,1.06198 -1.440336,-0.39977 -1.470646,-0.14216 -0.04723,0.40144 1.116978,0.42658 1.598932,0.94236 0.880557,0.94236 -0.173782,0 -1.893831,-0.61049 -3.822332,-1.35664 -3.580294,-1.38525 -4.433079,-1.4774 -4.280779,-0.46257 0.06671,0.4445 0.922555,0.95066 4.028406,2.38244 2.169036,0.99991 4.248395,1.81802 4.620797,1.81802 0.372401,0 2.345355,-0.31592 4.384342,-0.70204 3.797777,-0.71918 4.316488,-0.71391 7.225637,0.0735 0.587261,0.15894 0.595313,0.12671 0.595313,-2.38328 0,-2.3426 0.134572,-2.8508 0.62502,-2.36035 0.101224,0.10122 0.373811,0.2119 0.605747,0.24594 0.231937,0.034 0.764273,0.20379 1.182968,0.37722 l 0.761265,0.31532 v 3.27519 c 0,3.69769 -0.03949,3.75179 -1.922434,2.63362 z m 1.128684,-2.77863 v -2.62645 l -0.776275,-0.38726 -0.776274,-0.38726 -0.08362,2.49961 -0.08362,2.49961 0.79375,0.49218 c 0.436562,0.2707 0.823516,0.50205 0.859896,0.51411 0.03638,0.0121 0.06615,-1.15999 0.06615,-2.60454 z m -15.170605,-5.37719 c -0.0734,-0.1819 -0.133452,-0.0331 -0.133452,0.33073 0,0.3638 0.06005,0.51263 0.133452,0.33073 0.0734,-0.1819 0.0734,-0.47956 0,-0.66146 z m 0.0055,-1.30638 c -0.08446,-0.21107 -0.147157,-0.14837 -0.159853,0.15985 -0.01149,0.27892 0.05105,0.43519 0.138965,0.34727 0.08792,-0.0879 0.09732,-0.31612 0.02089,-0.50712 z m 0.943739,-1.76871 c 0.337187,-0.0246 0.463021,-0.26322 0.463021,-0.87808 0,-0.75739 -0.0354,-0.79591 -0.343777,-0.37418 -0.487058,0.66609 -1.905181,0.4899 -1.905181,-0.23671 0,-0.44328 0.165516,-0.52387 1.019701,-0.49655 0.65923,0.0211 0.89306,-0.0476 0.661458,-0.19439 -0.527213,-0.33407 -1.443917,-0.28349 -1.759783,0.0971 -0.15164,0.18271 -0.354828,0.64744 -0.451529,1.03273 -0.197895,0.78847 0.321422,1.24935 1.289856,1.1447 0.309767,-0.0335 0.771573,-0.0761 1.026234,-0.0946 z m -2.551614,-4.66397 0.289846,-0.92604 h -1.41573 c -1.734376,0 -2.474064,-0.59329 -2.474064,-1.98438 0,-1.48847 0.712616,-1.98437 2.851545,-1.98437 2.295013,0 2.969288,0.41969 2.969288,1.84818 0,1.26922 0.600929,1.9778 1.341291,1.58157 0.738467,-0.39522 0.742396,-3.61398 0.0055,-4.52492 -0.494194,-0.61093 -0.615298,-0.62642 -5.524517,-0.70649 l -5.019246,-0.0819 -2.942151,1.13667 -2.942152,1.13666 v 2.31864 c 0,1.42858 0.105611,2.31863 0.275124,2.31863 0.151318,0 0.741887,-0.23813 1.312376,-0.52917 1.461514,-0.74561 2.16996,-0.66386 3.439583,0.39688 l 1.1084,0.92604 h 3.217518 3.217517 z m 1.427135,0.0819 c 0,-0.6982 -0.637329,-0.46901 -0.745835,0.26821 -0.06314,0.42898 0.02011,0.53319 0.33073,0.41399 0.228308,-0.0876 0.415105,-0.3946 0.415105,-0.6822 z m 0.307961,-2.39704 c -0.148278,-1.62039 -0.376627,-1.78593 -2.463573,-1.78593 -1.716961,0 -1.841677,0.0406 -2.084308,0.67878 -0.482732,1.26968 0.04064,1.7019 2.066417,1.70652 0.977145,0.002 1.955222,0.11947 2.173503,0.26053 0.218281,0.14106 0.400022,0.2583 0.403867,0.26053 0.0038,0.002 -0.03931,-0.50196 -0.09591,-1.12043 z m 5.623525,-0.8882 c 0.230183,-0.0883 0.418514,-0.32645 0.418514,-0.52917 0,-0.27036 -0.387752,-0.36856 -1.455208,-0.36856 -1.473998,0 -1.835421,0.28142 -0.992188,0.77255 0.526979,0.30694 1.412799,0.36159 2.028882,0.12518 z"
         id="path978"
         inkscape:connector-curvature="0" />
      <path
         style="fill:#cecece;stroke-width:0.26458335"
         d="m 96.034301,173.04422 c -0.691223,-0.35982 -1.25677,-0.80104 -1.25677,-0.9805 0,-0.19041 -0.850765,-0.51965 -2.042854,-0.79058 l -2.042853,-0.46428 -4.172603,0.83318 -4.172602,0.83319 -4.164099,-1.90364 c -4.328957,-1.97901 -5.100823,-2.46032 -5.100823,-3.18066 0,-0.67983 0.774373,-1.60536 1.343177,-1.60536 0.285682,0 1.24997,0.29685 2.142863,0.65966 1.089941,0.44288 1.725356,0.57508 1.933568,0.40228 0.201031,-0.16684 0.628028,-0.16621 1.213825,0.002 1.583537,0.45415 1.80265,0.37107 1.584284,-0.60072 -0.106273,-0.47294 -0.164833,-1.48497 -0.130133,-2.24896 0.0347,-0.76399 -0.0359,-1.38906 -0.156889,-1.38906 -0.471032,0 -1.051528,-0.86712 -1.051528,-1.57072 0,-1.06361 0.899784,-2.08433 1.924621,-2.18331 0.728624,-0.0704 0.866661,-0.1983 0.943428,-0.87433 l 0.08992,-0.79189 -0.672603,0.72575 -0.672603,0.72575 H 77.33687 73.10011 l -0.941699,-0.82683 c -0.517935,-0.45475 -1.226838,-0.82682 -1.575342,-0.82682 -0.348503,0 -1.643848,0.55066 -2.878546,1.2237 -1.234697,0.67303 -2.315873,1.2237 -2.402615,1.2237 -0.08674,0 -0.157711,-1.54363 -0.157711,-3.43028 0,-3.21773 0.03455,-3.44876 0.557572,-3.72868 0.371715,-0.19893 0.645767,-0.2102 0.822156,-0.0338 0.176388,0.17639 0.07872,0.36406 -0.292989,0.56299 -0.509774,0.27282 -0.557572,0.52442 -0.557572,2.93493 0,1.45009 0.109324,2.63652 0.242944,2.63652 0.985542,0 1.079971,-0.28584 1.080065,-3.26945 l 9.3e-5,-2.94826 2.97647,-1.12777 2.976469,-1.12778 5.18984,0.003 c 4.893132,0.003 5.230825,0.0355 5.906738,0.56721 0.394294,0.31015 0.824123,0.84593 0.955175,1.19062 0.209288,0.55047 0.408942,0.62672 1.641161,0.62672 1.451698,0 2.578962,-0.51919 2.578962,-1.1878 0,-0.5042 -0.798002,-0.70855 -2.58216,-0.66123 -2.081339,0.0552 -2.235152,0.0351 -2.048049,-0.26764 0.236544,-0.38274 4.452296,-0.33666 4.841875,0.0529 0.455375,0.45537 0.391406,1.2788 -0.145521,1.87321 -0.254661,0.28193 -0.46302,0.88371 -0.46302,1.33729 0,1.12036 -1.115617,1.69904 -2.541686,1.3184 -0.950136,-0.2536 -0.985465,-0.23742 -1.21177,0.55504 -0.163541,0.57268 -0.471222,0.89522 -1.031041,1.08085 -0.681269,0.2259 -0.773357,0.3613 -0.62982,0.92604 0.09247,0.3638 0.07504,0.92013 -0.03871,1.23628 -0.138448,0.38477 -0.08267,0.67786 0.168702,0.88648 0.206543,0.17141 0.455425,0.73753 0.553072,1.25803 0.152409,0.81241 0.0785,1.03155 -0.522166,1.54822 -0.648732,0.55801 -0.699703,0.75698 -0.699703,2.73122 0,1.17114 0.08889,2.12935 0.197535,2.12935 0.389818,0 4.437762,-1.3933 4.671649,-1.60797 0.131437,-0.12065 -0.404344,-0.17012 -1.190625,-0.10995 -0.786281,0.0602 -1.570406,0.11414 -1.742501,0.11992 -0.172094,0.006 -0.388477,0.24863 -0.48085,0.53967 -0.210934,0.66459 -0.661458,0.69252 -0.661458,0.041 0,-0.95913 0.843789,-1.36393 2.843055,-1.36393 1.053195,0 1.915229,0.11965 1.966318,0.27291 0.06152,0.18456 0.366504,0.17686 0.941994,-0.0238 0.722169,-0.25174 1.172442,-0.18962 2.973787,0.41028 1.167519,0.38882 2.122762,0.81623 2.122762,0.9498 0,0.3639 -0.442031,0.30143 -2.455143,-0.34693 l -1.831226,-0.58979 -3.816768,1.30049 c -3.727342,1.27002 -3.855356,1.29395 -5.463587,1.02154 -0.90575,-0.15342 -1.68046,-0.25108 -1.721579,-0.21702 -0.04112,0.0341 0.643491,0.33054 1.521354,0.65884 0.877864,0.3283 1.596116,0.70146 1.596116,0.82924 0,0.41678 -0.610848,0.24395 -4.22688,-1.19594 -1.960981,-0.78086 -3.723594,-1.35904 -3.916917,-1.28486 -0.199126,0.0764 -0.316618,0.42937 -0.271037,0.81423 0.07095,0.59907 0.572033,0.90608 4.240596,2.59823 l 4.160138,1.91888 4.041946,-0.8042 c 4.127813,-0.82129 5.004039,-0.82831 7.812258,-0.0626 0.585491,0.15965 0.595313,0.1228 0.595313,-2.23416 0,-3.54047 0.496326,-3.32062 0.586552,0.25981 l 0.07491,2.97253 0.859896,0.50161 0.859896,0.50162 v -2.74448 -2.74447 l -0.859896,-0.34592 c -1.110565,-0.44677 -0.49317,-0.70215 0.725297,-0.30002 l 0.928349,0.30638 v 3.28677 c 0,2.4596 -0.08323,3.28368 -0.33073,3.27446 -0.181901,-0.007 -0.896276,-0.30672 -1.5875,-0.66653 z m -13.813483,-7.71604 c -0.126647,-2.124 0.09074,-3.20142 0.683911,-3.38969 0.720427,-0.22865 0.686358,-1.85311 -0.0471,-2.24564 -0.823823,-0.4409 -1.643129,-0.20603 -2.094176,0.60033 -0.48064,0.85926 -0.159598,1.60581 0.748633,1.74085 0.532265,0.0791 0.561668,0.1962 0.431974,1.71979 -0.124797,1.46607 0.0178,3.09008 0.271323,3.09008 0.05269,0 0.05514,-0.68208 0.0054,-1.51572 z m -1.116187,-4.72869 c -0.17512,-0.45636 0.311051,-0.88874 1.006648,-0.89529 0.540451,-0.005 1.126873,0.67472 0.899456,1.04269 -0.273439,0.44244 -1.722771,0.33036 -1.906104,-0.1474 z m -0.807769,-2.94986 c 0.07322,-0.25466 0.21891,-0.67138 0.32375,-0.92604 0.168206,-0.40859 0.0162,-0.46302 -1.292899,-0.46302 -1.809685,0 -2.488933,-0.53477 -2.488933,-1.95953 0,-1.52004 0.930292,-2.08627 3.217074,-1.95809 2.038361,0.11425 2.550843,0.50265 2.550843,1.93324 0,1.16741 0.616175,1.94165 1.241275,1.55969 0.380638,-0.23258 0.494222,-0.70049 0.555296,-2.28753 0.07274,-1.89028 0.03958,-2.02441 -0.630994,-2.55188 -0.662123,-0.52083 -1.02677,-0.55674 -5.653619,-0.55674 h -4.945847 l -2.36066,0.93783 c -1.298362,0.5158 -2.569019,0.95786 -2.82368,0.98234 -0.406362,0.0391 -0.463021,0.36105 -0.463021,2.63118 v 2.58665 l 1.419555,-0.69621 c 1.662451,-0.81534 2.396705,-0.72841 3.675715,0.43518 0.853703,0.77666 0.874035,0.78048 4.200434,0.78819 2.960255,0.007 3.357806,-0.0452 3.475711,-0.45526 z m 1.353653,0.0585 c 0.222492,-0.22249 0.330284,-0.59802 0.239538,-0.8345 -0.142431,-0.37117 -0.231343,-0.34803 -0.650216,0.16926 -0.796867,0.98409 -0.457653,1.53357 0.410678,0.66524 z m 0.470393,-2.83662 c -0.148076,-1.61818 -0.377984,-1.78593 -2.447715,-1.78593 -1.575485,0 -1.849447,0.073 -2.111491,0.56263 -0.218575,0.40841 -0.222681,0.73477 -0.01498,1.19063 0.25653,0.56302 0.457793,0.62841 1.945449,0.63204 0.912625,0.002 1.837912,0.11947 2.056193,0.26053 0.630392,0.40739 0.681487,0.33065 0.572544,-0.8599 z m 6.007347,-1.08267 c 0.44356,-0.53446 0.09201,-0.70326 -1.464613,-0.70326 -1.045699,0 -1.411111,0.0978 -1.411111,0.37747 0,0.6644 2.371712,0.93308 2.875724,0.32579 z"
         id="path976"
         inkscape:connector-curvature="0" />
      <path
         style="fill:#bdbdbd;stroke-width:0.26458335"
         d="m 96.038109,172.97848 c -0.689129,-0.39084 -1.254676,-0.83997 -1.256771,-0.99807 -0.0021,-0.1581 -0.927349,-0.49838 -2.056122,-0.75619 l -2.052315,-0.46873 -4.160636,0.83701 -4.160637,0.83701 -4.26994,-1.93291 c -4.378919,-1.98224 -5.20171,-2.60032 -4.866692,-3.65587 0.344179,-1.08441 1.171979,-1.16125 3.319093,-0.30809 1.272542,0.50565 2.032804,0.68547 2.144284,0.50719 0.119464,-0.19105 0.596305,-0.19247 1.546528,-0.005 l 1.373809,0.27163 -0.167971,-0.8268 c -0.174857,-0.8607 -0.223896,-2.65416 -0.09134,-3.34035 0.04217,-0.21828 -0.04239,-0.43512 -0.187914,-0.48187 -0.63009,-0.20242 -1.190625,-0.97757 -1.190625,-1.64649 0,-0.99786 0.762618,-1.84703 1.85845,-2.06936 0.817069,-0.16577 0.927525,-0.28886 0.990037,-1.10329 0.06172,-0.80414 0.03332,-0.85172 -0.231331,-0.38753 -0.63463,1.11313 -0.97725,1.19063 -5.264058,1.19063 h -4.133263 l -0.739952,-0.77235 c -1.20055,-1.2531 -1.742432,-1.2402 -4.343933,0.10342 -1.275848,0.65895 -2.465683,1.19809 -2.644076,1.19809 -0.242991,0 -0.305776,-0.84618 -0.2503,-3.37343 0.07181,-3.27118 0.0921,-3.376 0.669363,-3.45799 0.327422,-0.0465 0.595313,0.0428 0.595313,0.19844 0,0.15564 -0.178594,0.28298 -0.396875,0.28298 -0.328678,0 -0.396875,0.49914 -0.396875,2.90475 v 2.90474 l 0.661458,-0.30138 c 0.648949,-0.29568 0.661458,-0.35812 0.661458,-3.30162 0,-1.82377 0.10375,-3.00024 0.264584,-3.00024 0.15959,0 0.264583,1.10243 0.264583,2.77813 0,1.52797 0.02977,2.77763 0.06615,2.77702 0.03638,-6.1e-4 0.651871,-0.29827 1.367758,-0.66146 1.698674,-0.8618 2.008705,-0.83705 3.328596,0.26569 l 1.1084,0.92604 h 3.356543 3.356544 l 0.368279,-0.8599 c 0.202554,-0.47294 0.40725,-0.91942 0.454882,-0.99218 0.04763,-0.0728 -0.624466,-0.1323 -1.493548,-0.1323 -1.283574,0 -1.691333,-0.11118 -2.172523,-0.59237 -0.434619,-0.43462 -0.514037,-0.67071 -0.298216,-0.88653 0.21582,-0.21582 0.338728,-0.15372 0.461523,0.23317 0.141727,0.44654 0.459881,0.54547 2.076804,0.64579 1.05019,0.0652 2.107653,0.20588 2.349918,0.31272 0.382872,0.16884 0.423277,0.0446 0.308945,-0.94989 -0.212584,-1.84911 -0.156823,-1.80559 -2.313619,-1.80559 -1.734841,0 -2.027502,0.0711 -2.383468,0.57935 -0.56135,0.80143 -0.857811,0.389 -0.315413,-0.4388 0.407606,-0.62209 0.586003,-0.66972 2.508375,-0.66972 2.393287,0 2.945324,0.35736 2.945324,1.90667 0,1.08312 0.530696,1.65206 1.31022,1.40465 0.484756,-0.15385 0.541864,-0.38832 0.541864,-2.2247 0,-1.80358 -0.07432,-2.12253 -0.612366,-2.628 -0.584603,-0.54921 -0.841466,-0.57529 -5.665845,-0.57529 h -5.053481 l -2.426642,0.92604 c -2.522428,0.9626 -2.911248,1.05985 -2.909183,0.72761 6.88e-4,-0.10914 1.221069,-0.64795 2.711979,-1.19736 l 2.710746,-0.99893 5.034358,0.007 c 5.572151,0.007 5.946423,0.104 6.616011,1.70655 l 0.349679,0.8369 1.607073,-0.15365 c 1.701764,-0.16271 2.589533,-0.71421 2.312363,-1.43651 -0.127474,-0.33219 -0.593929,-0.41739 -2.285138,-0.41739 -1.240259,0 -2.124971,-0.11015 -2.124971,-0.26458 0,-0.35248 3.854156,-0.34453 4.51531,0.009 0.714039,0.38214 0.644237,1.43559 -0.135776,2.04915 -0.450987,0.35474 -0.56348,0.59343 -0.370592,0.78632 0.920563,0.92056 -1.088441,2.11132 -2.755502,1.63321 -0.469189,-0.13456 -0.883623,-0.24466 -0.920964,-0.24466 -0.03734,0 -0.06789,0.27921 -0.06789,0.62045 0,0.67508 -0.740224,1.49622 -1.348774,1.49622 -0.462276,0 -0.464031,2.25963 -0.0024,3.12215 0.161076,0.30098 0.292866,0.98292 0.292866,1.51543 0,0.74569 -0.121615,1.00001 -0.529167,1.10659 -0.48128,0.12586 -0.529166,0.3609 -0.529166,2.59725 v 2.45888 l 2.576163,-0.92076 c 1.41689,-0.50642 2.627359,-0.97195 2.689931,-1.03452 0.06257,-0.0626 -0.678974,-0.11377 -1.64788,-0.11377 -1.475101,0 -1.815401,0.0861 -2.092117,0.52917 -0.181759,0.29104 -0.420893,0.52916 -0.531409,0.52916 -0.369053,0 -0.206737,-0.52336 0.328228,-1.05833 0.417174,-0.41717 0.881945,-0.52917 2.196042,-0.52917 0.916781,0 1.800729,0.13386 1.964329,0.29746 0.209775,0.20977 0.52313,0.21878 1.063068,0.0306 0.603559,-0.2104 1.175422,-0.13696 2.701755,0.34696 1.064882,0.33763 2.062877,0.74059 2.217767,0.89549 0.421481,0.42148 -0.05265,0.35658 -1.808586,-0.24755 -0.845928,-0.29104 -1.833745,-0.52917 -2.195147,-0.52917 -0.361405,0 -2.218001,0.54557 -4.125768,1.21238 -3.54911,1.24049 -3.643702,1.25167 -6.511377,0.76936 -0.733195,-0.12332 -0.597065,-0.0142 0.653697,0.52422 1.557739,0.67051 2.366861,1.19821 1.837204,1.19821 -0.143421,0 -1.89252,-0.65484 -3.886886,-1.45521 -1.994366,-0.80036 -3.742113,-1.45521 -3.883883,-1.45521 -0.14177,0 -0.392968,0.25263 -0.558217,0.56141 -0.440579,0.82322 0.08437,1.19401 4.58346,3.23737 l 3.904749,1.77343 4.248099,-0.82965 c 4.18211,-0.81676 4.274367,-0.82305 5.93921,-0.40485 0.930111,0.23364 1.81547,0.42479 1.967466,0.42479 0.171611,0 0.276352,-0.90252 0.276352,-2.38125 0,-1.41111 0.107794,-2.38125 0.264583,-2.38125 0.160078,0 0.264583,1.1302 0.264583,2.86142 v 2.86141 l 0.935019,0.44588 c 0.51426,0.24523 0.99051,0.44588 1.058334,0.44588 0.06782,0 0.123314,-1.20097 0.123314,-2.66882 v -2.66882 l -0.79375,-0.2996 c -0.436563,-0.16479 -0.79375,-0.39257 -0.79375,-0.50619 0,-0.31834 0.477676,-0.24679 1.344356,0.20139 l 0.788913,0.40796 -0.07445,3.07618 c -0.04265,1.76246 -0.187439,3.10639 -0.339029,3.14693 -0.145521,0.0389 -0.828416,-0.24903 -1.517547,-0.63987 z M 82.880834,162.00224 c 0.387659,-0.10138 0.519613,-0.3639 0.519613,-1.03378 0,-1.08732 -0.395562,-1.53289 -1.36083,-1.53289 -0.812703,0 -1.549587,0.83235 -1.549587,1.75035 0,0.52073 0.62636,1.04293 1.12448,0.93748 0.10914,-0.0231 0.198437,0.95019 0.198437,2.16286 0,3.00112 0.37841,3.18367 0.472574,0.22797 0.06705,-2.10447 0.135102,-2.39164 0.595313,-2.51199 z m -1.685248,-1.15556 c -0.670324,-0.67033 0.477969,-1.38135 1.4182,-0.87815 0.445271,0.2383 0.493588,0.37319 0.242181,0.67611 -0.323543,0.38985 -1.347923,0.5145 -1.660381,0.20204 z m 0.715347,-3.32206 c 0.206532,-0.32797 0.206006,-0.53673 -0.0019,-0.74461 -0.343626,-0.34363 -1.15444,0.3405 -1.15444,0.97406 0,0.51776 0.783705,0.36225 1.156319,-0.22945 z m 6.391469,-3.65689 c 0.347034,-0.56152 -0.461295,-1.04675 -1.743737,-1.04675 -1.410336,0 -1.913595,0.41784 -1.163695,0.96618 0.575329,0.42069 2.661495,0.4785 2.907432,0.0806 z"
         id="path974"
         inkscape:connector-curvature="0" />
      <path
         style="fill:#aeaeae;stroke-width:0.26458335"
         d="m 96.28615,173.03775 c -0.698224,-0.36338 -1.333026,-0.82622 -1.410663,-1.02855 -0.07764,-0.20232 -1.030877,-0.57761 -2.118304,-0.83397 l -1.977144,-0.46611 -3.827675,0.7463 c -2.105221,0.41046 -4.093052,0.74624 -4.4174,0.74618 -0.324349,-6e-5 -2.494725,-0.87938 -4.823059,-1.95404 -3.880994,-1.7913 -4.240429,-2.01559 -4.318597,-2.69479 -0.105347,-0.91538 0.349999,-1.50262 1.165125,-1.50262 0.799601,0 7.519098,2.66139 7.519098,2.97809 0,0.13255 -0.09464,0.20132 -0.210321,0.15281 -7.304355,-3.06296 -8.124055,-3.24405 -8.124055,-1.79479 0,0.53893 0.535551,0.86479 4.233334,2.5758 l 4.233333,1.95882 4.365625,-0.81327 4.365625,-0.81326 1.918229,0.49735 1.91823,0.49735 v -2.33925 c 0,-1.28659 0.119062,-2.41284 0.264583,-2.50278 0.170175,-0.10517 0.264583,0.86019 0.264583,2.70547 v 2.86898 l 0.768427,0.45393 c 1.286169,0.75975 1.34824,0.65915 1.34824,-2.18512 v -2.63904 l -0.818338,-0.42318 c -1.021842,-0.52842 -0.870804,-0.74888 0.246266,-0.35947 l 0.836655,0.29166 v 3.28141 c 0,1.80477 -0.02976,3.27586 -0.06615,3.26909 -0.03638,-0.007 -0.637423,-0.30963 -1.335651,-0.673 z m -16.002573,-5.51881 c -0.768393,-0.18606 -1.482768,-0.42986 -1.5875,-0.54177 -0.174357,-0.1863 1.09669,-0.0313 2.498879,0.30466 0.539261,0.12922 0.559229,0.078 0.342608,-0.87796 -0.2282,-1.00712 -0.119974,-4.01531 0.154328,-4.28961 0.0786,-0.0786 0.122062,0.62599 0.09658,1.56576 -0.06774,2.49863 -0.007,3.16388 0.289056,3.16388 0.156259,0 0.264583,-0.94923 0.264583,-2.31851 0,-2.14862 0.04351,-2.33765 0.593767,-2.57969 0.757458,-0.33318 0.888915,-1.03627 0.348081,-1.86168 -0.497721,-0.75962 -1.730593,-0.88024 -2.378158,-0.23268 -0.561774,0.56177 -0.533782,1.87045 0.04725,2.20887 0.439259,0.25584 0.438923,0.27009 -0.0065,0.27773 -0.667464,0.0114 -1.030501,-1.10722 -0.682913,-2.10431 0.313834,-0.90026 0.924407,-1.32723 1.897979,-1.32723 0.674097,0 1.076451,-0.74884 0.795599,-1.48073 -0.186503,-0.48602 -0.615054,-0.47869 -0.615054,0.0105 0,0.21003 -0.264617,0.56722 -0.588038,0.79375 -0.467402,0.32738 -1.385015,0.41188 -4.472884,0.41188 h -3.884845 l -1.1084,-0.92605 c -0.60962,-0.50932 -1.355239,-0.92604 -1.656932,-0.92604 -0.301692,0 -1.539452,0.53578 -2.750578,1.19063 -1.211125,0.65484 -2.32224,1.19062 -2.469143,1.19062 -0.16465,0 -0.267097,-1.19749 -0.267097,-3.12208 0,-3.16948 0.1665,-3.7667 1.045104,-3.74867 0.34509,0.007 0.336702,0.0641 -0.05292,0.3599 -0.389938,0.296 -0.463021,0.79582 -0.463021,3.16658 0,1.54831 0.06736,2.81511 0.149685,2.81511 0.08233,0 0.379984,-0.12325 0.661459,-0.2739 0.458206,-0.24522 0.511772,-0.57754 0.511772,-3.175 0,-1.75768 0.104282,-2.9011 0.264584,-2.9011 0.15875,0 0.264583,1.05833 0.264583,2.64583 0,1.45521 0.04514,2.64583 0.100319,2.64583 0.05518,0 0.755618,-0.3 1.55654,-0.66668 1.642478,-0.75195 2.267583,-0.65748 3.350199,0.50632 0.631711,0.67908 0.697113,0.68953 4.315094,0.68953 2.020514,0 3.613197,-0.0978 3.539296,-0.21741 -0.0739,-0.11957 0.03813,-0.5499 0.248968,-0.95628 0.210834,-0.40639 0.383334,-0.7848 0.383334,-0.84093 0,-0.0561 -0.750094,-0.10205 -1.666875,-0.10205 -1.673961,0 -2.301875,-0.28083 -2.301875,-1.02952 0,-0.29413 0.09537,-0.26411 0.374744,0.11796 0.289293,0.39563 0.81719,0.54755 2.315104,0.66625 1.067198,0.0846 2.15094,0.24748 2.408315,0.36203 0.414569,0.18451 0.437207,0.1274 0.198438,-0.50062 -0.148235,-0.38988 -0.269517,-1.05413 -0.269517,-1.4761 0,-0.95091 -0.613095,-1.315 -2.21434,-1.315 -1.498004,0 -2.467681,0.36063 -2.627466,0.97717 -0.09945,0.38373 -0.129949,0.36243 -0.154586,-0.10796 -0.0435,-0.83065 0.710841,-1.13379 2.821324,-1.13379 2.089107,0 2.704234,0.40606 2.704234,1.78513 0,1.21606 0.250413,1.65445 0.94504,1.65445 0.909466,0 1.246092,-0.857 1.119226,-2.8494 -0.171358,-2.69112 -0.210283,-2.70725 -6.525348,-2.70496 l -5.19621,0.002 -2.48011,0.93554 c -1.364061,0.51454 -2.541433,0.87421 -2.616382,0.79926 -0.07495,-0.075 0.148131,-0.24726 0.495735,-0.38291 5.24852,-2.04819 4.403144,-1.88492 9.754097,-1.88384 4.43152,8.9e-4 4.983808,0.0516 5.767368,0.52931 0.573683,0.34978 0.922141,0.80634 1.031058,1.35092 l 0.164518,0.82259 1.538714,-0.1113 c 1.629561,-0.11787 2.702997,-0.75487 2.557914,-1.51791 -0.06108,-0.32125 -0.578186,-0.44632 -2.3249,-0.56229 l -2.246345,-0.14914 2.262188,-0.0493 c 2.244411,-0.0489 2.897187,0.15824 2.897187,0.91936 0,0.18351 -0.266081,0.58154 -0.59129,0.88452 -0.404155,0.37653 -0.565946,0.79249 -0.51121,1.31431 0.108008,1.02969 -0.683928,1.44326 -2.379225,1.24247 -1.221526,-0.14467 -1.280775,-0.12195 -1.280775,0.49121 0,0.73269 -1.092558,1.59385 -1.717749,1.35394 -0.460504,-0.17671 -0.544294,0.23841 -0.103153,0.51105 0.185187,0.11445 0.237837,0.60542 0.140824,1.31321 -0.112339,0.8196 -0.04816,1.21904 0.233401,1.45272 0.219998,0.18258 0.388344,0.76988 0.388344,1.35478 0,0.85787 -0.11187,1.07502 -0.661458,1.28397 -0.638906,0.24291 -0.661459,0.33387 -0.661459,2.6676 0,1.82243 0.08127,2.38572 0.330729,2.29247 0.181901,-0.068 1.899952,-0.64009 3.817891,-1.27133 l 3.487163,-1.14771 2.00294,0.62815 c 1.10162,0.34549 2.002944,0.72625 2.002944,0.84616 0,0.28896 0.0934,0.30823 -2.065769,-0.42615 l -1.893871,-0.64415 -3.897243,1.30561 c -4.268303,1.42991 -4.110199,1.40604 -6.107904,0.92231 z m 1.476454,-9.72379 c 0.442797,-0.4428 0.39716,-1.27 -0.07007,-1.27 -0.385522,0 -0.935351,0.76743 -0.935351,1.30552 0,0.37952 0.611994,0.3579 1.005417,-0.0355 z m 5.988817,-3.6447 c 0.758683,-0.28845 0.899998,-0.92334 0.260168,-1.16887 -0.230183,-0.0883 -1.012819,-0.1606 -1.739192,-0.1606 -1.108043,0 -1.306527,0.0735 -1.232788,0.45638 0.08663,0.44984 1.108402,1.11962 1.719624,1.12722 0.172428,0.002 0.618913,-0.11221 0.992188,-0.25413 z m -4.079766,11.96585 c 0.01479,-0.72413 0.627633,-0.99975 2.49969,-1.1242 1.096823,-0.0729 1.994213,-0.0433 1.9942,0.0659 -1.4e-5,0.10914 -0.772922,0.19844 -1.717574,0.19844 -1.431004,0 -1.772684,0.0883 -2.04802,0.52917 -0.328226,0.52557 -0.736055,0.71077 -0.728296,0.33073 z m -2.353053,-5.32672 c -0.552317,-0.35826 -0.101761,-0.82485 0.796517,-0.82485 0.616787,0 0.777535,0.10494 0.709286,0.46302 -0.09886,0.51869 -0.949043,0.72298 -1.505803,0.36183 z m 0.954427,-0.45553 c -0.08792,-0.0879 -0.316122,-0.0973 -0.507118,-0.0209 -0.211067,0.0845 -0.148372,0.14716 0.159852,0.15985 0.278915,0.0115 0.435185,-0.051 0.347266,-0.13896 z"
         id="path972"
         inkscape:connector-curvature="0" />
      <path
         style="fill:#9f9f9f;stroke-width:0.26458335"
         d="m 96.036892,172.85146 c -1.409314,-0.83112 -1.235438,-1.07773 0.195847,-0.27777 l 1.190625,0.66545 v -2.90715 -2.90716 l -0.836655,-0.29166 c -0.460158,-0.16041 -0.768879,-0.35943 -0.686046,-0.44226 0.08284,-0.0828 0.518861,0.0398 0.968947,0.27257 l 0.818337,0.42318 v 3.03591 c 0,3.36912 -0.01624,3.393 -1.651055,2.42889 z m -18.400548,-2.64983 c -3.305481,-1.54099 -4.073876,-2.00322 -4.206149,-2.53024 -0.202718,-0.80769 0.191154,-1.46285 0.946879,-1.57501 0.605757,-0.0899 7.694618,2.59506 7.698329,2.9158 0.0012,0.10115 -1.575451,-0.46292 -3.503602,-1.25349 -1.928151,-0.79057 -3.771351,-1.43888 -4.096001,-1.44068 -0.733733,-0.004 -1.131635,1.18382 -0.56851,1.69723 0.200767,0.18304 2.187247,1.14638 4.414399,2.14075 l 4.049368,1.80795 4.239809,-0.80464 4.239809,-0.80464 2.104808,0.52859 c 1.157644,0.29072 2.051502,0.58189 1.986354,0.64704 -0.06515,0.0651 -0.852763,-0.0697 -1.750251,-0.29959 -2.170734,-0.55612 -2.805022,-0.53278 -6.616139,0.24341 -1.786273,0.3638 -3.61835,0.65054 -4.071281,0.6372 -0.452931,-0.0133 -2.643451,-0.87269 -4.867822,-1.90968 z m 17.499686,-1.37336 c -7.93e-4,-1.30968 0.04393,-1.87882 0.09942,-1.26475 0.05549,0.61407 0.05615,1.68564 0.0016,2.38125 -0.0548,0.69562 -0.100205,0.19319 -0.10101,-1.1165 z m -14.865556,-1.36924 c -0.92112,-0.21808 -1.616894,-0.45437 -1.546164,-0.5251 0.07073,-0.0707 0.586249,-0.002 1.145598,0.15379 1.762818,0.48949 1.918567,0.42327 1.662471,-0.70684 -0.210936,-0.93083 -0.117883,-3.98922 0.128883,-4.23599 0.06175,-0.0618 0.09438,0.88097 0.07251,2.09493 -0.05859,3.25201 0.438451,3.64035 0.623839,0.48741 l 0.147792,-2.51354 0.05065,2.57969 c 0.02786,1.41883 0.1449,2.57969 0.2601,2.57969 0.1152,0 1.811841,-0.54246 3.770313,-1.20547 l 3.560857,-1.20546 1.916338,0.58999 c 1.053986,0.3245 1.865262,0.64107 1.802839,0.7035 -0.06243,0.0624 -0.895274,-0.14666 -1.850774,-0.46463 l -1.737278,-0.57813 -4.03457,1.34468 c -2.219013,0.73958 -4.093986,1.33417 -4.166604,1.32133 -0.07262,-0.0129 -0.885678,-0.20178 -1.8068,-0.41985 z m 3.667186,-1.57492 c -0.01785,-0.6617 0.768076,-0.91601 2.547826,-0.82445 l 1.809753,0.0931 -1.905082,0.0518 c -1.499002,0.0408 -1.962567,0.15052 -2.174767,0.51484 -0.148327,0.25466 -0.273306,0.32877 -0.27773,0.16469 z m -3.535824,-3.71452 c -0.09701,-0.097 -0.176389,-0.62415 -0.176389,-1.17142 0,-1.12299 0.927304,-2.09177 2.002227,-2.09177 0.680484,0 1.043813,-0.74338 0.775898,-1.5875 -0.209062,-0.6587 -0.661458,-0.69489 -0.661458,-0.0529 0,1.00365 -0.487087,1.11125 -5.030499,1.11125 h -4.395499 l -0.760461,-0.79375 c -0.418253,-0.43656 -1.033944,-0.79375 -1.368203,-0.79375 -0.625235,0 -3.236278,1.16884 -4.34352,1.94438 -0.778456,0.54525 -1.035152,0.5513 -1.035152,0.0244 0,-0.22687 0.124299,-0.33567 0.276219,-0.24177 0.15192,0.0939 0.568639,-0.0209 0.926042,-0.25507 0.616507,-0.40395 0.652684,-0.57129 0.705623,-3.26395 l 0.0558,-2.83818 0.08575,2.71198 c 0.04716,1.49159 0.145857,2.71198 0.219324,2.71198 0.07347,0 0.60034,-0.23812 1.170829,-0.52916 1.475841,-0.75292 2.45624,-0.67947 3.531451,0.26458 l 0.904032,0.79375 h 3.603092 c 3.276358,0 3.603091,-0.0427 3.603091,-0.4703 0,-0.25866 0.185346,-0.73491 0.411878,-1.05833 l 0.411878,-0.58804 h -1.715895 c -1.700086,0 -2.547444,-0.3779 -2.547444,-1.1361 0,-0.16751 0.185345,-0.0399 0.411878,0.28348 0.353713,0.505 0.654484,0.58804 2.129806,0.58804 2.679766,0 4.041096,0.98367 3.674053,2.65481 -0.111741,0.50875 -0.02759,0.97428 0.246969,1.36627 0.711607,1.01596 0.405284,2.61157 -0.496352,2.58546 -0.152797,-0.004 -0.06945,-0.12941 0.185209,-0.27773 0.71773,-0.41804 0.590278,-1.69239 -0.234119,-2.34086 -0.871486,-0.68551 -1.278377,-0.68952 -1.948694,-0.0192 -0.587829,0.58783 -0.701525,1.83848 -0.211667,2.32833 0.190045,0.19005 0.207747,0.3175 0.0441,0.3175 -0.150372,0 -0.352778,-0.0794 -0.449792,-0.17639 z m 1.627123,-4.91684 c 0.05518,-0.4796 -0.03951,-0.7276 -0.277813,-0.7276 -0.512502,0 -0.996532,0.54869 -0.996532,1.12965 0,0.84979 1.172883,0.47975 1.274345,-0.40205 z m -0.82618,3.33654 c -0.3202,-0.3202 0.113688,-0.62456 0.890366,-0.62456 0.515287,0 0.778136,0.13406 0.778136,0.39688 0,0.40016 -1.316391,0.57979 -1.668502,0.22768 z m 1.205481,-0.27062 c -0.181901,-0.0734 -0.479558,-0.0734 -0.661459,0 -0.181901,0.0734 -0.03307,0.13345 0.33073,0.13345 0.363802,0 0.51263,-0.0601 0.330729,-0.13345 z M 65.504162,155.7314 c 0,-1.38245 0.04459,-1.94799 0.0991,-1.25677 0.0545,0.69122 0.0545,1.82232 0,2.51354 -0.0545,0.69122 -0.0991,0.12568 -0.0991,-1.25677 z m 17.155452,0.21167 c -0.174625,-0.17463 -0.3175,-0.75149 -0.3175,-1.28191 0,-1.40472 -0.615382,-1.84018 -2.600521,-1.84018 -1.280035,0 -1.747142,0.11433 -2.161979,0.52917 -0.291042,0.29104 -0.529167,0.41686 -0.529167,0.27959 0,-0.59879 1.231962,-1.07334 2.786427,-1.07334 2.071433,0 2.563726,0.36066 2.754011,2.01763 0.125417,1.09211 0.241526,1.30291 0.75798,1.37612 1.059389,0.15018 1.374499,-0.38447 1.374499,-2.33213 0,-1.4042 -0.116745,-1.93242 -0.54837,-2.48115 l -0.54837,-0.69714 h -5.41473 -5.414729 l -2.410485,0.93093 c -1.325766,0.51201 -2.457807,0.88361 -2.515647,0.82577 -0.05784,-0.0578 1.061133,-0.56605 2.486605,-1.12937 l 2.591767,-1.0242 4.539662,-0.0829 c 5.653835,-0.10326 6.584173,0.0975 7.195274,1.55294 0.420867,1.00234 0.479687,1.03823 1.705808,1.04083 1.894284,0.004 3.395128,-0.93683 2.864374,-1.79561 -0.102565,-0.16595 -1.162955,-0.33698 -2.422918,-0.3908 l -2.240533,-0.0957 2.353292,0.0179 c 1.9221,0.0146 2.405536,0.101 2.638409,0.47132 0.2271,0.36113 0.142735,0.60341 -0.414587,1.19062 -0.524796,0.55294 -0.664273,0.91791 -0.557966,1.46001 0.11984,0.61111 0.02471,0.76741 -0.615789,1.0117 -0.754629,0.28781 -1.663277,0.23856 -2.543463,-0.13787 -0.359661,-0.15381 -0.463021,-0.0697 -0.463021,0.37685 0,0.98284 -0.492686,1.59842 -1.279309,1.59842 -0.402338,0 -0.874399,-0.14288 -1.049024,-0.3175 z m 5.363461,-1.8932 c 0.300267,-0.21956 0.425688,-0.52734 0.323457,-0.79375 -0.12941,-0.33724 -0.526001,-0.43514 -1.762781,-0.43514 -1.375409,0 -1.595804,0.0675 -1.595804,0.48874 0,0.92872 2.082672,1.4366 3.035128,0.74015 z M 65.40878,152.85153 c 0,-0.23753 0.795041,-0.64662 0.951879,-0.48978 0.04531,0.0453 -0.150321,0.22772 -0.434745,0.40535 -0.284423,0.17762 -0.517134,0.21562 -0.517134,0.0844 z"
         id="path970"
         inkscape:connector-curvature="0" />
      <path
         style="fill:#929292;stroke-width:0.26458335"
         d="m 95.306697,172.40015 c -0.238466,-0.15411 -0.2711,-0.2581 -0.08176,-0.26053 0.173312,-0.002 0.388699,0.11501 0.478636,0.26053 0.203015,0.32849 0.111422,0.32849 -0.396876,0 z m -12.485026,-0.44532 c 0.190996,-0.0764 0.419199,-0.067 0.507118,0.0209 0.08792,0.0879 -0.06835,0.15046 -0.347265,0.13897 -0.308225,-0.0127 -0.37092,-0.0754 -0.159853,-0.15985 z m 1.30638,-0.25908 c 0.181901,-0.0734 0.479558,-0.0734 0.661459,0 0.181901,0.0734 0.03307,0.13346 -0.330729,0.13346 -0.363803,0 -0.512631,-0.0601 -0.33073,-0.13346 z m 1.604037,-0.27009 c 0.190996,-0.0764 0.419199,-0.067 0.507118,0.0209 0.08792,0.0879 -0.06835,0.15045 -0.347266,0.13896 -0.308224,-0.0127 -0.370919,-0.0754 -0.159852,-0.15985 z m -6.564974,-0.61301 c -0.509323,-0.27884 -0.806979,-0.50699 -0.661459,-0.50699 0.145521,0 0.681303,0.22815 1.190625,0.50699 0.509323,0.27884 0.80698,0.50699 0.661459,0.50699 -0.145521,0 -0.681302,-0.22815 -1.190625,-0.50699 z m 7.606771,0.35394 c 0.181901,-0.0734 0.479557,-0.0734 0.661458,0 0.181901,0.0734 0.03307,0.13345 -0.330729,0.13345 -0.363802,0 -0.51263,-0.06 -0.330729,-0.13345 z m 5.886979,-0.0894 c -0.531741,-0.17029 -0.557686,-0.21336 -0.132292,-0.21961 0.291042,-0.004 0.767292,0.0945 1.058334,0.21961 0.674216,0.28972 -0.02138,0.28972 -0.926042,0 z m -4.426735,-0.18335 c 0.25743,-0.0671 0.614618,-0.0627 0.79375,0.01 0.179131,0.0725 -0.03149,0.12737 -0.468057,0.12197 -0.436562,-0.005 -0.583125,-0.0647 -0.325693,-0.13177 z m 1.466709,-0.26197 c 0.190995,-0.0764 0.419198,-0.067 0.507119,0.0209 0.08792,0.0879 -0.06835,0.15045 -0.347266,0.13896 -0.308226,-0.0127 -0.370919,-0.0754 -0.159853,-0.15985 z m 1.5875,0 c 0.190995,-0.0764 0.419198,-0.067 0.507119,0.0209 0.08792,0.0879 -0.06835,0.15045 -0.347266,0.13896 -0.308226,-0.0127 -0.370919,-0.0754 -0.159853,-0.15985 z M 76.52128,169.62202 c -0.363802,-0.20796 -0.542395,-0.37812 -0.396875,-0.37812 0.145521,0 0.56224,0.17016 0.926042,0.37812 0.363802,0.20797 0.542396,0.37813 0.396875,0.37813 -0.145521,0 -0.562239,-0.17016 -0.926042,-0.37813 z m 4.497917,-0.92604 c -0.218281,-0.14106 -0.277812,-0.25648 -0.132292,-0.25648 0.145521,0 0.443178,0.11542 0.661459,0.25648 0.218281,0.14107 0.277812,0.25648 0.132292,0.25648 -0.145521,0 -0.443178,-0.11541 -0.661459,-0.25648 z m -7.442082,-0.7276 c -0.329108,-0.41964 -0.319749,-0.429 0.09989,-0.0999 0.254661,0.19972 0.46302,0.40808 0.46302,0.46303 0,0.21776 -0.217272,0.0776 -0.562915,-0.36313 z m 8.370791,-0.59963 c 0.0914,-0.14789 0.277024,-0.2004 0.41249,-0.11668 0.366989,0.22682 0.298559,0.38558 -0.166189,0.38558 -0.226869,0 -0.337705,-0.121 -0.246301,-0.2689 z m -0.357766,-1.05402 c 0,-0.3638 0.06005,-0.51263 0.133452,-0.33073 0.0734,0.18191 0.0734,0.47956 0,0.66146 -0.0734,0.1819 -0.133452,0.0331 -0.133452,-0.33073 z m -0.141381,-1.9946 c -0.255318,-0.66535 -0.179999,-0.83702 0.131903,-0.30066 0.154435,0.26558 0.225054,0.53861 0.156932,0.60673 -0.06812,0.0681 -0.198098,-0.0696 -0.288835,-0.30607 z m 0.141381,-1.44498 c 0,-0.3638 0.06005,-0.51263 0.133452,-0.33073 0.0734,0.1819 0.0734,0.47956 0,0.66146 -0.0734,0.1819 -0.133452,0.0331 -0.133452,-0.33073 z m -1.047193,-0.84667 c -0.730734,-0.73073 -0.0708,-2.8575 0.886684,-2.8575 0.130062,0 -0.02814,0.18535 -0.351562,0.41188 -0.65565,0.45924 -0.815142,1.90102 -0.270539,2.44562 0.174626,0.17463 0.257969,0.3175 0.185209,0.3175 -0.07276,0 -0.275167,-0.14287 -0.449792,-0.3175 z m 0.761722,-1.6183 c -0.01605,-0.36923 0.142988,-0.4612 0.686311,-0.39687 0.682322,0.0808 1.237033,0.74517 0.622151,0.74517 -0.166236,0 -0.228662,-0.11906 -0.138725,-0.26458 0.08994,-0.14552 -0.07171,-0.26458 -0.359212,-0.26458 -0.287503,0 -0.582786,0.14882 -0.656185,0.33073 -0.07714,0.19118 -0.142266,0.12794 -0.15434,-0.14987 z m 1.713124,-0.85173 c -0.441436,-0.33385 -0.460951,-0.43652 -0.136702,-0.71919 0.208035,-0.18135 0.290673,-0.22033 0.18364,-0.0866 -0.107033,0.13371 0.0027,0.46113 0.243854,0.7276 0.525076,0.5802 0.412862,0.61038 -0.290792,0.0782 z M 65.40878,158.8981 c 0,-0.14096 0.178594,-0.25628 0.396875,-0.25628 0.218282,0 0.396875,0.0468 0.396875,0.10398 0,0.0572 -0.178593,0.17252 -0.396875,0.25628 -0.218281,0.0838 -0.396875,0.037 -0.396875,-0.10398 z m 1.058334,-0.36996 c 0,-0.0728 0.238125,-0.25973 0.529166,-0.41549 0.291042,-0.15576 0.529167,-0.22367 0.529167,-0.15091 0,0.0728 -0.238125,0.25973 -0.529167,0.41549 -0.291041,0.15576 -0.529166,0.22367 -0.529166,0.15091 z m 15.279687,-0.63598 c 0.254662,-0.26678 0.509753,-0.44826 0.56687,-0.40326 0.156298,0.12311 -0.530854,0.88833 -0.797704,0.88833 -0.127703,0 -0.02383,-0.21828 0.230834,-0.48507 z m -1.231197,-0.30868 c -0.0044,-0.21828 0.215738,-0.66504 0.489157,-0.9928 0.546865,-0.65555 1.342638,-0.55904 1.329307,0.16122 -0.007,0.37727 -0.04476,0.3716 -0.285941,-0.043 -0.229687,-0.39483 -0.348173,-0.41937 -0.683009,-0.14148 -0.222813,0.18492 -0.503312,0.57847 -0.62333,0.87457 -0.135261,0.33369 -0.221245,0.38748 -0.226184,0.14147 z m 1.947922,-1.86968 c -0.09592,-0.15521 -0.117656,-0.33893 -0.0483,-0.40829 0.06935,-0.0693 0.196603,0.0576 0.282774,0.28219 0.178907,0.46622 0.02642,0.54823 -0.234473,0.1261 z m 2.259838,-1.8501 c 0,-0.15411 0.119062,-0.20661 0.264583,-0.11668 0.145521,0.0899 0.264584,0.21603 0.264584,0.2802 0,0.0642 -0.119063,0.11668 -0.264584,0.11668 -0.145521,0 -0.264583,-0.12609 -0.264583,-0.2802 z m 0,-1.32291 c 0,-0.15411 0.119062,-0.20662 0.264583,-0.11668 0.145521,0.0899 0.264584,0.21602 0.264584,0.2802 0,0.0642 -0.119063,0.11667 -0.264584,0.11667 -0.145521,0 -0.264583,-0.12609 -0.264583,-0.28019 z m 2.910417,0.17621 c 0,-0.0572 0.178593,-0.17252 0.396875,-0.25628 0.218281,-0.0838 0.396875,-0.037 0.396875,0.10398 0,0.14096 -0.178594,0.25628 -0.396875,0.25628 -0.218282,0 -0.396875,-0.0468 -0.396875,-0.10398 z m 1.058333,-0.52508 c 0,-0.0549 0.208359,-0.2633 0.463021,-0.46302 0.419645,-0.32911 0.429003,-0.31975 0.0999,0.0999 -0.345645,0.44072 -0.562917,0.58088 -0.562917,0.36312 z m -4.52248,-1.12033 c -0.194667,-0.23455 -0.596199,-0.52466 -0.892293,-0.64468 -0.37934,-0.15376 -0.415213,-0.22317 -0.121452,-0.23499 0.229295,-0.009 0.696534,0.28089 1.038308,0.64469 0.341774,0.3638 0.555701,0.66146 0.475393,0.66146 -0.08031,0 -0.305289,-0.19192 -0.499956,-0.42648 z m 2.93498,-0.63186 -2.248958,-0.16599 2.167197,-0.0493 c 1.215786,-0.0276 2.238986,0.0669 2.330719,0.21529 0.08994,0.14552 0.12673,0.2424 0.08176,0.21529 -0.04497,-0.0271 -1.093793,-0.12399 -2.33072,-0.21529 z"
         id="path968"
         inkscape:connector-curvature="0" />
    </g>
  </g>
</svg>
